G04 MADE WITH FRITZING*
G04 WWW.FRITZING.ORG*
G04 DOUBLE SIDED*
G04 HOLES PLATED*
G04 CONTOUR ON CENTER OF CONTOUR VECTOR*
%ASAXBY*%
%FSLAX23Y23*%
%MOIN*%
%OFA0B0*%
%SFA1.0B1.0*%
%ADD10C,0.075000*%
%ADD11C,0.079370*%
%ADD12C,0.039370*%
%ADD13C,0.083307*%
%ADD14C,0.140000*%
%ADD15C,0.024000*%
%ADD16C,0.008000*%
%ADD17C,0.016000*%
%ADD18C,0.012000*%
%LNCOPPER0*%
G90*
G70*
G54D10*
X107Y1876D03*
X854Y785D03*
X2273Y1888D03*
G54D11*
X2378Y1907D03*
X2378Y1807D03*
X2378Y1207D03*
X2378Y1107D03*
G54D12*
X1758Y67D03*
X868Y127D03*
X708Y1917D03*
X438Y1917D03*
X378Y1457D03*
X2378Y907D03*
X1608Y327D03*
X1628Y217D03*
X1848Y417D03*
X1808Y317D03*
G54D13*
X328Y2017D03*
X428Y2017D03*
X528Y2017D03*
X628Y2017D03*
X728Y2017D03*
X828Y2017D03*
X928Y2017D03*
X1028Y2017D03*
X1128Y2017D03*
X1228Y2017D03*
X1328Y2017D03*
X1428Y2017D03*
X1528Y2017D03*
X1628Y2017D03*
X1728Y2017D03*
X1828Y2017D03*
X1928Y2017D03*
X2028Y2017D03*
X2128Y2017D03*
X2228Y2017D03*
X328Y2017D03*
X428Y2017D03*
X528Y2017D03*
X628Y2017D03*
X728Y2017D03*
X828Y2017D03*
X928Y2017D03*
X1028Y2017D03*
X1128Y2017D03*
X1228Y2017D03*
X1328Y2017D03*
X1428Y2017D03*
X1528Y2017D03*
X1628Y2017D03*
X1728Y2017D03*
X1828Y2017D03*
X1928Y2017D03*
X2028Y2017D03*
X2128Y2017D03*
X2228Y2017D03*
X2228Y2117D03*
X2128Y2117D03*
X2028Y2117D03*
X1928Y2117D03*
X1828Y2117D03*
X1728Y2117D03*
X1628Y2117D03*
X1528Y2117D03*
X1428Y2117D03*
X1328Y2117D03*
X1228Y2117D03*
X1128Y2117D03*
X1028Y2117D03*
X928Y2117D03*
X828Y2117D03*
X728Y2117D03*
X628Y2117D03*
X528Y2117D03*
X428Y2117D03*
X328Y2117D03*
G54D12*
X788Y1415D03*
X749Y1461D03*
X898Y1237D03*
X818Y1183D03*
X707Y1187D03*
X448Y987D03*
X769Y911D03*
X828Y1067D03*
X767Y987D03*
X918Y980D03*
X968Y980D03*
X1337Y707D03*
X1348Y807D03*
X1109Y971D03*
X843Y989D03*
X769Y811D03*
X899Y451D03*
X1429Y311D03*
X1258Y127D03*
X808Y707D03*
X808Y537D03*
X918Y1287D03*
X388Y347D03*
X808Y637D03*
X1027Y607D03*
X1718Y912D03*
X1029Y541D03*
X969Y451D03*
X1548Y577D03*
X2024Y717D03*
X1719Y671D03*
X1388Y667D03*
X1528Y667D03*
X1018Y1377D03*
X978Y1340D03*
X845Y1527D03*
X1068Y1357D03*
X808Y1497D03*
X778Y1569D03*
X1018Y1487D03*
X1018Y1437D03*
X2038Y767D03*
X2058Y817D03*
X2048Y377D03*
X2028Y427D03*
X1849Y841D03*
X1849Y791D03*
X1818Y614D03*
X2069Y621D03*
X2148Y407D03*
X1679Y841D03*
X1627Y527D03*
X1584Y149D03*
X1429Y371D03*
G54D11*
X259Y1047D03*
X259Y947D03*
X259Y847D03*
X259Y747D03*
X259Y647D03*
X259Y547D03*
X259Y447D03*
X259Y347D03*
X259Y247D03*
X259Y147D03*
X259Y1907D03*
X259Y1807D03*
X259Y1707D03*
X259Y1607D03*
X259Y1507D03*
X259Y1407D03*
X259Y1307D03*
X259Y1207D03*
X2159Y1207D03*
X2159Y1107D03*
X2159Y1007D03*
X2159Y907D03*
X2159Y807D03*
X2159Y707D03*
X2159Y607D03*
X2159Y507D03*
X2159Y1907D03*
X2159Y1807D03*
X2159Y1707D03*
X2159Y1607D03*
X2159Y1507D03*
X2159Y1407D03*
G54D14*
X498Y547D03*
X498Y307D03*
X688Y427D03*
G54D12*
X578Y1057D03*
X1028Y1047D03*
X1028Y1187D03*
X968Y1287D03*
X1348Y867D03*
X2338Y397D03*
X1808Y257D03*
X2248Y397D03*
G54D15*
X497Y378D02*
X497Y357D01*
D02*
X538Y427D02*
X497Y378D01*
D02*
X638Y427D02*
X538Y427D01*
G54D16*
D02*
X1698Y837D02*
X1687Y839D01*
D02*
X1737Y837D02*
X1698Y837D01*
D02*
X1388Y387D02*
X1388Y507D01*
D02*
X1537Y567D02*
X1542Y572D01*
D02*
X1437Y567D02*
X1537Y567D01*
D02*
X1388Y507D02*
X1437Y567D01*
D02*
X1358Y357D02*
X1388Y387D01*
D02*
X898Y397D02*
X938Y357D01*
D02*
X938Y357D02*
X1358Y357D01*
D02*
X899Y443D02*
X898Y397D01*
D02*
X1814Y322D02*
X1847Y347D01*
D02*
X1847Y347D02*
X1848Y409D01*
D02*
X2298Y127D02*
X2378Y217D01*
D02*
X2378Y217D02*
X2378Y767D01*
D02*
X2378Y767D02*
X2347Y808D01*
D02*
X1598Y127D02*
X2298Y127D01*
D02*
X1588Y142D02*
X1598Y127D01*
D02*
X2189Y811D02*
X2178Y810D01*
D02*
X2187Y807D02*
X2189Y811D01*
D02*
X2347Y808D02*
X2187Y807D01*
D02*
X1849Y431D02*
X1848Y425D01*
D02*
X1848Y587D02*
X1849Y431D01*
D02*
X1823Y608D02*
X1848Y587D01*
G54D17*
D02*
X2027Y707D02*
X1748Y707D01*
D02*
X1748Y707D02*
X1724Y677D01*
D02*
X2027Y710D02*
X2027Y707D01*
G54D16*
D02*
X1617Y327D02*
X1617Y227D01*
D02*
X1617Y227D02*
X1624Y229D01*
D02*
X1624Y229D02*
X1625Y225D01*
D02*
X1615Y327D02*
X1617Y327D01*
D02*
X877Y1257D02*
X892Y1243D01*
D02*
X879Y1391D02*
X877Y1257D01*
D02*
X858Y1417D02*
X879Y1391D01*
D02*
X807Y1417D02*
X858Y1417D01*
D02*
X795Y1416D02*
X807Y1417D01*
D02*
X818Y1338D02*
X818Y1191D01*
D02*
X749Y1381D02*
X768Y1357D01*
D02*
X798Y1357D02*
X818Y1338D01*
D02*
X768Y1357D02*
X798Y1357D01*
D02*
X749Y1453D02*
X749Y1381D01*
D02*
X718Y1177D02*
X808Y1177D01*
D02*
X808Y1177D02*
X811Y1179D01*
D02*
X718Y1187D02*
X718Y1177D01*
D02*
X715Y1187D02*
X718Y1187D01*
D02*
X318Y307D02*
X318Y861D01*
D02*
X318Y861D02*
X442Y982D01*
D02*
X272Y261D02*
X318Y307D01*
D02*
X348Y717D02*
X738Y1127D01*
D02*
X347Y247D02*
X348Y717D01*
D02*
X272Y162D02*
X347Y247D01*
D02*
X748Y907D02*
X761Y910D01*
D02*
X688Y907D02*
X748Y907D01*
D02*
X658Y938D02*
X688Y907D01*
D02*
X659Y1011D02*
X658Y938D01*
D02*
X787Y1068D02*
X768Y1048D01*
D02*
X768Y1048D02*
X767Y995D01*
D02*
X820Y1067D02*
X787Y1068D01*
D02*
X918Y747D02*
X948Y708D01*
D02*
X948Y708D02*
X1330Y707D01*
D02*
X918Y972D02*
X918Y747D01*
D02*
X998Y747D02*
X1338Y747D01*
D02*
X1338Y747D02*
X1346Y800D01*
D02*
X968Y787D02*
X998Y747D01*
D02*
X968Y972D02*
X968Y787D01*
D02*
X908Y1157D02*
X908Y1228D01*
D02*
X908Y1228D02*
X903Y1232D01*
D02*
X878Y1127D02*
X908Y1157D01*
D02*
X738Y1127D02*
X878Y1127D01*
D02*
X768Y817D02*
X768Y819D01*
D02*
X848Y857D02*
X768Y817D01*
D02*
X847Y977D02*
X848Y857D01*
D02*
X846Y981D02*
X847Y977D01*
D02*
X708Y537D02*
X708Y827D01*
D02*
X708Y827D02*
X808Y877D01*
D02*
X808Y877D02*
X807Y947D01*
D02*
X807Y947D02*
X773Y981D01*
D02*
X928Y328D02*
X708Y537D01*
D02*
X887Y457D02*
X892Y455D01*
D02*
X827Y457D02*
X887Y457D01*
D02*
X728Y557D02*
X827Y457D01*
D02*
X728Y787D02*
X728Y557D01*
D02*
X762Y807D02*
X728Y787D01*
D02*
X1418Y328D02*
X928Y328D01*
D02*
X1425Y318D02*
X1418Y328D01*
G54D17*
D02*
X1467Y127D02*
X1265Y127D01*
D02*
X1497Y337D02*
X1497Y157D01*
D02*
X1497Y157D02*
X1467Y127D01*
D02*
X1467Y367D02*
X1497Y337D01*
D02*
X1437Y370D02*
X1467Y367D01*
D02*
X758Y677D02*
X801Y703D01*
D02*
X757Y577D02*
X758Y677D01*
D02*
X801Y542D02*
X757Y577D01*
G54D16*
D02*
X938Y1158D02*
X888Y1108D01*
D02*
X922Y1281D02*
X938Y1257D01*
D02*
X748Y1108D02*
X659Y1011D01*
D02*
X888Y1108D02*
X748Y1108D01*
D02*
X938Y1257D02*
X938Y1158D01*
D02*
X388Y355D02*
X388Y727D01*
D02*
X388Y727D02*
X659Y1011D01*
G54D17*
D02*
X867Y607D02*
X815Y634D01*
D02*
X1020Y607D02*
X867Y607D01*
G54D16*
D02*
X2098Y987D02*
X2068Y947D01*
D02*
X2098Y1177D02*
X2098Y987D01*
D02*
X1748Y947D02*
X1723Y918D01*
D02*
X2068Y947D02*
X1748Y947D01*
D02*
X2141Y1198D02*
X2098Y1177D01*
D02*
X978Y447D02*
X976Y448D01*
D02*
X1007Y447D02*
X978Y447D01*
D02*
X1028Y467D02*
X1007Y447D01*
D02*
X1029Y533D02*
X1028Y467D01*
G54D17*
D02*
X1395Y667D02*
X1520Y667D01*
G54D16*
D02*
X2028Y987D02*
X1179Y991D01*
D02*
X1149Y1021D02*
X1148Y1237D01*
D02*
X1148Y1237D02*
X1018Y1337D01*
D02*
X1018Y1337D02*
X1018Y1369D01*
D02*
X1179Y991D02*
X1149Y1021D01*
D02*
X2058Y1027D02*
X2028Y987D01*
D02*
X2058Y1448D02*
X2058Y1027D01*
D02*
X2142Y1497D02*
X2058Y1448D01*
D02*
X1128Y1227D02*
X984Y1336D01*
D02*
X1129Y1011D02*
X1128Y1227D01*
D02*
X1169Y971D02*
X1129Y1011D01*
D02*
X2047Y967D02*
X1169Y971D01*
D02*
X2078Y1007D02*
X2047Y967D01*
D02*
X2078Y1367D02*
X2078Y1007D01*
D02*
X2141Y1398D02*
X2078Y1367D01*
D02*
X1038Y1527D02*
X1068Y1497D01*
D02*
X1068Y1497D02*
X1068Y1365D01*
D02*
X853Y1527D02*
X1038Y1527D01*
D02*
X1008Y1477D02*
X828Y1477D01*
D02*
X828Y1477D02*
X813Y1492D01*
D02*
X1012Y1482D02*
X1008Y1477D01*
D02*
X798Y1447D02*
X767Y1497D01*
D02*
X997Y1447D02*
X798Y1447D01*
D02*
X1011Y1441D02*
X997Y1447D01*
D02*
X767Y1557D02*
X773Y1563D01*
D02*
X767Y1497D02*
X767Y1557D01*
D02*
X2067Y557D02*
X2027Y597D01*
D02*
X2027Y597D02*
X2028Y637D01*
D02*
X2028Y637D02*
X2078Y677D01*
D02*
X2078Y677D02*
X2078Y807D01*
D02*
X2078Y807D02*
X2065Y814D01*
D02*
X2068Y387D02*
X2067Y557D01*
D02*
X2055Y381D02*
X2068Y387D01*
D02*
X2048Y427D02*
X2048Y547D01*
D02*
X2048Y547D02*
X2007Y587D01*
D02*
X2007Y587D02*
X2007Y647D01*
D02*
X2007Y647D02*
X2058Y687D01*
D02*
X2058Y687D02*
X2058Y748D01*
D02*
X2058Y748D02*
X2043Y762D01*
D02*
X2035Y427D02*
X2048Y427D01*
D02*
X2098Y727D02*
X2098Y827D01*
D02*
X1868Y858D02*
X1855Y846D01*
D02*
X2067Y858D02*
X1868Y858D01*
D02*
X2098Y827D02*
X2067Y858D01*
D02*
X2140Y713D02*
X2098Y727D01*
D02*
X1778Y907D02*
X2139Y907D01*
D02*
X1737Y837D02*
X1778Y907D01*
D02*
X1857Y797D02*
X1855Y796D01*
D02*
X1817Y797D02*
X1857Y797D01*
D02*
X1817Y877D02*
X1797Y857D01*
D02*
X1797Y817D02*
X1817Y797D01*
D02*
X1797Y857D02*
X1797Y817D01*
D02*
X2107Y877D02*
X1817Y877D01*
D02*
X2147Y823D02*
X2107Y877D01*
G54D17*
D02*
X2140Y407D02*
X2127Y407D01*
D02*
X2098Y607D02*
X2076Y618D01*
D02*
X2098Y437D02*
X2098Y607D01*
D02*
X2127Y407D02*
X2098Y437D01*
G54D16*
D02*
X1657Y837D02*
X1671Y840D01*
D02*
X1607Y837D02*
X1657Y837D01*
D02*
X1578Y797D02*
X1607Y837D01*
D02*
X1578Y617D02*
X1578Y797D01*
D02*
X1552Y583D02*
X1578Y617D01*
G54D17*
D02*
X1635Y527D02*
X1688Y527D01*
D02*
X1717Y657D02*
X1718Y663D01*
D02*
X1717Y567D02*
X1717Y657D01*
D02*
X1688Y527D02*
X1717Y567D01*
D02*
X1608Y531D02*
X1620Y529D01*
D02*
X1459Y531D02*
X1608Y531D01*
D02*
X1429Y491D02*
X1459Y531D01*
D02*
X1429Y379D02*
X1429Y491D01*
G54D16*
D02*
X888Y1237D02*
X888Y1168D01*
D02*
X868Y1147D02*
X668Y1147D01*
D02*
X888Y1168D02*
X868Y1147D01*
D02*
X668Y1147D02*
X583Y1063D01*
D02*
X890Y1237D02*
X888Y1237D01*
D02*
X1103Y976D02*
X1034Y1042D01*
G54D18*
D02*
X1028Y1238D02*
X1028Y1195D01*
D02*
X974Y1282D02*
X1028Y1238D01*
G54D17*
D02*
X978Y1027D02*
X1028Y998D01*
D02*
X1028Y998D02*
X1028Y907D01*
D02*
X1078Y867D02*
X1340Y867D01*
D02*
X1028Y907D02*
X1078Y867D01*
D02*
X1028Y1179D02*
X1028Y1097D01*
D02*
X978Y1077D02*
X978Y1027D01*
D02*
X1028Y1097D02*
X978Y1077D01*
G54D16*
D02*
X2308Y258D02*
X1816Y257D01*
D02*
X2338Y287D02*
X2308Y258D01*
D02*
X2338Y389D02*
X2338Y287D01*
D02*
X1808Y298D02*
X1817Y317D01*
D02*
X1817Y317D02*
X1816Y317D01*
D02*
X2218Y298D02*
X1808Y298D01*
D02*
X2247Y327D02*
X2218Y298D01*
D02*
X2248Y389D02*
X2247Y327D01*
G36*
X870Y1513D02*
X870Y1491D01*
X988Y1491D01*
X988Y1513D01*
X870Y1513D01*
G37*
D02*
G36*
X2110Y1463D02*
X2110Y1461D01*
X2106Y1461D01*
X2106Y1459D01*
X2102Y1459D01*
X2102Y1457D01*
X2100Y1457D01*
X2100Y1455D01*
X2096Y1455D01*
X2096Y1453D01*
X2092Y1453D01*
X2092Y1451D01*
X2090Y1451D01*
X2090Y1449D01*
X2086Y1449D01*
X2086Y1447D01*
X2082Y1447D01*
X2082Y1445D01*
X2080Y1445D01*
X2080Y1443D01*
X2076Y1443D01*
X2076Y1441D01*
X2072Y1441D01*
X2072Y1389D01*
X2092Y1389D01*
X2092Y1391D01*
X2096Y1391D01*
X2096Y1393D01*
X2100Y1393D01*
X2100Y1395D01*
X2104Y1395D01*
X2104Y1397D01*
X2108Y1397D01*
X2108Y1409D01*
X2110Y1409D01*
X2110Y1421D01*
X2112Y1421D01*
X2112Y1427D01*
X2114Y1427D01*
X2114Y1431D01*
X2116Y1431D01*
X2116Y1435D01*
X2118Y1435D01*
X2118Y1437D01*
X2120Y1437D01*
X2120Y1439D01*
X2122Y1439D01*
X2122Y1443D01*
X2126Y1443D01*
X2126Y1445D01*
X2128Y1445D01*
X2128Y1447D01*
X2130Y1447D01*
X2130Y1463D01*
X2110Y1463D01*
G37*
D02*
G36*
X878Y1433D02*
X878Y1413D01*
X880Y1413D01*
X880Y1411D01*
X882Y1411D01*
X882Y1409D01*
X884Y1409D01*
X884Y1407D01*
X886Y1407D01*
X886Y1403D01*
X888Y1403D01*
X888Y1401D01*
X890Y1401D01*
X890Y1399D01*
X892Y1399D01*
X892Y1393D01*
X894Y1393D01*
X894Y1387D01*
X892Y1387D01*
X892Y1317D01*
X926Y1317D01*
X926Y1315D01*
X930Y1315D01*
X930Y1313D01*
X950Y1313D01*
X950Y1333D01*
X948Y1333D01*
X948Y1349D01*
X950Y1349D01*
X950Y1353D01*
X952Y1353D01*
X952Y1357D01*
X954Y1357D01*
X954Y1359D01*
X956Y1359D01*
X956Y1361D01*
X958Y1361D01*
X958Y1363D01*
X960Y1363D01*
X960Y1365D01*
X962Y1365D01*
X962Y1367D01*
X966Y1367D01*
X966Y1369D01*
X976Y1369D01*
X976Y1371D01*
X988Y1371D01*
X988Y1385D01*
X990Y1385D01*
X990Y1391D01*
X992Y1391D01*
X992Y1393D01*
X994Y1393D01*
X994Y1397D01*
X996Y1397D01*
X996Y1419D01*
X994Y1419D01*
X994Y1421D01*
X992Y1421D01*
X992Y1425D01*
X990Y1425D01*
X990Y1431D01*
X988Y1431D01*
X988Y1433D01*
X878Y1433D01*
G37*
D02*
G36*
X814Y1403D02*
X814Y1401D01*
X812Y1401D01*
X812Y1397D01*
X810Y1397D01*
X810Y1395D01*
X808Y1395D01*
X808Y1393D01*
X806Y1393D01*
X806Y1391D01*
X802Y1391D01*
X802Y1371D01*
X804Y1371D01*
X804Y1369D01*
X808Y1369D01*
X808Y1367D01*
X810Y1367D01*
X810Y1365D01*
X812Y1365D01*
X812Y1363D01*
X814Y1363D01*
X814Y1361D01*
X816Y1361D01*
X816Y1359D01*
X818Y1359D01*
X818Y1357D01*
X820Y1357D01*
X820Y1355D01*
X822Y1355D01*
X822Y1353D01*
X824Y1353D01*
X824Y1351D01*
X826Y1351D01*
X826Y1349D01*
X828Y1349D01*
X828Y1347D01*
X830Y1347D01*
X830Y1343D01*
X832Y1343D01*
X832Y1209D01*
X834Y1209D01*
X834Y1207D01*
X836Y1207D01*
X836Y1205D01*
X840Y1205D01*
X840Y1201D01*
X842Y1201D01*
X842Y1199D01*
X844Y1199D01*
X844Y1195D01*
X846Y1195D01*
X846Y1187D01*
X848Y1187D01*
X848Y1167D01*
X868Y1167D01*
X868Y1169D01*
X870Y1169D01*
X870Y1171D01*
X872Y1171D01*
X872Y1173D01*
X874Y1173D01*
X874Y1221D01*
X872Y1221D01*
X872Y1225D01*
X870Y1225D01*
X870Y1231D01*
X868Y1231D01*
X868Y1247D01*
X866Y1247D01*
X866Y1251D01*
X864Y1251D01*
X864Y1389D01*
X862Y1389D01*
X862Y1391D01*
X860Y1391D01*
X860Y1393D01*
X858Y1393D01*
X858Y1397D01*
X856Y1397D01*
X856Y1399D01*
X854Y1399D01*
X854Y1401D01*
X852Y1401D01*
X852Y1403D01*
X814Y1403D01*
G37*
D02*
G36*
X130Y2165D02*
X130Y2163D01*
X122Y2163D01*
X122Y2161D01*
X116Y2161D01*
X116Y2159D01*
X110Y2159D01*
X110Y2157D01*
X106Y2157D01*
X106Y2155D01*
X102Y2155D01*
X102Y2153D01*
X98Y2153D01*
X98Y2151D01*
X96Y2151D01*
X96Y2149D01*
X92Y2149D01*
X92Y2147D01*
X88Y2147D01*
X88Y2145D01*
X86Y2145D01*
X86Y2143D01*
X84Y2143D01*
X84Y2141D01*
X80Y2141D01*
X80Y2139D01*
X78Y2139D01*
X78Y2137D01*
X76Y2137D01*
X76Y2135D01*
X74Y2135D01*
X74Y2133D01*
X72Y2133D01*
X72Y2131D01*
X144Y2131D01*
X144Y2129D01*
X154Y2129D01*
X154Y2127D01*
X160Y2127D01*
X160Y2125D01*
X166Y2125D01*
X166Y2123D01*
X170Y2123D01*
X170Y2121D01*
X172Y2121D01*
X172Y2119D01*
X176Y2119D01*
X176Y2117D01*
X178Y2117D01*
X178Y2115D01*
X180Y2115D01*
X180Y2113D01*
X182Y2113D01*
X182Y2111D01*
X184Y2111D01*
X184Y2109D01*
X186Y2109D01*
X186Y2107D01*
X188Y2107D01*
X188Y2105D01*
X190Y2105D01*
X190Y2103D01*
X192Y2103D01*
X192Y2099D01*
X194Y2099D01*
X194Y2095D01*
X196Y2095D01*
X196Y2091D01*
X198Y2091D01*
X198Y2085D01*
X200Y2085D01*
X200Y2075D01*
X202Y2075D01*
X202Y2059D01*
X200Y2059D01*
X200Y2051D01*
X198Y2051D01*
X198Y2045D01*
X196Y2045D01*
X196Y2039D01*
X194Y2039D01*
X194Y2035D01*
X192Y2035D01*
X192Y2033D01*
X190Y2033D01*
X190Y2029D01*
X188Y2029D01*
X188Y2027D01*
X186Y2027D01*
X186Y2025D01*
X184Y2025D01*
X184Y2023D01*
X182Y2023D01*
X182Y2021D01*
X180Y2021D01*
X180Y2019D01*
X178Y2019D01*
X178Y2017D01*
X176Y2017D01*
X176Y2015D01*
X172Y2015D01*
X172Y2013D01*
X168Y2013D01*
X168Y2011D01*
X164Y2011D01*
X164Y2009D01*
X160Y2009D01*
X160Y2007D01*
X154Y2007D01*
X154Y2005D01*
X278Y2005D01*
X278Y2009D01*
X276Y2009D01*
X276Y2025D01*
X278Y2025D01*
X278Y2033D01*
X280Y2033D01*
X280Y2039D01*
X282Y2039D01*
X282Y2043D01*
X284Y2043D01*
X284Y2045D01*
X286Y2045D01*
X286Y2049D01*
X288Y2049D01*
X288Y2051D01*
X290Y2051D01*
X290Y2053D01*
X292Y2053D01*
X292Y2055D01*
X294Y2055D01*
X294Y2057D01*
X296Y2057D01*
X296Y2077D01*
X294Y2077D01*
X294Y2079D01*
X292Y2079D01*
X292Y2081D01*
X290Y2081D01*
X290Y2083D01*
X288Y2083D01*
X288Y2085D01*
X286Y2085D01*
X286Y2089D01*
X284Y2089D01*
X284Y2091D01*
X282Y2091D01*
X282Y2095D01*
X280Y2095D01*
X280Y2101D01*
X278Y2101D01*
X278Y2109D01*
X276Y2109D01*
X276Y2125D01*
X278Y2125D01*
X278Y2133D01*
X280Y2133D01*
X280Y2139D01*
X282Y2139D01*
X282Y2143D01*
X284Y2143D01*
X284Y2145D01*
X286Y2145D01*
X286Y2165D01*
X130Y2165D01*
G37*
D02*
G36*
X70Y2131D02*
X70Y2129D01*
X68Y2129D01*
X68Y2127D01*
X66Y2127D01*
X66Y2125D01*
X64Y2125D01*
X64Y2121D01*
X62Y2121D01*
X62Y2119D01*
X60Y2119D01*
X60Y2117D01*
X58Y2117D01*
X58Y2113D01*
X56Y2113D01*
X56Y2109D01*
X54Y2109D01*
X54Y2107D01*
X52Y2107D01*
X52Y2103D01*
X50Y2103D01*
X50Y2099D01*
X48Y2099D01*
X48Y2095D01*
X46Y2095D01*
X46Y2089D01*
X44Y2089D01*
X44Y2083D01*
X42Y2083D01*
X42Y2075D01*
X40Y2075D01*
X40Y2005D01*
X124Y2005D01*
X124Y2007D01*
X118Y2007D01*
X118Y2009D01*
X112Y2009D01*
X112Y2011D01*
X108Y2011D01*
X108Y2013D01*
X104Y2013D01*
X104Y2015D01*
X102Y2015D01*
X102Y2017D01*
X100Y2017D01*
X100Y2019D01*
X96Y2019D01*
X96Y2021D01*
X94Y2021D01*
X94Y2023D01*
X92Y2023D01*
X92Y2025D01*
X90Y2025D01*
X90Y2029D01*
X88Y2029D01*
X88Y2031D01*
X86Y2031D01*
X86Y2033D01*
X84Y2033D01*
X84Y2037D01*
X82Y2037D01*
X82Y2041D01*
X80Y2041D01*
X80Y2047D01*
X78Y2047D01*
X78Y2053D01*
X76Y2053D01*
X76Y2081D01*
X78Y2081D01*
X78Y2087D01*
X80Y2087D01*
X80Y2093D01*
X82Y2093D01*
X82Y2097D01*
X84Y2097D01*
X84Y2101D01*
X86Y2101D01*
X86Y2103D01*
X88Y2103D01*
X88Y2107D01*
X90Y2107D01*
X90Y2109D01*
X92Y2109D01*
X92Y2111D01*
X94Y2111D01*
X94Y2113D01*
X96Y2113D01*
X96Y2115D01*
X98Y2115D01*
X98Y2117D01*
X102Y2117D01*
X102Y2119D01*
X104Y2119D01*
X104Y2121D01*
X108Y2121D01*
X108Y2123D01*
X112Y2123D01*
X112Y2125D01*
X116Y2125D01*
X116Y2127D01*
X122Y2127D01*
X122Y2129D01*
X132Y2129D01*
X132Y2131D01*
X70Y2131D01*
G37*
D02*
G36*
X40Y2005D02*
X40Y2003D01*
X278Y2003D01*
X278Y2005D01*
X40Y2005D01*
G37*
D02*
G36*
X40Y2005D02*
X40Y2003D01*
X278Y2003D01*
X278Y2005D01*
X40Y2005D01*
G37*
D02*
G36*
X40Y2003D02*
X40Y1965D01*
X322Y1965D01*
X322Y1967D01*
X312Y1967D01*
X312Y1969D01*
X306Y1969D01*
X306Y1971D01*
X304Y1971D01*
X304Y1973D01*
X300Y1973D01*
X300Y1975D01*
X296Y1975D01*
X296Y1977D01*
X294Y1977D01*
X294Y1979D01*
X292Y1979D01*
X292Y1981D01*
X290Y1981D01*
X290Y1983D01*
X288Y1983D01*
X288Y1985D01*
X286Y1985D01*
X286Y1989D01*
X284Y1989D01*
X284Y1991D01*
X282Y1991D01*
X282Y1995D01*
X280Y1995D01*
X280Y2001D01*
X278Y2001D01*
X278Y2003D01*
X40Y2003D01*
G37*
D02*
G36*
X368Y1985D02*
X368Y1983D01*
X366Y1983D01*
X366Y1981D01*
X364Y1981D01*
X364Y1979D01*
X362Y1979D01*
X362Y1977D01*
X358Y1977D01*
X358Y1975D01*
X356Y1975D01*
X356Y1973D01*
X352Y1973D01*
X352Y1971D01*
X348Y1971D01*
X348Y1969D01*
X344Y1969D01*
X344Y1967D01*
X334Y1967D01*
X334Y1965D01*
X422Y1965D01*
X422Y1967D01*
X412Y1967D01*
X412Y1969D01*
X406Y1969D01*
X406Y1971D01*
X404Y1971D01*
X404Y1973D01*
X400Y1973D01*
X400Y1975D01*
X396Y1975D01*
X396Y1977D01*
X394Y1977D01*
X394Y1979D01*
X392Y1979D01*
X392Y1981D01*
X390Y1981D01*
X390Y1983D01*
X388Y1983D01*
X388Y1985D01*
X368Y1985D01*
G37*
D02*
G36*
X468Y1985D02*
X468Y1983D01*
X466Y1983D01*
X466Y1981D01*
X464Y1981D01*
X464Y1979D01*
X462Y1979D01*
X462Y1977D01*
X458Y1977D01*
X458Y1975D01*
X456Y1975D01*
X456Y1973D01*
X452Y1973D01*
X452Y1971D01*
X448Y1971D01*
X448Y1969D01*
X444Y1969D01*
X444Y1967D01*
X434Y1967D01*
X434Y1965D01*
X522Y1965D01*
X522Y1967D01*
X512Y1967D01*
X512Y1969D01*
X506Y1969D01*
X506Y1971D01*
X504Y1971D01*
X504Y1973D01*
X500Y1973D01*
X500Y1975D01*
X496Y1975D01*
X496Y1977D01*
X494Y1977D01*
X494Y1979D01*
X492Y1979D01*
X492Y1981D01*
X490Y1981D01*
X490Y1983D01*
X488Y1983D01*
X488Y1985D01*
X468Y1985D01*
G37*
D02*
G36*
X568Y1985D02*
X568Y1983D01*
X566Y1983D01*
X566Y1981D01*
X564Y1981D01*
X564Y1979D01*
X562Y1979D01*
X562Y1977D01*
X558Y1977D01*
X558Y1975D01*
X556Y1975D01*
X556Y1973D01*
X552Y1973D01*
X552Y1971D01*
X548Y1971D01*
X548Y1969D01*
X544Y1969D01*
X544Y1967D01*
X534Y1967D01*
X534Y1965D01*
X622Y1965D01*
X622Y1967D01*
X612Y1967D01*
X612Y1969D01*
X606Y1969D01*
X606Y1971D01*
X604Y1971D01*
X604Y1973D01*
X600Y1973D01*
X600Y1975D01*
X596Y1975D01*
X596Y1977D01*
X594Y1977D01*
X594Y1979D01*
X592Y1979D01*
X592Y1981D01*
X590Y1981D01*
X590Y1983D01*
X588Y1983D01*
X588Y1985D01*
X568Y1985D01*
G37*
D02*
G36*
X668Y1985D02*
X668Y1983D01*
X666Y1983D01*
X666Y1981D01*
X664Y1981D01*
X664Y1979D01*
X662Y1979D01*
X662Y1977D01*
X658Y1977D01*
X658Y1975D01*
X656Y1975D01*
X656Y1973D01*
X652Y1973D01*
X652Y1971D01*
X648Y1971D01*
X648Y1969D01*
X644Y1969D01*
X644Y1967D01*
X634Y1967D01*
X634Y1965D01*
X722Y1965D01*
X722Y1967D01*
X712Y1967D01*
X712Y1969D01*
X706Y1969D01*
X706Y1971D01*
X704Y1971D01*
X704Y1973D01*
X700Y1973D01*
X700Y1975D01*
X696Y1975D01*
X696Y1977D01*
X694Y1977D01*
X694Y1979D01*
X692Y1979D01*
X692Y1981D01*
X690Y1981D01*
X690Y1983D01*
X688Y1983D01*
X688Y1985D01*
X668Y1985D01*
G37*
D02*
G36*
X768Y1985D02*
X768Y1983D01*
X766Y1983D01*
X766Y1981D01*
X764Y1981D01*
X764Y1979D01*
X762Y1979D01*
X762Y1977D01*
X758Y1977D01*
X758Y1975D01*
X756Y1975D01*
X756Y1973D01*
X752Y1973D01*
X752Y1971D01*
X748Y1971D01*
X748Y1969D01*
X744Y1969D01*
X744Y1967D01*
X734Y1967D01*
X734Y1965D01*
X822Y1965D01*
X822Y1967D01*
X812Y1967D01*
X812Y1969D01*
X806Y1969D01*
X806Y1971D01*
X804Y1971D01*
X804Y1973D01*
X800Y1973D01*
X800Y1975D01*
X796Y1975D01*
X796Y1977D01*
X794Y1977D01*
X794Y1979D01*
X792Y1979D01*
X792Y1981D01*
X790Y1981D01*
X790Y1983D01*
X788Y1983D01*
X788Y1985D01*
X768Y1985D01*
G37*
D02*
G36*
X868Y1985D02*
X868Y1983D01*
X866Y1983D01*
X866Y1981D01*
X864Y1981D01*
X864Y1979D01*
X862Y1979D01*
X862Y1977D01*
X858Y1977D01*
X858Y1975D01*
X856Y1975D01*
X856Y1973D01*
X852Y1973D01*
X852Y1971D01*
X848Y1971D01*
X848Y1969D01*
X844Y1969D01*
X844Y1967D01*
X834Y1967D01*
X834Y1965D01*
X922Y1965D01*
X922Y1967D01*
X912Y1967D01*
X912Y1969D01*
X906Y1969D01*
X906Y1971D01*
X904Y1971D01*
X904Y1973D01*
X900Y1973D01*
X900Y1975D01*
X896Y1975D01*
X896Y1977D01*
X894Y1977D01*
X894Y1979D01*
X892Y1979D01*
X892Y1981D01*
X890Y1981D01*
X890Y1983D01*
X888Y1983D01*
X888Y1985D01*
X868Y1985D01*
G37*
D02*
G36*
X968Y1985D02*
X968Y1983D01*
X966Y1983D01*
X966Y1981D01*
X964Y1981D01*
X964Y1979D01*
X962Y1979D01*
X962Y1977D01*
X958Y1977D01*
X958Y1975D01*
X956Y1975D01*
X956Y1973D01*
X952Y1973D01*
X952Y1971D01*
X948Y1971D01*
X948Y1969D01*
X944Y1969D01*
X944Y1967D01*
X934Y1967D01*
X934Y1965D01*
X1022Y1965D01*
X1022Y1967D01*
X1012Y1967D01*
X1012Y1969D01*
X1006Y1969D01*
X1006Y1971D01*
X1004Y1971D01*
X1004Y1973D01*
X1000Y1973D01*
X1000Y1975D01*
X996Y1975D01*
X996Y1977D01*
X994Y1977D01*
X994Y1979D01*
X992Y1979D01*
X992Y1981D01*
X990Y1981D01*
X990Y1983D01*
X988Y1983D01*
X988Y1985D01*
X968Y1985D01*
G37*
D02*
G36*
X1068Y1985D02*
X1068Y1983D01*
X1066Y1983D01*
X1066Y1981D01*
X1064Y1981D01*
X1064Y1979D01*
X1062Y1979D01*
X1062Y1977D01*
X1058Y1977D01*
X1058Y1975D01*
X1056Y1975D01*
X1056Y1973D01*
X1052Y1973D01*
X1052Y1971D01*
X1048Y1971D01*
X1048Y1969D01*
X1044Y1969D01*
X1044Y1967D01*
X1034Y1967D01*
X1034Y1965D01*
X1122Y1965D01*
X1122Y1967D01*
X1112Y1967D01*
X1112Y1969D01*
X1106Y1969D01*
X1106Y1971D01*
X1104Y1971D01*
X1104Y1973D01*
X1100Y1973D01*
X1100Y1975D01*
X1096Y1975D01*
X1096Y1977D01*
X1094Y1977D01*
X1094Y1979D01*
X1092Y1979D01*
X1092Y1981D01*
X1090Y1981D01*
X1090Y1983D01*
X1088Y1983D01*
X1088Y1985D01*
X1068Y1985D01*
G37*
D02*
G36*
X1168Y1985D02*
X1168Y1983D01*
X1166Y1983D01*
X1166Y1981D01*
X1164Y1981D01*
X1164Y1979D01*
X1162Y1979D01*
X1162Y1977D01*
X1158Y1977D01*
X1158Y1975D01*
X1156Y1975D01*
X1156Y1973D01*
X1152Y1973D01*
X1152Y1971D01*
X1148Y1971D01*
X1148Y1969D01*
X1144Y1969D01*
X1144Y1967D01*
X1134Y1967D01*
X1134Y1965D01*
X1222Y1965D01*
X1222Y1967D01*
X1212Y1967D01*
X1212Y1969D01*
X1206Y1969D01*
X1206Y1971D01*
X1204Y1971D01*
X1204Y1973D01*
X1200Y1973D01*
X1200Y1975D01*
X1196Y1975D01*
X1196Y1977D01*
X1194Y1977D01*
X1194Y1979D01*
X1192Y1979D01*
X1192Y1981D01*
X1190Y1981D01*
X1190Y1983D01*
X1188Y1983D01*
X1188Y1985D01*
X1168Y1985D01*
G37*
D02*
G36*
X1268Y1985D02*
X1268Y1983D01*
X1266Y1983D01*
X1266Y1981D01*
X1264Y1981D01*
X1264Y1979D01*
X1262Y1979D01*
X1262Y1977D01*
X1258Y1977D01*
X1258Y1975D01*
X1256Y1975D01*
X1256Y1973D01*
X1252Y1973D01*
X1252Y1971D01*
X1248Y1971D01*
X1248Y1969D01*
X1244Y1969D01*
X1244Y1967D01*
X1234Y1967D01*
X1234Y1965D01*
X1322Y1965D01*
X1322Y1967D01*
X1312Y1967D01*
X1312Y1969D01*
X1306Y1969D01*
X1306Y1971D01*
X1304Y1971D01*
X1304Y1973D01*
X1300Y1973D01*
X1300Y1975D01*
X1296Y1975D01*
X1296Y1977D01*
X1294Y1977D01*
X1294Y1979D01*
X1292Y1979D01*
X1292Y1981D01*
X1290Y1981D01*
X1290Y1983D01*
X1288Y1983D01*
X1288Y1985D01*
X1268Y1985D01*
G37*
D02*
G36*
X1368Y1985D02*
X1368Y1983D01*
X1366Y1983D01*
X1366Y1981D01*
X1364Y1981D01*
X1364Y1979D01*
X1362Y1979D01*
X1362Y1977D01*
X1358Y1977D01*
X1358Y1975D01*
X1356Y1975D01*
X1356Y1973D01*
X1352Y1973D01*
X1352Y1971D01*
X1348Y1971D01*
X1348Y1969D01*
X1344Y1969D01*
X1344Y1967D01*
X1334Y1967D01*
X1334Y1965D01*
X1422Y1965D01*
X1422Y1967D01*
X1412Y1967D01*
X1412Y1969D01*
X1406Y1969D01*
X1406Y1971D01*
X1404Y1971D01*
X1404Y1973D01*
X1400Y1973D01*
X1400Y1975D01*
X1396Y1975D01*
X1396Y1977D01*
X1394Y1977D01*
X1394Y1979D01*
X1392Y1979D01*
X1392Y1981D01*
X1390Y1981D01*
X1390Y1983D01*
X1388Y1983D01*
X1388Y1985D01*
X1368Y1985D01*
G37*
D02*
G36*
X1468Y1985D02*
X1468Y1983D01*
X1466Y1983D01*
X1466Y1981D01*
X1464Y1981D01*
X1464Y1979D01*
X1462Y1979D01*
X1462Y1977D01*
X1458Y1977D01*
X1458Y1975D01*
X1456Y1975D01*
X1456Y1973D01*
X1452Y1973D01*
X1452Y1971D01*
X1448Y1971D01*
X1448Y1969D01*
X1444Y1969D01*
X1444Y1967D01*
X1434Y1967D01*
X1434Y1965D01*
X1522Y1965D01*
X1522Y1967D01*
X1512Y1967D01*
X1512Y1969D01*
X1506Y1969D01*
X1506Y1971D01*
X1504Y1971D01*
X1504Y1973D01*
X1500Y1973D01*
X1500Y1975D01*
X1496Y1975D01*
X1496Y1977D01*
X1494Y1977D01*
X1494Y1979D01*
X1492Y1979D01*
X1492Y1981D01*
X1490Y1981D01*
X1490Y1983D01*
X1488Y1983D01*
X1488Y1985D01*
X1468Y1985D01*
G37*
D02*
G36*
X1568Y1985D02*
X1568Y1983D01*
X1566Y1983D01*
X1566Y1981D01*
X1564Y1981D01*
X1564Y1979D01*
X1562Y1979D01*
X1562Y1977D01*
X1558Y1977D01*
X1558Y1975D01*
X1556Y1975D01*
X1556Y1973D01*
X1552Y1973D01*
X1552Y1971D01*
X1548Y1971D01*
X1548Y1969D01*
X1544Y1969D01*
X1544Y1967D01*
X1534Y1967D01*
X1534Y1965D01*
X1622Y1965D01*
X1622Y1967D01*
X1612Y1967D01*
X1612Y1969D01*
X1606Y1969D01*
X1606Y1971D01*
X1604Y1971D01*
X1604Y1973D01*
X1600Y1973D01*
X1600Y1975D01*
X1596Y1975D01*
X1596Y1977D01*
X1594Y1977D01*
X1594Y1979D01*
X1592Y1979D01*
X1592Y1981D01*
X1590Y1981D01*
X1590Y1983D01*
X1588Y1983D01*
X1588Y1985D01*
X1568Y1985D01*
G37*
D02*
G36*
X1668Y1985D02*
X1668Y1983D01*
X1666Y1983D01*
X1666Y1981D01*
X1664Y1981D01*
X1664Y1979D01*
X1662Y1979D01*
X1662Y1977D01*
X1658Y1977D01*
X1658Y1975D01*
X1656Y1975D01*
X1656Y1973D01*
X1652Y1973D01*
X1652Y1971D01*
X1648Y1971D01*
X1648Y1969D01*
X1644Y1969D01*
X1644Y1967D01*
X1634Y1967D01*
X1634Y1965D01*
X1722Y1965D01*
X1722Y1967D01*
X1712Y1967D01*
X1712Y1969D01*
X1706Y1969D01*
X1706Y1971D01*
X1704Y1971D01*
X1704Y1973D01*
X1700Y1973D01*
X1700Y1975D01*
X1696Y1975D01*
X1696Y1977D01*
X1694Y1977D01*
X1694Y1979D01*
X1692Y1979D01*
X1692Y1981D01*
X1690Y1981D01*
X1690Y1983D01*
X1688Y1983D01*
X1688Y1985D01*
X1668Y1985D01*
G37*
D02*
G36*
X1768Y1985D02*
X1768Y1983D01*
X1766Y1983D01*
X1766Y1981D01*
X1764Y1981D01*
X1764Y1979D01*
X1762Y1979D01*
X1762Y1977D01*
X1758Y1977D01*
X1758Y1975D01*
X1756Y1975D01*
X1756Y1973D01*
X1752Y1973D01*
X1752Y1971D01*
X1748Y1971D01*
X1748Y1969D01*
X1744Y1969D01*
X1744Y1967D01*
X1734Y1967D01*
X1734Y1965D01*
X1822Y1965D01*
X1822Y1967D01*
X1812Y1967D01*
X1812Y1969D01*
X1806Y1969D01*
X1806Y1971D01*
X1804Y1971D01*
X1804Y1973D01*
X1800Y1973D01*
X1800Y1975D01*
X1796Y1975D01*
X1796Y1977D01*
X1794Y1977D01*
X1794Y1979D01*
X1792Y1979D01*
X1792Y1981D01*
X1790Y1981D01*
X1790Y1983D01*
X1788Y1983D01*
X1788Y1985D01*
X1768Y1985D01*
G37*
D02*
G36*
X1868Y1985D02*
X1868Y1983D01*
X1866Y1983D01*
X1866Y1981D01*
X1864Y1981D01*
X1864Y1979D01*
X1862Y1979D01*
X1862Y1977D01*
X1858Y1977D01*
X1858Y1975D01*
X1856Y1975D01*
X1856Y1973D01*
X1852Y1973D01*
X1852Y1971D01*
X1848Y1971D01*
X1848Y1969D01*
X1844Y1969D01*
X1844Y1967D01*
X1834Y1967D01*
X1834Y1965D01*
X1922Y1965D01*
X1922Y1967D01*
X1912Y1967D01*
X1912Y1969D01*
X1906Y1969D01*
X1906Y1971D01*
X1904Y1971D01*
X1904Y1973D01*
X1900Y1973D01*
X1900Y1975D01*
X1896Y1975D01*
X1896Y1977D01*
X1894Y1977D01*
X1894Y1979D01*
X1892Y1979D01*
X1892Y1981D01*
X1890Y1981D01*
X1890Y1983D01*
X1888Y1983D01*
X1888Y1985D01*
X1868Y1985D01*
G37*
D02*
G36*
X1968Y1985D02*
X1968Y1983D01*
X1966Y1983D01*
X1966Y1981D01*
X1964Y1981D01*
X1964Y1979D01*
X1962Y1979D01*
X1962Y1977D01*
X1958Y1977D01*
X1958Y1975D01*
X1956Y1975D01*
X1956Y1973D01*
X1952Y1973D01*
X1952Y1971D01*
X1948Y1971D01*
X1948Y1969D01*
X1944Y1969D01*
X1944Y1967D01*
X1934Y1967D01*
X1934Y1965D01*
X2022Y1965D01*
X2022Y1967D01*
X2012Y1967D01*
X2012Y1969D01*
X2006Y1969D01*
X2006Y1971D01*
X2004Y1971D01*
X2004Y1973D01*
X2000Y1973D01*
X2000Y1975D01*
X1996Y1975D01*
X1996Y1977D01*
X1994Y1977D01*
X1994Y1979D01*
X1992Y1979D01*
X1992Y1981D01*
X1990Y1981D01*
X1990Y1983D01*
X1988Y1983D01*
X1988Y1985D01*
X1968Y1985D01*
G37*
D02*
G36*
X2068Y1985D02*
X2068Y1983D01*
X2066Y1983D01*
X2066Y1981D01*
X2064Y1981D01*
X2064Y1979D01*
X2062Y1979D01*
X2062Y1977D01*
X2058Y1977D01*
X2058Y1975D01*
X2056Y1975D01*
X2056Y1973D01*
X2052Y1973D01*
X2052Y1971D01*
X2048Y1971D01*
X2048Y1969D01*
X2044Y1969D01*
X2044Y1967D01*
X2034Y1967D01*
X2034Y1965D01*
X2122Y1965D01*
X2122Y1967D01*
X2112Y1967D01*
X2112Y1969D01*
X2106Y1969D01*
X2106Y1971D01*
X2104Y1971D01*
X2104Y1973D01*
X2100Y1973D01*
X2100Y1975D01*
X2096Y1975D01*
X2096Y1977D01*
X2094Y1977D01*
X2094Y1979D01*
X2092Y1979D01*
X2092Y1981D01*
X2090Y1981D01*
X2090Y1983D01*
X2088Y1983D01*
X2088Y1985D01*
X2068Y1985D01*
G37*
D02*
G36*
X40Y1965D02*
X40Y1963D01*
X430Y1963D01*
X430Y1965D01*
X40Y1965D01*
G37*
D02*
G36*
X40Y1965D02*
X40Y1963D01*
X430Y1963D01*
X430Y1965D01*
X40Y1965D01*
G37*
D02*
G36*
X434Y1965D02*
X434Y1963D01*
X2128Y1963D01*
X2128Y1965D01*
X434Y1965D01*
G37*
D02*
G36*
X434Y1965D02*
X434Y1963D01*
X2128Y1963D01*
X2128Y1965D01*
X434Y1965D01*
G37*
D02*
G36*
X434Y1965D02*
X434Y1963D01*
X2128Y1963D01*
X2128Y1965D01*
X434Y1965D01*
G37*
D02*
G36*
X434Y1965D02*
X434Y1963D01*
X2128Y1963D01*
X2128Y1965D01*
X434Y1965D01*
G37*
D02*
G36*
X434Y1965D02*
X434Y1963D01*
X2128Y1963D01*
X2128Y1965D01*
X434Y1965D01*
G37*
D02*
G36*
X434Y1965D02*
X434Y1963D01*
X2128Y1963D01*
X2128Y1965D01*
X434Y1965D01*
G37*
D02*
G36*
X434Y1965D02*
X434Y1963D01*
X2128Y1963D01*
X2128Y1965D01*
X434Y1965D01*
G37*
D02*
G36*
X434Y1965D02*
X434Y1963D01*
X2128Y1963D01*
X2128Y1965D01*
X434Y1965D01*
G37*
D02*
G36*
X434Y1965D02*
X434Y1963D01*
X2128Y1963D01*
X2128Y1965D01*
X434Y1965D01*
G37*
D02*
G36*
X434Y1965D02*
X434Y1963D01*
X2128Y1963D01*
X2128Y1965D01*
X434Y1965D01*
G37*
D02*
G36*
X434Y1965D02*
X434Y1963D01*
X2128Y1963D01*
X2128Y1965D01*
X434Y1965D01*
G37*
D02*
G36*
X434Y1965D02*
X434Y1963D01*
X2128Y1963D01*
X2128Y1965D01*
X434Y1965D01*
G37*
D02*
G36*
X434Y1965D02*
X434Y1963D01*
X2128Y1963D01*
X2128Y1965D01*
X434Y1965D01*
G37*
D02*
G36*
X434Y1965D02*
X434Y1963D01*
X2128Y1963D01*
X2128Y1965D01*
X434Y1965D01*
G37*
D02*
G36*
X434Y1965D02*
X434Y1963D01*
X2128Y1963D01*
X2128Y1965D01*
X434Y1965D01*
G37*
D02*
G36*
X434Y1965D02*
X434Y1963D01*
X2128Y1963D01*
X2128Y1965D01*
X434Y1965D01*
G37*
D02*
G36*
X434Y1965D02*
X434Y1963D01*
X2128Y1963D01*
X2128Y1965D01*
X434Y1965D01*
G37*
D02*
G36*
X40Y1963D02*
X40Y1957D01*
X268Y1957D01*
X268Y1955D01*
X276Y1955D01*
X276Y1953D01*
X280Y1953D01*
X280Y1951D01*
X284Y1951D01*
X284Y1949D01*
X288Y1949D01*
X288Y1947D01*
X290Y1947D01*
X290Y1945D01*
X292Y1945D01*
X292Y1943D01*
X294Y1943D01*
X294Y1941D01*
X296Y1941D01*
X296Y1939D01*
X298Y1939D01*
X298Y1937D01*
X300Y1937D01*
X300Y1933D01*
X302Y1933D01*
X302Y1929D01*
X304Y1929D01*
X304Y1925D01*
X306Y1925D01*
X306Y1919D01*
X308Y1919D01*
X308Y1897D01*
X306Y1897D01*
X306Y1891D01*
X304Y1891D01*
X304Y1889D01*
X428Y1889D01*
X428Y1891D01*
X424Y1891D01*
X424Y1893D01*
X420Y1893D01*
X420Y1895D01*
X418Y1895D01*
X418Y1897D01*
X416Y1897D01*
X416Y1899D01*
X414Y1899D01*
X414Y1901D01*
X412Y1901D01*
X412Y1905D01*
X410Y1905D01*
X410Y1911D01*
X408Y1911D01*
X408Y1925D01*
X410Y1925D01*
X410Y1931D01*
X412Y1931D01*
X412Y1933D01*
X414Y1933D01*
X414Y1937D01*
X416Y1937D01*
X416Y1939D01*
X418Y1939D01*
X418Y1941D01*
X422Y1941D01*
X422Y1943D01*
X424Y1943D01*
X424Y1945D01*
X430Y1945D01*
X430Y1963D01*
X40Y1963D01*
G37*
D02*
G36*
X434Y1963D02*
X434Y1947D01*
X716Y1947D01*
X716Y1945D01*
X722Y1945D01*
X722Y1943D01*
X724Y1943D01*
X724Y1941D01*
X728Y1941D01*
X728Y1939D01*
X730Y1939D01*
X730Y1935D01*
X732Y1935D01*
X732Y1933D01*
X734Y1933D01*
X734Y1929D01*
X736Y1929D01*
X736Y1921D01*
X738Y1921D01*
X738Y1913D01*
X736Y1913D01*
X736Y1905D01*
X734Y1905D01*
X734Y1903D01*
X732Y1903D01*
X732Y1899D01*
X730Y1899D01*
X730Y1897D01*
X728Y1897D01*
X728Y1895D01*
X726Y1895D01*
X726Y1893D01*
X722Y1893D01*
X722Y1891D01*
X718Y1891D01*
X718Y1889D01*
X2112Y1889D01*
X2112Y1895D01*
X2110Y1895D01*
X2110Y1905D01*
X2108Y1905D01*
X2108Y1909D01*
X2110Y1909D01*
X2110Y1921D01*
X2112Y1921D01*
X2112Y1927D01*
X2114Y1927D01*
X2114Y1931D01*
X2116Y1931D01*
X2116Y1935D01*
X2118Y1935D01*
X2118Y1937D01*
X2120Y1937D01*
X2120Y1939D01*
X2122Y1939D01*
X2122Y1943D01*
X2126Y1943D01*
X2126Y1945D01*
X2128Y1945D01*
X2128Y1963D01*
X434Y1963D01*
G37*
D02*
G36*
X40Y1957D02*
X40Y1157D01*
X254Y1157D01*
X254Y1159D01*
X244Y1159D01*
X244Y1161D01*
X238Y1161D01*
X238Y1163D01*
X236Y1163D01*
X236Y1165D01*
X232Y1165D01*
X232Y1167D01*
X228Y1167D01*
X228Y1169D01*
X226Y1169D01*
X226Y1171D01*
X224Y1171D01*
X224Y1173D01*
X222Y1173D01*
X222Y1175D01*
X220Y1175D01*
X220Y1177D01*
X218Y1177D01*
X218Y1181D01*
X216Y1181D01*
X216Y1185D01*
X214Y1185D01*
X214Y1187D01*
X212Y1187D01*
X212Y1195D01*
X210Y1195D01*
X210Y1207D01*
X208Y1207D01*
X208Y1209D01*
X210Y1209D01*
X210Y1221D01*
X212Y1221D01*
X212Y1227D01*
X214Y1227D01*
X214Y1231D01*
X216Y1231D01*
X216Y1235D01*
X218Y1235D01*
X218Y1237D01*
X220Y1237D01*
X220Y1239D01*
X222Y1239D01*
X222Y1241D01*
X224Y1241D01*
X224Y1243D01*
X226Y1243D01*
X226Y1245D01*
X228Y1245D01*
X228Y1247D01*
X230Y1247D01*
X230Y1267D01*
X228Y1267D01*
X228Y1269D01*
X226Y1269D01*
X226Y1271D01*
X224Y1271D01*
X224Y1273D01*
X222Y1273D01*
X222Y1275D01*
X220Y1275D01*
X220Y1277D01*
X218Y1277D01*
X218Y1281D01*
X216Y1281D01*
X216Y1285D01*
X214Y1285D01*
X214Y1287D01*
X212Y1287D01*
X212Y1295D01*
X210Y1295D01*
X210Y1307D01*
X208Y1307D01*
X208Y1309D01*
X210Y1309D01*
X210Y1321D01*
X212Y1321D01*
X212Y1327D01*
X214Y1327D01*
X214Y1331D01*
X216Y1331D01*
X216Y1335D01*
X218Y1335D01*
X218Y1337D01*
X220Y1337D01*
X220Y1339D01*
X222Y1339D01*
X222Y1341D01*
X224Y1341D01*
X224Y1343D01*
X226Y1343D01*
X226Y1345D01*
X228Y1345D01*
X228Y1347D01*
X230Y1347D01*
X230Y1367D01*
X228Y1367D01*
X228Y1369D01*
X226Y1369D01*
X226Y1371D01*
X224Y1371D01*
X224Y1373D01*
X222Y1373D01*
X222Y1375D01*
X220Y1375D01*
X220Y1377D01*
X218Y1377D01*
X218Y1381D01*
X216Y1381D01*
X216Y1385D01*
X214Y1385D01*
X214Y1387D01*
X212Y1387D01*
X212Y1395D01*
X210Y1395D01*
X210Y1407D01*
X208Y1407D01*
X208Y1409D01*
X210Y1409D01*
X210Y1421D01*
X212Y1421D01*
X212Y1427D01*
X214Y1427D01*
X214Y1431D01*
X216Y1431D01*
X216Y1435D01*
X218Y1435D01*
X218Y1437D01*
X220Y1437D01*
X220Y1439D01*
X222Y1439D01*
X222Y1441D01*
X224Y1441D01*
X224Y1443D01*
X226Y1443D01*
X226Y1445D01*
X228Y1445D01*
X228Y1447D01*
X230Y1447D01*
X230Y1467D01*
X228Y1467D01*
X228Y1469D01*
X226Y1469D01*
X226Y1471D01*
X224Y1471D01*
X224Y1473D01*
X222Y1473D01*
X222Y1475D01*
X220Y1475D01*
X220Y1477D01*
X218Y1477D01*
X218Y1481D01*
X216Y1481D01*
X216Y1485D01*
X214Y1485D01*
X214Y1487D01*
X212Y1487D01*
X212Y1495D01*
X210Y1495D01*
X210Y1507D01*
X208Y1507D01*
X208Y1509D01*
X210Y1509D01*
X210Y1521D01*
X212Y1521D01*
X212Y1527D01*
X214Y1527D01*
X214Y1531D01*
X216Y1531D01*
X216Y1535D01*
X218Y1535D01*
X218Y1537D01*
X220Y1537D01*
X220Y1539D01*
X222Y1539D01*
X222Y1541D01*
X224Y1541D01*
X224Y1543D01*
X226Y1543D01*
X226Y1545D01*
X228Y1545D01*
X228Y1547D01*
X230Y1547D01*
X230Y1567D01*
X228Y1567D01*
X228Y1569D01*
X226Y1569D01*
X226Y1571D01*
X224Y1571D01*
X224Y1573D01*
X222Y1573D01*
X222Y1575D01*
X220Y1575D01*
X220Y1577D01*
X218Y1577D01*
X218Y1581D01*
X216Y1581D01*
X216Y1585D01*
X214Y1585D01*
X214Y1587D01*
X212Y1587D01*
X212Y1595D01*
X210Y1595D01*
X210Y1607D01*
X208Y1607D01*
X208Y1609D01*
X210Y1609D01*
X210Y1621D01*
X212Y1621D01*
X212Y1627D01*
X214Y1627D01*
X214Y1631D01*
X216Y1631D01*
X216Y1635D01*
X218Y1635D01*
X218Y1637D01*
X220Y1637D01*
X220Y1639D01*
X222Y1639D01*
X222Y1641D01*
X224Y1641D01*
X224Y1643D01*
X226Y1643D01*
X226Y1645D01*
X228Y1645D01*
X228Y1647D01*
X230Y1647D01*
X230Y1667D01*
X228Y1667D01*
X228Y1669D01*
X226Y1669D01*
X226Y1671D01*
X224Y1671D01*
X224Y1673D01*
X222Y1673D01*
X222Y1675D01*
X220Y1675D01*
X220Y1677D01*
X218Y1677D01*
X218Y1681D01*
X216Y1681D01*
X216Y1685D01*
X214Y1685D01*
X214Y1687D01*
X212Y1687D01*
X212Y1695D01*
X210Y1695D01*
X210Y1707D01*
X208Y1707D01*
X208Y1709D01*
X210Y1709D01*
X210Y1721D01*
X212Y1721D01*
X212Y1727D01*
X214Y1727D01*
X214Y1731D01*
X216Y1731D01*
X216Y1735D01*
X218Y1735D01*
X218Y1737D01*
X220Y1737D01*
X220Y1739D01*
X222Y1739D01*
X222Y1741D01*
X224Y1741D01*
X224Y1743D01*
X226Y1743D01*
X226Y1745D01*
X228Y1745D01*
X228Y1747D01*
X230Y1747D01*
X230Y1767D01*
X228Y1767D01*
X228Y1769D01*
X226Y1769D01*
X226Y1771D01*
X224Y1771D01*
X224Y1773D01*
X222Y1773D01*
X222Y1775D01*
X220Y1775D01*
X220Y1777D01*
X218Y1777D01*
X218Y1781D01*
X216Y1781D01*
X216Y1785D01*
X214Y1785D01*
X214Y1787D01*
X212Y1787D01*
X212Y1795D01*
X210Y1795D01*
X210Y1807D01*
X208Y1807D01*
X208Y1809D01*
X210Y1809D01*
X210Y1821D01*
X212Y1821D01*
X212Y1827D01*
X214Y1827D01*
X214Y1831D01*
X216Y1831D01*
X216Y1835D01*
X218Y1835D01*
X218Y1837D01*
X220Y1837D01*
X220Y1839D01*
X222Y1839D01*
X222Y1841D01*
X224Y1841D01*
X224Y1843D01*
X226Y1843D01*
X226Y1845D01*
X228Y1845D01*
X228Y1847D01*
X230Y1847D01*
X230Y1867D01*
X228Y1867D01*
X228Y1869D01*
X226Y1869D01*
X226Y1871D01*
X224Y1871D01*
X224Y1873D01*
X222Y1873D01*
X222Y1875D01*
X220Y1875D01*
X220Y1877D01*
X218Y1877D01*
X218Y1881D01*
X216Y1881D01*
X216Y1885D01*
X214Y1885D01*
X214Y1887D01*
X212Y1887D01*
X212Y1895D01*
X210Y1895D01*
X210Y1907D01*
X208Y1907D01*
X208Y1909D01*
X210Y1909D01*
X210Y1921D01*
X212Y1921D01*
X212Y1927D01*
X214Y1927D01*
X214Y1931D01*
X216Y1931D01*
X216Y1935D01*
X218Y1935D01*
X218Y1937D01*
X220Y1937D01*
X220Y1939D01*
X222Y1939D01*
X222Y1941D01*
X224Y1941D01*
X224Y1943D01*
X226Y1943D01*
X226Y1945D01*
X228Y1945D01*
X228Y1947D01*
X230Y1947D01*
X230Y1949D01*
X234Y1949D01*
X234Y1951D01*
X238Y1951D01*
X238Y1953D01*
X242Y1953D01*
X242Y1955D01*
X248Y1955D01*
X248Y1957D01*
X40Y1957D01*
G37*
D02*
G36*
X446Y1947D02*
X446Y1945D01*
X452Y1945D01*
X452Y1943D01*
X454Y1943D01*
X454Y1941D01*
X458Y1941D01*
X458Y1939D01*
X460Y1939D01*
X460Y1935D01*
X462Y1935D01*
X462Y1933D01*
X464Y1933D01*
X464Y1929D01*
X466Y1929D01*
X466Y1921D01*
X468Y1921D01*
X468Y1913D01*
X466Y1913D01*
X466Y1905D01*
X464Y1905D01*
X464Y1903D01*
X462Y1903D01*
X462Y1899D01*
X460Y1899D01*
X460Y1897D01*
X458Y1897D01*
X458Y1895D01*
X456Y1895D01*
X456Y1893D01*
X452Y1893D01*
X452Y1891D01*
X448Y1891D01*
X448Y1889D01*
X698Y1889D01*
X698Y1891D01*
X694Y1891D01*
X694Y1893D01*
X690Y1893D01*
X690Y1895D01*
X688Y1895D01*
X688Y1897D01*
X686Y1897D01*
X686Y1899D01*
X684Y1899D01*
X684Y1901D01*
X682Y1901D01*
X682Y1905D01*
X680Y1905D01*
X680Y1911D01*
X678Y1911D01*
X678Y1925D01*
X680Y1925D01*
X680Y1931D01*
X682Y1931D01*
X682Y1933D01*
X684Y1933D01*
X684Y1937D01*
X686Y1937D01*
X686Y1939D01*
X688Y1939D01*
X688Y1941D01*
X692Y1941D01*
X692Y1943D01*
X694Y1943D01*
X694Y1945D01*
X700Y1945D01*
X700Y1947D01*
X446Y1947D01*
G37*
D02*
G36*
X304Y1889D02*
X304Y1887D01*
X2112Y1887D01*
X2112Y1889D01*
X304Y1889D01*
G37*
D02*
G36*
X304Y1889D02*
X304Y1887D01*
X2112Y1887D01*
X2112Y1889D01*
X304Y1889D01*
G37*
D02*
G36*
X304Y1889D02*
X304Y1887D01*
X2112Y1887D01*
X2112Y1889D01*
X304Y1889D01*
G37*
D02*
G36*
X304Y1887D02*
X304Y1885D01*
X302Y1885D01*
X302Y1883D01*
X300Y1883D01*
X300Y1879D01*
X298Y1879D01*
X298Y1877D01*
X296Y1877D01*
X296Y1873D01*
X294Y1873D01*
X294Y1871D01*
X1626Y1871D01*
X1626Y1869D01*
X1646Y1869D01*
X1646Y1867D01*
X1660Y1867D01*
X1660Y1865D01*
X1672Y1865D01*
X1672Y1863D01*
X1682Y1863D01*
X1682Y1861D01*
X1690Y1861D01*
X1690Y1859D01*
X1698Y1859D01*
X1698Y1857D01*
X1704Y1857D01*
X1704Y1855D01*
X1710Y1855D01*
X1710Y1853D01*
X1716Y1853D01*
X1716Y1851D01*
X1722Y1851D01*
X1722Y1849D01*
X1728Y1849D01*
X1728Y1847D01*
X1734Y1847D01*
X1734Y1845D01*
X1738Y1845D01*
X1738Y1843D01*
X1890Y1843D01*
X1890Y1841D01*
X1898Y1841D01*
X1898Y1839D01*
X1904Y1839D01*
X1904Y1837D01*
X1908Y1837D01*
X1908Y1835D01*
X1912Y1835D01*
X1912Y1833D01*
X1914Y1833D01*
X1914Y1831D01*
X1918Y1831D01*
X1918Y1829D01*
X1920Y1829D01*
X1920Y1827D01*
X1922Y1827D01*
X1922Y1825D01*
X1924Y1825D01*
X1924Y1823D01*
X1926Y1823D01*
X1926Y1821D01*
X1928Y1821D01*
X1928Y1817D01*
X1930Y1817D01*
X1930Y1815D01*
X1932Y1815D01*
X1932Y1811D01*
X1934Y1811D01*
X1934Y1807D01*
X1936Y1807D01*
X1936Y1801D01*
X1938Y1801D01*
X1938Y1795D01*
X1940Y1795D01*
X1940Y1773D01*
X1938Y1773D01*
X1938Y1765D01*
X1936Y1765D01*
X1936Y1761D01*
X1934Y1761D01*
X1934Y1755D01*
X1932Y1755D01*
X1932Y1753D01*
X1930Y1753D01*
X1930Y1749D01*
X1928Y1749D01*
X1928Y1747D01*
X1926Y1747D01*
X1926Y1745D01*
X1924Y1745D01*
X1924Y1743D01*
X1922Y1743D01*
X1922Y1741D01*
X1920Y1741D01*
X1920Y1739D01*
X1918Y1739D01*
X1918Y1737D01*
X1916Y1737D01*
X1916Y1735D01*
X1912Y1735D01*
X1912Y1733D01*
X1910Y1733D01*
X1910Y1731D01*
X1906Y1731D01*
X1906Y1729D01*
X1902Y1729D01*
X1902Y1709D01*
X1904Y1709D01*
X1904Y1705D01*
X1906Y1705D01*
X1906Y1703D01*
X1908Y1703D01*
X1908Y1699D01*
X1910Y1699D01*
X1910Y1697D01*
X1912Y1697D01*
X1912Y1693D01*
X1914Y1693D01*
X1914Y1689D01*
X1916Y1689D01*
X1916Y1685D01*
X1918Y1685D01*
X1918Y1683D01*
X1920Y1683D01*
X1920Y1679D01*
X1922Y1679D01*
X1922Y1675D01*
X1924Y1675D01*
X1924Y1671D01*
X1926Y1671D01*
X1926Y1667D01*
X1928Y1667D01*
X1928Y1663D01*
X1930Y1663D01*
X1930Y1657D01*
X1932Y1657D01*
X1932Y1653D01*
X1934Y1653D01*
X1934Y1649D01*
X1936Y1649D01*
X1936Y1643D01*
X1938Y1643D01*
X1938Y1639D01*
X1940Y1639D01*
X1940Y1633D01*
X1942Y1633D01*
X1942Y1629D01*
X1944Y1629D01*
X1944Y1623D01*
X1946Y1623D01*
X1946Y1617D01*
X1948Y1617D01*
X1948Y1609D01*
X1950Y1609D01*
X1950Y1603D01*
X1952Y1603D01*
X1952Y1595D01*
X1954Y1595D01*
X1954Y1585D01*
X1956Y1585D01*
X1956Y1575D01*
X1958Y1575D01*
X1958Y1565D01*
X1960Y1565D01*
X1960Y1549D01*
X1962Y1549D01*
X1962Y1515D01*
X1964Y1515D01*
X1964Y1423D01*
X1962Y1423D01*
X1962Y1391D01*
X1960Y1391D01*
X1960Y1375D01*
X1958Y1375D01*
X1958Y1365D01*
X1956Y1365D01*
X1956Y1355D01*
X1954Y1355D01*
X1954Y1345D01*
X1952Y1345D01*
X1952Y1337D01*
X1950Y1337D01*
X1950Y1331D01*
X1948Y1331D01*
X1948Y1323D01*
X1946Y1323D01*
X1946Y1317D01*
X1944Y1317D01*
X1944Y1311D01*
X1942Y1311D01*
X1942Y1305D01*
X1940Y1305D01*
X1940Y1301D01*
X1938Y1301D01*
X1938Y1295D01*
X1936Y1295D01*
X1936Y1291D01*
X1934Y1291D01*
X1934Y1285D01*
X1932Y1285D01*
X1932Y1281D01*
X1930Y1281D01*
X1930Y1277D01*
X1928Y1277D01*
X1928Y1273D01*
X1926Y1273D01*
X1926Y1269D01*
X1924Y1269D01*
X1924Y1265D01*
X1922Y1265D01*
X1922Y1261D01*
X1920Y1261D01*
X1920Y1257D01*
X1918Y1257D01*
X1918Y1253D01*
X1916Y1253D01*
X1916Y1251D01*
X1914Y1251D01*
X1914Y1247D01*
X1912Y1247D01*
X1912Y1243D01*
X1910Y1243D01*
X1910Y1241D01*
X1908Y1241D01*
X1908Y1237D01*
X1906Y1237D01*
X1906Y1235D01*
X1904Y1235D01*
X1904Y1231D01*
X1902Y1231D01*
X1902Y1227D01*
X1900Y1227D01*
X1900Y1205D01*
X1904Y1205D01*
X1904Y1203D01*
X1906Y1203D01*
X1906Y1201D01*
X1910Y1201D01*
X1910Y1199D01*
X1912Y1199D01*
X1912Y1197D01*
X1914Y1197D01*
X1914Y1195D01*
X1916Y1195D01*
X1916Y1191D01*
X1918Y1191D01*
X1918Y1189D01*
X1920Y1189D01*
X1920Y1185D01*
X1922Y1185D01*
X1922Y1181D01*
X1924Y1181D01*
X1924Y1177D01*
X1926Y1177D01*
X1926Y1169D01*
X1928Y1169D01*
X1928Y1151D01*
X1926Y1151D01*
X1926Y1143D01*
X1924Y1143D01*
X1924Y1139D01*
X1922Y1139D01*
X1922Y1135D01*
X1920Y1135D01*
X1920Y1131D01*
X1918Y1131D01*
X1918Y1127D01*
X1916Y1127D01*
X1916Y1125D01*
X1914Y1125D01*
X1914Y1123D01*
X1912Y1123D01*
X1912Y1121D01*
X1910Y1121D01*
X1910Y1119D01*
X1908Y1119D01*
X1908Y1117D01*
X1904Y1117D01*
X1904Y1115D01*
X1902Y1115D01*
X1902Y1113D01*
X1898Y1113D01*
X1898Y1111D01*
X1892Y1111D01*
X1892Y1109D01*
X1886Y1109D01*
X1886Y1107D01*
X2044Y1107D01*
X2044Y1453D01*
X2046Y1453D01*
X2046Y1457D01*
X2048Y1457D01*
X2048Y1459D01*
X2052Y1459D01*
X2052Y1461D01*
X2054Y1461D01*
X2054Y1463D01*
X2058Y1463D01*
X2058Y1465D01*
X2062Y1465D01*
X2062Y1467D01*
X2064Y1467D01*
X2064Y1469D01*
X2068Y1469D01*
X2068Y1471D01*
X2072Y1471D01*
X2072Y1473D01*
X2074Y1473D01*
X2074Y1475D01*
X2078Y1475D01*
X2078Y1477D01*
X2082Y1477D01*
X2082Y1479D01*
X2084Y1479D01*
X2084Y1481D01*
X2088Y1481D01*
X2088Y1483D01*
X2092Y1483D01*
X2092Y1485D01*
X2094Y1485D01*
X2094Y1487D01*
X2098Y1487D01*
X2098Y1489D01*
X2102Y1489D01*
X2102Y1491D01*
X2106Y1491D01*
X2106Y1493D01*
X2108Y1493D01*
X2108Y1509D01*
X2110Y1509D01*
X2110Y1521D01*
X2112Y1521D01*
X2112Y1527D01*
X2114Y1527D01*
X2114Y1531D01*
X2116Y1531D01*
X2116Y1535D01*
X2118Y1535D01*
X2118Y1537D01*
X2120Y1537D01*
X2120Y1539D01*
X2122Y1539D01*
X2122Y1543D01*
X2126Y1543D01*
X2126Y1545D01*
X2128Y1545D01*
X2128Y1547D01*
X2130Y1547D01*
X2130Y1567D01*
X2128Y1567D01*
X2128Y1569D01*
X2126Y1569D01*
X2126Y1571D01*
X2124Y1571D01*
X2124Y1573D01*
X2122Y1573D01*
X2122Y1575D01*
X2120Y1575D01*
X2120Y1577D01*
X2118Y1577D01*
X2118Y1581D01*
X2116Y1581D01*
X2116Y1585D01*
X2114Y1585D01*
X2114Y1587D01*
X2112Y1587D01*
X2112Y1595D01*
X2110Y1595D01*
X2110Y1605D01*
X2108Y1605D01*
X2108Y1609D01*
X2110Y1609D01*
X2110Y1621D01*
X2112Y1621D01*
X2112Y1627D01*
X2114Y1627D01*
X2114Y1631D01*
X2116Y1631D01*
X2116Y1635D01*
X2118Y1635D01*
X2118Y1637D01*
X2120Y1637D01*
X2120Y1639D01*
X2122Y1639D01*
X2122Y1643D01*
X2126Y1643D01*
X2126Y1645D01*
X2128Y1645D01*
X2128Y1647D01*
X2130Y1647D01*
X2130Y1667D01*
X2128Y1667D01*
X2128Y1669D01*
X2126Y1669D01*
X2126Y1671D01*
X2124Y1671D01*
X2124Y1673D01*
X2122Y1673D01*
X2122Y1675D01*
X2120Y1675D01*
X2120Y1677D01*
X2118Y1677D01*
X2118Y1681D01*
X2116Y1681D01*
X2116Y1685D01*
X2114Y1685D01*
X2114Y1687D01*
X2112Y1687D01*
X2112Y1695D01*
X2110Y1695D01*
X2110Y1705D01*
X2108Y1705D01*
X2108Y1709D01*
X2110Y1709D01*
X2110Y1721D01*
X2112Y1721D01*
X2112Y1727D01*
X2114Y1727D01*
X2114Y1731D01*
X2116Y1731D01*
X2116Y1735D01*
X2118Y1735D01*
X2118Y1737D01*
X2120Y1737D01*
X2120Y1739D01*
X2122Y1739D01*
X2122Y1743D01*
X2126Y1743D01*
X2126Y1745D01*
X2128Y1745D01*
X2128Y1747D01*
X2130Y1747D01*
X2130Y1767D01*
X2128Y1767D01*
X2128Y1769D01*
X2126Y1769D01*
X2126Y1771D01*
X2124Y1771D01*
X2124Y1773D01*
X2122Y1773D01*
X2122Y1775D01*
X2120Y1775D01*
X2120Y1777D01*
X2118Y1777D01*
X2118Y1781D01*
X2116Y1781D01*
X2116Y1785D01*
X2114Y1785D01*
X2114Y1787D01*
X2112Y1787D01*
X2112Y1795D01*
X2110Y1795D01*
X2110Y1805D01*
X2108Y1805D01*
X2108Y1809D01*
X2110Y1809D01*
X2110Y1821D01*
X2112Y1821D01*
X2112Y1827D01*
X2114Y1827D01*
X2114Y1831D01*
X2116Y1831D01*
X2116Y1835D01*
X2118Y1835D01*
X2118Y1837D01*
X2120Y1837D01*
X2120Y1839D01*
X2122Y1839D01*
X2122Y1843D01*
X2126Y1843D01*
X2126Y1845D01*
X2128Y1845D01*
X2128Y1847D01*
X2130Y1847D01*
X2130Y1867D01*
X2128Y1867D01*
X2128Y1869D01*
X2126Y1869D01*
X2126Y1871D01*
X2124Y1871D01*
X2124Y1873D01*
X2122Y1873D01*
X2122Y1875D01*
X2120Y1875D01*
X2120Y1877D01*
X2118Y1877D01*
X2118Y1881D01*
X2116Y1881D01*
X2116Y1885D01*
X2114Y1885D01*
X2114Y1887D01*
X304Y1887D01*
G37*
D02*
G36*
X290Y1871D02*
X290Y1869D01*
X288Y1869D01*
X288Y1847D01*
X290Y1847D01*
X290Y1845D01*
X292Y1845D01*
X292Y1843D01*
X1260Y1843D01*
X1260Y1841D01*
X1268Y1841D01*
X1268Y1839D01*
X1274Y1839D01*
X1274Y1837D01*
X1278Y1837D01*
X1278Y1835D01*
X1282Y1835D01*
X1282Y1833D01*
X1286Y1833D01*
X1286Y1831D01*
X1288Y1831D01*
X1288Y1829D01*
X1290Y1829D01*
X1290Y1827D01*
X1292Y1827D01*
X1292Y1825D01*
X1294Y1825D01*
X1294Y1823D01*
X1296Y1823D01*
X1296Y1821D01*
X1298Y1821D01*
X1298Y1819D01*
X1300Y1819D01*
X1300Y1815D01*
X1302Y1815D01*
X1302Y1811D01*
X1324Y1811D01*
X1324Y1813D01*
X1328Y1813D01*
X1328Y1815D01*
X1332Y1815D01*
X1332Y1817D01*
X1334Y1817D01*
X1334Y1819D01*
X1338Y1819D01*
X1338Y1821D01*
X1342Y1821D01*
X1342Y1823D01*
X1344Y1823D01*
X1344Y1825D01*
X1348Y1825D01*
X1348Y1827D01*
X1352Y1827D01*
X1352Y1829D01*
X1356Y1829D01*
X1356Y1831D01*
X1360Y1831D01*
X1360Y1833D01*
X1364Y1833D01*
X1364Y1835D01*
X1368Y1835D01*
X1368Y1837D01*
X1372Y1837D01*
X1372Y1839D01*
X1376Y1839D01*
X1376Y1841D01*
X1380Y1841D01*
X1380Y1843D01*
X1386Y1843D01*
X1386Y1845D01*
X1390Y1845D01*
X1390Y1847D01*
X1396Y1847D01*
X1396Y1849D01*
X1402Y1849D01*
X1402Y1851D01*
X1408Y1851D01*
X1408Y1853D01*
X1414Y1853D01*
X1414Y1855D01*
X1420Y1855D01*
X1420Y1857D01*
X1426Y1857D01*
X1426Y1859D01*
X1434Y1859D01*
X1434Y1861D01*
X1442Y1861D01*
X1442Y1863D01*
X1452Y1863D01*
X1452Y1865D01*
X1464Y1865D01*
X1464Y1867D01*
X1478Y1867D01*
X1478Y1869D01*
X1498Y1869D01*
X1498Y1871D01*
X290Y1871D01*
G37*
D02*
G36*
X294Y1843D02*
X294Y1841D01*
X296Y1841D01*
X296Y1839D01*
X298Y1839D01*
X298Y1837D01*
X300Y1837D01*
X300Y1833D01*
X302Y1833D01*
X302Y1829D01*
X304Y1829D01*
X304Y1825D01*
X306Y1825D01*
X306Y1819D01*
X308Y1819D01*
X308Y1797D01*
X306Y1797D01*
X306Y1791D01*
X304Y1791D01*
X304Y1785D01*
X302Y1785D01*
X302Y1783D01*
X300Y1783D01*
X300Y1779D01*
X298Y1779D01*
X298Y1777D01*
X296Y1777D01*
X296Y1773D01*
X294Y1773D01*
X294Y1771D01*
X290Y1771D01*
X290Y1769D01*
X288Y1769D01*
X288Y1747D01*
X290Y1747D01*
X290Y1745D01*
X292Y1745D01*
X292Y1743D01*
X294Y1743D01*
X294Y1741D01*
X296Y1741D01*
X296Y1739D01*
X298Y1739D01*
X298Y1737D01*
X300Y1737D01*
X300Y1733D01*
X302Y1733D01*
X302Y1729D01*
X304Y1729D01*
X304Y1725D01*
X306Y1725D01*
X306Y1719D01*
X308Y1719D01*
X308Y1697D01*
X306Y1697D01*
X306Y1691D01*
X304Y1691D01*
X304Y1685D01*
X302Y1685D01*
X302Y1683D01*
X300Y1683D01*
X300Y1679D01*
X298Y1679D01*
X298Y1677D01*
X296Y1677D01*
X296Y1673D01*
X294Y1673D01*
X294Y1671D01*
X290Y1671D01*
X290Y1669D01*
X288Y1669D01*
X288Y1647D01*
X290Y1647D01*
X290Y1645D01*
X292Y1645D01*
X292Y1643D01*
X294Y1643D01*
X294Y1641D01*
X296Y1641D01*
X296Y1639D01*
X298Y1639D01*
X298Y1637D01*
X300Y1637D01*
X300Y1633D01*
X302Y1633D01*
X302Y1629D01*
X304Y1629D01*
X304Y1625D01*
X306Y1625D01*
X306Y1619D01*
X308Y1619D01*
X308Y1599D01*
X786Y1599D01*
X786Y1597D01*
X790Y1597D01*
X790Y1595D01*
X794Y1595D01*
X794Y1593D01*
X796Y1593D01*
X796Y1591D01*
X800Y1591D01*
X800Y1587D01*
X802Y1587D01*
X802Y1585D01*
X804Y1585D01*
X804Y1581D01*
X806Y1581D01*
X806Y1571D01*
X808Y1571D01*
X808Y1567D01*
X806Y1567D01*
X806Y1559D01*
X804Y1559D01*
X804Y1557D01*
X854Y1557D01*
X854Y1555D01*
X858Y1555D01*
X858Y1553D01*
X862Y1553D01*
X862Y1551D01*
X864Y1551D01*
X864Y1549D01*
X866Y1549D01*
X866Y1547D01*
X868Y1547D01*
X868Y1545D01*
X870Y1545D01*
X870Y1543D01*
X872Y1543D01*
X872Y1541D01*
X1044Y1541D01*
X1044Y1539D01*
X1048Y1539D01*
X1048Y1537D01*
X1050Y1537D01*
X1050Y1535D01*
X1052Y1535D01*
X1052Y1533D01*
X1054Y1533D01*
X1054Y1531D01*
X1056Y1531D01*
X1056Y1529D01*
X1058Y1529D01*
X1058Y1527D01*
X1060Y1527D01*
X1060Y1525D01*
X1062Y1525D01*
X1062Y1523D01*
X1064Y1523D01*
X1064Y1521D01*
X1066Y1521D01*
X1066Y1519D01*
X1068Y1519D01*
X1068Y1517D01*
X1070Y1517D01*
X1070Y1515D01*
X1072Y1515D01*
X1072Y1513D01*
X1074Y1513D01*
X1074Y1511D01*
X1076Y1511D01*
X1076Y1509D01*
X1078Y1509D01*
X1078Y1505D01*
X1080Y1505D01*
X1080Y1501D01*
X1082Y1501D01*
X1082Y1383D01*
X1084Y1383D01*
X1084Y1381D01*
X1088Y1381D01*
X1088Y1379D01*
X1090Y1379D01*
X1090Y1375D01*
X1092Y1375D01*
X1092Y1373D01*
X1094Y1373D01*
X1094Y1369D01*
X1096Y1369D01*
X1096Y1361D01*
X1098Y1361D01*
X1098Y1353D01*
X1096Y1353D01*
X1096Y1345D01*
X1094Y1345D01*
X1094Y1343D01*
X1092Y1343D01*
X1092Y1339D01*
X1090Y1339D01*
X1090Y1337D01*
X1088Y1337D01*
X1088Y1335D01*
X1086Y1335D01*
X1086Y1333D01*
X1082Y1333D01*
X1082Y1331D01*
X1078Y1331D01*
X1078Y1329D01*
X1076Y1329D01*
X1076Y1309D01*
X1080Y1309D01*
X1080Y1307D01*
X1082Y1307D01*
X1082Y1305D01*
X1084Y1305D01*
X1084Y1303D01*
X1086Y1303D01*
X1086Y1301D01*
X1090Y1301D01*
X1090Y1299D01*
X1092Y1299D01*
X1092Y1297D01*
X1094Y1297D01*
X1094Y1295D01*
X1098Y1295D01*
X1098Y1293D01*
X1100Y1293D01*
X1100Y1291D01*
X1102Y1291D01*
X1102Y1289D01*
X1106Y1289D01*
X1106Y1287D01*
X1108Y1287D01*
X1108Y1285D01*
X1110Y1285D01*
X1110Y1283D01*
X1112Y1283D01*
X1112Y1281D01*
X1116Y1281D01*
X1116Y1279D01*
X1118Y1279D01*
X1118Y1277D01*
X1120Y1277D01*
X1120Y1275D01*
X1124Y1275D01*
X1124Y1273D01*
X1126Y1273D01*
X1126Y1271D01*
X1128Y1271D01*
X1128Y1269D01*
X1132Y1269D01*
X1132Y1267D01*
X1134Y1267D01*
X1134Y1265D01*
X1136Y1265D01*
X1136Y1263D01*
X1138Y1263D01*
X1138Y1261D01*
X1142Y1261D01*
X1142Y1259D01*
X1144Y1259D01*
X1144Y1257D01*
X1146Y1257D01*
X1146Y1255D01*
X1150Y1255D01*
X1150Y1253D01*
X1152Y1253D01*
X1152Y1251D01*
X1154Y1251D01*
X1154Y1249D01*
X1156Y1249D01*
X1156Y1247D01*
X1158Y1247D01*
X1158Y1245D01*
X1160Y1245D01*
X1160Y1241D01*
X1162Y1241D01*
X1162Y1107D01*
X1234Y1107D01*
X1234Y1109D01*
X1228Y1109D01*
X1228Y1111D01*
X1222Y1111D01*
X1222Y1113D01*
X1220Y1113D01*
X1220Y1115D01*
X1216Y1115D01*
X1216Y1117D01*
X1212Y1117D01*
X1212Y1119D01*
X1210Y1119D01*
X1210Y1121D01*
X1208Y1121D01*
X1208Y1123D01*
X1206Y1123D01*
X1206Y1125D01*
X1204Y1125D01*
X1204Y1127D01*
X1202Y1127D01*
X1202Y1131D01*
X1200Y1131D01*
X1200Y1133D01*
X1198Y1133D01*
X1198Y1137D01*
X1196Y1137D01*
X1196Y1143D01*
X1194Y1143D01*
X1194Y1149D01*
X1192Y1149D01*
X1192Y1171D01*
X1194Y1171D01*
X1194Y1179D01*
X1196Y1179D01*
X1196Y1183D01*
X1198Y1183D01*
X1198Y1187D01*
X1200Y1187D01*
X1200Y1191D01*
X1202Y1191D01*
X1202Y1193D01*
X1204Y1193D01*
X1204Y1195D01*
X1206Y1195D01*
X1206Y1197D01*
X1208Y1197D01*
X1208Y1199D01*
X1210Y1199D01*
X1210Y1201D01*
X1212Y1201D01*
X1212Y1203D01*
X1214Y1203D01*
X1214Y1205D01*
X1218Y1205D01*
X1218Y1207D01*
X1222Y1207D01*
X1222Y1231D01*
X1220Y1231D01*
X1220Y1233D01*
X1218Y1233D01*
X1218Y1237D01*
X1216Y1237D01*
X1216Y1241D01*
X1214Y1241D01*
X1214Y1243D01*
X1212Y1243D01*
X1212Y1247D01*
X1210Y1247D01*
X1210Y1251D01*
X1208Y1251D01*
X1208Y1253D01*
X1206Y1253D01*
X1206Y1257D01*
X1204Y1257D01*
X1204Y1261D01*
X1202Y1261D01*
X1202Y1265D01*
X1200Y1265D01*
X1200Y1269D01*
X1198Y1269D01*
X1198Y1273D01*
X1196Y1273D01*
X1196Y1277D01*
X1194Y1277D01*
X1194Y1281D01*
X1192Y1281D01*
X1192Y1285D01*
X1190Y1285D01*
X1190Y1291D01*
X1188Y1291D01*
X1188Y1295D01*
X1186Y1295D01*
X1186Y1301D01*
X1184Y1301D01*
X1184Y1305D01*
X1182Y1305D01*
X1182Y1311D01*
X1180Y1311D01*
X1180Y1317D01*
X1178Y1317D01*
X1178Y1323D01*
X1176Y1323D01*
X1176Y1331D01*
X1174Y1331D01*
X1174Y1337D01*
X1172Y1337D01*
X1172Y1345D01*
X1170Y1345D01*
X1170Y1355D01*
X1168Y1355D01*
X1168Y1365D01*
X1166Y1365D01*
X1166Y1375D01*
X1164Y1375D01*
X1164Y1391D01*
X1162Y1391D01*
X1162Y1423D01*
X1160Y1423D01*
X1160Y1517D01*
X1162Y1517D01*
X1162Y1549D01*
X1164Y1549D01*
X1164Y1565D01*
X1166Y1565D01*
X1166Y1575D01*
X1168Y1575D01*
X1168Y1585D01*
X1170Y1585D01*
X1170Y1595D01*
X1172Y1595D01*
X1172Y1603D01*
X1174Y1603D01*
X1174Y1609D01*
X1176Y1609D01*
X1176Y1617D01*
X1178Y1617D01*
X1178Y1623D01*
X1180Y1623D01*
X1180Y1629D01*
X1182Y1629D01*
X1182Y1633D01*
X1184Y1633D01*
X1184Y1639D01*
X1186Y1639D01*
X1186Y1645D01*
X1188Y1645D01*
X1188Y1649D01*
X1190Y1649D01*
X1190Y1653D01*
X1192Y1653D01*
X1192Y1659D01*
X1194Y1659D01*
X1194Y1663D01*
X1196Y1663D01*
X1196Y1667D01*
X1198Y1667D01*
X1198Y1671D01*
X1200Y1671D01*
X1200Y1675D01*
X1202Y1675D01*
X1202Y1679D01*
X1204Y1679D01*
X1204Y1683D01*
X1206Y1683D01*
X1206Y1685D01*
X1208Y1685D01*
X1208Y1689D01*
X1210Y1689D01*
X1210Y1693D01*
X1212Y1693D01*
X1212Y1697D01*
X1214Y1697D01*
X1214Y1699D01*
X1216Y1699D01*
X1216Y1703D01*
X1218Y1703D01*
X1218Y1705D01*
X1220Y1705D01*
X1220Y1709D01*
X1222Y1709D01*
X1222Y1711D01*
X1224Y1711D01*
X1224Y1731D01*
X1222Y1731D01*
X1222Y1733D01*
X1220Y1733D01*
X1220Y1735D01*
X1216Y1735D01*
X1216Y1737D01*
X1214Y1737D01*
X1214Y1739D01*
X1212Y1739D01*
X1212Y1741D01*
X1210Y1741D01*
X1210Y1743D01*
X1208Y1743D01*
X1208Y1745D01*
X1206Y1745D01*
X1206Y1747D01*
X1204Y1747D01*
X1204Y1749D01*
X1202Y1749D01*
X1202Y1753D01*
X1200Y1753D01*
X1200Y1755D01*
X1198Y1755D01*
X1198Y1761D01*
X1196Y1761D01*
X1196Y1765D01*
X1194Y1765D01*
X1194Y1773D01*
X1192Y1773D01*
X1192Y1795D01*
X1194Y1795D01*
X1194Y1803D01*
X1196Y1803D01*
X1196Y1807D01*
X1198Y1807D01*
X1198Y1811D01*
X1200Y1811D01*
X1200Y1815D01*
X1202Y1815D01*
X1202Y1817D01*
X1204Y1817D01*
X1204Y1821D01*
X1206Y1821D01*
X1206Y1823D01*
X1208Y1823D01*
X1208Y1825D01*
X1210Y1825D01*
X1210Y1827D01*
X1212Y1827D01*
X1212Y1829D01*
X1214Y1829D01*
X1214Y1831D01*
X1218Y1831D01*
X1218Y1833D01*
X1220Y1833D01*
X1220Y1835D01*
X1224Y1835D01*
X1224Y1837D01*
X1228Y1837D01*
X1228Y1839D01*
X1234Y1839D01*
X1234Y1841D01*
X1242Y1841D01*
X1242Y1843D01*
X294Y1843D01*
G37*
D02*
G36*
X1744Y1843D02*
X1744Y1841D01*
X1748Y1841D01*
X1748Y1839D01*
X1752Y1839D01*
X1752Y1837D01*
X1756Y1837D01*
X1756Y1835D01*
X1760Y1835D01*
X1760Y1833D01*
X1764Y1833D01*
X1764Y1831D01*
X1768Y1831D01*
X1768Y1829D01*
X1772Y1829D01*
X1772Y1827D01*
X1776Y1827D01*
X1776Y1825D01*
X1780Y1825D01*
X1780Y1823D01*
X1782Y1823D01*
X1782Y1821D01*
X1786Y1821D01*
X1786Y1819D01*
X1790Y1819D01*
X1790Y1817D01*
X1792Y1817D01*
X1792Y1815D01*
X1796Y1815D01*
X1796Y1813D01*
X1800Y1813D01*
X1800Y1811D01*
X1802Y1811D01*
X1802Y1809D01*
X1806Y1809D01*
X1806Y1807D01*
X1828Y1807D01*
X1828Y1811D01*
X1830Y1811D01*
X1830Y1815D01*
X1832Y1815D01*
X1832Y1819D01*
X1834Y1819D01*
X1834Y1821D01*
X1836Y1821D01*
X1836Y1823D01*
X1838Y1823D01*
X1838Y1825D01*
X1840Y1825D01*
X1840Y1827D01*
X1842Y1827D01*
X1842Y1829D01*
X1844Y1829D01*
X1844Y1831D01*
X1846Y1831D01*
X1846Y1833D01*
X1850Y1833D01*
X1850Y1835D01*
X1854Y1835D01*
X1854Y1837D01*
X1858Y1837D01*
X1858Y1839D01*
X1864Y1839D01*
X1864Y1841D01*
X1872Y1841D01*
X1872Y1843D01*
X1744Y1843D01*
G37*
D02*
G36*
X308Y1599D02*
X308Y1597D01*
X306Y1597D01*
X306Y1591D01*
X304Y1591D01*
X304Y1585D01*
X302Y1585D01*
X302Y1583D01*
X300Y1583D01*
X300Y1579D01*
X298Y1579D01*
X298Y1577D01*
X296Y1577D01*
X296Y1573D01*
X294Y1573D01*
X294Y1571D01*
X290Y1571D01*
X290Y1569D01*
X288Y1569D01*
X288Y1547D01*
X290Y1547D01*
X290Y1545D01*
X292Y1545D01*
X292Y1543D01*
X294Y1543D01*
X294Y1541D01*
X296Y1541D01*
X296Y1539D01*
X298Y1539D01*
X298Y1537D01*
X300Y1537D01*
X300Y1533D01*
X302Y1533D01*
X302Y1529D01*
X304Y1529D01*
X304Y1525D01*
X306Y1525D01*
X306Y1519D01*
X308Y1519D01*
X308Y1497D01*
X306Y1497D01*
X306Y1491D01*
X304Y1491D01*
X304Y1487D01*
X386Y1487D01*
X386Y1485D01*
X392Y1485D01*
X392Y1483D01*
X394Y1483D01*
X394Y1481D01*
X398Y1481D01*
X398Y1479D01*
X400Y1479D01*
X400Y1475D01*
X402Y1475D01*
X402Y1473D01*
X404Y1473D01*
X404Y1469D01*
X406Y1469D01*
X406Y1461D01*
X408Y1461D01*
X408Y1453D01*
X406Y1453D01*
X406Y1445D01*
X404Y1445D01*
X404Y1443D01*
X402Y1443D01*
X402Y1439D01*
X400Y1439D01*
X400Y1437D01*
X398Y1437D01*
X398Y1435D01*
X396Y1435D01*
X396Y1433D01*
X392Y1433D01*
X392Y1431D01*
X388Y1431D01*
X388Y1429D01*
X734Y1429D01*
X734Y1437D01*
X730Y1437D01*
X730Y1439D01*
X728Y1439D01*
X728Y1441D01*
X726Y1441D01*
X726Y1443D01*
X724Y1443D01*
X724Y1447D01*
X722Y1447D01*
X722Y1451D01*
X720Y1451D01*
X720Y1471D01*
X722Y1471D01*
X722Y1475D01*
X724Y1475D01*
X724Y1479D01*
X726Y1479D01*
X726Y1481D01*
X728Y1481D01*
X728Y1483D01*
X730Y1483D01*
X730Y1485D01*
X732Y1485D01*
X732Y1487D01*
X736Y1487D01*
X736Y1489D01*
X742Y1489D01*
X742Y1491D01*
X754Y1491D01*
X754Y1553D01*
X752Y1553D01*
X752Y1557D01*
X750Y1557D01*
X750Y1563D01*
X748Y1563D01*
X748Y1577D01*
X750Y1577D01*
X750Y1583D01*
X752Y1583D01*
X752Y1587D01*
X754Y1587D01*
X754Y1589D01*
X756Y1589D01*
X756Y1591D01*
X758Y1591D01*
X758Y1593D01*
X760Y1593D01*
X760Y1595D01*
X764Y1595D01*
X764Y1597D01*
X770Y1597D01*
X770Y1599D01*
X308Y1599D01*
G37*
D02*
G36*
X804Y1557D02*
X804Y1555D01*
X802Y1555D01*
X802Y1551D01*
X800Y1551D01*
X800Y1549D01*
X798Y1549D01*
X798Y1547D01*
X796Y1547D01*
X796Y1545D01*
X792Y1545D01*
X792Y1543D01*
X788Y1543D01*
X788Y1541D01*
X782Y1541D01*
X782Y1527D01*
X816Y1527D01*
X816Y1535D01*
X818Y1535D01*
X818Y1541D01*
X820Y1541D01*
X820Y1545D01*
X822Y1545D01*
X822Y1547D01*
X824Y1547D01*
X824Y1549D01*
X826Y1549D01*
X826Y1551D01*
X828Y1551D01*
X828Y1553D01*
X832Y1553D01*
X832Y1555D01*
X838Y1555D01*
X838Y1557D01*
X804Y1557D01*
G37*
D02*
G36*
X304Y1487D02*
X304Y1485D01*
X302Y1485D01*
X302Y1483D01*
X300Y1483D01*
X300Y1479D01*
X298Y1479D01*
X298Y1477D01*
X296Y1477D01*
X296Y1473D01*
X294Y1473D01*
X294Y1471D01*
X290Y1471D01*
X290Y1469D01*
X288Y1469D01*
X288Y1447D01*
X290Y1447D01*
X290Y1445D01*
X292Y1445D01*
X292Y1443D01*
X294Y1443D01*
X294Y1441D01*
X296Y1441D01*
X296Y1439D01*
X298Y1439D01*
X298Y1437D01*
X300Y1437D01*
X300Y1433D01*
X302Y1433D01*
X302Y1429D01*
X368Y1429D01*
X368Y1431D01*
X364Y1431D01*
X364Y1433D01*
X360Y1433D01*
X360Y1435D01*
X358Y1435D01*
X358Y1437D01*
X356Y1437D01*
X356Y1439D01*
X354Y1439D01*
X354Y1441D01*
X352Y1441D01*
X352Y1445D01*
X350Y1445D01*
X350Y1451D01*
X348Y1451D01*
X348Y1465D01*
X350Y1465D01*
X350Y1471D01*
X352Y1471D01*
X352Y1473D01*
X354Y1473D01*
X354Y1477D01*
X356Y1477D01*
X356Y1479D01*
X358Y1479D01*
X358Y1481D01*
X362Y1481D01*
X362Y1483D01*
X364Y1483D01*
X364Y1485D01*
X370Y1485D01*
X370Y1487D01*
X304Y1487D01*
G37*
D02*
G36*
X304Y1429D02*
X304Y1427D01*
X734Y1427D01*
X734Y1429D01*
X304Y1429D01*
G37*
D02*
G36*
X304Y1429D02*
X304Y1427D01*
X734Y1427D01*
X734Y1429D01*
X304Y1429D01*
G37*
D02*
G36*
X304Y1427D02*
X304Y1425D01*
X306Y1425D01*
X306Y1419D01*
X308Y1419D01*
X308Y1397D01*
X306Y1397D01*
X306Y1391D01*
X304Y1391D01*
X304Y1385D01*
X302Y1385D01*
X302Y1383D01*
X300Y1383D01*
X300Y1379D01*
X298Y1379D01*
X298Y1377D01*
X296Y1377D01*
X296Y1373D01*
X294Y1373D01*
X294Y1371D01*
X290Y1371D01*
X290Y1369D01*
X288Y1369D01*
X288Y1347D01*
X290Y1347D01*
X290Y1345D01*
X292Y1345D01*
X292Y1343D01*
X294Y1343D01*
X294Y1341D01*
X296Y1341D01*
X296Y1339D01*
X298Y1339D01*
X298Y1337D01*
X300Y1337D01*
X300Y1333D01*
X302Y1333D01*
X302Y1329D01*
X304Y1329D01*
X304Y1325D01*
X306Y1325D01*
X306Y1319D01*
X308Y1319D01*
X308Y1297D01*
X306Y1297D01*
X306Y1291D01*
X304Y1291D01*
X304Y1285D01*
X302Y1285D01*
X302Y1283D01*
X300Y1283D01*
X300Y1279D01*
X298Y1279D01*
X298Y1277D01*
X296Y1277D01*
X296Y1273D01*
X294Y1273D01*
X294Y1271D01*
X290Y1271D01*
X290Y1269D01*
X288Y1269D01*
X288Y1247D01*
X290Y1247D01*
X290Y1245D01*
X292Y1245D01*
X292Y1243D01*
X294Y1243D01*
X294Y1241D01*
X296Y1241D01*
X296Y1239D01*
X298Y1239D01*
X298Y1237D01*
X300Y1237D01*
X300Y1233D01*
X302Y1233D01*
X302Y1229D01*
X304Y1229D01*
X304Y1225D01*
X306Y1225D01*
X306Y1219D01*
X308Y1219D01*
X308Y1217D01*
X714Y1217D01*
X714Y1215D01*
X720Y1215D01*
X720Y1213D01*
X724Y1213D01*
X724Y1211D01*
X726Y1211D01*
X726Y1209D01*
X728Y1209D01*
X728Y1207D01*
X730Y1207D01*
X730Y1205D01*
X732Y1205D01*
X732Y1201D01*
X734Y1201D01*
X734Y1197D01*
X736Y1197D01*
X736Y1191D01*
X790Y1191D01*
X790Y1197D01*
X792Y1197D01*
X792Y1199D01*
X794Y1199D01*
X794Y1203D01*
X796Y1203D01*
X796Y1205D01*
X798Y1205D01*
X798Y1207D01*
X802Y1207D01*
X802Y1209D01*
X804Y1209D01*
X804Y1333D01*
X802Y1333D01*
X802Y1335D01*
X800Y1335D01*
X800Y1337D01*
X798Y1337D01*
X798Y1339D01*
X796Y1339D01*
X796Y1341D01*
X794Y1341D01*
X794Y1343D01*
X764Y1343D01*
X764Y1345D01*
X760Y1345D01*
X760Y1347D01*
X758Y1347D01*
X758Y1349D01*
X756Y1349D01*
X756Y1351D01*
X754Y1351D01*
X754Y1353D01*
X752Y1353D01*
X752Y1355D01*
X750Y1355D01*
X750Y1359D01*
X748Y1359D01*
X748Y1361D01*
X746Y1361D01*
X746Y1363D01*
X744Y1363D01*
X744Y1365D01*
X742Y1365D01*
X742Y1369D01*
X740Y1369D01*
X740Y1371D01*
X738Y1371D01*
X738Y1373D01*
X736Y1373D01*
X736Y1379D01*
X734Y1379D01*
X734Y1427D01*
X304Y1427D01*
G37*
D02*
G36*
X308Y1217D02*
X308Y1197D01*
X306Y1197D01*
X306Y1191D01*
X304Y1191D01*
X304Y1185D01*
X302Y1185D01*
X302Y1183D01*
X300Y1183D01*
X300Y1179D01*
X298Y1179D01*
X298Y1177D01*
X296Y1177D01*
X296Y1173D01*
X294Y1173D01*
X294Y1171D01*
X290Y1171D01*
X290Y1169D01*
X288Y1169D01*
X288Y1167D01*
X286Y1167D01*
X286Y1165D01*
X282Y1165D01*
X282Y1163D01*
X278Y1163D01*
X278Y1161D01*
X272Y1161D01*
X272Y1159D01*
X262Y1159D01*
X262Y1157D01*
X658Y1157D01*
X658Y1159D01*
X662Y1159D01*
X662Y1161D01*
X678Y1161D01*
X678Y1195D01*
X680Y1195D01*
X680Y1201D01*
X682Y1201D01*
X682Y1203D01*
X684Y1203D01*
X684Y1207D01*
X686Y1207D01*
X686Y1209D01*
X688Y1209D01*
X688Y1211D01*
X692Y1211D01*
X692Y1213D01*
X694Y1213D01*
X694Y1215D01*
X700Y1215D01*
X700Y1217D01*
X308Y1217D01*
G37*
D02*
G36*
X40Y1157D02*
X40Y1155D01*
X656Y1155D01*
X656Y1157D01*
X40Y1157D01*
G37*
D02*
G36*
X40Y1157D02*
X40Y1155D01*
X656Y1155D01*
X656Y1157D01*
X40Y1157D01*
G37*
D02*
G36*
X40Y1155D02*
X40Y1097D01*
X268Y1097D01*
X268Y1095D01*
X276Y1095D01*
X276Y1093D01*
X280Y1093D01*
X280Y1091D01*
X284Y1091D01*
X284Y1089D01*
X288Y1089D01*
X288Y1087D01*
X290Y1087D01*
X290Y1085D01*
X292Y1085D01*
X292Y1083D01*
X294Y1083D01*
X294Y1081D01*
X296Y1081D01*
X296Y1079D01*
X298Y1079D01*
X298Y1077D01*
X300Y1077D01*
X300Y1073D01*
X302Y1073D01*
X302Y1069D01*
X304Y1069D01*
X304Y1065D01*
X306Y1065D01*
X306Y1059D01*
X308Y1059D01*
X308Y1037D01*
X306Y1037D01*
X306Y1031D01*
X304Y1031D01*
X304Y1029D01*
X568Y1029D01*
X568Y1031D01*
X564Y1031D01*
X564Y1033D01*
X560Y1033D01*
X560Y1035D01*
X558Y1035D01*
X558Y1037D01*
X556Y1037D01*
X556Y1039D01*
X554Y1039D01*
X554Y1041D01*
X552Y1041D01*
X552Y1045D01*
X550Y1045D01*
X550Y1051D01*
X548Y1051D01*
X548Y1065D01*
X550Y1065D01*
X550Y1071D01*
X552Y1071D01*
X552Y1073D01*
X554Y1073D01*
X554Y1077D01*
X556Y1077D01*
X556Y1079D01*
X558Y1079D01*
X558Y1081D01*
X562Y1081D01*
X562Y1083D01*
X564Y1083D01*
X564Y1085D01*
X570Y1085D01*
X570Y1087D01*
X588Y1087D01*
X588Y1089D01*
X590Y1089D01*
X590Y1091D01*
X592Y1091D01*
X592Y1093D01*
X594Y1093D01*
X594Y1095D01*
X596Y1095D01*
X596Y1097D01*
X598Y1097D01*
X598Y1099D01*
X600Y1099D01*
X600Y1101D01*
X602Y1101D01*
X602Y1103D01*
X604Y1103D01*
X604Y1105D01*
X606Y1105D01*
X606Y1107D01*
X608Y1107D01*
X608Y1109D01*
X610Y1109D01*
X610Y1111D01*
X612Y1111D01*
X612Y1113D01*
X614Y1113D01*
X614Y1115D01*
X616Y1115D01*
X616Y1117D01*
X618Y1117D01*
X618Y1119D01*
X620Y1119D01*
X620Y1121D01*
X622Y1121D01*
X622Y1123D01*
X624Y1123D01*
X624Y1125D01*
X626Y1125D01*
X626Y1127D01*
X628Y1127D01*
X628Y1129D01*
X630Y1129D01*
X630Y1131D01*
X632Y1131D01*
X632Y1133D01*
X634Y1133D01*
X634Y1135D01*
X636Y1135D01*
X636Y1137D01*
X638Y1137D01*
X638Y1139D01*
X640Y1139D01*
X640Y1141D01*
X642Y1141D01*
X642Y1143D01*
X644Y1143D01*
X644Y1145D01*
X646Y1145D01*
X646Y1147D01*
X648Y1147D01*
X648Y1149D01*
X650Y1149D01*
X650Y1151D01*
X652Y1151D01*
X652Y1153D01*
X654Y1153D01*
X654Y1155D01*
X40Y1155D01*
G37*
D02*
G36*
X1292Y1137D02*
X1292Y1135D01*
X1290Y1135D01*
X1290Y1131D01*
X1288Y1131D01*
X1288Y1127D01*
X1286Y1127D01*
X1286Y1125D01*
X1284Y1125D01*
X1284Y1123D01*
X1282Y1123D01*
X1282Y1121D01*
X1280Y1121D01*
X1280Y1119D01*
X1278Y1119D01*
X1278Y1117D01*
X1274Y1117D01*
X1274Y1115D01*
X1270Y1115D01*
X1270Y1113D01*
X1268Y1113D01*
X1268Y1111D01*
X1262Y1111D01*
X1262Y1109D01*
X1256Y1109D01*
X1256Y1107D01*
X1358Y1107D01*
X1358Y1109D01*
X1354Y1109D01*
X1354Y1111D01*
X1350Y1111D01*
X1350Y1113D01*
X1348Y1113D01*
X1348Y1115D01*
X1344Y1115D01*
X1344Y1117D01*
X1340Y1117D01*
X1340Y1119D01*
X1336Y1119D01*
X1336Y1121D01*
X1334Y1121D01*
X1334Y1123D01*
X1330Y1123D01*
X1330Y1125D01*
X1328Y1125D01*
X1328Y1127D01*
X1324Y1127D01*
X1324Y1129D01*
X1322Y1129D01*
X1322Y1131D01*
X1318Y1131D01*
X1318Y1133D01*
X1316Y1133D01*
X1316Y1135D01*
X1312Y1135D01*
X1312Y1137D01*
X1292Y1137D01*
G37*
D02*
G36*
X1808Y1135D02*
X1808Y1133D01*
X1806Y1133D01*
X1806Y1131D01*
X1802Y1131D01*
X1802Y1129D01*
X1800Y1129D01*
X1800Y1127D01*
X1796Y1127D01*
X1796Y1125D01*
X1794Y1125D01*
X1794Y1123D01*
X1790Y1123D01*
X1790Y1121D01*
X1788Y1121D01*
X1788Y1119D01*
X1784Y1119D01*
X1784Y1117D01*
X1780Y1117D01*
X1780Y1115D01*
X1776Y1115D01*
X1776Y1113D01*
X1774Y1113D01*
X1774Y1111D01*
X1770Y1111D01*
X1770Y1109D01*
X1766Y1109D01*
X1766Y1107D01*
X1864Y1107D01*
X1864Y1109D01*
X1856Y1109D01*
X1856Y1111D01*
X1852Y1111D01*
X1852Y1113D01*
X1848Y1113D01*
X1848Y1115D01*
X1844Y1115D01*
X1844Y1117D01*
X1842Y1117D01*
X1842Y1119D01*
X1840Y1119D01*
X1840Y1121D01*
X1838Y1121D01*
X1838Y1123D01*
X1836Y1123D01*
X1836Y1125D01*
X1834Y1125D01*
X1834Y1127D01*
X1832Y1127D01*
X1832Y1129D01*
X1830Y1129D01*
X1830Y1133D01*
X1828Y1133D01*
X1828Y1135D01*
X1808Y1135D01*
G37*
D02*
G36*
X672Y1133D02*
X672Y1131D01*
X670Y1131D01*
X670Y1129D01*
X668Y1129D01*
X668Y1127D01*
X666Y1127D01*
X666Y1125D01*
X664Y1125D01*
X664Y1123D01*
X662Y1123D01*
X662Y1121D01*
X660Y1121D01*
X660Y1119D01*
X658Y1119D01*
X658Y1117D01*
X656Y1117D01*
X656Y1115D01*
X654Y1115D01*
X654Y1113D01*
X652Y1113D01*
X652Y1111D01*
X650Y1111D01*
X650Y1109D01*
X648Y1109D01*
X648Y1107D01*
X646Y1107D01*
X646Y1105D01*
X644Y1105D01*
X644Y1103D01*
X642Y1103D01*
X642Y1101D01*
X640Y1101D01*
X640Y1099D01*
X638Y1099D01*
X638Y1097D01*
X636Y1097D01*
X636Y1095D01*
X634Y1095D01*
X634Y1093D01*
X632Y1093D01*
X632Y1091D01*
X630Y1091D01*
X630Y1089D01*
X628Y1089D01*
X628Y1087D01*
X626Y1087D01*
X626Y1085D01*
X624Y1085D01*
X624Y1083D01*
X622Y1083D01*
X622Y1081D01*
X620Y1081D01*
X620Y1079D01*
X618Y1079D01*
X618Y1077D01*
X616Y1077D01*
X616Y1075D01*
X614Y1075D01*
X614Y1073D01*
X612Y1073D01*
X612Y1071D01*
X610Y1071D01*
X610Y1069D01*
X608Y1069D01*
X608Y1053D01*
X606Y1053D01*
X606Y1045D01*
X604Y1045D01*
X604Y1043D01*
X602Y1043D01*
X602Y1039D01*
X600Y1039D01*
X600Y1037D01*
X598Y1037D01*
X598Y1035D01*
X596Y1035D01*
X596Y1033D01*
X592Y1033D01*
X592Y1031D01*
X588Y1031D01*
X588Y1029D01*
X626Y1029D01*
X626Y1031D01*
X628Y1031D01*
X628Y1033D01*
X630Y1033D01*
X630Y1035D01*
X632Y1035D01*
X632Y1037D01*
X634Y1037D01*
X634Y1039D01*
X636Y1039D01*
X636Y1041D01*
X638Y1041D01*
X638Y1043D01*
X640Y1043D01*
X640Y1047D01*
X642Y1047D01*
X642Y1049D01*
X644Y1049D01*
X644Y1051D01*
X646Y1051D01*
X646Y1053D01*
X648Y1053D01*
X648Y1055D01*
X650Y1055D01*
X650Y1057D01*
X652Y1057D01*
X652Y1059D01*
X654Y1059D01*
X654Y1061D01*
X656Y1061D01*
X656Y1063D01*
X658Y1063D01*
X658Y1065D01*
X660Y1065D01*
X660Y1067D01*
X662Y1067D01*
X662Y1069D01*
X664Y1069D01*
X664Y1071D01*
X666Y1071D01*
X666Y1073D01*
X668Y1073D01*
X668Y1075D01*
X670Y1075D01*
X670Y1077D01*
X672Y1077D01*
X672Y1079D01*
X674Y1079D01*
X674Y1081D01*
X676Y1081D01*
X676Y1083D01*
X678Y1083D01*
X678Y1085D01*
X680Y1085D01*
X680Y1089D01*
X682Y1089D01*
X682Y1091D01*
X684Y1091D01*
X684Y1093D01*
X686Y1093D01*
X686Y1095D01*
X688Y1095D01*
X688Y1097D01*
X690Y1097D01*
X690Y1099D01*
X692Y1099D01*
X692Y1101D01*
X694Y1101D01*
X694Y1103D01*
X696Y1103D01*
X696Y1105D01*
X698Y1105D01*
X698Y1107D01*
X700Y1107D01*
X700Y1109D01*
X702Y1109D01*
X702Y1111D01*
X704Y1111D01*
X704Y1113D01*
X706Y1113D01*
X706Y1133D01*
X672Y1133D01*
G37*
D02*
G36*
X1162Y1107D02*
X1162Y1105D01*
X1362Y1105D01*
X1362Y1107D01*
X1162Y1107D01*
G37*
D02*
G36*
X1162Y1107D02*
X1162Y1105D01*
X1362Y1105D01*
X1362Y1107D01*
X1162Y1107D01*
G37*
D02*
G36*
X1762Y1107D02*
X1762Y1105D01*
X2044Y1105D01*
X2044Y1107D01*
X1762Y1107D01*
G37*
D02*
G36*
X1762Y1107D02*
X1762Y1105D01*
X2044Y1105D01*
X2044Y1107D01*
X1762Y1107D01*
G37*
D02*
G36*
X1162Y1105D02*
X1162Y1069D01*
X1492Y1069D01*
X1492Y1071D01*
X1474Y1071D01*
X1474Y1073D01*
X1460Y1073D01*
X1460Y1075D01*
X1450Y1075D01*
X1450Y1077D01*
X1442Y1077D01*
X1442Y1079D01*
X1432Y1079D01*
X1432Y1081D01*
X1426Y1081D01*
X1426Y1083D01*
X1418Y1083D01*
X1418Y1085D01*
X1412Y1085D01*
X1412Y1087D01*
X1406Y1087D01*
X1406Y1089D01*
X1400Y1089D01*
X1400Y1091D01*
X1394Y1091D01*
X1394Y1093D01*
X1390Y1093D01*
X1390Y1095D01*
X1384Y1095D01*
X1384Y1097D01*
X1380Y1097D01*
X1380Y1099D01*
X1376Y1099D01*
X1376Y1101D01*
X1372Y1101D01*
X1372Y1103D01*
X1366Y1103D01*
X1366Y1105D01*
X1162Y1105D01*
G37*
D02*
G36*
X1758Y1105D02*
X1758Y1103D01*
X1752Y1103D01*
X1752Y1101D01*
X1748Y1101D01*
X1748Y1099D01*
X1744Y1099D01*
X1744Y1097D01*
X1740Y1097D01*
X1740Y1095D01*
X1734Y1095D01*
X1734Y1093D01*
X1730Y1093D01*
X1730Y1091D01*
X1724Y1091D01*
X1724Y1089D01*
X1718Y1089D01*
X1718Y1087D01*
X1712Y1087D01*
X1712Y1085D01*
X1706Y1085D01*
X1706Y1083D01*
X1698Y1083D01*
X1698Y1081D01*
X1692Y1081D01*
X1692Y1079D01*
X1682Y1079D01*
X1682Y1077D01*
X1674Y1077D01*
X1674Y1075D01*
X1664Y1075D01*
X1664Y1073D01*
X1650Y1073D01*
X1650Y1071D01*
X1632Y1071D01*
X1632Y1069D01*
X2044Y1069D01*
X2044Y1105D01*
X1758Y1105D01*
G37*
D02*
G36*
X40Y1097D02*
X40Y201D01*
X146Y201D01*
X146Y199D01*
X154Y199D01*
X154Y197D01*
X160Y197D01*
X160Y195D01*
X166Y195D01*
X166Y193D01*
X170Y193D01*
X170Y191D01*
X172Y191D01*
X172Y189D01*
X176Y189D01*
X176Y187D01*
X178Y187D01*
X178Y185D01*
X180Y185D01*
X180Y183D01*
X182Y183D01*
X182Y181D01*
X184Y181D01*
X184Y179D01*
X186Y179D01*
X186Y177D01*
X188Y177D01*
X188Y173D01*
X190Y173D01*
X190Y171D01*
X192Y171D01*
X192Y167D01*
X214Y167D01*
X214Y171D01*
X216Y171D01*
X216Y175D01*
X218Y175D01*
X218Y177D01*
X220Y177D01*
X220Y179D01*
X222Y179D01*
X222Y181D01*
X224Y181D01*
X224Y183D01*
X226Y183D01*
X226Y185D01*
X228Y185D01*
X228Y187D01*
X230Y187D01*
X230Y207D01*
X228Y207D01*
X228Y209D01*
X226Y209D01*
X226Y211D01*
X224Y211D01*
X224Y213D01*
X222Y213D01*
X222Y215D01*
X220Y215D01*
X220Y217D01*
X218Y217D01*
X218Y221D01*
X216Y221D01*
X216Y225D01*
X214Y225D01*
X214Y227D01*
X212Y227D01*
X212Y235D01*
X210Y235D01*
X210Y247D01*
X208Y247D01*
X208Y249D01*
X210Y249D01*
X210Y261D01*
X212Y261D01*
X212Y267D01*
X214Y267D01*
X214Y271D01*
X216Y271D01*
X216Y275D01*
X218Y275D01*
X218Y277D01*
X220Y277D01*
X220Y279D01*
X222Y279D01*
X222Y281D01*
X224Y281D01*
X224Y283D01*
X226Y283D01*
X226Y285D01*
X228Y285D01*
X228Y287D01*
X230Y287D01*
X230Y307D01*
X228Y307D01*
X228Y309D01*
X226Y309D01*
X226Y311D01*
X224Y311D01*
X224Y313D01*
X222Y313D01*
X222Y315D01*
X220Y315D01*
X220Y317D01*
X218Y317D01*
X218Y321D01*
X216Y321D01*
X216Y325D01*
X214Y325D01*
X214Y327D01*
X212Y327D01*
X212Y335D01*
X210Y335D01*
X210Y347D01*
X208Y347D01*
X208Y349D01*
X210Y349D01*
X210Y361D01*
X212Y361D01*
X212Y367D01*
X214Y367D01*
X214Y371D01*
X216Y371D01*
X216Y375D01*
X218Y375D01*
X218Y377D01*
X220Y377D01*
X220Y379D01*
X222Y379D01*
X222Y381D01*
X224Y381D01*
X224Y383D01*
X226Y383D01*
X226Y385D01*
X228Y385D01*
X228Y387D01*
X230Y387D01*
X230Y407D01*
X228Y407D01*
X228Y409D01*
X226Y409D01*
X226Y411D01*
X224Y411D01*
X224Y413D01*
X222Y413D01*
X222Y415D01*
X220Y415D01*
X220Y417D01*
X218Y417D01*
X218Y421D01*
X216Y421D01*
X216Y425D01*
X214Y425D01*
X214Y427D01*
X212Y427D01*
X212Y435D01*
X210Y435D01*
X210Y447D01*
X208Y447D01*
X208Y449D01*
X210Y449D01*
X210Y461D01*
X212Y461D01*
X212Y467D01*
X214Y467D01*
X214Y471D01*
X216Y471D01*
X216Y475D01*
X218Y475D01*
X218Y477D01*
X220Y477D01*
X220Y479D01*
X222Y479D01*
X222Y481D01*
X224Y481D01*
X224Y483D01*
X226Y483D01*
X226Y485D01*
X228Y485D01*
X228Y487D01*
X230Y487D01*
X230Y507D01*
X228Y507D01*
X228Y509D01*
X226Y509D01*
X226Y511D01*
X224Y511D01*
X224Y513D01*
X222Y513D01*
X222Y515D01*
X220Y515D01*
X220Y517D01*
X218Y517D01*
X218Y521D01*
X216Y521D01*
X216Y525D01*
X214Y525D01*
X214Y527D01*
X212Y527D01*
X212Y535D01*
X210Y535D01*
X210Y547D01*
X208Y547D01*
X208Y549D01*
X210Y549D01*
X210Y561D01*
X212Y561D01*
X212Y567D01*
X214Y567D01*
X214Y571D01*
X216Y571D01*
X216Y575D01*
X218Y575D01*
X218Y577D01*
X220Y577D01*
X220Y579D01*
X222Y579D01*
X222Y581D01*
X224Y581D01*
X224Y583D01*
X226Y583D01*
X226Y585D01*
X228Y585D01*
X228Y587D01*
X230Y587D01*
X230Y607D01*
X228Y607D01*
X228Y609D01*
X226Y609D01*
X226Y611D01*
X224Y611D01*
X224Y613D01*
X222Y613D01*
X222Y615D01*
X220Y615D01*
X220Y617D01*
X218Y617D01*
X218Y621D01*
X216Y621D01*
X216Y625D01*
X214Y625D01*
X214Y627D01*
X212Y627D01*
X212Y635D01*
X210Y635D01*
X210Y647D01*
X208Y647D01*
X208Y649D01*
X210Y649D01*
X210Y661D01*
X212Y661D01*
X212Y667D01*
X214Y667D01*
X214Y671D01*
X216Y671D01*
X216Y675D01*
X218Y675D01*
X218Y677D01*
X220Y677D01*
X220Y679D01*
X222Y679D01*
X222Y681D01*
X224Y681D01*
X224Y683D01*
X226Y683D01*
X226Y685D01*
X228Y685D01*
X228Y687D01*
X230Y687D01*
X230Y707D01*
X228Y707D01*
X228Y709D01*
X226Y709D01*
X226Y711D01*
X224Y711D01*
X224Y713D01*
X222Y713D01*
X222Y715D01*
X220Y715D01*
X220Y717D01*
X218Y717D01*
X218Y721D01*
X216Y721D01*
X216Y725D01*
X214Y725D01*
X214Y727D01*
X212Y727D01*
X212Y735D01*
X210Y735D01*
X210Y747D01*
X208Y747D01*
X208Y749D01*
X210Y749D01*
X210Y761D01*
X212Y761D01*
X212Y767D01*
X214Y767D01*
X214Y771D01*
X216Y771D01*
X216Y775D01*
X218Y775D01*
X218Y777D01*
X220Y777D01*
X220Y779D01*
X222Y779D01*
X222Y781D01*
X224Y781D01*
X224Y783D01*
X226Y783D01*
X226Y785D01*
X228Y785D01*
X228Y787D01*
X230Y787D01*
X230Y807D01*
X228Y807D01*
X228Y809D01*
X226Y809D01*
X226Y811D01*
X224Y811D01*
X224Y813D01*
X222Y813D01*
X222Y815D01*
X220Y815D01*
X220Y817D01*
X218Y817D01*
X218Y821D01*
X216Y821D01*
X216Y825D01*
X214Y825D01*
X214Y827D01*
X212Y827D01*
X212Y835D01*
X210Y835D01*
X210Y847D01*
X208Y847D01*
X208Y849D01*
X210Y849D01*
X210Y861D01*
X212Y861D01*
X212Y867D01*
X214Y867D01*
X214Y871D01*
X216Y871D01*
X216Y875D01*
X218Y875D01*
X218Y877D01*
X220Y877D01*
X220Y879D01*
X222Y879D01*
X222Y881D01*
X224Y881D01*
X224Y883D01*
X226Y883D01*
X226Y885D01*
X228Y885D01*
X228Y887D01*
X230Y887D01*
X230Y907D01*
X228Y907D01*
X228Y909D01*
X226Y909D01*
X226Y911D01*
X224Y911D01*
X224Y913D01*
X222Y913D01*
X222Y915D01*
X220Y915D01*
X220Y917D01*
X218Y917D01*
X218Y921D01*
X216Y921D01*
X216Y925D01*
X214Y925D01*
X214Y927D01*
X212Y927D01*
X212Y935D01*
X210Y935D01*
X210Y947D01*
X208Y947D01*
X208Y949D01*
X210Y949D01*
X210Y961D01*
X212Y961D01*
X212Y967D01*
X214Y967D01*
X214Y971D01*
X216Y971D01*
X216Y975D01*
X218Y975D01*
X218Y977D01*
X220Y977D01*
X220Y979D01*
X222Y979D01*
X222Y981D01*
X224Y981D01*
X224Y983D01*
X226Y983D01*
X226Y985D01*
X228Y985D01*
X228Y987D01*
X230Y987D01*
X230Y1007D01*
X228Y1007D01*
X228Y1009D01*
X226Y1009D01*
X226Y1011D01*
X224Y1011D01*
X224Y1013D01*
X222Y1013D01*
X222Y1015D01*
X220Y1015D01*
X220Y1017D01*
X218Y1017D01*
X218Y1021D01*
X216Y1021D01*
X216Y1025D01*
X214Y1025D01*
X214Y1027D01*
X212Y1027D01*
X212Y1035D01*
X210Y1035D01*
X210Y1047D01*
X208Y1047D01*
X208Y1049D01*
X210Y1049D01*
X210Y1061D01*
X212Y1061D01*
X212Y1067D01*
X214Y1067D01*
X214Y1071D01*
X216Y1071D01*
X216Y1075D01*
X218Y1075D01*
X218Y1077D01*
X220Y1077D01*
X220Y1079D01*
X222Y1079D01*
X222Y1081D01*
X224Y1081D01*
X224Y1083D01*
X226Y1083D01*
X226Y1085D01*
X228Y1085D01*
X228Y1087D01*
X230Y1087D01*
X230Y1089D01*
X234Y1089D01*
X234Y1091D01*
X238Y1091D01*
X238Y1093D01*
X242Y1093D01*
X242Y1095D01*
X248Y1095D01*
X248Y1097D01*
X40Y1097D01*
G37*
D02*
G36*
X1162Y1069D02*
X1162Y1067D01*
X2044Y1067D01*
X2044Y1069D01*
X1162Y1069D01*
G37*
D02*
G36*
X1162Y1069D02*
X1162Y1067D01*
X2044Y1067D01*
X2044Y1069D01*
X1162Y1069D01*
G37*
D02*
G36*
X1162Y1067D02*
X1162Y1031D01*
X1164Y1031D01*
X1164Y1025D01*
X1166Y1025D01*
X1166Y1023D01*
X1168Y1023D01*
X1168Y1021D01*
X1170Y1021D01*
X1170Y1019D01*
X1172Y1019D01*
X1172Y1017D01*
X1174Y1017D01*
X1174Y1015D01*
X1176Y1015D01*
X1176Y1013D01*
X1178Y1013D01*
X1178Y1011D01*
X1180Y1011D01*
X1180Y1009D01*
X1182Y1009D01*
X1182Y1007D01*
X1184Y1007D01*
X1184Y1005D01*
X1458Y1005D01*
X1458Y1003D01*
X1852Y1003D01*
X1852Y1001D01*
X2022Y1001D01*
X2022Y1005D01*
X2024Y1005D01*
X2024Y1007D01*
X2026Y1007D01*
X2026Y1009D01*
X2028Y1009D01*
X2028Y1013D01*
X2030Y1013D01*
X2030Y1015D01*
X2032Y1015D01*
X2032Y1017D01*
X2034Y1017D01*
X2034Y1019D01*
X2036Y1019D01*
X2036Y1023D01*
X2038Y1023D01*
X2038Y1025D01*
X2040Y1025D01*
X2040Y1027D01*
X2042Y1027D01*
X2042Y1031D01*
X2044Y1031D01*
X2044Y1067D01*
X1162Y1067D01*
G37*
D02*
G36*
X304Y1029D02*
X304Y1027D01*
X624Y1027D01*
X624Y1029D01*
X304Y1029D01*
G37*
D02*
G36*
X304Y1029D02*
X304Y1027D01*
X624Y1027D01*
X624Y1029D01*
X304Y1029D01*
G37*
D02*
G36*
X304Y1027D02*
X304Y1025D01*
X302Y1025D01*
X302Y1023D01*
X300Y1023D01*
X300Y1019D01*
X298Y1019D01*
X298Y1017D01*
X456Y1017D01*
X456Y1015D01*
X462Y1015D01*
X462Y1013D01*
X464Y1013D01*
X464Y1011D01*
X468Y1011D01*
X468Y1009D01*
X470Y1009D01*
X470Y1005D01*
X472Y1005D01*
X472Y1003D01*
X474Y1003D01*
X474Y999D01*
X476Y999D01*
X476Y991D01*
X478Y991D01*
X478Y983D01*
X476Y983D01*
X476Y975D01*
X474Y975D01*
X474Y973D01*
X472Y973D01*
X472Y969D01*
X470Y969D01*
X470Y967D01*
X468Y967D01*
X468Y965D01*
X466Y965D01*
X466Y963D01*
X462Y963D01*
X462Y961D01*
X458Y961D01*
X458Y959D01*
X438Y959D01*
X438Y957D01*
X436Y957D01*
X436Y955D01*
X434Y955D01*
X434Y953D01*
X432Y953D01*
X432Y951D01*
X430Y951D01*
X430Y949D01*
X428Y949D01*
X428Y947D01*
X426Y947D01*
X426Y945D01*
X424Y945D01*
X424Y943D01*
X422Y943D01*
X422Y941D01*
X420Y941D01*
X420Y939D01*
X418Y939D01*
X418Y937D01*
X414Y937D01*
X414Y935D01*
X412Y935D01*
X412Y933D01*
X410Y933D01*
X410Y931D01*
X408Y931D01*
X408Y929D01*
X406Y929D01*
X406Y927D01*
X404Y927D01*
X404Y925D01*
X402Y925D01*
X402Y923D01*
X400Y923D01*
X400Y921D01*
X398Y921D01*
X398Y919D01*
X396Y919D01*
X396Y917D01*
X394Y917D01*
X394Y915D01*
X392Y915D01*
X392Y913D01*
X390Y913D01*
X390Y911D01*
X388Y911D01*
X388Y909D01*
X386Y909D01*
X386Y907D01*
X384Y907D01*
X384Y905D01*
X382Y905D01*
X382Y903D01*
X380Y903D01*
X380Y901D01*
X378Y901D01*
X378Y899D01*
X376Y899D01*
X376Y897D01*
X374Y897D01*
X374Y895D01*
X372Y895D01*
X372Y893D01*
X370Y893D01*
X370Y891D01*
X368Y891D01*
X368Y889D01*
X366Y889D01*
X366Y887D01*
X364Y887D01*
X364Y885D01*
X362Y885D01*
X362Y883D01*
X360Y883D01*
X360Y881D01*
X358Y881D01*
X358Y879D01*
X356Y879D01*
X356Y877D01*
X354Y877D01*
X354Y875D01*
X352Y875D01*
X352Y873D01*
X350Y873D01*
X350Y871D01*
X348Y871D01*
X348Y869D01*
X346Y869D01*
X346Y867D01*
X344Y867D01*
X344Y865D01*
X342Y865D01*
X342Y863D01*
X340Y863D01*
X340Y861D01*
X338Y861D01*
X338Y859D01*
X336Y859D01*
X336Y857D01*
X334Y857D01*
X334Y855D01*
X332Y855D01*
X332Y741D01*
X352Y741D01*
X352Y743D01*
X354Y743D01*
X354Y745D01*
X356Y745D01*
X356Y747D01*
X358Y747D01*
X358Y749D01*
X360Y749D01*
X360Y751D01*
X362Y751D01*
X362Y753D01*
X364Y753D01*
X364Y757D01*
X366Y757D01*
X366Y759D01*
X368Y759D01*
X368Y761D01*
X370Y761D01*
X370Y763D01*
X372Y763D01*
X372Y765D01*
X374Y765D01*
X374Y767D01*
X376Y767D01*
X376Y769D01*
X378Y769D01*
X378Y771D01*
X380Y771D01*
X380Y773D01*
X382Y773D01*
X382Y775D01*
X384Y775D01*
X384Y777D01*
X386Y777D01*
X386Y779D01*
X388Y779D01*
X388Y781D01*
X390Y781D01*
X390Y783D01*
X392Y783D01*
X392Y785D01*
X394Y785D01*
X394Y787D01*
X396Y787D01*
X396Y789D01*
X398Y789D01*
X398Y791D01*
X400Y791D01*
X400Y793D01*
X402Y793D01*
X402Y795D01*
X404Y795D01*
X404Y799D01*
X406Y799D01*
X406Y801D01*
X408Y801D01*
X408Y803D01*
X410Y803D01*
X410Y805D01*
X412Y805D01*
X412Y807D01*
X414Y807D01*
X414Y809D01*
X416Y809D01*
X416Y811D01*
X418Y811D01*
X418Y813D01*
X420Y813D01*
X420Y815D01*
X422Y815D01*
X422Y817D01*
X424Y817D01*
X424Y819D01*
X426Y819D01*
X426Y821D01*
X428Y821D01*
X428Y823D01*
X430Y823D01*
X430Y825D01*
X432Y825D01*
X432Y827D01*
X434Y827D01*
X434Y829D01*
X436Y829D01*
X436Y831D01*
X438Y831D01*
X438Y833D01*
X440Y833D01*
X440Y835D01*
X442Y835D01*
X442Y837D01*
X444Y837D01*
X444Y841D01*
X446Y841D01*
X446Y843D01*
X448Y843D01*
X448Y845D01*
X450Y845D01*
X450Y847D01*
X452Y847D01*
X452Y849D01*
X454Y849D01*
X454Y851D01*
X456Y851D01*
X456Y853D01*
X458Y853D01*
X458Y855D01*
X460Y855D01*
X460Y857D01*
X462Y857D01*
X462Y859D01*
X464Y859D01*
X464Y861D01*
X466Y861D01*
X466Y863D01*
X468Y863D01*
X468Y865D01*
X470Y865D01*
X470Y867D01*
X472Y867D01*
X472Y869D01*
X474Y869D01*
X474Y871D01*
X476Y871D01*
X476Y873D01*
X478Y873D01*
X478Y875D01*
X480Y875D01*
X480Y877D01*
X482Y877D01*
X482Y881D01*
X484Y881D01*
X484Y883D01*
X486Y883D01*
X486Y885D01*
X488Y885D01*
X488Y887D01*
X490Y887D01*
X490Y889D01*
X492Y889D01*
X492Y891D01*
X494Y891D01*
X494Y893D01*
X496Y893D01*
X496Y895D01*
X498Y895D01*
X498Y897D01*
X500Y897D01*
X500Y899D01*
X502Y899D01*
X502Y901D01*
X504Y901D01*
X504Y903D01*
X506Y903D01*
X506Y905D01*
X508Y905D01*
X508Y907D01*
X510Y907D01*
X510Y909D01*
X512Y909D01*
X512Y911D01*
X514Y911D01*
X514Y913D01*
X516Y913D01*
X516Y915D01*
X518Y915D01*
X518Y917D01*
X520Y917D01*
X520Y919D01*
X522Y919D01*
X522Y923D01*
X524Y923D01*
X524Y925D01*
X526Y925D01*
X526Y927D01*
X528Y927D01*
X528Y929D01*
X530Y929D01*
X530Y931D01*
X532Y931D01*
X532Y933D01*
X534Y933D01*
X534Y935D01*
X536Y935D01*
X536Y937D01*
X538Y937D01*
X538Y939D01*
X540Y939D01*
X540Y941D01*
X542Y941D01*
X542Y943D01*
X544Y943D01*
X544Y945D01*
X546Y945D01*
X546Y947D01*
X548Y947D01*
X548Y949D01*
X550Y949D01*
X550Y951D01*
X552Y951D01*
X552Y953D01*
X554Y953D01*
X554Y955D01*
X556Y955D01*
X556Y957D01*
X558Y957D01*
X558Y959D01*
X560Y959D01*
X560Y961D01*
X562Y961D01*
X562Y965D01*
X564Y965D01*
X564Y967D01*
X566Y967D01*
X566Y969D01*
X568Y969D01*
X568Y971D01*
X570Y971D01*
X570Y973D01*
X572Y973D01*
X572Y975D01*
X574Y975D01*
X574Y977D01*
X576Y977D01*
X576Y979D01*
X578Y979D01*
X578Y981D01*
X580Y981D01*
X580Y983D01*
X582Y983D01*
X582Y985D01*
X584Y985D01*
X584Y987D01*
X586Y987D01*
X586Y989D01*
X588Y989D01*
X588Y991D01*
X590Y991D01*
X590Y993D01*
X592Y993D01*
X592Y995D01*
X594Y995D01*
X594Y997D01*
X596Y997D01*
X596Y999D01*
X598Y999D01*
X598Y1001D01*
X600Y1001D01*
X600Y1005D01*
X602Y1005D01*
X602Y1007D01*
X604Y1007D01*
X604Y1009D01*
X606Y1009D01*
X606Y1011D01*
X608Y1011D01*
X608Y1013D01*
X610Y1013D01*
X610Y1015D01*
X612Y1015D01*
X612Y1017D01*
X614Y1017D01*
X614Y1019D01*
X616Y1019D01*
X616Y1021D01*
X618Y1021D01*
X618Y1023D01*
X620Y1023D01*
X620Y1025D01*
X622Y1025D01*
X622Y1027D01*
X304Y1027D01*
G37*
D02*
G36*
X296Y1017D02*
X296Y1013D01*
X294Y1013D01*
X294Y1011D01*
X290Y1011D01*
X290Y1009D01*
X288Y1009D01*
X288Y987D01*
X290Y987D01*
X290Y985D01*
X292Y985D01*
X292Y983D01*
X294Y983D01*
X294Y981D01*
X296Y981D01*
X296Y979D01*
X298Y979D01*
X298Y977D01*
X300Y977D01*
X300Y973D01*
X302Y973D01*
X302Y969D01*
X304Y969D01*
X304Y965D01*
X306Y965D01*
X306Y959D01*
X308Y959D01*
X308Y937D01*
X306Y937D01*
X306Y931D01*
X304Y931D01*
X304Y925D01*
X302Y925D01*
X302Y923D01*
X300Y923D01*
X300Y919D01*
X298Y919D01*
X298Y917D01*
X296Y917D01*
X296Y913D01*
X294Y913D01*
X294Y911D01*
X290Y911D01*
X290Y909D01*
X288Y909D01*
X288Y887D01*
X290Y887D01*
X290Y885D01*
X292Y885D01*
X292Y883D01*
X294Y883D01*
X294Y881D01*
X296Y881D01*
X296Y879D01*
X318Y879D01*
X318Y881D01*
X320Y881D01*
X320Y883D01*
X322Y883D01*
X322Y885D01*
X324Y885D01*
X324Y887D01*
X326Y887D01*
X326Y889D01*
X328Y889D01*
X328Y891D01*
X330Y891D01*
X330Y893D01*
X332Y893D01*
X332Y895D01*
X334Y895D01*
X334Y897D01*
X336Y897D01*
X336Y899D01*
X338Y899D01*
X338Y901D01*
X340Y901D01*
X340Y903D01*
X342Y903D01*
X342Y905D01*
X344Y905D01*
X344Y907D01*
X346Y907D01*
X346Y909D01*
X348Y909D01*
X348Y911D01*
X350Y911D01*
X350Y913D01*
X352Y913D01*
X352Y915D01*
X354Y915D01*
X354Y917D01*
X356Y917D01*
X356Y919D01*
X358Y919D01*
X358Y921D01*
X360Y921D01*
X360Y923D01*
X362Y923D01*
X362Y925D01*
X364Y925D01*
X364Y927D01*
X366Y927D01*
X366Y929D01*
X368Y929D01*
X368Y931D01*
X370Y931D01*
X370Y933D01*
X372Y933D01*
X372Y935D01*
X374Y935D01*
X374Y937D01*
X376Y937D01*
X376Y939D01*
X378Y939D01*
X378Y941D01*
X382Y941D01*
X382Y943D01*
X384Y943D01*
X384Y945D01*
X386Y945D01*
X386Y947D01*
X388Y947D01*
X388Y949D01*
X390Y949D01*
X390Y951D01*
X392Y951D01*
X392Y953D01*
X394Y953D01*
X394Y955D01*
X396Y955D01*
X396Y957D01*
X398Y957D01*
X398Y959D01*
X400Y959D01*
X400Y961D01*
X402Y961D01*
X402Y963D01*
X404Y963D01*
X404Y965D01*
X406Y965D01*
X406Y967D01*
X408Y967D01*
X408Y969D01*
X410Y969D01*
X410Y971D01*
X412Y971D01*
X412Y973D01*
X414Y973D01*
X414Y975D01*
X416Y975D01*
X416Y977D01*
X418Y977D01*
X418Y995D01*
X420Y995D01*
X420Y1001D01*
X422Y1001D01*
X422Y1003D01*
X424Y1003D01*
X424Y1007D01*
X426Y1007D01*
X426Y1009D01*
X428Y1009D01*
X428Y1011D01*
X432Y1011D01*
X432Y1013D01*
X434Y1013D01*
X434Y1015D01*
X440Y1015D01*
X440Y1017D01*
X296Y1017D01*
G37*
D02*
G36*
X624Y955D02*
X624Y953D01*
X622Y953D01*
X622Y951D01*
X620Y951D01*
X620Y949D01*
X618Y949D01*
X618Y947D01*
X616Y947D01*
X616Y945D01*
X614Y945D01*
X614Y943D01*
X612Y943D01*
X612Y941D01*
X610Y941D01*
X610Y939D01*
X608Y939D01*
X608Y937D01*
X606Y937D01*
X606Y935D01*
X604Y935D01*
X604Y933D01*
X602Y933D01*
X602Y931D01*
X600Y931D01*
X600Y929D01*
X598Y929D01*
X598Y927D01*
X596Y927D01*
X596Y923D01*
X594Y923D01*
X594Y921D01*
X592Y921D01*
X592Y919D01*
X590Y919D01*
X590Y917D01*
X588Y917D01*
X588Y915D01*
X586Y915D01*
X586Y913D01*
X584Y913D01*
X584Y911D01*
X582Y911D01*
X582Y909D01*
X580Y909D01*
X580Y907D01*
X578Y907D01*
X578Y905D01*
X576Y905D01*
X576Y903D01*
X574Y903D01*
X574Y901D01*
X572Y901D01*
X572Y899D01*
X570Y899D01*
X570Y897D01*
X568Y897D01*
X568Y895D01*
X566Y895D01*
X566Y893D01*
X564Y893D01*
X564Y891D01*
X562Y891D01*
X562Y889D01*
X560Y889D01*
X560Y887D01*
X558Y887D01*
X558Y885D01*
X556Y885D01*
X556Y883D01*
X554Y883D01*
X554Y881D01*
X552Y881D01*
X552Y877D01*
X550Y877D01*
X550Y875D01*
X548Y875D01*
X548Y873D01*
X546Y873D01*
X546Y871D01*
X544Y871D01*
X544Y869D01*
X542Y869D01*
X542Y867D01*
X540Y867D01*
X540Y865D01*
X538Y865D01*
X538Y863D01*
X536Y863D01*
X536Y861D01*
X534Y861D01*
X534Y859D01*
X532Y859D01*
X532Y857D01*
X530Y857D01*
X530Y855D01*
X528Y855D01*
X528Y853D01*
X526Y853D01*
X526Y851D01*
X524Y851D01*
X524Y849D01*
X522Y849D01*
X522Y847D01*
X520Y847D01*
X520Y845D01*
X518Y845D01*
X518Y843D01*
X516Y843D01*
X516Y841D01*
X514Y841D01*
X514Y839D01*
X512Y839D01*
X512Y837D01*
X510Y837D01*
X510Y835D01*
X508Y835D01*
X508Y833D01*
X506Y833D01*
X506Y829D01*
X504Y829D01*
X504Y827D01*
X502Y827D01*
X502Y825D01*
X500Y825D01*
X500Y823D01*
X498Y823D01*
X498Y821D01*
X496Y821D01*
X496Y819D01*
X494Y819D01*
X494Y817D01*
X492Y817D01*
X492Y815D01*
X490Y815D01*
X490Y813D01*
X488Y813D01*
X488Y811D01*
X486Y811D01*
X486Y809D01*
X484Y809D01*
X484Y807D01*
X482Y807D01*
X482Y805D01*
X480Y805D01*
X480Y803D01*
X478Y803D01*
X478Y801D01*
X476Y801D01*
X476Y799D01*
X474Y799D01*
X474Y797D01*
X472Y797D01*
X472Y795D01*
X470Y795D01*
X470Y793D01*
X468Y793D01*
X468Y791D01*
X466Y791D01*
X466Y789D01*
X464Y789D01*
X464Y787D01*
X462Y787D01*
X462Y783D01*
X460Y783D01*
X460Y781D01*
X458Y781D01*
X458Y779D01*
X456Y779D01*
X456Y777D01*
X454Y777D01*
X454Y775D01*
X452Y775D01*
X452Y773D01*
X450Y773D01*
X450Y771D01*
X448Y771D01*
X448Y769D01*
X446Y769D01*
X446Y767D01*
X444Y767D01*
X444Y765D01*
X442Y765D01*
X442Y763D01*
X440Y763D01*
X440Y761D01*
X438Y761D01*
X438Y759D01*
X436Y759D01*
X436Y757D01*
X434Y757D01*
X434Y755D01*
X432Y755D01*
X432Y753D01*
X430Y753D01*
X430Y751D01*
X428Y751D01*
X428Y749D01*
X426Y749D01*
X426Y747D01*
X424Y747D01*
X424Y745D01*
X422Y745D01*
X422Y743D01*
X420Y743D01*
X420Y741D01*
X418Y741D01*
X418Y739D01*
X416Y739D01*
X416Y735D01*
X414Y735D01*
X414Y733D01*
X412Y733D01*
X412Y731D01*
X410Y731D01*
X410Y729D01*
X408Y729D01*
X408Y727D01*
X406Y727D01*
X406Y725D01*
X404Y725D01*
X404Y723D01*
X402Y723D01*
X402Y627D01*
X512Y627D01*
X512Y625D01*
X520Y625D01*
X520Y623D01*
X526Y623D01*
X526Y621D01*
X532Y621D01*
X532Y619D01*
X536Y619D01*
X536Y617D01*
X538Y617D01*
X538Y615D01*
X542Y615D01*
X542Y613D01*
X544Y613D01*
X544Y611D01*
X548Y611D01*
X548Y609D01*
X550Y609D01*
X550Y607D01*
X552Y607D01*
X552Y605D01*
X554Y605D01*
X554Y603D01*
X556Y603D01*
X556Y601D01*
X558Y601D01*
X558Y599D01*
X560Y599D01*
X560Y595D01*
X562Y595D01*
X562Y593D01*
X564Y593D01*
X564Y591D01*
X566Y591D01*
X566Y587D01*
X568Y587D01*
X568Y583D01*
X570Y583D01*
X570Y579D01*
X572Y579D01*
X572Y573D01*
X574Y573D01*
X574Y567D01*
X576Y567D01*
X576Y557D01*
X578Y557D01*
X578Y539D01*
X576Y539D01*
X576Y527D01*
X574Y527D01*
X574Y521D01*
X572Y521D01*
X572Y515D01*
X570Y515D01*
X570Y511D01*
X568Y511D01*
X568Y507D01*
X566Y507D01*
X566Y505D01*
X564Y505D01*
X564Y501D01*
X562Y501D01*
X562Y499D01*
X560Y499D01*
X560Y497D01*
X558Y497D01*
X558Y495D01*
X556Y495D01*
X556Y491D01*
X554Y491D01*
X554Y489D01*
X550Y489D01*
X550Y487D01*
X548Y487D01*
X548Y485D01*
X546Y485D01*
X546Y483D01*
X544Y483D01*
X544Y481D01*
X540Y481D01*
X540Y479D01*
X538Y479D01*
X538Y477D01*
X534Y477D01*
X534Y475D01*
X530Y475D01*
X530Y473D01*
X524Y473D01*
X524Y471D01*
X516Y471D01*
X516Y469D01*
X506Y469D01*
X506Y467D01*
X618Y467D01*
X618Y469D01*
X620Y469D01*
X620Y471D01*
X622Y471D01*
X622Y475D01*
X624Y475D01*
X624Y477D01*
X626Y477D01*
X626Y479D01*
X628Y479D01*
X628Y481D01*
X630Y481D01*
X630Y483D01*
X632Y483D01*
X632Y485D01*
X634Y485D01*
X634Y487D01*
X636Y487D01*
X636Y489D01*
X638Y489D01*
X638Y491D01*
X640Y491D01*
X640Y493D01*
X644Y493D01*
X644Y495D01*
X646Y495D01*
X646Y497D01*
X650Y497D01*
X650Y499D01*
X654Y499D01*
X654Y501D01*
X658Y501D01*
X658Y503D01*
X664Y503D01*
X664Y505D01*
X674Y505D01*
X674Y507D01*
X700Y507D01*
X700Y527D01*
X698Y527D01*
X698Y529D01*
X696Y529D01*
X696Y531D01*
X694Y531D01*
X694Y833D01*
X696Y833D01*
X696Y837D01*
X698Y837D01*
X698Y839D01*
X702Y839D01*
X702Y841D01*
X706Y841D01*
X706Y843D01*
X710Y843D01*
X710Y845D01*
X714Y845D01*
X714Y847D01*
X718Y847D01*
X718Y849D01*
X722Y849D01*
X722Y851D01*
X726Y851D01*
X726Y853D01*
X730Y853D01*
X730Y855D01*
X734Y855D01*
X734Y857D01*
X738Y857D01*
X738Y859D01*
X742Y859D01*
X742Y861D01*
X746Y861D01*
X746Y863D01*
X750Y863D01*
X750Y865D01*
X754Y865D01*
X754Y887D01*
X750Y887D01*
X750Y889D01*
X748Y889D01*
X748Y891D01*
X746Y891D01*
X746Y893D01*
X684Y893D01*
X684Y895D01*
X680Y895D01*
X680Y897D01*
X678Y897D01*
X678Y899D01*
X676Y899D01*
X676Y901D01*
X674Y901D01*
X674Y903D01*
X672Y903D01*
X672Y905D01*
X670Y905D01*
X670Y907D01*
X668Y907D01*
X668Y909D01*
X666Y909D01*
X666Y911D01*
X664Y911D01*
X664Y913D01*
X662Y913D01*
X662Y915D01*
X660Y915D01*
X660Y917D01*
X658Y917D01*
X658Y919D01*
X656Y919D01*
X656Y921D01*
X654Y921D01*
X654Y923D01*
X652Y923D01*
X652Y925D01*
X650Y925D01*
X650Y927D01*
X648Y927D01*
X648Y929D01*
X646Y929D01*
X646Y931D01*
X644Y931D01*
X644Y955D01*
X624Y955D01*
G37*
D02*
G36*
X1764Y857D02*
X1764Y855D01*
X1762Y855D01*
X1762Y851D01*
X1760Y851D01*
X1760Y847D01*
X1758Y847D01*
X1758Y843D01*
X1756Y843D01*
X1756Y841D01*
X1754Y841D01*
X1754Y837D01*
X1752Y837D01*
X1752Y833D01*
X1750Y833D01*
X1750Y829D01*
X1748Y829D01*
X1748Y827D01*
X1746Y827D01*
X1746Y825D01*
X1740Y825D01*
X1740Y823D01*
X1702Y823D01*
X1702Y821D01*
X1700Y821D01*
X1700Y819D01*
X1698Y819D01*
X1698Y817D01*
X1694Y817D01*
X1694Y815D01*
X1690Y815D01*
X1690Y813D01*
X1682Y813D01*
X1682Y811D01*
X1784Y811D01*
X1784Y857D01*
X1764Y857D01*
G37*
D02*
G36*
X1878Y843D02*
X1878Y833D01*
X1876Y833D01*
X1876Y827D01*
X1874Y827D01*
X1874Y805D01*
X1876Y805D01*
X1876Y799D01*
X1878Y799D01*
X1878Y783D01*
X1876Y783D01*
X1876Y777D01*
X1874Y777D01*
X1874Y775D01*
X1872Y775D01*
X1872Y771D01*
X1870Y771D01*
X1870Y769D01*
X1868Y769D01*
X1868Y767D01*
X1864Y767D01*
X1864Y765D01*
X1860Y765D01*
X1860Y763D01*
X1852Y763D01*
X1852Y761D01*
X2008Y761D01*
X2008Y775D01*
X2010Y775D01*
X2010Y781D01*
X2012Y781D01*
X2012Y783D01*
X2014Y783D01*
X2014Y787D01*
X2016Y787D01*
X2016Y789D01*
X2018Y789D01*
X2018Y791D01*
X2022Y791D01*
X2022Y793D01*
X2024Y793D01*
X2024Y795D01*
X2028Y795D01*
X2028Y843D01*
X1878Y843D01*
G37*
D02*
G36*
X1614Y823D02*
X1614Y821D01*
X1612Y821D01*
X1612Y819D01*
X1610Y819D01*
X1610Y817D01*
X1608Y817D01*
X1608Y813D01*
X1606Y813D01*
X1606Y811D01*
X1674Y811D01*
X1674Y813D01*
X1668Y813D01*
X1668Y815D01*
X1664Y815D01*
X1664Y817D01*
X1660Y817D01*
X1660Y819D01*
X1658Y819D01*
X1658Y821D01*
X1656Y821D01*
X1656Y823D01*
X1614Y823D01*
G37*
D02*
G36*
X1604Y811D02*
X1604Y809D01*
X1786Y809D01*
X1786Y811D01*
X1604Y811D01*
G37*
D02*
G36*
X1604Y811D02*
X1604Y809D01*
X1786Y809D01*
X1786Y811D01*
X1604Y811D01*
G37*
D02*
G36*
X1602Y809D02*
X1602Y805D01*
X1600Y805D01*
X1600Y803D01*
X1598Y803D01*
X1598Y799D01*
X1596Y799D01*
X1596Y797D01*
X1594Y797D01*
X1594Y795D01*
X1592Y795D01*
X1592Y761D01*
X1844Y761D01*
X1844Y763D01*
X1838Y763D01*
X1838Y765D01*
X1834Y765D01*
X1834Y767D01*
X1830Y767D01*
X1830Y769D01*
X1828Y769D01*
X1828Y771D01*
X1826Y771D01*
X1826Y773D01*
X1824Y773D01*
X1824Y777D01*
X1822Y777D01*
X1822Y781D01*
X1820Y781D01*
X1820Y783D01*
X1812Y783D01*
X1812Y785D01*
X1808Y785D01*
X1808Y787D01*
X1806Y787D01*
X1806Y789D01*
X1804Y789D01*
X1804Y791D01*
X1802Y791D01*
X1802Y793D01*
X1800Y793D01*
X1800Y795D01*
X1798Y795D01*
X1798Y797D01*
X1796Y797D01*
X1796Y799D01*
X1794Y799D01*
X1794Y801D01*
X1792Y801D01*
X1792Y803D01*
X1790Y803D01*
X1790Y805D01*
X1788Y805D01*
X1788Y807D01*
X1786Y807D01*
X1786Y809D01*
X1602Y809D01*
G37*
D02*
G36*
X2206Y793D02*
X2206Y791D01*
X2204Y791D01*
X2204Y785D01*
X2202Y785D01*
X2202Y783D01*
X2200Y783D01*
X2200Y779D01*
X2198Y779D01*
X2198Y777D01*
X2196Y777D01*
X2196Y773D01*
X2194Y773D01*
X2194Y771D01*
X2190Y771D01*
X2190Y769D01*
X2188Y769D01*
X2188Y747D01*
X2190Y747D01*
X2190Y745D01*
X2192Y745D01*
X2192Y743D01*
X2194Y743D01*
X2194Y741D01*
X2196Y741D01*
X2196Y739D01*
X2198Y739D01*
X2198Y737D01*
X2200Y737D01*
X2200Y733D01*
X2202Y733D01*
X2202Y729D01*
X2204Y729D01*
X2204Y725D01*
X2206Y725D01*
X2206Y717D01*
X2208Y717D01*
X2208Y697D01*
X2206Y697D01*
X2206Y691D01*
X2204Y691D01*
X2204Y685D01*
X2202Y685D01*
X2202Y683D01*
X2200Y683D01*
X2200Y679D01*
X2198Y679D01*
X2198Y677D01*
X2196Y677D01*
X2196Y673D01*
X2194Y673D01*
X2194Y671D01*
X2190Y671D01*
X2190Y669D01*
X2188Y669D01*
X2188Y647D01*
X2190Y647D01*
X2190Y645D01*
X2192Y645D01*
X2192Y643D01*
X2194Y643D01*
X2194Y641D01*
X2196Y641D01*
X2196Y639D01*
X2198Y639D01*
X2198Y637D01*
X2200Y637D01*
X2200Y633D01*
X2202Y633D01*
X2202Y629D01*
X2204Y629D01*
X2204Y625D01*
X2206Y625D01*
X2206Y617D01*
X2208Y617D01*
X2208Y597D01*
X2206Y597D01*
X2206Y591D01*
X2204Y591D01*
X2204Y585D01*
X2202Y585D01*
X2202Y583D01*
X2200Y583D01*
X2200Y579D01*
X2198Y579D01*
X2198Y577D01*
X2196Y577D01*
X2196Y573D01*
X2194Y573D01*
X2194Y571D01*
X2190Y571D01*
X2190Y569D01*
X2188Y569D01*
X2188Y547D01*
X2190Y547D01*
X2190Y545D01*
X2192Y545D01*
X2192Y543D01*
X2194Y543D01*
X2194Y541D01*
X2196Y541D01*
X2196Y539D01*
X2198Y539D01*
X2198Y537D01*
X2200Y537D01*
X2200Y533D01*
X2202Y533D01*
X2202Y529D01*
X2204Y529D01*
X2204Y525D01*
X2206Y525D01*
X2206Y517D01*
X2208Y517D01*
X2208Y497D01*
X2206Y497D01*
X2206Y491D01*
X2204Y491D01*
X2204Y485D01*
X2202Y485D01*
X2202Y483D01*
X2200Y483D01*
X2200Y479D01*
X2198Y479D01*
X2198Y477D01*
X2196Y477D01*
X2196Y473D01*
X2194Y473D01*
X2194Y471D01*
X2190Y471D01*
X2190Y469D01*
X2188Y469D01*
X2188Y467D01*
X2186Y467D01*
X2186Y465D01*
X2182Y465D01*
X2182Y463D01*
X2178Y463D01*
X2178Y461D01*
X2172Y461D01*
X2172Y459D01*
X2162Y459D01*
X2162Y457D01*
X2364Y457D01*
X2364Y763D01*
X2362Y763D01*
X2362Y767D01*
X2360Y767D01*
X2360Y769D01*
X2358Y769D01*
X2358Y771D01*
X2356Y771D01*
X2356Y775D01*
X2354Y775D01*
X2354Y777D01*
X2352Y777D01*
X2352Y779D01*
X2350Y779D01*
X2350Y783D01*
X2348Y783D01*
X2348Y785D01*
X2346Y785D01*
X2346Y787D01*
X2344Y787D01*
X2344Y791D01*
X2342Y791D01*
X2342Y793D01*
X2206Y793D01*
G37*
D02*
G36*
X1592Y761D02*
X1592Y759D01*
X2008Y759D01*
X2008Y761D01*
X1592Y761D01*
G37*
D02*
G36*
X1592Y761D02*
X1592Y759D01*
X2008Y759D01*
X2008Y761D01*
X1592Y761D01*
G37*
D02*
G36*
X1592Y759D02*
X1592Y701D01*
X1726Y701D01*
X1726Y699D01*
X1732Y699D01*
X1732Y697D01*
X1734Y697D01*
X1734Y695D01*
X1738Y695D01*
X1738Y693D01*
X1740Y693D01*
X1740Y691D01*
X1742Y691D01*
X1742Y689D01*
X1744Y689D01*
X1744Y685D01*
X1746Y685D01*
X1746Y679D01*
X1748Y679D01*
X1748Y663D01*
X1746Y663D01*
X1746Y657D01*
X1744Y657D01*
X1744Y655D01*
X1742Y655D01*
X1742Y651D01*
X1740Y651D01*
X1740Y649D01*
X1738Y649D01*
X1738Y647D01*
X1734Y647D01*
X1734Y645D01*
X1730Y645D01*
X1730Y643D01*
X1826Y643D01*
X1826Y641D01*
X1832Y641D01*
X1832Y639D01*
X1834Y639D01*
X1834Y637D01*
X1838Y637D01*
X1838Y635D01*
X1840Y635D01*
X1840Y631D01*
X1842Y631D01*
X1842Y629D01*
X1844Y629D01*
X1844Y625D01*
X1846Y625D01*
X1846Y617D01*
X1848Y617D01*
X1848Y605D01*
X1850Y605D01*
X1850Y603D01*
X1852Y603D01*
X1852Y601D01*
X1854Y601D01*
X1854Y599D01*
X1856Y599D01*
X1856Y597D01*
X1858Y597D01*
X1858Y595D01*
X1860Y595D01*
X1860Y591D01*
X1862Y591D01*
X1862Y443D01*
X1864Y443D01*
X1864Y441D01*
X1866Y441D01*
X1866Y439D01*
X1868Y439D01*
X1868Y437D01*
X1870Y437D01*
X1870Y435D01*
X1872Y435D01*
X1872Y433D01*
X1874Y433D01*
X1874Y429D01*
X1876Y429D01*
X1876Y419D01*
X1878Y419D01*
X1878Y415D01*
X1876Y415D01*
X1876Y407D01*
X1874Y407D01*
X1874Y403D01*
X1872Y403D01*
X1872Y399D01*
X1870Y399D01*
X1870Y397D01*
X1868Y397D01*
X1868Y395D01*
X1866Y395D01*
X1866Y393D01*
X1862Y393D01*
X1862Y349D01*
X2038Y349D01*
X2038Y351D01*
X2034Y351D01*
X2034Y353D01*
X2030Y353D01*
X2030Y355D01*
X2028Y355D01*
X2028Y357D01*
X2026Y357D01*
X2026Y359D01*
X2024Y359D01*
X2024Y361D01*
X2022Y361D01*
X2022Y365D01*
X2020Y365D01*
X2020Y371D01*
X2018Y371D01*
X2018Y399D01*
X2016Y399D01*
X2016Y401D01*
X2012Y401D01*
X2012Y403D01*
X2010Y403D01*
X2010Y405D01*
X2008Y405D01*
X2008Y407D01*
X2006Y407D01*
X2006Y409D01*
X2004Y409D01*
X2004Y411D01*
X2002Y411D01*
X2002Y415D01*
X2000Y415D01*
X2000Y421D01*
X1998Y421D01*
X1998Y435D01*
X2000Y435D01*
X2000Y441D01*
X2002Y441D01*
X2002Y443D01*
X2004Y443D01*
X2004Y447D01*
X2006Y447D01*
X2006Y449D01*
X2008Y449D01*
X2008Y451D01*
X2012Y451D01*
X2012Y453D01*
X2014Y453D01*
X2014Y455D01*
X2020Y455D01*
X2020Y457D01*
X2034Y457D01*
X2034Y543D01*
X2032Y543D01*
X2032Y545D01*
X2030Y545D01*
X2030Y547D01*
X2028Y547D01*
X2028Y549D01*
X2026Y549D01*
X2026Y551D01*
X2024Y551D01*
X2024Y553D01*
X2022Y553D01*
X2022Y555D01*
X2020Y555D01*
X2020Y557D01*
X2018Y557D01*
X2018Y559D01*
X2016Y559D01*
X2016Y561D01*
X2014Y561D01*
X2014Y563D01*
X2012Y563D01*
X2012Y565D01*
X2010Y565D01*
X2010Y567D01*
X2008Y567D01*
X2008Y569D01*
X2006Y569D01*
X2006Y571D01*
X2004Y571D01*
X2004Y573D01*
X2002Y573D01*
X2002Y575D01*
X2000Y575D01*
X2000Y577D01*
X1998Y577D01*
X1998Y579D01*
X1996Y579D01*
X1996Y581D01*
X1994Y581D01*
X1994Y653D01*
X1996Y653D01*
X1996Y657D01*
X1998Y657D01*
X1998Y659D01*
X2000Y659D01*
X2000Y661D01*
X2004Y661D01*
X2004Y663D01*
X2006Y663D01*
X2006Y665D01*
X2008Y665D01*
X2008Y667D01*
X2010Y667D01*
X2010Y669D01*
X2014Y669D01*
X2014Y691D01*
X2010Y691D01*
X2010Y693D01*
X2006Y693D01*
X2006Y695D01*
X2004Y695D01*
X2004Y697D01*
X2002Y697D01*
X2002Y699D01*
X2000Y699D01*
X2000Y703D01*
X1998Y703D01*
X1998Y707D01*
X1996Y707D01*
X1996Y715D01*
X1994Y715D01*
X1994Y719D01*
X1996Y719D01*
X1996Y729D01*
X1998Y729D01*
X1998Y733D01*
X2000Y733D01*
X2000Y735D01*
X2002Y735D01*
X2002Y737D01*
X2004Y737D01*
X2004Y739D01*
X2006Y739D01*
X2006Y741D01*
X2008Y741D01*
X2008Y759D01*
X1592Y759D01*
G37*
D02*
G36*
X1592Y701D02*
X1592Y641D01*
X1714Y641D01*
X1714Y643D01*
X1708Y643D01*
X1708Y645D01*
X1704Y645D01*
X1704Y647D01*
X1700Y647D01*
X1700Y649D01*
X1698Y649D01*
X1698Y651D01*
X1696Y651D01*
X1696Y653D01*
X1694Y653D01*
X1694Y657D01*
X1692Y657D01*
X1692Y661D01*
X1690Y661D01*
X1690Y681D01*
X1692Y681D01*
X1692Y685D01*
X1694Y685D01*
X1694Y689D01*
X1696Y689D01*
X1696Y691D01*
X1698Y691D01*
X1698Y693D01*
X1700Y693D01*
X1700Y695D01*
X1702Y695D01*
X1702Y697D01*
X1706Y697D01*
X1706Y699D01*
X1712Y699D01*
X1712Y701D01*
X1592Y701D01*
G37*
D02*
G36*
X1722Y643D02*
X1722Y641D01*
X1808Y641D01*
X1808Y643D01*
X1722Y643D01*
G37*
D02*
G36*
X1592Y641D02*
X1592Y639D01*
X1804Y639D01*
X1804Y641D01*
X1592Y641D01*
G37*
D02*
G36*
X1592Y641D02*
X1592Y639D01*
X1804Y639D01*
X1804Y641D01*
X1592Y641D01*
G37*
D02*
G36*
X1592Y639D02*
X1592Y613D01*
X1590Y613D01*
X1590Y609D01*
X1588Y609D01*
X1588Y607D01*
X1586Y607D01*
X1586Y603D01*
X1584Y603D01*
X1584Y601D01*
X1582Y601D01*
X1582Y599D01*
X1580Y599D01*
X1580Y595D01*
X1578Y595D01*
X1578Y575D01*
X1576Y575D01*
X1576Y567D01*
X1574Y567D01*
X1574Y563D01*
X1572Y563D01*
X1572Y559D01*
X1570Y559D01*
X1570Y557D01*
X1634Y557D01*
X1634Y555D01*
X1640Y555D01*
X1640Y553D01*
X1644Y553D01*
X1644Y551D01*
X1646Y551D01*
X1646Y549D01*
X1648Y549D01*
X1648Y547D01*
X1650Y547D01*
X1650Y545D01*
X1652Y545D01*
X1652Y543D01*
X1654Y543D01*
X1654Y539D01*
X1656Y539D01*
X1656Y529D01*
X1658Y529D01*
X1658Y527D01*
X1656Y527D01*
X1656Y517D01*
X1654Y517D01*
X1654Y513D01*
X1652Y513D01*
X1652Y509D01*
X1650Y509D01*
X1650Y507D01*
X1648Y507D01*
X1648Y505D01*
X1646Y505D01*
X1646Y503D01*
X1642Y503D01*
X1642Y501D01*
X1638Y501D01*
X1638Y499D01*
X1630Y499D01*
X1630Y497D01*
X1834Y497D01*
X1834Y581D01*
X1832Y581D01*
X1832Y583D01*
X1830Y583D01*
X1830Y585D01*
X1808Y585D01*
X1808Y587D01*
X1804Y587D01*
X1804Y589D01*
X1800Y589D01*
X1800Y591D01*
X1798Y591D01*
X1798Y593D01*
X1796Y593D01*
X1796Y595D01*
X1794Y595D01*
X1794Y597D01*
X1792Y597D01*
X1792Y601D01*
X1790Y601D01*
X1790Y607D01*
X1788Y607D01*
X1788Y621D01*
X1790Y621D01*
X1790Y627D01*
X1792Y627D01*
X1792Y631D01*
X1794Y631D01*
X1794Y633D01*
X1796Y633D01*
X1796Y635D01*
X1798Y635D01*
X1798Y637D01*
X1800Y637D01*
X1800Y639D01*
X1592Y639D01*
G37*
D02*
G36*
X402Y627D02*
X402Y571D01*
X422Y571D01*
X422Y577D01*
X424Y577D01*
X424Y581D01*
X426Y581D01*
X426Y585D01*
X428Y585D01*
X428Y589D01*
X430Y589D01*
X430Y591D01*
X432Y591D01*
X432Y595D01*
X434Y595D01*
X434Y597D01*
X436Y597D01*
X436Y599D01*
X438Y599D01*
X438Y601D01*
X440Y601D01*
X440Y603D01*
X442Y603D01*
X442Y605D01*
X444Y605D01*
X444Y607D01*
X446Y607D01*
X446Y609D01*
X448Y609D01*
X448Y611D01*
X450Y611D01*
X450Y613D01*
X454Y613D01*
X454Y615D01*
X456Y615D01*
X456Y617D01*
X460Y617D01*
X460Y619D01*
X464Y619D01*
X464Y621D01*
X468Y621D01*
X468Y623D01*
X474Y623D01*
X474Y625D01*
X484Y625D01*
X484Y627D01*
X402Y627D01*
G37*
D02*
G36*
X2090Y601D02*
X2090Y599D01*
X2088Y599D01*
X2088Y597D01*
X2084Y597D01*
X2084Y595D01*
X2080Y595D01*
X2080Y593D01*
X2072Y593D01*
X2072Y571D01*
X2074Y571D01*
X2074Y569D01*
X2076Y569D01*
X2076Y567D01*
X2078Y567D01*
X2078Y565D01*
X2080Y565D01*
X2080Y561D01*
X2082Y561D01*
X2082Y457D01*
X2154Y457D01*
X2154Y459D01*
X2144Y459D01*
X2144Y461D01*
X2138Y461D01*
X2138Y463D01*
X2136Y463D01*
X2136Y465D01*
X2132Y465D01*
X2132Y467D01*
X2128Y467D01*
X2128Y469D01*
X2126Y469D01*
X2126Y471D01*
X2124Y471D01*
X2124Y473D01*
X2122Y473D01*
X2122Y475D01*
X2120Y475D01*
X2120Y477D01*
X2118Y477D01*
X2118Y481D01*
X2116Y481D01*
X2116Y485D01*
X2114Y485D01*
X2114Y487D01*
X2112Y487D01*
X2112Y495D01*
X2110Y495D01*
X2110Y505D01*
X2108Y505D01*
X2108Y509D01*
X2110Y509D01*
X2110Y521D01*
X2112Y521D01*
X2112Y527D01*
X2114Y527D01*
X2114Y531D01*
X2116Y531D01*
X2116Y535D01*
X2118Y535D01*
X2118Y537D01*
X2120Y537D01*
X2120Y539D01*
X2122Y539D01*
X2122Y543D01*
X2126Y543D01*
X2126Y545D01*
X2128Y545D01*
X2128Y547D01*
X2130Y547D01*
X2130Y567D01*
X2128Y567D01*
X2128Y569D01*
X2126Y569D01*
X2126Y571D01*
X2124Y571D01*
X2124Y573D01*
X2122Y573D01*
X2122Y575D01*
X2120Y575D01*
X2120Y577D01*
X2118Y577D01*
X2118Y581D01*
X2116Y581D01*
X2116Y585D01*
X2114Y585D01*
X2114Y587D01*
X2112Y587D01*
X2112Y595D01*
X2110Y595D01*
X2110Y601D01*
X2090Y601D01*
G37*
D02*
G36*
X1568Y557D02*
X1568Y555D01*
X1566Y555D01*
X1566Y553D01*
X1562Y553D01*
X1562Y551D01*
X1558Y551D01*
X1558Y549D01*
X1550Y549D01*
X1550Y547D01*
X1606Y547D01*
X1606Y549D01*
X1608Y549D01*
X1608Y551D01*
X1612Y551D01*
X1612Y553D01*
X1614Y553D01*
X1614Y555D01*
X1620Y555D01*
X1620Y557D01*
X1568Y557D01*
G37*
D02*
G36*
X1444Y553D02*
X1444Y551D01*
X1442Y551D01*
X1442Y549D01*
X1440Y549D01*
X1440Y547D01*
X1546Y547D01*
X1546Y549D01*
X1536Y549D01*
X1536Y551D01*
X1532Y551D01*
X1532Y553D01*
X1444Y553D01*
G37*
D02*
G36*
X1438Y547D02*
X1438Y545D01*
X1604Y545D01*
X1604Y547D01*
X1438Y547D01*
G37*
D02*
G36*
X1438Y547D02*
X1438Y545D01*
X1604Y545D01*
X1604Y547D01*
X1438Y547D01*
G37*
D02*
G36*
X1436Y545D02*
X1436Y543D01*
X1434Y543D01*
X1434Y539D01*
X1432Y539D01*
X1432Y537D01*
X1430Y537D01*
X1430Y535D01*
X1428Y535D01*
X1428Y533D01*
X1426Y533D01*
X1426Y531D01*
X1424Y531D01*
X1424Y527D01*
X1422Y527D01*
X1422Y525D01*
X1420Y525D01*
X1420Y523D01*
X1418Y523D01*
X1418Y521D01*
X1416Y521D01*
X1416Y519D01*
X1414Y519D01*
X1414Y515D01*
X1412Y515D01*
X1412Y513D01*
X1410Y513D01*
X1410Y511D01*
X1408Y511D01*
X1408Y509D01*
X1406Y509D01*
X1406Y505D01*
X1404Y505D01*
X1404Y503D01*
X1402Y503D01*
X1402Y497D01*
X1624Y497D01*
X1624Y499D01*
X1616Y499D01*
X1616Y501D01*
X1612Y501D01*
X1612Y503D01*
X1610Y503D01*
X1610Y505D01*
X1606Y505D01*
X1606Y509D01*
X1604Y509D01*
X1604Y511D01*
X1602Y511D01*
X1602Y515D01*
X1600Y515D01*
X1600Y519D01*
X1598Y519D01*
X1598Y535D01*
X1600Y535D01*
X1600Y541D01*
X1602Y541D01*
X1602Y543D01*
X1604Y543D01*
X1604Y545D01*
X1436Y545D01*
G37*
D02*
G36*
X402Y525D02*
X402Y467D01*
X488Y467D01*
X488Y469D01*
X478Y469D01*
X478Y471D01*
X472Y471D01*
X472Y473D01*
X466Y473D01*
X466Y475D01*
X462Y475D01*
X462Y477D01*
X458Y477D01*
X458Y479D01*
X454Y479D01*
X454Y481D01*
X452Y481D01*
X452Y483D01*
X450Y483D01*
X450Y485D01*
X446Y485D01*
X446Y487D01*
X444Y487D01*
X444Y489D01*
X442Y489D01*
X442Y491D01*
X440Y491D01*
X440Y493D01*
X438Y493D01*
X438Y495D01*
X436Y495D01*
X436Y497D01*
X434Y497D01*
X434Y501D01*
X432Y501D01*
X432Y503D01*
X430Y503D01*
X430Y507D01*
X428Y507D01*
X428Y509D01*
X426Y509D01*
X426Y515D01*
X424Y515D01*
X424Y519D01*
X422Y519D01*
X422Y525D01*
X402Y525D01*
G37*
D02*
G36*
X1402Y497D02*
X1402Y495D01*
X1834Y495D01*
X1834Y497D01*
X1402Y497D01*
G37*
D02*
G36*
X1402Y497D02*
X1402Y495D01*
X1834Y495D01*
X1834Y497D01*
X1402Y497D01*
G37*
D02*
G36*
X1402Y495D02*
X1402Y401D01*
X1436Y401D01*
X1436Y399D01*
X1442Y399D01*
X1442Y397D01*
X1444Y397D01*
X1444Y395D01*
X1448Y395D01*
X1448Y393D01*
X1450Y393D01*
X1450Y391D01*
X1452Y391D01*
X1452Y389D01*
X1454Y389D01*
X1454Y385D01*
X1456Y385D01*
X1456Y379D01*
X1458Y379D01*
X1458Y363D01*
X1456Y363D01*
X1456Y357D01*
X1616Y357D01*
X1616Y355D01*
X1620Y355D01*
X1620Y353D01*
X1624Y353D01*
X1624Y351D01*
X1626Y351D01*
X1626Y349D01*
X1628Y349D01*
X1628Y347D01*
X1630Y347D01*
X1630Y345D01*
X1632Y345D01*
X1632Y343D01*
X1634Y343D01*
X1634Y339D01*
X1636Y339D01*
X1636Y329D01*
X1638Y329D01*
X1638Y325D01*
X1636Y325D01*
X1636Y317D01*
X1634Y317D01*
X1634Y313D01*
X1632Y313D01*
X1632Y247D01*
X1636Y247D01*
X1636Y245D01*
X1640Y245D01*
X1640Y243D01*
X1644Y243D01*
X1644Y241D01*
X1646Y241D01*
X1646Y239D01*
X1648Y239D01*
X1648Y237D01*
X1650Y237D01*
X1650Y235D01*
X1652Y235D01*
X1652Y233D01*
X1654Y233D01*
X1654Y229D01*
X1798Y229D01*
X1798Y231D01*
X1794Y231D01*
X1794Y233D01*
X1790Y233D01*
X1790Y235D01*
X1788Y235D01*
X1788Y237D01*
X1786Y237D01*
X1786Y239D01*
X1784Y239D01*
X1784Y241D01*
X1782Y241D01*
X1782Y245D01*
X1780Y245D01*
X1780Y251D01*
X1778Y251D01*
X1778Y265D01*
X1780Y265D01*
X1780Y271D01*
X1782Y271D01*
X1782Y273D01*
X1784Y273D01*
X1784Y277D01*
X1786Y277D01*
X1786Y299D01*
X1784Y299D01*
X1784Y301D01*
X1782Y301D01*
X1782Y305D01*
X1780Y305D01*
X1780Y311D01*
X1778Y311D01*
X1778Y325D01*
X1780Y325D01*
X1780Y331D01*
X1782Y331D01*
X1782Y333D01*
X1784Y333D01*
X1784Y337D01*
X1786Y337D01*
X1786Y339D01*
X1788Y339D01*
X1788Y341D01*
X1792Y341D01*
X1792Y343D01*
X1794Y343D01*
X1794Y345D01*
X1800Y345D01*
X1800Y347D01*
X1824Y347D01*
X1824Y349D01*
X1828Y349D01*
X1828Y351D01*
X1830Y351D01*
X1830Y353D01*
X1832Y353D01*
X1832Y355D01*
X1834Y355D01*
X1834Y391D01*
X1832Y391D01*
X1832Y393D01*
X1830Y393D01*
X1830Y395D01*
X1828Y395D01*
X1828Y397D01*
X1826Y397D01*
X1826Y399D01*
X1824Y399D01*
X1824Y401D01*
X1822Y401D01*
X1822Y405D01*
X1820Y405D01*
X1820Y411D01*
X1818Y411D01*
X1818Y425D01*
X1820Y425D01*
X1820Y431D01*
X1822Y431D01*
X1822Y433D01*
X1824Y433D01*
X1824Y437D01*
X1826Y437D01*
X1826Y439D01*
X1828Y439D01*
X1828Y441D01*
X1832Y441D01*
X1832Y443D01*
X1834Y443D01*
X1834Y495D01*
X1402Y495D01*
G37*
D02*
G36*
X402Y467D02*
X402Y465D01*
X618Y465D01*
X618Y467D01*
X402Y467D01*
G37*
D02*
G36*
X402Y467D02*
X402Y465D01*
X618Y465D01*
X618Y467D01*
X402Y467D01*
G37*
D02*
G36*
X402Y465D02*
X402Y387D01*
X512Y387D01*
X512Y385D01*
X520Y385D01*
X520Y383D01*
X526Y383D01*
X526Y381D01*
X532Y381D01*
X532Y379D01*
X536Y379D01*
X536Y377D01*
X538Y377D01*
X538Y375D01*
X542Y375D01*
X542Y373D01*
X544Y373D01*
X544Y371D01*
X548Y371D01*
X548Y369D01*
X550Y369D01*
X550Y367D01*
X552Y367D01*
X552Y365D01*
X554Y365D01*
X554Y363D01*
X556Y363D01*
X556Y361D01*
X558Y361D01*
X558Y359D01*
X560Y359D01*
X560Y355D01*
X562Y355D01*
X562Y353D01*
X564Y353D01*
X564Y351D01*
X566Y351D01*
X566Y347D01*
X678Y347D01*
X678Y349D01*
X668Y349D01*
X668Y351D01*
X662Y351D01*
X662Y353D01*
X656Y353D01*
X656Y355D01*
X652Y355D01*
X652Y357D01*
X648Y357D01*
X648Y359D01*
X644Y359D01*
X644Y361D01*
X642Y361D01*
X642Y363D01*
X640Y363D01*
X640Y365D01*
X636Y365D01*
X636Y367D01*
X634Y367D01*
X634Y369D01*
X632Y369D01*
X632Y371D01*
X630Y371D01*
X630Y373D01*
X628Y373D01*
X628Y375D01*
X626Y375D01*
X626Y377D01*
X624Y377D01*
X624Y381D01*
X622Y381D01*
X622Y383D01*
X620Y383D01*
X620Y387D01*
X618Y387D01*
X618Y389D01*
X616Y389D01*
X616Y395D01*
X614Y395D01*
X614Y399D01*
X612Y399D01*
X612Y405D01*
X610Y405D01*
X610Y413D01*
X608Y413D01*
X608Y441D01*
X610Y441D01*
X610Y451D01*
X612Y451D01*
X612Y457D01*
X614Y457D01*
X614Y461D01*
X616Y461D01*
X616Y465D01*
X402Y465D01*
G37*
D02*
G36*
X2082Y457D02*
X2082Y455D01*
X2364Y455D01*
X2364Y457D01*
X2082Y457D01*
G37*
D02*
G36*
X2082Y457D02*
X2082Y455D01*
X2364Y455D01*
X2364Y457D01*
X2082Y457D01*
G37*
D02*
G36*
X2082Y455D02*
X2082Y437D01*
X2156Y437D01*
X2156Y435D01*
X2162Y435D01*
X2162Y433D01*
X2164Y433D01*
X2164Y431D01*
X2168Y431D01*
X2168Y429D01*
X2170Y429D01*
X2170Y427D01*
X2256Y427D01*
X2256Y425D01*
X2262Y425D01*
X2262Y423D01*
X2264Y423D01*
X2264Y421D01*
X2268Y421D01*
X2268Y419D01*
X2270Y419D01*
X2270Y415D01*
X2272Y415D01*
X2272Y413D01*
X2274Y413D01*
X2274Y409D01*
X2276Y409D01*
X2276Y401D01*
X2278Y401D01*
X2278Y393D01*
X2276Y393D01*
X2276Y385D01*
X2274Y385D01*
X2274Y383D01*
X2272Y383D01*
X2272Y379D01*
X2270Y379D01*
X2270Y377D01*
X2268Y377D01*
X2268Y375D01*
X2266Y375D01*
X2266Y373D01*
X2262Y373D01*
X2262Y323D01*
X2260Y323D01*
X2260Y319D01*
X2258Y319D01*
X2258Y317D01*
X2256Y317D01*
X2256Y315D01*
X2254Y315D01*
X2254Y313D01*
X2252Y313D01*
X2252Y311D01*
X2250Y311D01*
X2250Y309D01*
X2248Y309D01*
X2248Y307D01*
X2246Y307D01*
X2246Y305D01*
X2244Y305D01*
X2244Y303D01*
X2242Y303D01*
X2242Y301D01*
X2240Y301D01*
X2240Y299D01*
X2238Y299D01*
X2238Y297D01*
X2236Y297D01*
X2236Y295D01*
X2234Y295D01*
X2234Y293D01*
X2232Y293D01*
X2232Y291D01*
X2230Y291D01*
X2230Y271D01*
X2260Y271D01*
X2260Y273D01*
X2304Y273D01*
X2304Y275D01*
X2306Y275D01*
X2306Y277D01*
X2308Y277D01*
X2308Y279D01*
X2310Y279D01*
X2310Y281D01*
X2312Y281D01*
X2312Y283D01*
X2314Y283D01*
X2314Y285D01*
X2316Y285D01*
X2316Y287D01*
X2318Y287D01*
X2318Y289D01*
X2320Y289D01*
X2320Y291D01*
X2322Y291D01*
X2322Y293D01*
X2324Y293D01*
X2324Y373D01*
X2320Y373D01*
X2320Y375D01*
X2318Y375D01*
X2318Y377D01*
X2316Y377D01*
X2316Y379D01*
X2314Y379D01*
X2314Y381D01*
X2312Y381D01*
X2312Y385D01*
X2310Y385D01*
X2310Y391D01*
X2308Y391D01*
X2308Y405D01*
X2310Y405D01*
X2310Y411D01*
X2312Y411D01*
X2312Y413D01*
X2314Y413D01*
X2314Y417D01*
X2316Y417D01*
X2316Y419D01*
X2318Y419D01*
X2318Y421D01*
X2322Y421D01*
X2322Y423D01*
X2324Y423D01*
X2324Y425D01*
X2330Y425D01*
X2330Y427D01*
X2364Y427D01*
X2364Y455D01*
X2082Y455D01*
G37*
D02*
G36*
X766Y445D02*
X766Y437D01*
X768Y437D01*
X768Y419D01*
X766Y419D01*
X766Y407D01*
X764Y407D01*
X764Y401D01*
X762Y401D01*
X762Y395D01*
X760Y395D01*
X760Y391D01*
X758Y391D01*
X758Y387D01*
X756Y387D01*
X756Y385D01*
X754Y385D01*
X754Y381D01*
X752Y381D01*
X752Y379D01*
X750Y379D01*
X750Y377D01*
X748Y377D01*
X748Y375D01*
X746Y375D01*
X746Y371D01*
X744Y371D01*
X744Y369D01*
X740Y369D01*
X740Y367D01*
X738Y367D01*
X738Y365D01*
X736Y365D01*
X736Y363D01*
X734Y363D01*
X734Y361D01*
X730Y361D01*
X730Y359D01*
X728Y359D01*
X728Y357D01*
X724Y357D01*
X724Y355D01*
X720Y355D01*
X720Y353D01*
X714Y353D01*
X714Y351D01*
X706Y351D01*
X706Y349D01*
X696Y349D01*
X696Y347D01*
X886Y347D01*
X886Y349D01*
X884Y349D01*
X884Y351D01*
X882Y351D01*
X882Y353D01*
X880Y353D01*
X880Y355D01*
X878Y355D01*
X878Y357D01*
X876Y357D01*
X876Y359D01*
X874Y359D01*
X874Y361D01*
X872Y361D01*
X872Y363D01*
X870Y363D01*
X870Y365D01*
X868Y365D01*
X868Y367D01*
X866Y367D01*
X866Y369D01*
X864Y369D01*
X864Y371D01*
X862Y371D01*
X862Y373D01*
X858Y373D01*
X858Y375D01*
X856Y375D01*
X856Y377D01*
X854Y377D01*
X854Y379D01*
X852Y379D01*
X852Y381D01*
X850Y381D01*
X850Y383D01*
X848Y383D01*
X848Y385D01*
X846Y385D01*
X846Y387D01*
X844Y387D01*
X844Y389D01*
X842Y389D01*
X842Y391D01*
X840Y391D01*
X840Y393D01*
X838Y393D01*
X838Y395D01*
X836Y395D01*
X836Y397D01*
X834Y397D01*
X834Y399D01*
X832Y399D01*
X832Y401D01*
X830Y401D01*
X830Y403D01*
X828Y403D01*
X828Y405D01*
X826Y405D01*
X826Y407D01*
X824Y407D01*
X824Y409D01*
X822Y409D01*
X822Y411D01*
X820Y411D01*
X820Y413D01*
X816Y413D01*
X816Y415D01*
X814Y415D01*
X814Y417D01*
X812Y417D01*
X812Y419D01*
X810Y419D01*
X810Y421D01*
X808Y421D01*
X808Y423D01*
X806Y423D01*
X806Y425D01*
X804Y425D01*
X804Y427D01*
X802Y427D01*
X802Y429D01*
X800Y429D01*
X800Y431D01*
X798Y431D01*
X798Y433D01*
X796Y433D01*
X796Y435D01*
X794Y435D01*
X794Y437D01*
X792Y437D01*
X792Y439D01*
X790Y439D01*
X790Y441D01*
X788Y441D01*
X788Y443D01*
X786Y443D01*
X786Y445D01*
X766Y445D01*
G37*
D02*
G36*
X2082Y437D02*
X2082Y383D01*
X2080Y383D01*
X2080Y379D01*
X2138Y379D01*
X2138Y381D01*
X2134Y381D01*
X2134Y383D01*
X2130Y383D01*
X2130Y385D01*
X2128Y385D01*
X2128Y387D01*
X2126Y387D01*
X2126Y389D01*
X2124Y389D01*
X2124Y391D01*
X2122Y391D01*
X2122Y395D01*
X2120Y395D01*
X2120Y401D01*
X2118Y401D01*
X2118Y415D01*
X2120Y415D01*
X2120Y421D01*
X2122Y421D01*
X2122Y423D01*
X2124Y423D01*
X2124Y427D01*
X2126Y427D01*
X2126Y429D01*
X2128Y429D01*
X2128Y431D01*
X2132Y431D01*
X2132Y433D01*
X2134Y433D01*
X2134Y435D01*
X2140Y435D01*
X2140Y437D01*
X2082Y437D01*
G37*
D02*
G36*
X2170Y427D02*
X2170Y425D01*
X2172Y425D01*
X2172Y423D01*
X2174Y423D01*
X2174Y419D01*
X2176Y419D01*
X2176Y411D01*
X2178Y411D01*
X2178Y403D01*
X2176Y403D01*
X2176Y395D01*
X2174Y395D01*
X2174Y393D01*
X2172Y393D01*
X2172Y389D01*
X2170Y389D01*
X2170Y387D01*
X2168Y387D01*
X2168Y385D01*
X2166Y385D01*
X2166Y383D01*
X2162Y383D01*
X2162Y381D01*
X2158Y381D01*
X2158Y379D01*
X2224Y379D01*
X2224Y381D01*
X2222Y381D01*
X2222Y385D01*
X2220Y385D01*
X2220Y391D01*
X2218Y391D01*
X2218Y405D01*
X2220Y405D01*
X2220Y411D01*
X2222Y411D01*
X2222Y413D01*
X2224Y413D01*
X2224Y417D01*
X2226Y417D01*
X2226Y419D01*
X2228Y419D01*
X2228Y421D01*
X2232Y421D01*
X2232Y423D01*
X2234Y423D01*
X2234Y425D01*
X2240Y425D01*
X2240Y427D01*
X2170Y427D01*
G37*
D02*
G36*
X1402Y401D02*
X1402Y399D01*
X1422Y399D01*
X1422Y401D01*
X1402Y401D01*
G37*
D02*
G36*
X402Y387D02*
X402Y373D01*
X404Y373D01*
X404Y371D01*
X406Y371D01*
X406Y369D01*
X408Y369D01*
X408Y367D01*
X410Y367D01*
X410Y365D01*
X412Y365D01*
X412Y363D01*
X414Y363D01*
X414Y359D01*
X416Y359D01*
X416Y357D01*
X436Y357D01*
X436Y359D01*
X438Y359D01*
X438Y361D01*
X440Y361D01*
X440Y363D01*
X442Y363D01*
X442Y365D01*
X444Y365D01*
X444Y367D01*
X446Y367D01*
X446Y369D01*
X448Y369D01*
X448Y371D01*
X450Y371D01*
X450Y373D01*
X454Y373D01*
X454Y375D01*
X456Y375D01*
X456Y377D01*
X460Y377D01*
X460Y379D01*
X464Y379D01*
X464Y381D01*
X468Y381D01*
X468Y383D01*
X474Y383D01*
X474Y385D01*
X484Y385D01*
X484Y387D01*
X402Y387D01*
G37*
D02*
G36*
X2078Y379D02*
X2078Y377D01*
X2226Y377D01*
X2226Y379D01*
X2078Y379D01*
G37*
D02*
G36*
X2078Y379D02*
X2078Y377D01*
X2226Y377D01*
X2226Y379D01*
X2078Y379D01*
G37*
D02*
G36*
X2078Y377D02*
X2078Y373D01*
X2076Y373D01*
X2076Y365D01*
X2074Y365D01*
X2074Y363D01*
X2072Y363D01*
X2072Y359D01*
X2070Y359D01*
X2070Y357D01*
X2068Y357D01*
X2068Y355D01*
X2066Y355D01*
X2066Y353D01*
X2062Y353D01*
X2062Y351D01*
X2058Y351D01*
X2058Y349D01*
X2234Y349D01*
X2234Y373D01*
X2230Y373D01*
X2230Y375D01*
X2228Y375D01*
X2228Y377D01*
X2078Y377D01*
G37*
D02*
G36*
X1454Y357D02*
X1454Y355D01*
X1452Y355D01*
X1452Y351D01*
X1450Y351D01*
X1450Y331D01*
X1452Y331D01*
X1452Y329D01*
X1454Y329D01*
X1454Y325D01*
X1456Y325D01*
X1456Y319D01*
X1458Y319D01*
X1458Y303D01*
X1456Y303D01*
X1456Y297D01*
X1454Y297D01*
X1454Y295D01*
X1452Y295D01*
X1452Y291D01*
X1450Y291D01*
X1450Y289D01*
X1448Y289D01*
X1448Y287D01*
X1444Y287D01*
X1444Y285D01*
X1440Y285D01*
X1440Y283D01*
X1432Y283D01*
X1432Y281D01*
X1604Y281D01*
X1604Y299D01*
X1596Y299D01*
X1596Y301D01*
X1592Y301D01*
X1592Y303D01*
X1590Y303D01*
X1590Y305D01*
X1588Y305D01*
X1588Y307D01*
X1586Y307D01*
X1586Y309D01*
X1584Y309D01*
X1584Y311D01*
X1582Y311D01*
X1582Y315D01*
X1580Y315D01*
X1580Y321D01*
X1578Y321D01*
X1578Y335D01*
X1580Y335D01*
X1580Y341D01*
X1582Y341D01*
X1582Y343D01*
X1584Y343D01*
X1584Y347D01*
X1586Y347D01*
X1586Y349D01*
X1588Y349D01*
X1588Y351D01*
X1592Y351D01*
X1592Y353D01*
X1594Y353D01*
X1594Y355D01*
X1600Y355D01*
X1600Y357D01*
X1454Y357D01*
G37*
D02*
G36*
X1862Y349D02*
X1862Y347D01*
X2234Y347D01*
X2234Y349D01*
X1862Y349D01*
G37*
D02*
G36*
X1862Y349D02*
X1862Y347D01*
X2234Y347D01*
X2234Y349D01*
X1862Y349D01*
G37*
D02*
G36*
X568Y347D02*
X568Y345D01*
X888Y345D01*
X888Y347D01*
X568Y347D01*
G37*
D02*
G36*
X568Y347D02*
X568Y345D01*
X888Y345D01*
X888Y347D01*
X568Y347D01*
G37*
D02*
G36*
X1862Y347D02*
X1862Y345D01*
X1860Y345D01*
X1860Y339D01*
X1858Y339D01*
X1858Y337D01*
X1856Y337D01*
X1856Y335D01*
X1852Y335D01*
X1852Y333D01*
X1850Y333D01*
X1850Y331D01*
X1848Y331D01*
X1848Y311D01*
X2212Y311D01*
X2212Y313D01*
X2214Y313D01*
X2214Y315D01*
X2216Y315D01*
X2216Y317D01*
X2218Y317D01*
X2218Y319D01*
X2220Y319D01*
X2220Y321D01*
X2222Y321D01*
X2222Y323D01*
X2224Y323D01*
X2224Y325D01*
X2226Y325D01*
X2226Y327D01*
X2228Y327D01*
X2228Y329D01*
X2230Y329D01*
X2230Y331D01*
X2232Y331D01*
X2232Y333D01*
X2234Y333D01*
X2234Y347D01*
X1862Y347D01*
G37*
D02*
G36*
X568Y345D02*
X568Y343D01*
X570Y343D01*
X570Y339D01*
X572Y339D01*
X572Y333D01*
X574Y333D01*
X574Y327D01*
X576Y327D01*
X576Y317D01*
X578Y317D01*
X578Y299D01*
X576Y299D01*
X576Y287D01*
X574Y287D01*
X574Y281D01*
X1424Y281D01*
X1424Y283D01*
X1418Y283D01*
X1418Y285D01*
X1414Y285D01*
X1414Y287D01*
X1410Y287D01*
X1410Y289D01*
X1408Y289D01*
X1408Y291D01*
X1406Y291D01*
X1406Y293D01*
X1404Y293D01*
X1404Y297D01*
X1402Y297D01*
X1402Y301D01*
X1400Y301D01*
X1400Y313D01*
X926Y313D01*
X926Y315D01*
X920Y315D01*
X920Y317D01*
X918Y317D01*
X918Y319D01*
X916Y319D01*
X916Y321D01*
X914Y321D01*
X914Y323D01*
X912Y323D01*
X912Y325D01*
X910Y325D01*
X910Y327D01*
X908Y327D01*
X908Y329D01*
X906Y329D01*
X906Y331D01*
X904Y331D01*
X904Y333D01*
X900Y333D01*
X900Y335D01*
X898Y335D01*
X898Y337D01*
X896Y337D01*
X896Y339D01*
X894Y339D01*
X894Y341D01*
X892Y341D01*
X892Y343D01*
X890Y343D01*
X890Y345D01*
X568Y345D01*
G37*
D02*
G36*
X398Y321D02*
X398Y319D01*
X390Y319D01*
X390Y317D01*
X418Y317D01*
X418Y321D01*
X398Y321D01*
G37*
D02*
G36*
X362Y319D02*
X362Y317D01*
X386Y317D01*
X386Y319D01*
X362Y319D01*
G37*
D02*
G36*
X362Y317D02*
X362Y315D01*
X418Y315D01*
X418Y317D01*
X362Y317D01*
G37*
D02*
G36*
X362Y317D02*
X362Y315D01*
X418Y315D01*
X418Y317D01*
X362Y317D01*
G37*
D02*
G36*
X362Y315D02*
X362Y243D01*
X360Y243D01*
X360Y239D01*
X358Y239D01*
X358Y237D01*
X356Y237D01*
X356Y235D01*
X354Y235D01*
X354Y233D01*
X352Y233D01*
X352Y229D01*
X350Y229D01*
X350Y227D01*
X488Y227D01*
X488Y229D01*
X478Y229D01*
X478Y231D01*
X472Y231D01*
X472Y233D01*
X466Y233D01*
X466Y235D01*
X462Y235D01*
X462Y237D01*
X458Y237D01*
X458Y239D01*
X454Y239D01*
X454Y241D01*
X452Y241D01*
X452Y243D01*
X450Y243D01*
X450Y245D01*
X446Y245D01*
X446Y247D01*
X444Y247D01*
X444Y249D01*
X442Y249D01*
X442Y251D01*
X440Y251D01*
X440Y253D01*
X438Y253D01*
X438Y255D01*
X436Y255D01*
X436Y257D01*
X434Y257D01*
X434Y261D01*
X432Y261D01*
X432Y263D01*
X430Y263D01*
X430Y267D01*
X428Y267D01*
X428Y269D01*
X426Y269D01*
X426Y275D01*
X424Y275D01*
X424Y279D01*
X422Y279D01*
X422Y285D01*
X420Y285D01*
X420Y293D01*
X418Y293D01*
X418Y315D01*
X362Y315D01*
G37*
D02*
G36*
X572Y281D02*
X572Y279D01*
X1604Y279D01*
X1604Y281D01*
X572Y281D01*
G37*
D02*
G36*
X572Y281D02*
X572Y279D01*
X1604Y279D01*
X1604Y281D01*
X572Y281D01*
G37*
D02*
G36*
X572Y279D02*
X572Y275D01*
X570Y275D01*
X570Y271D01*
X568Y271D01*
X568Y267D01*
X566Y267D01*
X566Y265D01*
X564Y265D01*
X564Y261D01*
X562Y261D01*
X562Y259D01*
X560Y259D01*
X560Y257D01*
X558Y257D01*
X558Y255D01*
X556Y255D01*
X556Y251D01*
X554Y251D01*
X554Y249D01*
X550Y249D01*
X550Y247D01*
X548Y247D01*
X548Y245D01*
X546Y245D01*
X546Y243D01*
X544Y243D01*
X544Y241D01*
X540Y241D01*
X540Y239D01*
X538Y239D01*
X538Y237D01*
X534Y237D01*
X534Y235D01*
X530Y235D01*
X530Y233D01*
X524Y233D01*
X524Y231D01*
X516Y231D01*
X516Y229D01*
X506Y229D01*
X506Y227D01*
X1600Y227D01*
X1600Y231D01*
X1602Y231D01*
X1602Y233D01*
X1604Y233D01*
X1604Y279D01*
X572Y279D01*
G37*
D02*
G36*
X2344Y275D02*
X2344Y273D01*
X2342Y273D01*
X2342Y271D01*
X2340Y271D01*
X2340Y269D01*
X2338Y269D01*
X2338Y267D01*
X2336Y267D01*
X2336Y265D01*
X2334Y265D01*
X2334Y263D01*
X2332Y263D01*
X2332Y261D01*
X2330Y261D01*
X2330Y259D01*
X2328Y259D01*
X2328Y257D01*
X2326Y257D01*
X2326Y255D01*
X2324Y255D01*
X2324Y253D01*
X2322Y253D01*
X2322Y251D01*
X2320Y251D01*
X2320Y249D01*
X2318Y249D01*
X2318Y247D01*
X2316Y247D01*
X2316Y245D01*
X2272Y245D01*
X2272Y243D01*
X1832Y243D01*
X1832Y239D01*
X1830Y239D01*
X1830Y237D01*
X1828Y237D01*
X1828Y235D01*
X1826Y235D01*
X1826Y233D01*
X1822Y233D01*
X1822Y231D01*
X1818Y231D01*
X1818Y229D01*
X2364Y229D01*
X2364Y275D01*
X2344Y275D01*
G37*
D02*
G36*
X1656Y229D02*
X1656Y227D01*
X2364Y227D01*
X2364Y229D01*
X1656Y229D01*
G37*
D02*
G36*
X1656Y229D02*
X1656Y227D01*
X2364Y227D01*
X2364Y229D01*
X1656Y229D01*
G37*
D02*
G36*
X348Y227D02*
X348Y225D01*
X1600Y225D01*
X1600Y227D01*
X348Y227D01*
G37*
D02*
G36*
X348Y227D02*
X348Y225D01*
X1600Y225D01*
X1600Y227D01*
X348Y227D01*
G37*
D02*
G36*
X1656Y227D02*
X1656Y219D01*
X1658Y219D01*
X1658Y215D01*
X1656Y215D01*
X1656Y207D01*
X1654Y207D01*
X1654Y203D01*
X1652Y203D01*
X1652Y199D01*
X1650Y199D01*
X1650Y197D01*
X1648Y197D01*
X1648Y195D01*
X1646Y195D01*
X1646Y193D01*
X1642Y193D01*
X1642Y191D01*
X1638Y191D01*
X1638Y189D01*
X1630Y189D01*
X1630Y187D01*
X2334Y187D01*
X2334Y191D01*
X2336Y191D01*
X2336Y193D01*
X2338Y193D01*
X2338Y195D01*
X2340Y195D01*
X2340Y197D01*
X2342Y197D01*
X2342Y199D01*
X2344Y199D01*
X2344Y201D01*
X2346Y201D01*
X2346Y203D01*
X2348Y203D01*
X2348Y207D01*
X2350Y207D01*
X2350Y209D01*
X2352Y209D01*
X2352Y211D01*
X2354Y211D01*
X2354Y213D01*
X2356Y213D01*
X2356Y215D01*
X2358Y215D01*
X2358Y217D01*
X2360Y217D01*
X2360Y219D01*
X2362Y219D01*
X2362Y221D01*
X2364Y221D01*
X2364Y227D01*
X1656Y227D01*
G37*
D02*
G36*
X346Y225D02*
X346Y223D01*
X344Y223D01*
X344Y221D01*
X342Y221D01*
X342Y219D01*
X340Y219D01*
X340Y217D01*
X338Y217D01*
X338Y215D01*
X336Y215D01*
X336Y213D01*
X334Y213D01*
X334Y209D01*
X332Y209D01*
X332Y207D01*
X330Y207D01*
X330Y205D01*
X328Y205D01*
X328Y203D01*
X326Y203D01*
X326Y201D01*
X324Y201D01*
X324Y199D01*
X322Y199D01*
X322Y197D01*
X320Y197D01*
X320Y195D01*
X318Y195D01*
X318Y191D01*
X316Y191D01*
X316Y189D01*
X314Y189D01*
X314Y187D01*
X1626Y187D01*
X1626Y189D01*
X1616Y189D01*
X1616Y191D01*
X1612Y191D01*
X1612Y193D01*
X1610Y193D01*
X1610Y195D01*
X1608Y195D01*
X1608Y197D01*
X1606Y197D01*
X1606Y199D01*
X1604Y199D01*
X1604Y201D01*
X1602Y201D01*
X1602Y205D01*
X1600Y205D01*
X1600Y211D01*
X1598Y211D01*
X1598Y225D01*
X346Y225D01*
G37*
D02*
G36*
X40Y201D02*
X40Y133D01*
X42Y133D01*
X42Y125D01*
X44Y125D01*
X44Y119D01*
X46Y119D01*
X46Y113D01*
X48Y113D01*
X48Y109D01*
X50Y109D01*
X50Y105D01*
X52Y105D01*
X52Y101D01*
X54Y101D01*
X54Y97D01*
X56Y97D01*
X56Y95D01*
X58Y95D01*
X58Y91D01*
X60Y91D01*
X60Y89D01*
X62Y89D01*
X62Y85D01*
X64Y85D01*
X64Y83D01*
X66Y83D01*
X66Y81D01*
X68Y81D01*
X68Y79D01*
X70Y79D01*
X70Y77D01*
X72Y77D01*
X72Y75D01*
X124Y75D01*
X124Y77D01*
X118Y77D01*
X118Y79D01*
X112Y79D01*
X112Y81D01*
X108Y81D01*
X108Y83D01*
X104Y83D01*
X104Y85D01*
X102Y85D01*
X102Y87D01*
X98Y87D01*
X98Y89D01*
X96Y89D01*
X96Y91D01*
X94Y91D01*
X94Y93D01*
X92Y93D01*
X92Y95D01*
X90Y95D01*
X90Y97D01*
X88Y97D01*
X88Y99D01*
X86Y99D01*
X86Y103D01*
X84Y103D01*
X84Y107D01*
X82Y107D01*
X82Y109D01*
X80Y109D01*
X80Y115D01*
X78Y115D01*
X78Y121D01*
X76Y121D01*
X76Y129D01*
X74Y129D01*
X74Y145D01*
X76Y145D01*
X76Y155D01*
X78Y155D01*
X78Y161D01*
X80Y161D01*
X80Y165D01*
X82Y165D01*
X82Y169D01*
X84Y169D01*
X84Y173D01*
X86Y173D01*
X86Y175D01*
X88Y175D01*
X88Y177D01*
X90Y177D01*
X90Y179D01*
X92Y179D01*
X92Y183D01*
X96Y183D01*
X96Y185D01*
X98Y185D01*
X98Y187D01*
X100Y187D01*
X100Y189D01*
X102Y189D01*
X102Y191D01*
X106Y191D01*
X106Y193D01*
X110Y193D01*
X110Y195D01*
X114Y195D01*
X114Y197D01*
X120Y197D01*
X120Y199D01*
X130Y199D01*
X130Y201D01*
X40Y201D01*
G37*
D02*
G36*
X312Y187D02*
X312Y185D01*
X2332Y185D01*
X2332Y187D01*
X312Y187D01*
G37*
D02*
G36*
X312Y187D02*
X312Y185D01*
X2332Y185D01*
X2332Y187D01*
X312Y187D01*
G37*
D02*
G36*
X310Y185D02*
X310Y183D01*
X308Y183D01*
X308Y181D01*
X306Y181D01*
X306Y179D01*
X1590Y179D01*
X1590Y177D01*
X1596Y177D01*
X1596Y175D01*
X1600Y175D01*
X1600Y173D01*
X1602Y173D01*
X1602Y171D01*
X1604Y171D01*
X1604Y169D01*
X1606Y169D01*
X1606Y167D01*
X1608Y167D01*
X1608Y165D01*
X1610Y165D01*
X1610Y161D01*
X1612Y161D01*
X1612Y151D01*
X1614Y151D01*
X1614Y141D01*
X2292Y141D01*
X2292Y143D01*
X2294Y143D01*
X2294Y145D01*
X2296Y145D01*
X2296Y147D01*
X2298Y147D01*
X2298Y149D01*
X2300Y149D01*
X2300Y151D01*
X2302Y151D01*
X2302Y153D01*
X2304Y153D01*
X2304Y157D01*
X2306Y157D01*
X2306Y159D01*
X2308Y159D01*
X2308Y161D01*
X2310Y161D01*
X2310Y163D01*
X2312Y163D01*
X2312Y165D01*
X2314Y165D01*
X2314Y167D01*
X2316Y167D01*
X2316Y169D01*
X2318Y169D01*
X2318Y171D01*
X2320Y171D01*
X2320Y175D01*
X2322Y175D01*
X2322Y177D01*
X2324Y177D01*
X2324Y179D01*
X2326Y179D01*
X2326Y181D01*
X2328Y181D01*
X2328Y183D01*
X2330Y183D01*
X2330Y185D01*
X310Y185D01*
G37*
D02*
G36*
X306Y179D02*
X306Y159D01*
X308Y159D01*
X308Y157D01*
X1266Y157D01*
X1266Y155D01*
X1270Y155D01*
X1270Y153D01*
X1274Y153D01*
X1274Y151D01*
X1276Y151D01*
X1276Y149D01*
X1278Y149D01*
X1278Y147D01*
X1280Y147D01*
X1280Y145D01*
X1282Y145D01*
X1282Y143D01*
X1284Y143D01*
X1284Y139D01*
X1286Y139D01*
X1286Y129D01*
X1288Y129D01*
X1288Y125D01*
X1286Y125D01*
X1286Y117D01*
X1284Y117D01*
X1284Y113D01*
X1282Y113D01*
X1282Y109D01*
X1280Y109D01*
X1280Y107D01*
X1278Y107D01*
X1278Y105D01*
X1276Y105D01*
X1276Y103D01*
X1272Y103D01*
X1272Y101D01*
X1268Y101D01*
X1268Y99D01*
X1260Y99D01*
X1260Y97D01*
X1744Y97D01*
X1744Y113D01*
X1594Y113D01*
X1594Y115D01*
X1590Y115D01*
X1590Y117D01*
X1588Y117D01*
X1588Y119D01*
X1580Y119D01*
X1580Y121D01*
X1572Y121D01*
X1572Y123D01*
X1568Y123D01*
X1568Y125D01*
X1566Y125D01*
X1566Y127D01*
X1562Y127D01*
X1562Y131D01*
X1560Y131D01*
X1560Y133D01*
X1558Y133D01*
X1558Y137D01*
X1556Y137D01*
X1556Y141D01*
X1554Y141D01*
X1554Y157D01*
X1556Y157D01*
X1556Y163D01*
X1558Y163D01*
X1558Y165D01*
X1560Y165D01*
X1560Y169D01*
X1562Y169D01*
X1562Y171D01*
X1564Y171D01*
X1564Y173D01*
X1568Y173D01*
X1568Y175D01*
X1572Y175D01*
X1572Y177D01*
X1576Y177D01*
X1576Y179D01*
X306Y179D01*
G37*
D02*
G36*
X308Y157D02*
X308Y137D01*
X306Y137D01*
X306Y131D01*
X304Y131D01*
X304Y125D01*
X302Y125D01*
X302Y123D01*
X300Y123D01*
X300Y119D01*
X298Y119D01*
X298Y117D01*
X296Y117D01*
X296Y113D01*
X294Y113D01*
X294Y111D01*
X290Y111D01*
X290Y109D01*
X288Y109D01*
X288Y107D01*
X286Y107D01*
X286Y105D01*
X282Y105D01*
X282Y103D01*
X278Y103D01*
X278Y101D01*
X272Y101D01*
X272Y99D01*
X858Y99D01*
X858Y101D01*
X854Y101D01*
X854Y103D01*
X850Y103D01*
X850Y105D01*
X848Y105D01*
X848Y107D01*
X846Y107D01*
X846Y109D01*
X844Y109D01*
X844Y111D01*
X842Y111D01*
X842Y115D01*
X840Y115D01*
X840Y121D01*
X838Y121D01*
X838Y135D01*
X840Y135D01*
X840Y141D01*
X842Y141D01*
X842Y143D01*
X844Y143D01*
X844Y147D01*
X846Y147D01*
X846Y149D01*
X848Y149D01*
X848Y151D01*
X852Y151D01*
X852Y153D01*
X854Y153D01*
X854Y155D01*
X860Y155D01*
X860Y157D01*
X308Y157D01*
G37*
D02*
G36*
X876Y157D02*
X876Y155D01*
X882Y155D01*
X882Y153D01*
X884Y153D01*
X884Y151D01*
X888Y151D01*
X888Y149D01*
X890Y149D01*
X890Y145D01*
X892Y145D01*
X892Y143D01*
X894Y143D01*
X894Y139D01*
X896Y139D01*
X896Y131D01*
X898Y131D01*
X898Y123D01*
X896Y123D01*
X896Y115D01*
X894Y115D01*
X894Y113D01*
X892Y113D01*
X892Y109D01*
X890Y109D01*
X890Y107D01*
X888Y107D01*
X888Y105D01*
X886Y105D01*
X886Y103D01*
X882Y103D01*
X882Y101D01*
X878Y101D01*
X878Y99D01*
X1246Y99D01*
X1246Y101D01*
X1242Y101D01*
X1242Y103D01*
X1240Y103D01*
X1240Y105D01*
X1238Y105D01*
X1238Y107D01*
X1236Y107D01*
X1236Y109D01*
X1234Y109D01*
X1234Y111D01*
X1232Y111D01*
X1232Y115D01*
X1230Y115D01*
X1230Y121D01*
X1228Y121D01*
X1228Y135D01*
X1230Y135D01*
X1230Y141D01*
X1232Y141D01*
X1232Y143D01*
X1234Y143D01*
X1234Y147D01*
X1236Y147D01*
X1236Y149D01*
X1238Y149D01*
X1238Y151D01*
X1242Y151D01*
X1242Y153D01*
X1244Y153D01*
X1244Y155D01*
X1250Y155D01*
X1250Y157D01*
X876Y157D01*
G37*
D02*
G36*
X198Y121D02*
X198Y117D01*
X196Y117D01*
X196Y111D01*
X194Y111D01*
X194Y107D01*
X192Y107D01*
X192Y105D01*
X190Y105D01*
X190Y101D01*
X188Y101D01*
X188Y99D01*
X186Y99D01*
X186Y97D01*
X254Y97D01*
X254Y99D01*
X244Y99D01*
X244Y101D01*
X238Y101D01*
X238Y103D01*
X236Y103D01*
X236Y105D01*
X232Y105D01*
X232Y107D01*
X228Y107D01*
X228Y109D01*
X226Y109D01*
X226Y111D01*
X224Y111D01*
X224Y113D01*
X222Y113D01*
X222Y115D01*
X220Y115D01*
X220Y117D01*
X218Y117D01*
X218Y121D01*
X198Y121D01*
G37*
D02*
G36*
X262Y99D02*
X262Y97D01*
X1256Y97D01*
X1256Y99D01*
X262Y99D01*
G37*
D02*
G36*
X262Y99D02*
X262Y97D01*
X1256Y97D01*
X1256Y99D01*
X262Y99D01*
G37*
D02*
G36*
X186Y97D02*
X186Y95D01*
X1744Y95D01*
X1744Y97D01*
X186Y97D01*
G37*
D02*
G36*
X186Y97D02*
X186Y95D01*
X1744Y95D01*
X1744Y97D01*
X186Y97D01*
G37*
D02*
G36*
X186Y97D02*
X186Y95D01*
X1744Y95D01*
X1744Y97D01*
X186Y97D01*
G37*
D02*
G36*
X184Y95D02*
X184Y93D01*
X182Y93D01*
X182Y91D01*
X180Y91D01*
X180Y89D01*
X176Y89D01*
X176Y87D01*
X174Y87D01*
X174Y85D01*
X170Y85D01*
X170Y83D01*
X168Y83D01*
X168Y81D01*
X164Y81D01*
X164Y79D01*
X158Y79D01*
X158Y77D01*
X152Y77D01*
X152Y75D01*
X1730Y75D01*
X1730Y81D01*
X1732Y81D01*
X1732Y83D01*
X1734Y83D01*
X1734Y87D01*
X1736Y87D01*
X1736Y89D01*
X1738Y89D01*
X1738Y91D01*
X1742Y91D01*
X1742Y93D01*
X1744Y93D01*
X1744Y95D01*
X184Y95D01*
G37*
D02*
G36*
X74Y75D02*
X74Y73D01*
X1728Y73D01*
X1728Y75D01*
X74Y75D01*
G37*
D02*
G36*
X74Y75D02*
X74Y73D01*
X1728Y73D01*
X1728Y75D01*
X74Y75D01*
G37*
D02*
G36*
X76Y73D02*
X76Y71D01*
X78Y71D01*
X78Y69D01*
X80Y69D01*
X80Y67D01*
X82Y67D01*
X82Y65D01*
X86Y65D01*
X86Y63D01*
X88Y63D01*
X88Y61D01*
X90Y61D01*
X90Y59D01*
X94Y59D01*
X94Y57D01*
X98Y57D01*
X98Y55D01*
X100Y55D01*
X100Y53D01*
X104Y53D01*
X104Y51D01*
X108Y51D01*
X108Y49D01*
X114Y49D01*
X114Y47D01*
X120Y47D01*
X120Y45D01*
X126Y45D01*
X126Y43D01*
X136Y43D01*
X136Y41D01*
X1730Y41D01*
X1730Y61D01*
X1728Y61D01*
X1728Y73D01*
X76Y73D01*
G37*
D02*
G36*
X752Y1093D02*
X752Y1091D01*
X750Y1091D01*
X750Y1089D01*
X748Y1089D01*
X748Y1087D01*
X746Y1087D01*
X746Y1085D01*
X744Y1085D01*
X744Y1083D01*
X742Y1083D01*
X742Y1079D01*
X740Y1079D01*
X740Y1077D01*
X738Y1077D01*
X738Y1075D01*
X736Y1075D01*
X736Y1073D01*
X734Y1073D01*
X734Y1071D01*
X732Y1071D01*
X732Y1069D01*
X730Y1069D01*
X730Y1067D01*
X728Y1067D01*
X728Y1065D01*
X726Y1065D01*
X726Y1063D01*
X724Y1063D01*
X724Y1061D01*
X722Y1061D01*
X722Y1059D01*
X720Y1059D01*
X720Y1055D01*
X718Y1055D01*
X718Y1053D01*
X716Y1053D01*
X716Y1051D01*
X714Y1051D01*
X714Y1049D01*
X712Y1049D01*
X712Y1047D01*
X710Y1047D01*
X710Y1045D01*
X708Y1045D01*
X708Y1043D01*
X706Y1043D01*
X706Y1041D01*
X704Y1041D01*
X704Y1039D01*
X702Y1039D01*
X702Y1037D01*
X700Y1037D01*
X700Y1035D01*
X698Y1035D01*
X698Y1031D01*
X696Y1031D01*
X696Y1029D01*
X694Y1029D01*
X694Y1027D01*
X692Y1027D01*
X692Y1025D01*
X690Y1025D01*
X690Y1023D01*
X688Y1023D01*
X688Y1021D01*
X686Y1021D01*
X686Y1019D01*
X684Y1019D01*
X684Y1017D01*
X682Y1017D01*
X682Y1015D01*
X680Y1015D01*
X680Y1013D01*
X678Y1013D01*
X678Y1009D01*
X676Y1009D01*
X676Y1007D01*
X674Y1007D01*
X674Y1003D01*
X672Y1003D01*
X672Y943D01*
X674Y943D01*
X674Y941D01*
X676Y941D01*
X676Y939D01*
X678Y939D01*
X678Y937D01*
X680Y937D01*
X680Y935D01*
X682Y935D01*
X682Y933D01*
X684Y933D01*
X684Y931D01*
X686Y931D01*
X686Y929D01*
X688Y929D01*
X688Y927D01*
X690Y927D01*
X690Y925D01*
X692Y925D01*
X692Y923D01*
X694Y923D01*
X694Y921D01*
X742Y921D01*
X742Y925D01*
X744Y925D01*
X744Y929D01*
X746Y929D01*
X746Y931D01*
X748Y931D01*
X748Y933D01*
X750Y933D01*
X750Y935D01*
X752Y935D01*
X752Y937D01*
X756Y937D01*
X756Y939D01*
X762Y939D01*
X762Y959D01*
X756Y959D01*
X756Y961D01*
X752Y961D01*
X752Y963D01*
X750Y963D01*
X750Y965D01*
X746Y965D01*
X746Y967D01*
X744Y967D01*
X744Y971D01*
X742Y971D01*
X742Y973D01*
X740Y973D01*
X740Y979D01*
X738Y979D01*
X738Y995D01*
X740Y995D01*
X740Y1001D01*
X742Y1001D01*
X742Y1003D01*
X744Y1003D01*
X744Y1007D01*
X746Y1007D01*
X746Y1009D01*
X748Y1009D01*
X748Y1011D01*
X752Y1011D01*
X752Y1013D01*
X754Y1013D01*
X754Y1053D01*
X756Y1053D01*
X756Y1057D01*
X758Y1057D01*
X758Y1059D01*
X760Y1059D01*
X760Y1061D01*
X762Y1061D01*
X762Y1063D01*
X764Y1063D01*
X764Y1065D01*
X766Y1065D01*
X766Y1067D01*
X768Y1067D01*
X768Y1069D01*
X770Y1069D01*
X770Y1071D01*
X772Y1071D01*
X772Y1073D01*
X774Y1073D01*
X774Y1093D01*
X752Y1093D01*
G37*
D02*
G36*
X2104Y973D02*
X2104Y971D01*
X2102Y971D01*
X2102Y967D01*
X2100Y967D01*
X2100Y965D01*
X2098Y965D01*
X2098Y963D01*
X2096Y963D01*
X2096Y959D01*
X2094Y959D01*
X2094Y957D01*
X2092Y957D01*
X2092Y955D01*
X2090Y955D01*
X2090Y951D01*
X2088Y951D01*
X2088Y949D01*
X2086Y949D01*
X2086Y947D01*
X2084Y947D01*
X2084Y943D01*
X2082Y943D01*
X2082Y941D01*
X2080Y941D01*
X2080Y921D01*
X2112Y921D01*
X2112Y927D01*
X2114Y927D01*
X2114Y931D01*
X2116Y931D01*
X2116Y935D01*
X2118Y935D01*
X2118Y937D01*
X2120Y937D01*
X2120Y939D01*
X2122Y939D01*
X2122Y943D01*
X2126Y943D01*
X2126Y945D01*
X2128Y945D01*
X2128Y947D01*
X2130Y947D01*
X2130Y967D01*
X2128Y967D01*
X2128Y969D01*
X2126Y969D01*
X2126Y971D01*
X2124Y971D01*
X2124Y973D01*
X2104Y973D01*
G37*
D02*
G36*
X932Y955D02*
X932Y751D01*
X934Y751D01*
X934Y747D01*
X936Y747D01*
X936Y745D01*
X938Y745D01*
X938Y743D01*
X940Y743D01*
X940Y739D01*
X942Y739D01*
X942Y737D01*
X944Y737D01*
X944Y735D01*
X946Y735D01*
X946Y733D01*
X948Y733D01*
X948Y729D01*
X950Y729D01*
X950Y727D01*
X952Y727D01*
X952Y725D01*
X954Y725D01*
X954Y721D01*
X986Y721D01*
X986Y741D01*
X984Y741D01*
X984Y743D01*
X982Y743D01*
X982Y747D01*
X980Y747D01*
X980Y749D01*
X978Y749D01*
X978Y751D01*
X976Y751D01*
X976Y755D01*
X974Y755D01*
X974Y757D01*
X972Y757D01*
X972Y759D01*
X970Y759D01*
X970Y763D01*
X968Y763D01*
X968Y765D01*
X966Y765D01*
X966Y767D01*
X964Y767D01*
X964Y771D01*
X962Y771D01*
X962Y773D01*
X960Y773D01*
X960Y777D01*
X958Y777D01*
X958Y779D01*
X956Y779D01*
X956Y783D01*
X954Y783D01*
X954Y955D01*
X932Y955D01*
G37*
D02*
G36*
X2092Y695D02*
X2092Y673D01*
X2090Y673D01*
X2090Y669D01*
X2088Y669D01*
X2088Y667D01*
X2086Y667D01*
X2086Y665D01*
X2084Y665D01*
X2084Y645D01*
X2088Y645D01*
X2088Y643D01*
X2090Y643D01*
X2090Y641D01*
X2092Y641D01*
X2092Y639D01*
X2094Y639D01*
X2094Y635D01*
X2096Y635D01*
X2096Y631D01*
X2116Y631D01*
X2116Y635D01*
X2118Y635D01*
X2118Y637D01*
X2120Y637D01*
X2120Y639D01*
X2122Y639D01*
X2122Y643D01*
X2126Y643D01*
X2126Y645D01*
X2128Y645D01*
X2128Y647D01*
X2130Y647D01*
X2130Y667D01*
X2128Y667D01*
X2128Y669D01*
X2126Y669D01*
X2126Y671D01*
X2124Y671D01*
X2124Y673D01*
X2122Y673D01*
X2122Y675D01*
X2120Y675D01*
X2120Y677D01*
X2118Y677D01*
X2118Y681D01*
X2116Y681D01*
X2116Y685D01*
X2114Y685D01*
X2114Y687D01*
X2112Y687D01*
X2112Y695D01*
X2092Y695D01*
G37*
D02*
G36*
X998Y1293D02*
X998Y1283D01*
X996Y1283D01*
X996Y1275D01*
X994Y1275D01*
X994Y1273D01*
X992Y1273D01*
X992Y1269D01*
X990Y1269D01*
X990Y1267D01*
X988Y1267D01*
X988Y1265D01*
X986Y1265D01*
X986Y1263D01*
X982Y1263D01*
X982Y1261D01*
X978Y1261D01*
X978Y1259D01*
X952Y1259D01*
X952Y1217D01*
X1036Y1217D01*
X1036Y1215D01*
X1042Y1215D01*
X1042Y1213D01*
X1044Y1213D01*
X1044Y1211D01*
X1048Y1211D01*
X1048Y1209D01*
X1050Y1209D01*
X1050Y1205D01*
X1052Y1205D01*
X1052Y1203D01*
X1054Y1203D01*
X1054Y1199D01*
X1056Y1199D01*
X1056Y1191D01*
X1058Y1191D01*
X1058Y1183D01*
X1056Y1183D01*
X1056Y1175D01*
X1054Y1175D01*
X1054Y1173D01*
X1052Y1173D01*
X1052Y1169D01*
X1050Y1169D01*
X1050Y1167D01*
X1048Y1167D01*
X1048Y1165D01*
X1046Y1165D01*
X1046Y1163D01*
X1042Y1163D01*
X1042Y1161D01*
X1038Y1161D01*
X1038Y1159D01*
X1114Y1159D01*
X1114Y1221D01*
X1112Y1221D01*
X1112Y1223D01*
X1110Y1223D01*
X1110Y1225D01*
X1106Y1225D01*
X1106Y1227D01*
X1104Y1227D01*
X1104Y1229D01*
X1102Y1229D01*
X1102Y1231D01*
X1098Y1231D01*
X1098Y1233D01*
X1096Y1233D01*
X1096Y1235D01*
X1094Y1235D01*
X1094Y1237D01*
X1090Y1237D01*
X1090Y1239D01*
X1088Y1239D01*
X1088Y1241D01*
X1086Y1241D01*
X1086Y1243D01*
X1082Y1243D01*
X1082Y1245D01*
X1080Y1245D01*
X1080Y1247D01*
X1078Y1247D01*
X1078Y1249D01*
X1074Y1249D01*
X1074Y1251D01*
X1072Y1251D01*
X1072Y1253D01*
X1070Y1253D01*
X1070Y1255D01*
X1066Y1255D01*
X1066Y1257D01*
X1064Y1257D01*
X1064Y1259D01*
X1062Y1259D01*
X1062Y1261D01*
X1058Y1261D01*
X1058Y1263D01*
X1056Y1263D01*
X1056Y1265D01*
X1054Y1265D01*
X1054Y1267D01*
X1050Y1267D01*
X1050Y1269D01*
X1048Y1269D01*
X1048Y1271D01*
X1046Y1271D01*
X1046Y1273D01*
X1042Y1273D01*
X1042Y1275D01*
X1040Y1275D01*
X1040Y1277D01*
X1038Y1277D01*
X1038Y1279D01*
X1034Y1279D01*
X1034Y1281D01*
X1032Y1281D01*
X1032Y1283D01*
X1030Y1283D01*
X1030Y1285D01*
X1026Y1285D01*
X1026Y1287D01*
X1024Y1287D01*
X1024Y1289D01*
X1022Y1289D01*
X1022Y1291D01*
X1018Y1291D01*
X1018Y1293D01*
X998Y1293D01*
G37*
D02*
G36*
X952Y1217D02*
X952Y1159D01*
X1018Y1159D01*
X1018Y1161D01*
X1014Y1161D01*
X1014Y1163D01*
X1010Y1163D01*
X1010Y1165D01*
X1008Y1165D01*
X1008Y1167D01*
X1006Y1167D01*
X1006Y1169D01*
X1004Y1169D01*
X1004Y1171D01*
X1002Y1171D01*
X1002Y1175D01*
X1000Y1175D01*
X1000Y1181D01*
X998Y1181D01*
X998Y1195D01*
X1000Y1195D01*
X1000Y1201D01*
X1002Y1201D01*
X1002Y1203D01*
X1004Y1203D01*
X1004Y1207D01*
X1006Y1207D01*
X1006Y1209D01*
X1008Y1209D01*
X1008Y1211D01*
X1012Y1211D01*
X1012Y1213D01*
X1014Y1213D01*
X1014Y1215D01*
X1020Y1215D01*
X1020Y1217D01*
X952Y1217D01*
G37*
D02*
G36*
X952Y1159D02*
X952Y1157D01*
X1114Y1157D01*
X1114Y1159D01*
X952Y1159D01*
G37*
D02*
G36*
X952Y1159D02*
X952Y1157D01*
X1114Y1157D01*
X1114Y1159D01*
X952Y1159D01*
G37*
D02*
G36*
X952Y1157D02*
X952Y1153D01*
X950Y1153D01*
X950Y1149D01*
X948Y1149D01*
X948Y1147D01*
X946Y1147D01*
X946Y1145D01*
X944Y1145D01*
X944Y1143D01*
X942Y1143D01*
X942Y1141D01*
X940Y1141D01*
X940Y1139D01*
X938Y1139D01*
X938Y1137D01*
X936Y1137D01*
X936Y1135D01*
X934Y1135D01*
X934Y1133D01*
X932Y1133D01*
X932Y1131D01*
X930Y1131D01*
X930Y1129D01*
X928Y1129D01*
X928Y1127D01*
X926Y1127D01*
X926Y1125D01*
X924Y1125D01*
X924Y1123D01*
X922Y1123D01*
X922Y1121D01*
X920Y1121D01*
X920Y1119D01*
X918Y1119D01*
X918Y1117D01*
X916Y1117D01*
X916Y1115D01*
X914Y1115D01*
X914Y1113D01*
X912Y1113D01*
X912Y1111D01*
X910Y1111D01*
X910Y1109D01*
X908Y1109D01*
X908Y1107D01*
X906Y1107D01*
X906Y1105D01*
X904Y1105D01*
X904Y1103D01*
X902Y1103D01*
X902Y1101D01*
X900Y1101D01*
X900Y1099D01*
X898Y1099D01*
X898Y1097D01*
X896Y1097D01*
X896Y1095D01*
X890Y1095D01*
X890Y1093D01*
X856Y1093D01*
X856Y1077D01*
X1036Y1077D01*
X1036Y1075D01*
X1042Y1075D01*
X1042Y1073D01*
X1044Y1073D01*
X1044Y1071D01*
X1048Y1071D01*
X1048Y1069D01*
X1050Y1069D01*
X1050Y1065D01*
X1052Y1065D01*
X1052Y1063D01*
X1054Y1063D01*
X1054Y1059D01*
X1056Y1059D01*
X1056Y1051D01*
X1058Y1051D01*
X1058Y1037D01*
X1060Y1037D01*
X1060Y1035D01*
X1062Y1035D01*
X1062Y1033D01*
X1064Y1033D01*
X1064Y1031D01*
X1066Y1031D01*
X1066Y1029D01*
X1068Y1029D01*
X1068Y1027D01*
X1072Y1027D01*
X1072Y1025D01*
X1074Y1025D01*
X1074Y1023D01*
X1076Y1023D01*
X1076Y1021D01*
X1078Y1021D01*
X1078Y1019D01*
X1080Y1019D01*
X1080Y1017D01*
X1082Y1017D01*
X1082Y1015D01*
X1084Y1015D01*
X1084Y1013D01*
X1086Y1013D01*
X1086Y1011D01*
X1088Y1011D01*
X1088Y1009D01*
X1090Y1009D01*
X1090Y1007D01*
X1092Y1007D01*
X1092Y1005D01*
X1094Y1005D01*
X1094Y1003D01*
X1114Y1003D01*
X1114Y1157D01*
X952Y1157D01*
G37*
D02*
G36*
X856Y1077D02*
X856Y1071D01*
X858Y1071D01*
X858Y1063D01*
X856Y1063D01*
X856Y1055D01*
X854Y1055D01*
X854Y1053D01*
X852Y1053D01*
X852Y1049D01*
X850Y1049D01*
X850Y1047D01*
X848Y1047D01*
X848Y1045D01*
X846Y1045D01*
X846Y1043D01*
X842Y1043D01*
X842Y1041D01*
X838Y1041D01*
X838Y1039D01*
X1000Y1039D01*
X1000Y1041D01*
X998Y1041D01*
X998Y1055D01*
X1000Y1055D01*
X1000Y1061D01*
X1002Y1061D01*
X1002Y1063D01*
X1004Y1063D01*
X1004Y1067D01*
X1006Y1067D01*
X1006Y1069D01*
X1008Y1069D01*
X1008Y1071D01*
X1012Y1071D01*
X1012Y1073D01*
X1014Y1073D01*
X1014Y1075D01*
X1020Y1075D01*
X1020Y1077D01*
X856Y1077D01*
G37*
D02*
G36*
X786Y1047D02*
X786Y1045D01*
X784Y1045D01*
X784Y1043D01*
X782Y1043D01*
X782Y1039D01*
X818Y1039D01*
X818Y1041D01*
X814Y1041D01*
X814Y1043D01*
X810Y1043D01*
X810Y1045D01*
X808Y1045D01*
X808Y1047D01*
X786Y1047D01*
G37*
D02*
G36*
X782Y1039D02*
X782Y1037D01*
X1000Y1037D01*
X1000Y1039D01*
X782Y1039D01*
G37*
D02*
G36*
X782Y1039D02*
X782Y1037D01*
X1000Y1037D01*
X1000Y1039D01*
X782Y1039D01*
G37*
D02*
G36*
X782Y1037D02*
X782Y1019D01*
X850Y1019D01*
X850Y1017D01*
X856Y1017D01*
X856Y1015D01*
X860Y1015D01*
X860Y1013D01*
X862Y1013D01*
X862Y1011D01*
X970Y1011D01*
X970Y1009D01*
X978Y1009D01*
X978Y1007D01*
X982Y1007D01*
X982Y1005D01*
X986Y1005D01*
X986Y1003D01*
X988Y1003D01*
X988Y1001D01*
X990Y1001D01*
X990Y999D01*
X992Y999D01*
X992Y995D01*
X994Y995D01*
X994Y993D01*
X996Y993D01*
X996Y985D01*
X998Y985D01*
X998Y977D01*
X996Y977D01*
X996Y969D01*
X994Y969D01*
X994Y965D01*
X992Y965D01*
X992Y963D01*
X990Y963D01*
X990Y959D01*
X986Y959D01*
X986Y957D01*
X984Y957D01*
X984Y955D01*
X982Y955D01*
X982Y941D01*
X1104Y941D01*
X1104Y943D01*
X1098Y943D01*
X1098Y945D01*
X1094Y945D01*
X1094Y947D01*
X1090Y947D01*
X1090Y949D01*
X1088Y949D01*
X1088Y951D01*
X1086Y951D01*
X1086Y953D01*
X1084Y953D01*
X1084Y957D01*
X1082Y957D01*
X1082Y961D01*
X1080Y961D01*
X1080Y981D01*
X1076Y981D01*
X1076Y983D01*
X1074Y983D01*
X1074Y985D01*
X1072Y985D01*
X1072Y987D01*
X1070Y987D01*
X1070Y989D01*
X1068Y989D01*
X1068Y991D01*
X1066Y991D01*
X1066Y993D01*
X1064Y993D01*
X1064Y995D01*
X1062Y995D01*
X1062Y997D01*
X1060Y997D01*
X1060Y999D01*
X1058Y999D01*
X1058Y1001D01*
X1056Y1001D01*
X1056Y1003D01*
X1054Y1003D01*
X1054Y1005D01*
X1052Y1005D01*
X1052Y1007D01*
X1050Y1007D01*
X1050Y1009D01*
X1048Y1009D01*
X1048Y1011D01*
X1046Y1011D01*
X1046Y1013D01*
X1044Y1013D01*
X1044Y1015D01*
X1040Y1015D01*
X1040Y1017D01*
X1038Y1017D01*
X1038Y1019D01*
X1018Y1019D01*
X1018Y1021D01*
X1014Y1021D01*
X1014Y1023D01*
X1010Y1023D01*
X1010Y1025D01*
X1008Y1025D01*
X1008Y1027D01*
X1006Y1027D01*
X1006Y1029D01*
X1004Y1029D01*
X1004Y1031D01*
X1002Y1031D01*
X1002Y1035D01*
X1000Y1035D01*
X1000Y1037D01*
X782Y1037D01*
G37*
D02*
G36*
X782Y1019D02*
X782Y1013D01*
X784Y1013D01*
X784Y1011D01*
X786Y1011D01*
X786Y1009D01*
X788Y1009D01*
X788Y1007D01*
X790Y1007D01*
X790Y1005D01*
X792Y1005D01*
X792Y1001D01*
X794Y1001D01*
X794Y997D01*
X816Y997D01*
X816Y1003D01*
X818Y1003D01*
X818Y1005D01*
X820Y1005D01*
X820Y1009D01*
X822Y1009D01*
X822Y1011D01*
X824Y1011D01*
X824Y1013D01*
X828Y1013D01*
X828Y1015D01*
X832Y1015D01*
X832Y1017D01*
X838Y1017D01*
X838Y1019D01*
X782Y1019D01*
G37*
D02*
G36*
X864Y1011D02*
X864Y1009D01*
X866Y1009D01*
X866Y1007D01*
X868Y1007D01*
X868Y1003D01*
X870Y1003D01*
X870Y999D01*
X872Y999D01*
X872Y993D01*
X892Y993D01*
X892Y997D01*
X894Y997D01*
X894Y999D01*
X896Y999D01*
X896Y1001D01*
X898Y1001D01*
X898Y1003D01*
X900Y1003D01*
X900Y1005D01*
X902Y1005D01*
X902Y1007D01*
X906Y1007D01*
X906Y1009D01*
X916Y1009D01*
X916Y1011D01*
X864Y1011D01*
G37*
D02*
G36*
X920Y1011D02*
X920Y1009D01*
X928Y1009D01*
X928Y1007D01*
X932Y1007D01*
X932Y1005D01*
X952Y1005D01*
X952Y1007D01*
X956Y1007D01*
X956Y1009D01*
X966Y1009D01*
X966Y1011D01*
X920Y1011D01*
G37*
D02*
G36*
X868Y975D02*
X868Y971D01*
X866Y971D01*
X866Y969D01*
X864Y969D01*
X864Y967D01*
X862Y967D01*
X862Y853D01*
X860Y853D01*
X860Y849D01*
X858Y849D01*
X858Y847D01*
X856Y847D01*
X856Y845D01*
X852Y845D01*
X852Y843D01*
X848Y843D01*
X848Y841D01*
X844Y841D01*
X844Y839D01*
X840Y839D01*
X840Y837D01*
X836Y837D01*
X836Y835D01*
X832Y835D01*
X832Y833D01*
X828Y833D01*
X828Y831D01*
X824Y831D01*
X824Y829D01*
X820Y829D01*
X820Y827D01*
X816Y827D01*
X816Y825D01*
X812Y825D01*
X812Y823D01*
X808Y823D01*
X808Y821D01*
X804Y821D01*
X804Y819D01*
X800Y819D01*
X800Y817D01*
X798Y817D01*
X798Y803D01*
X796Y803D01*
X796Y797D01*
X794Y797D01*
X794Y795D01*
X792Y795D01*
X792Y791D01*
X790Y791D01*
X790Y789D01*
X788Y789D01*
X788Y787D01*
X784Y787D01*
X784Y785D01*
X780Y785D01*
X780Y783D01*
X772Y783D01*
X772Y781D01*
X742Y781D01*
X742Y737D01*
X816Y737D01*
X816Y735D01*
X820Y735D01*
X820Y733D01*
X824Y733D01*
X824Y731D01*
X826Y731D01*
X826Y729D01*
X828Y729D01*
X828Y727D01*
X830Y727D01*
X830Y725D01*
X832Y725D01*
X832Y723D01*
X834Y723D01*
X834Y719D01*
X836Y719D01*
X836Y709D01*
X838Y709D01*
X838Y705D01*
X836Y705D01*
X836Y697D01*
X834Y697D01*
X834Y693D01*
X832Y693D01*
X832Y689D01*
X830Y689D01*
X830Y687D01*
X828Y687D01*
X828Y685D01*
X826Y685D01*
X826Y683D01*
X822Y683D01*
X822Y663D01*
X824Y663D01*
X824Y661D01*
X826Y661D01*
X826Y659D01*
X828Y659D01*
X828Y657D01*
X830Y657D01*
X830Y655D01*
X832Y655D01*
X832Y653D01*
X834Y653D01*
X834Y649D01*
X836Y649D01*
X836Y643D01*
X838Y643D01*
X838Y641D01*
X842Y641D01*
X842Y639D01*
X846Y639D01*
X846Y637D01*
X850Y637D01*
X850Y635D01*
X854Y635D01*
X854Y633D01*
X858Y633D01*
X858Y631D01*
X862Y631D01*
X862Y629D01*
X866Y629D01*
X866Y627D01*
X870Y627D01*
X870Y625D01*
X1004Y625D01*
X1004Y627D01*
X1006Y627D01*
X1006Y629D01*
X1008Y629D01*
X1008Y631D01*
X1012Y631D01*
X1012Y633D01*
X1014Y633D01*
X1014Y635D01*
X1020Y635D01*
X1020Y637D01*
X1386Y637D01*
X1386Y639D01*
X1376Y639D01*
X1376Y641D01*
X1372Y641D01*
X1372Y643D01*
X1370Y643D01*
X1370Y645D01*
X1368Y645D01*
X1368Y647D01*
X1366Y647D01*
X1366Y649D01*
X1364Y649D01*
X1364Y651D01*
X1362Y651D01*
X1362Y655D01*
X1360Y655D01*
X1360Y661D01*
X1358Y661D01*
X1358Y677D01*
X1332Y677D01*
X1332Y679D01*
X1326Y679D01*
X1326Y681D01*
X1322Y681D01*
X1322Y683D01*
X1320Y683D01*
X1320Y685D01*
X1316Y685D01*
X1316Y687D01*
X1314Y687D01*
X1314Y691D01*
X1312Y691D01*
X1312Y693D01*
X946Y693D01*
X946Y695D01*
X940Y695D01*
X940Y697D01*
X938Y697D01*
X938Y699D01*
X936Y699D01*
X936Y701D01*
X934Y701D01*
X934Y705D01*
X932Y705D01*
X932Y707D01*
X930Y707D01*
X930Y709D01*
X928Y709D01*
X928Y713D01*
X926Y713D01*
X926Y715D01*
X924Y715D01*
X924Y717D01*
X922Y717D01*
X922Y719D01*
X920Y719D01*
X920Y723D01*
X918Y723D01*
X918Y725D01*
X916Y725D01*
X916Y727D01*
X914Y727D01*
X914Y731D01*
X912Y731D01*
X912Y733D01*
X910Y733D01*
X910Y735D01*
X908Y735D01*
X908Y739D01*
X906Y739D01*
X906Y741D01*
X904Y741D01*
X904Y955D01*
X902Y955D01*
X902Y957D01*
X898Y957D01*
X898Y959D01*
X896Y959D01*
X896Y961D01*
X894Y961D01*
X894Y965D01*
X892Y965D01*
X892Y967D01*
X890Y967D01*
X890Y973D01*
X888Y973D01*
X888Y975D01*
X868Y975D01*
G37*
D02*
G36*
X1136Y963D02*
X1136Y957D01*
X1134Y957D01*
X1134Y955D01*
X1132Y955D01*
X1132Y951D01*
X1130Y951D01*
X1130Y949D01*
X1128Y949D01*
X1128Y947D01*
X1124Y947D01*
X1124Y945D01*
X1120Y945D01*
X1120Y943D01*
X1112Y943D01*
X1112Y941D01*
X1700Y941D01*
X1700Y955D01*
X1464Y955D01*
X1464Y957D01*
X1164Y957D01*
X1164Y959D01*
X1160Y959D01*
X1160Y961D01*
X1158Y961D01*
X1158Y963D01*
X1136Y963D01*
G37*
D02*
G36*
X982Y941D02*
X982Y939D01*
X1700Y939D01*
X1700Y941D01*
X982Y941D01*
G37*
D02*
G36*
X982Y941D02*
X982Y939D01*
X1700Y939D01*
X1700Y941D01*
X982Y941D01*
G37*
D02*
G36*
X982Y939D02*
X982Y897D01*
X1356Y897D01*
X1356Y895D01*
X1362Y895D01*
X1362Y893D01*
X1364Y893D01*
X1364Y891D01*
X1368Y891D01*
X1368Y889D01*
X1370Y889D01*
X1370Y885D01*
X1372Y885D01*
X1372Y883D01*
X1710Y883D01*
X1710Y885D01*
X1704Y885D01*
X1704Y887D01*
X1700Y887D01*
X1700Y889D01*
X1698Y889D01*
X1698Y891D01*
X1696Y891D01*
X1696Y893D01*
X1694Y893D01*
X1694Y895D01*
X1692Y895D01*
X1692Y899D01*
X1690Y899D01*
X1690Y905D01*
X1688Y905D01*
X1688Y919D01*
X1690Y919D01*
X1690Y925D01*
X1692Y925D01*
X1692Y929D01*
X1694Y929D01*
X1694Y931D01*
X1696Y931D01*
X1696Y933D01*
X1698Y933D01*
X1698Y935D01*
X1700Y935D01*
X1700Y939D01*
X982Y939D01*
G37*
D02*
G36*
X982Y897D02*
X982Y791D01*
X984Y791D01*
X984Y789D01*
X986Y789D01*
X986Y785D01*
X988Y785D01*
X988Y783D01*
X990Y783D01*
X990Y779D01*
X992Y779D01*
X992Y777D01*
X994Y777D01*
X994Y775D01*
X996Y775D01*
X996Y771D01*
X998Y771D01*
X998Y769D01*
X1000Y769D01*
X1000Y767D01*
X1002Y767D01*
X1002Y763D01*
X1004Y763D01*
X1004Y761D01*
X1326Y761D01*
X1326Y789D01*
X1324Y789D01*
X1324Y791D01*
X1322Y791D01*
X1322Y795D01*
X1320Y795D01*
X1320Y801D01*
X1318Y801D01*
X1318Y815D01*
X1320Y815D01*
X1320Y821D01*
X1322Y821D01*
X1322Y823D01*
X1324Y823D01*
X1324Y827D01*
X1326Y827D01*
X1326Y849D01*
X1324Y849D01*
X1324Y851D01*
X1322Y851D01*
X1322Y855D01*
X1320Y855D01*
X1320Y861D01*
X1318Y861D01*
X1318Y875D01*
X1320Y875D01*
X1320Y881D01*
X1322Y881D01*
X1322Y883D01*
X1324Y883D01*
X1324Y887D01*
X1326Y887D01*
X1326Y889D01*
X1328Y889D01*
X1328Y891D01*
X1332Y891D01*
X1332Y893D01*
X1334Y893D01*
X1334Y895D01*
X1340Y895D01*
X1340Y897D01*
X982Y897D01*
G37*
D02*
G36*
X1726Y885D02*
X1726Y883D01*
X1748Y883D01*
X1748Y885D01*
X1726Y885D01*
G37*
D02*
G36*
X1374Y883D02*
X1374Y881D01*
X1746Y881D01*
X1746Y883D01*
X1374Y883D01*
G37*
D02*
G36*
X1374Y883D02*
X1374Y881D01*
X1746Y881D01*
X1746Y883D01*
X1374Y883D01*
G37*
D02*
G36*
X1374Y881D02*
X1374Y879D01*
X1376Y879D01*
X1376Y871D01*
X1686Y871D01*
X1686Y869D01*
X1692Y869D01*
X1692Y867D01*
X1694Y867D01*
X1694Y865D01*
X1698Y865D01*
X1698Y863D01*
X1700Y863D01*
X1700Y861D01*
X1702Y861D01*
X1702Y859D01*
X1704Y859D01*
X1704Y855D01*
X1706Y855D01*
X1706Y851D01*
X1730Y851D01*
X1730Y855D01*
X1732Y855D01*
X1732Y859D01*
X1734Y859D01*
X1734Y861D01*
X1736Y861D01*
X1736Y865D01*
X1738Y865D01*
X1738Y869D01*
X1740Y869D01*
X1740Y873D01*
X1742Y873D01*
X1742Y875D01*
X1744Y875D01*
X1744Y879D01*
X1746Y879D01*
X1746Y881D01*
X1374Y881D01*
G37*
D02*
G36*
X1378Y871D02*
X1378Y863D01*
X1376Y863D01*
X1376Y855D01*
X1374Y855D01*
X1374Y853D01*
X1372Y853D01*
X1372Y849D01*
X1370Y849D01*
X1370Y825D01*
X1372Y825D01*
X1372Y823D01*
X1374Y823D01*
X1374Y819D01*
X1376Y819D01*
X1376Y811D01*
X1378Y811D01*
X1378Y803D01*
X1376Y803D01*
X1376Y795D01*
X1374Y795D01*
X1374Y793D01*
X1372Y793D01*
X1372Y789D01*
X1370Y789D01*
X1370Y787D01*
X1368Y787D01*
X1368Y785D01*
X1366Y785D01*
X1366Y783D01*
X1362Y783D01*
X1362Y781D01*
X1358Y781D01*
X1358Y779D01*
X1356Y779D01*
X1356Y767D01*
X1354Y767D01*
X1354Y755D01*
X1352Y755D01*
X1352Y733D01*
X1354Y733D01*
X1354Y731D01*
X1356Y731D01*
X1356Y729D01*
X1358Y729D01*
X1358Y727D01*
X1360Y727D01*
X1360Y725D01*
X1362Y725D01*
X1362Y721D01*
X1364Y721D01*
X1364Y717D01*
X1366Y717D01*
X1366Y697D01*
X1536Y697D01*
X1536Y695D01*
X1540Y695D01*
X1540Y693D01*
X1544Y693D01*
X1544Y691D01*
X1564Y691D01*
X1564Y803D01*
X1566Y803D01*
X1566Y807D01*
X1568Y807D01*
X1568Y809D01*
X1570Y809D01*
X1570Y811D01*
X1572Y811D01*
X1572Y815D01*
X1574Y815D01*
X1574Y817D01*
X1576Y817D01*
X1576Y819D01*
X1578Y819D01*
X1578Y823D01*
X1580Y823D01*
X1580Y825D01*
X1582Y825D01*
X1582Y829D01*
X1584Y829D01*
X1584Y831D01*
X1586Y831D01*
X1586Y833D01*
X1588Y833D01*
X1588Y837D01*
X1590Y837D01*
X1590Y839D01*
X1592Y839D01*
X1592Y841D01*
X1594Y841D01*
X1594Y845D01*
X1596Y845D01*
X1596Y847D01*
X1598Y847D01*
X1598Y849D01*
X1600Y849D01*
X1600Y851D01*
X1652Y851D01*
X1652Y855D01*
X1654Y855D01*
X1654Y859D01*
X1656Y859D01*
X1656Y861D01*
X1658Y861D01*
X1658Y863D01*
X1660Y863D01*
X1660Y865D01*
X1662Y865D01*
X1662Y867D01*
X1666Y867D01*
X1666Y869D01*
X1672Y869D01*
X1672Y871D01*
X1378Y871D01*
G37*
D02*
G36*
X742Y737D02*
X742Y567D01*
X816Y567D01*
X816Y565D01*
X820Y565D01*
X820Y563D01*
X824Y563D01*
X824Y561D01*
X826Y561D01*
X826Y559D01*
X828Y559D01*
X828Y557D01*
X830Y557D01*
X830Y555D01*
X832Y555D01*
X832Y553D01*
X834Y553D01*
X834Y549D01*
X836Y549D01*
X836Y539D01*
X838Y539D01*
X838Y535D01*
X836Y535D01*
X836Y527D01*
X834Y527D01*
X834Y523D01*
X832Y523D01*
X832Y519D01*
X830Y519D01*
X830Y517D01*
X828Y517D01*
X828Y515D01*
X826Y515D01*
X826Y513D01*
X822Y513D01*
X822Y511D01*
X818Y511D01*
X818Y509D01*
X814Y509D01*
X814Y489D01*
X816Y489D01*
X816Y487D01*
X818Y487D01*
X818Y485D01*
X820Y485D01*
X820Y483D01*
X822Y483D01*
X822Y481D01*
X976Y481D01*
X976Y479D01*
X982Y479D01*
X982Y477D01*
X984Y477D01*
X984Y475D01*
X988Y475D01*
X988Y473D01*
X990Y473D01*
X990Y471D01*
X1012Y471D01*
X1012Y473D01*
X1014Y473D01*
X1014Y517D01*
X1010Y517D01*
X1010Y519D01*
X1008Y519D01*
X1008Y521D01*
X1006Y521D01*
X1006Y523D01*
X1004Y523D01*
X1004Y527D01*
X1002Y527D01*
X1002Y531D01*
X1000Y531D01*
X1000Y551D01*
X1002Y551D01*
X1002Y555D01*
X1004Y555D01*
X1004Y559D01*
X1006Y559D01*
X1006Y561D01*
X1008Y561D01*
X1008Y563D01*
X1010Y563D01*
X1010Y585D01*
X1006Y585D01*
X1006Y587D01*
X1004Y587D01*
X1004Y589D01*
X862Y589D01*
X862Y591D01*
X858Y591D01*
X858Y593D01*
X854Y593D01*
X854Y595D01*
X850Y595D01*
X850Y597D01*
X846Y597D01*
X846Y599D01*
X842Y599D01*
X842Y601D01*
X838Y601D01*
X838Y603D01*
X834Y603D01*
X834Y605D01*
X830Y605D01*
X830Y607D01*
X806Y607D01*
X806Y609D01*
X796Y609D01*
X796Y611D01*
X792Y611D01*
X792Y613D01*
X790Y613D01*
X790Y615D01*
X788Y615D01*
X788Y617D01*
X786Y617D01*
X786Y619D01*
X784Y619D01*
X784Y621D01*
X782Y621D01*
X782Y625D01*
X780Y625D01*
X780Y629D01*
X778Y629D01*
X778Y645D01*
X780Y645D01*
X780Y651D01*
X782Y651D01*
X782Y653D01*
X784Y653D01*
X784Y657D01*
X786Y657D01*
X786Y659D01*
X788Y659D01*
X788Y661D01*
X792Y661D01*
X792Y683D01*
X790Y683D01*
X790Y685D01*
X788Y685D01*
X788Y687D01*
X786Y687D01*
X786Y689D01*
X784Y689D01*
X784Y691D01*
X782Y691D01*
X782Y695D01*
X780Y695D01*
X780Y699D01*
X778Y699D01*
X778Y715D01*
X780Y715D01*
X780Y721D01*
X782Y721D01*
X782Y723D01*
X784Y723D01*
X784Y727D01*
X786Y727D01*
X786Y729D01*
X788Y729D01*
X788Y731D01*
X792Y731D01*
X792Y733D01*
X794Y733D01*
X794Y735D01*
X800Y735D01*
X800Y737D01*
X742Y737D01*
G37*
D02*
G36*
X1396Y697D02*
X1396Y695D01*
X1400Y695D01*
X1400Y693D01*
X1404Y693D01*
X1404Y691D01*
X1406Y691D01*
X1406Y689D01*
X1408Y689D01*
X1408Y687D01*
X1410Y687D01*
X1410Y685D01*
X1412Y685D01*
X1412Y683D01*
X1414Y683D01*
X1414Y679D01*
X1416Y679D01*
X1416Y669D01*
X1418Y669D01*
X1418Y665D01*
X1416Y665D01*
X1416Y657D01*
X1414Y657D01*
X1414Y653D01*
X1412Y653D01*
X1412Y649D01*
X1410Y649D01*
X1410Y647D01*
X1408Y647D01*
X1408Y645D01*
X1406Y645D01*
X1406Y643D01*
X1402Y643D01*
X1402Y641D01*
X1398Y641D01*
X1398Y639D01*
X1390Y639D01*
X1390Y637D01*
X1526Y637D01*
X1526Y639D01*
X1516Y639D01*
X1516Y641D01*
X1512Y641D01*
X1512Y643D01*
X1510Y643D01*
X1510Y645D01*
X1508Y645D01*
X1508Y647D01*
X1506Y647D01*
X1506Y649D01*
X1504Y649D01*
X1504Y651D01*
X1502Y651D01*
X1502Y655D01*
X1500Y655D01*
X1500Y661D01*
X1498Y661D01*
X1498Y675D01*
X1500Y675D01*
X1500Y681D01*
X1502Y681D01*
X1502Y683D01*
X1504Y683D01*
X1504Y687D01*
X1506Y687D01*
X1506Y689D01*
X1508Y689D01*
X1508Y691D01*
X1512Y691D01*
X1512Y693D01*
X1514Y693D01*
X1514Y695D01*
X1520Y695D01*
X1520Y697D01*
X1396Y697D01*
G37*
D02*
G36*
X1542Y643D02*
X1542Y641D01*
X1538Y641D01*
X1538Y639D01*
X1530Y639D01*
X1530Y637D01*
X1564Y637D01*
X1564Y643D01*
X1542Y643D01*
G37*
D02*
G36*
X1034Y637D02*
X1034Y635D01*
X1564Y635D01*
X1564Y637D01*
X1034Y637D01*
G37*
D02*
G36*
X1034Y637D02*
X1034Y635D01*
X1564Y635D01*
X1564Y637D01*
X1034Y637D01*
G37*
D02*
G36*
X1034Y637D02*
X1034Y635D01*
X1564Y635D01*
X1564Y637D01*
X1034Y637D01*
G37*
D02*
G36*
X1040Y635D02*
X1040Y633D01*
X1044Y633D01*
X1044Y631D01*
X1046Y631D01*
X1046Y629D01*
X1048Y629D01*
X1048Y627D01*
X1050Y627D01*
X1050Y625D01*
X1052Y625D01*
X1052Y621D01*
X1054Y621D01*
X1054Y617D01*
X1056Y617D01*
X1056Y597D01*
X1054Y597D01*
X1054Y593D01*
X1052Y593D01*
X1052Y589D01*
X1050Y589D01*
X1050Y587D01*
X1048Y587D01*
X1048Y585D01*
X1046Y585D01*
X1046Y565D01*
X1048Y565D01*
X1048Y563D01*
X1050Y563D01*
X1050Y561D01*
X1052Y561D01*
X1052Y559D01*
X1054Y559D01*
X1054Y555D01*
X1056Y555D01*
X1056Y549D01*
X1058Y549D01*
X1058Y533D01*
X1056Y533D01*
X1056Y527D01*
X1054Y527D01*
X1054Y525D01*
X1052Y525D01*
X1052Y521D01*
X1050Y521D01*
X1050Y519D01*
X1048Y519D01*
X1048Y517D01*
X1044Y517D01*
X1044Y515D01*
X1042Y515D01*
X1042Y463D01*
X1040Y463D01*
X1040Y459D01*
X1038Y459D01*
X1038Y457D01*
X1036Y457D01*
X1036Y455D01*
X1034Y455D01*
X1034Y453D01*
X1032Y453D01*
X1032Y451D01*
X1030Y451D01*
X1030Y449D01*
X1028Y449D01*
X1028Y447D01*
X1026Y447D01*
X1026Y445D01*
X1024Y445D01*
X1024Y443D01*
X1022Y443D01*
X1022Y441D01*
X1020Y441D01*
X1020Y439D01*
X1018Y439D01*
X1018Y437D01*
X1016Y437D01*
X1016Y435D01*
X1012Y435D01*
X1012Y433D01*
X992Y433D01*
X992Y431D01*
X990Y431D01*
X990Y429D01*
X988Y429D01*
X988Y427D01*
X984Y427D01*
X984Y425D01*
X980Y425D01*
X980Y423D01*
X972Y423D01*
X972Y421D01*
X1374Y421D01*
X1374Y513D01*
X1376Y513D01*
X1376Y515D01*
X1378Y515D01*
X1378Y519D01*
X1380Y519D01*
X1380Y521D01*
X1382Y521D01*
X1382Y523D01*
X1384Y523D01*
X1384Y525D01*
X1386Y525D01*
X1386Y529D01*
X1388Y529D01*
X1388Y531D01*
X1390Y531D01*
X1390Y533D01*
X1392Y533D01*
X1392Y535D01*
X1394Y535D01*
X1394Y537D01*
X1396Y537D01*
X1396Y541D01*
X1398Y541D01*
X1398Y543D01*
X1400Y543D01*
X1400Y545D01*
X1402Y545D01*
X1402Y547D01*
X1404Y547D01*
X1404Y549D01*
X1406Y549D01*
X1406Y553D01*
X1408Y553D01*
X1408Y555D01*
X1410Y555D01*
X1410Y557D01*
X1412Y557D01*
X1412Y559D01*
X1414Y559D01*
X1414Y561D01*
X1416Y561D01*
X1416Y565D01*
X1418Y565D01*
X1418Y567D01*
X1420Y567D01*
X1420Y569D01*
X1422Y569D01*
X1422Y571D01*
X1424Y571D01*
X1424Y573D01*
X1426Y573D01*
X1426Y577D01*
X1428Y577D01*
X1428Y579D01*
X1432Y579D01*
X1432Y581D01*
X1518Y581D01*
X1518Y585D01*
X1520Y585D01*
X1520Y591D01*
X1522Y591D01*
X1522Y593D01*
X1524Y593D01*
X1524Y597D01*
X1526Y597D01*
X1526Y599D01*
X1528Y599D01*
X1528Y601D01*
X1532Y601D01*
X1532Y603D01*
X1534Y603D01*
X1534Y605D01*
X1540Y605D01*
X1540Y607D01*
X1554Y607D01*
X1554Y611D01*
X1556Y611D01*
X1556Y613D01*
X1558Y613D01*
X1558Y615D01*
X1560Y615D01*
X1560Y619D01*
X1562Y619D01*
X1562Y621D01*
X1564Y621D01*
X1564Y635D01*
X1040Y635D01*
G37*
D02*
G36*
X742Y567D02*
X742Y561D01*
X744Y561D01*
X744Y559D01*
X746Y559D01*
X746Y557D01*
X748Y557D01*
X748Y555D01*
X750Y555D01*
X750Y553D01*
X752Y553D01*
X752Y551D01*
X754Y551D01*
X754Y549D01*
X756Y549D01*
X756Y547D01*
X758Y547D01*
X758Y545D01*
X780Y545D01*
X780Y551D01*
X782Y551D01*
X782Y553D01*
X784Y553D01*
X784Y557D01*
X786Y557D01*
X786Y559D01*
X788Y559D01*
X788Y561D01*
X792Y561D01*
X792Y563D01*
X794Y563D01*
X794Y565D01*
X800Y565D01*
X800Y567D01*
X742Y567D01*
G37*
D02*
G36*
X824Y481D02*
X824Y479D01*
X826Y479D01*
X826Y477D01*
X828Y477D01*
X828Y475D01*
X830Y475D01*
X830Y473D01*
X832Y473D01*
X832Y471D01*
X878Y471D01*
X878Y473D01*
X880Y473D01*
X880Y475D01*
X882Y475D01*
X882Y477D01*
X886Y477D01*
X886Y479D01*
X892Y479D01*
X892Y481D01*
X824Y481D01*
G37*
D02*
G36*
X906Y481D02*
X906Y479D01*
X912Y479D01*
X912Y477D01*
X914Y477D01*
X914Y475D01*
X918Y475D01*
X918Y473D01*
X920Y473D01*
X920Y471D01*
X922Y471D01*
X922Y469D01*
X924Y469D01*
X924Y465D01*
X944Y465D01*
X944Y469D01*
X946Y469D01*
X946Y471D01*
X948Y471D01*
X948Y473D01*
X950Y473D01*
X950Y475D01*
X952Y475D01*
X952Y477D01*
X956Y477D01*
X956Y479D01*
X962Y479D01*
X962Y481D01*
X906Y481D01*
G37*
D02*
G36*
X924Y437D02*
X924Y435D01*
X922Y435D01*
X922Y431D01*
X920Y431D01*
X920Y429D01*
X918Y429D01*
X918Y427D01*
X914Y427D01*
X914Y425D01*
X912Y425D01*
X912Y421D01*
X964Y421D01*
X964Y423D01*
X958Y423D01*
X958Y425D01*
X954Y425D01*
X954Y427D01*
X950Y427D01*
X950Y429D01*
X948Y429D01*
X948Y431D01*
X946Y431D01*
X946Y433D01*
X944Y433D01*
X944Y437D01*
X924Y437D01*
G37*
D02*
G36*
X912Y421D02*
X912Y419D01*
X1374Y419D01*
X1374Y421D01*
X912Y421D01*
G37*
D02*
G36*
X912Y421D02*
X912Y419D01*
X1374Y419D01*
X1374Y421D01*
X912Y421D01*
G37*
D02*
G36*
X912Y419D02*
X912Y401D01*
X914Y401D01*
X914Y399D01*
X916Y399D01*
X916Y397D01*
X918Y397D01*
X918Y395D01*
X920Y395D01*
X920Y393D01*
X922Y393D01*
X922Y391D01*
X924Y391D01*
X924Y389D01*
X926Y389D01*
X926Y387D01*
X928Y387D01*
X928Y385D01*
X930Y385D01*
X930Y383D01*
X932Y383D01*
X932Y381D01*
X934Y381D01*
X934Y379D01*
X936Y379D01*
X936Y377D01*
X938Y377D01*
X938Y375D01*
X940Y375D01*
X940Y373D01*
X942Y373D01*
X942Y371D01*
X1352Y371D01*
X1352Y373D01*
X1354Y373D01*
X1354Y375D01*
X1356Y375D01*
X1356Y377D01*
X1358Y377D01*
X1358Y379D01*
X1360Y379D01*
X1360Y381D01*
X1362Y381D01*
X1362Y383D01*
X1364Y383D01*
X1364Y385D01*
X1366Y385D01*
X1366Y387D01*
X1368Y387D01*
X1368Y389D01*
X1370Y389D01*
X1370Y391D01*
X1372Y391D01*
X1372Y393D01*
X1374Y393D01*
X1374Y419D01*
X912Y419D01*
G37*
D02*
G36*
X2270Y2165D02*
X2270Y2145D01*
X2272Y2145D01*
X2272Y2141D01*
X2274Y2141D01*
X2274Y2137D01*
X2276Y2137D01*
X2276Y2133D01*
X2278Y2133D01*
X2278Y2129D01*
X2436Y2129D01*
X2436Y2127D01*
X2444Y2127D01*
X2444Y2125D01*
X2448Y2125D01*
X2448Y2123D01*
X2452Y2123D01*
X2452Y2121D01*
X2456Y2121D01*
X2456Y2119D01*
X2460Y2119D01*
X2460Y2117D01*
X2462Y2117D01*
X2462Y2115D01*
X2464Y2115D01*
X2464Y2113D01*
X2466Y2113D01*
X2466Y2111D01*
X2468Y2111D01*
X2468Y2109D01*
X2470Y2109D01*
X2470Y2107D01*
X2472Y2107D01*
X2472Y2105D01*
X2474Y2105D01*
X2474Y2101D01*
X2476Y2101D01*
X2476Y2099D01*
X2478Y2099D01*
X2478Y2095D01*
X2480Y2095D01*
X2480Y2091D01*
X2482Y2091D01*
X2482Y2085D01*
X2484Y2085D01*
X2484Y2077D01*
X2486Y2077D01*
X2486Y2057D01*
X2484Y2057D01*
X2484Y2049D01*
X2482Y2049D01*
X2482Y2043D01*
X2480Y2043D01*
X2480Y2039D01*
X2478Y2039D01*
X2478Y2035D01*
X2476Y2035D01*
X2476Y2031D01*
X2474Y2031D01*
X2474Y2029D01*
X2472Y2029D01*
X2472Y2025D01*
X2470Y2025D01*
X2470Y2023D01*
X2468Y2023D01*
X2468Y2021D01*
X2466Y2021D01*
X2466Y2019D01*
X2464Y2019D01*
X2464Y2017D01*
X2460Y2017D01*
X2460Y2015D01*
X2458Y2015D01*
X2458Y2013D01*
X2454Y2013D01*
X2454Y2011D01*
X2450Y2011D01*
X2450Y2009D01*
X2446Y2009D01*
X2446Y2007D01*
X2440Y2007D01*
X2440Y2005D01*
X2430Y2005D01*
X2430Y2003D01*
X2518Y2003D01*
X2518Y2071D01*
X2516Y2071D01*
X2516Y2079D01*
X2514Y2079D01*
X2514Y2087D01*
X2512Y2087D01*
X2512Y2091D01*
X2510Y2091D01*
X2510Y2097D01*
X2508Y2097D01*
X2508Y2101D01*
X2506Y2101D01*
X2506Y2105D01*
X2504Y2105D01*
X2504Y2109D01*
X2502Y2109D01*
X2502Y2111D01*
X2500Y2111D01*
X2500Y2115D01*
X2498Y2115D01*
X2498Y2117D01*
X2496Y2117D01*
X2496Y2121D01*
X2494Y2121D01*
X2494Y2123D01*
X2492Y2123D01*
X2492Y2125D01*
X2490Y2125D01*
X2490Y2127D01*
X2488Y2127D01*
X2488Y2129D01*
X2486Y2129D01*
X2486Y2133D01*
X2482Y2133D01*
X2482Y2135D01*
X2480Y2135D01*
X2480Y2137D01*
X2478Y2137D01*
X2478Y2139D01*
X2476Y2139D01*
X2476Y2141D01*
X2474Y2141D01*
X2474Y2143D01*
X2472Y2143D01*
X2472Y2145D01*
X2468Y2145D01*
X2468Y2147D01*
X2466Y2147D01*
X2466Y2149D01*
X2462Y2149D01*
X2462Y2151D01*
X2458Y2151D01*
X2458Y2153D01*
X2454Y2153D01*
X2454Y2155D01*
X2450Y2155D01*
X2450Y2157D01*
X2446Y2157D01*
X2446Y2159D01*
X2440Y2159D01*
X2440Y2161D01*
X2436Y2161D01*
X2436Y2163D01*
X2428Y2163D01*
X2428Y2165D01*
X2270Y2165D01*
G37*
D02*
G36*
X2278Y2129D02*
X2278Y2123D01*
X2280Y2123D01*
X2280Y2111D01*
X2278Y2111D01*
X2278Y2101D01*
X2276Y2101D01*
X2276Y2097D01*
X2274Y2097D01*
X2274Y2093D01*
X2272Y2093D01*
X2272Y2089D01*
X2270Y2089D01*
X2270Y2087D01*
X2268Y2087D01*
X2268Y2083D01*
X2266Y2083D01*
X2266Y2081D01*
X2264Y2081D01*
X2264Y2079D01*
X2262Y2079D01*
X2262Y2077D01*
X2258Y2077D01*
X2258Y2057D01*
X2262Y2057D01*
X2262Y2055D01*
X2264Y2055D01*
X2264Y2053D01*
X2266Y2053D01*
X2266Y2051D01*
X2268Y2051D01*
X2268Y2047D01*
X2270Y2047D01*
X2270Y2045D01*
X2272Y2045D01*
X2272Y2041D01*
X2274Y2041D01*
X2274Y2037D01*
X2276Y2037D01*
X2276Y2033D01*
X2278Y2033D01*
X2278Y2023D01*
X2280Y2023D01*
X2280Y2011D01*
X2278Y2011D01*
X2278Y2003D01*
X2414Y2003D01*
X2414Y2005D01*
X2406Y2005D01*
X2406Y2007D01*
X2400Y2007D01*
X2400Y2009D01*
X2396Y2009D01*
X2396Y2011D01*
X2392Y2011D01*
X2392Y2013D01*
X2388Y2013D01*
X2388Y2015D01*
X2386Y2015D01*
X2386Y2017D01*
X2382Y2017D01*
X2382Y2019D01*
X2380Y2019D01*
X2380Y2021D01*
X2378Y2021D01*
X2378Y2023D01*
X2376Y2023D01*
X2376Y2025D01*
X2374Y2025D01*
X2374Y2027D01*
X2372Y2027D01*
X2372Y2031D01*
X2370Y2031D01*
X2370Y2033D01*
X2368Y2033D01*
X2368Y2037D01*
X2366Y2037D01*
X2366Y2041D01*
X2364Y2041D01*
X2364Y2047D01*
X2362Y2047D01*
X2362Y2053D01*
X2360Y2053D01*
X2360Y2079D01*
X2362Y2079D01*
X2362Y2087D01*
X2364Y2087D01*
X2364Y2091D01*
X2366Y2091D01*
X2366Y2095D01*
X2368Y2095D01*
X2368Y2099D01*
X2370Y2099D01*
X2370Y2103D01*
X2372Y2103D01*
X2372Y2105D01*
X2374Y2105D01*
X2374Y2107D01*
X2376Y2107D01*
X2376Y2111D01*
X2378Y2111D01*
X2378Y2113D01*
X2382Y2113D01*
X2382Y2115D01*
X2384Y2115D01*
X2384Y2117D01*
X2386Y2117D01*
X2386Y2119D01*
X2390Y2119D01*
X2390Y2121D01*
X2392Y2121D01*
X2392Y2123D01*
X2398Y2123D01*
X2398Y2125D01*
X2402Y2125D01*
X2402Y2127D01*
X2408Y2127D01*
X2408Y2129D01*
X2278Y2129D01*
G37*
D02*
G36*
X2278Y2003D02*
X2278Y2001D01*
X2518Y2001D01*
X2518Y2003D01*
X2278Y2003D01*
G37*
D02*
G36*
X2278Y2003D02*
X2278Y2001D01*
X2518Y2001D01*
X2518Y2003D01*
X2278Y2003D01*
G37*
D02*
G36*
X2276Y2001D02*
X2276Y1997D01*
X2274Y1997D01*
X2274Y1993D01*
X2272Y1993D01*
X2272Y1989D01*
X2270Y1989D01*
X2270Y1987D01*
X2268Y1987D01*
X2268Y1983D01*
X2266Y1983D01*
X2266Y1981D01*
X2264Y1981D01*
X2264Y1979D01*
X2262Y1979D01*
X2262Y1977D01*
X2258Y1977D01*
X2258Y1975D01*
X2256Y1975D01*
X2256Y1973D01*
X2252Y1973D01*
X2252Y1971D01*
X2248Y1971D01*
X2248Y1969D01*
X2244Y1969D01*
X2244Y1967D01*
X2234Y1967D01*
X2234Y1965D01*
X2518Y1965D01*
X2518Y2001D01*
X2276Y2001D01*
G37*
D02*
G36*
X2168Y1985D02*
X2168Y1983D01*
X2166Y1983D01*
X2166Y1981D01*
X2164Y1981D01*
X2164Y1979D01*
X2162Y1979D01*
X2162Y1977D01*
X2158Y1977D01*
X2158Y1965D01*
X2222Y1965D01*
X2222Y1967D01*
X2212Y1967D01*
X2212Y1969D01*
X2206Y1969D01*
X2206Y1971D01*
X2204Y1971D01*
X2204Y1973D01*
X2200Y1973D01*
X2200Y1975D01*
X2196Y1975D01*
X2196Y1977D01*
X2194Y1977D01*
X2194Y1979D01*
X2192Y1979D01*
X2192Y1981D01*
X2190Y1981D01*
X2190Y1983D01*
X2188Y1983D01*
X2188Y1985D01*
X2168Y1985D01*
G37*
D02*
G36*
X2158Y1965D02*
X2158Y1963D01*
X2518Y1963D01*
X2518Y1965D01*
X2158Y1965D01*
G37*
D02*
G36*
X2158Y1965D02*
X2158Y1963D01*
X2518Y1963D01*
X2518Y1965D01*
X2158Y1965D01*
G37*
D02*
G36*
X2158Y1963D02*
X2158Y1957D01*
X2388Y1957D01*
X2388Y1955D01*
X2396Y1955D01*
X2396Y1953D01*
X2400Y1953D01*
X2400Y1951D01*
X2404Y1951D01*
X2404Y1949D01*
X2406Y1949D01*
X2406Y1947D01*
X2408Y1947D01*
X2408Y1945D01*
X2412Y1945D01*
X2412Y1943D01*
X2414Y1943D01*
X2414Y1941D01*
X2416Y1941D01*
X2416Y1937D01*
X2418Y1937D01*
X2418Y1935D01*
X2420Y1935D01*
X2420Y1931D01*
X2422Y1931D01*
X2422Y1927D01*
X2424Y1927D01*
X2424Y1923D01*
X2426Y1923D01*
X2426Y1913D01*
X2428Y1913D01*
X2428Y1901D01*
X2426Y1901D01*
X2426Y1893D01*
X2424Y1893D01*
X2424Y1887D01*
X2422Y1887D01*
X2422Y1883D01*
X2420Y1883D01*
X2420Y1881D01*
X2418Y1881D01*
X2418Y1877D01*
X2416Y1877D01*
X2416Y1875D01*
X2414Y1875D01*
X2414Y1873D01*
X2412Y1873D01*
X2412Y1871D01*
X2410Y1871D01*
X2410Y1869D01*
X2408Y1869D01*
X2408Y1867D01*
X2406Y1867D01*
X2406Y1847D01*
X2408Y1847D01*
X2408Y1845D01*
X2412Y1845D01*
X2412Y1843D01*
X2414Y1843D01*
X2414Y1841D01*
X2416Y1841D01*
X2416Y1837D01*
X2418Y1837D01*
X2418Y1835D01*
X2420Y1835D01*
X2420Y1831D01*
X2422Y1831D01*
X2422Y1827D01*
X2424Y1827D01*
X2424Y1823D01*
X2426Y1823D01*
X2426Y1813D01*
X2428Y1813D01*
X2428Y1801D01*
X2426Y1801D01*
X2426Y1793D01*
X2424Y1793D01*
X2424Y1787D01*
X2422Y1787D01*
X2422Y1783D01*
X2420Y1783D01*
X2420Y1781D01*
X2418Y1781D01*
X2418Y1777D01*
X2416Y1777D01*
X2416Y1775D01*
X2414Y1775D01*
X2414Y1773D01*
X2412Y1773D01*
X2412Y1771D01*
X2410Y1771D01*
X2410Y1769D01*
X2408Y1769D01*
X2408Y1767D01*
X2404Y1767D01*
X2404Y1765D01*
X2400Y1765D01*
X2400Y1763D01*
X2398Y1763D01*
X2398Y1761D01*
X2390Y1761D01*
X2390Y1759D01*
X2378Y1759D01*
X2378Y1757D01*
X2518Y1757D01*
X2518Y1963D01*
X2158Y1963D01*
G37*
D02*
G36*
X2168Y1957D02*
X2168Y1955D01*
X2176Y1955D01*
X2176Y1953D01*
X2180Y1953D01*
X2180Y1951D01*
X2184Y1951D01*
X2184Y1949D01*
X2188Y1949D01*
X2188Y1947D01*
X2190Y1947D01*
X2190Y1945D01*
X2192Y1945D01*
X2192Y1943D01*
X2194Y1943D01*
X2194Y1941D01*
X2196Y1941D01*
X2196Y1939D01*
X2198Y1939D01*
X2198Y1937D01*
X2200Y1937D01*
X2200Y1933D01*
X2202Y1933D01*
X2202Y1929D01*
X2204Y1929D01*
X2204Y1925D01*
X2206Y1925D01*
X2206Y1917D01*
X2208Y1917D01*
X2208Y1897D01*
X2206Y1897D01*
X2206Y1891D01*
X2204Y1891D01*
X2204Y1885D01*
X2202Y1885D01*
X2202Y1883D01*
X2200Y1883D01*
X2200Y1879D01*
X2198Y1879D01*
X2198Y1877D01*
X2196Y1877D01*
X2196Y1873D01*
X2194Y1873D01*
X2194Y1871D01*
X2190Y1871D01*
X2190Y1869D01*
X2188Y1869D01*
X2188Y1847D01*
X2190Y1847D01*
X2190Y1845D01*
X2192Y1845D01*
X2192Y1843D01*
X2194Y1843D01*
X2194Y1841D01*
X2196Y1841D01*
X2196Y1839D01*
X2198Y1839D01*
X2198Y1837D01*
X2200Y1837D01*
X2200Y1833D01*
X2202Y1833D01*
X2202Y1829D01*
X2204Y1829D01*
X2204Y1825D01*
X2206Y1825D01*
X2206Y1817D01*
X2208Y1817D01*
X2208Y1797D01*
X2206Y1797D01*
X2206Y1791D01*
X2204Y1791D01*
X2204Y1785D01*
X2202Y1785D01*
X2202Y1783D01*
X2200Y1783D01*
X2200Y1779D01*
X2198Y1779D01*
X2198Y1777D01*
X2196Y1777D01*
X2196Y1773D01*
X2194Y1773D01*
X2194Y1771D01*
X2190Y1771D01*
X2190Y1769D01*
X2188Y1769D01*
X2188Y1757D01*
X2376Y1757D01*
X2376Y1759D01*
X2364Y1759D01*
X2364Y1761D01*
X2358Y1761D01*
X2358Y1763D01*
X2354Y1763D01*
X2354Y1765D01*
X2350Y1765D01*
X2350Y1767D01*
X2348Y1767D01*
X2348Y1769D01*
X2346Y1769D01*
X2346Y1771D01*
X2344Y1771D01*
X2344Y1773D01*
X2342Y1773D01*
X2342Y1775D01*
X2340Y1775D01*
X2340Y1777D01*
X2338Y1777D01*
X2338Y1779D01*
X2336Y1779D01*
X2336Y1783D01*
X2334Y1783D01*
X2334Y1787D01*
X2332Y1787D01*
X2332Y1791D01*
X2330Y1791D01*
X2330Y1799D01*
X2328Y1799D01*
X2328Y1817D01*
X2330Y1817D01*
X2330Y1823D01*
X2332Y1823D01*
X2332Y1829D01*
X2334Y1829D01*
X2334Y1833D01*
X2336Y1833D01*
X2336Y1835D01*
X2338Y1835D01*
X2338Y1839D01*
X2340Y1839D01*
X2340Y1841D01*
X2342Y1841D01*
X2342Y1843D01*
X2344Y1843D01*
X2344Y1845D01*
X2346Y1845D01*
X2346Y1847D01*
X2350Y1847D01*
X2350Y1867D01*
X2348Y1867D01*
X2348Y1869D01*
X2346Y1869D01*
X2346Y1871D01*
X2344Y1871D01*
X2344Y1873D01*
X2342Y1873D01*
X2342Y1875D01*
X2340Y1875D01*
X2340Y1877D01*
X2338Y1877D01*
X2338Y1879D01*
X2336Y1879D01*
X2336Y1883D01*
X2334Y1883D01*
X2334Y1887D01*
X2332Y1887D01*
X2332Y1891D01*
X2330Y1891D01*
X2330Y1899D01*
X2328Y1899D01*
X2328Y1917D01*
X2330Y1917D01*
X2330Y1923D01*
X2332Y1923D01*
X2332Y1929D01*
X2334Y1929D01*
X2334Y1933D01*
X2336Y1933D01*
X2336Y1935D01*
X2338Y1935D01*
X2338Y1939D01*
X2340Y1939D01*
X2340Y1941D01*
X2342Y1941D01*
X2342Y1943D01*
X2344Y1943D01*
X2344Y1945D01*
X2346Y1945D01*
X2346Y1947D01*
X2350Y1947D01*
X2350Y1949D01*
X2352Y1949D01*
X2352Y1951D01*
X2356Y1951D01*
X2356Y1953D01*
X2360Y1953D01*
X2360Y1955D01*
X2368Y1955D01*
X2368Y1957D01*
X2168Y1957D01*
G37*
D02*
G36*
X2188Y1757D02*
X2188Y1755D01*
X2518Y1755D01*
X2518Y1757D01*
X2188Y1757D01*
G37*
D02*
G36*
X2188Y1757D02*
X2188Y1755D01*
X2518Y1755D01*
X2518Y1757D01*
X2188Y1757D01*
G37*
D02*
G36*
X2188Y1755D02*
X2188Y1747D01*
X2190Y1747D01*
X2190Y1745D01*
X2192Y1745D01*
X2192Y1743D01*
X2194Y1743D01*
X2194Y1741D01*
X2196Y1741D01*
X2196Y1739D01*
X2198Y1739D01*
X2198Y1737D01*
X2200Y1737D01*
X2200Y1733D01*
X2202Y1733D01*
X2202Y1729D01*
X2204Y1729D01*
X2204Y1725D01*
X2206Y1725D01*
X2206Y1717D01*
X2208Y1717D01*
X2208Y1697D01*
X2206Y1697D01*
X2206Y1691D01*
X2204Y1691D01*
X2204Y1685D01*
X2202Y1685D01*
X2202Y1683D01*
X2200Y1683D01*
X2200Y1679D01*
X2198Y1679D01*
X2198Y1677D01*
X2196Y1677D01*
X2196Y1673D01*
X2194Y1673D01*
X2194Y1671D01*
X2190Y1671D01*
X2190Y1669D01*
X2188Y1669D01*
X2188Y1647D01*
X2190Y1647D01*
X2190Y1645D01*
X2192Y1645D01*
X2192Y1643D01*
X2194Y1643D01*
X2194Y1641D01*
X2196Y1641D01*
X2196Y1639D01*
X2198Y1639D01*
X2198Y1637D01*
X2200Y1637D01*
X2200Y1633D01*
X2202Y1633D01*
X2202Y1629D01*
X2204Y1629D01*
X2204Y1625D01*
X2206Y1625D01*
X2206Y1617D01*
X2208Y1617D01*
X2208Y1597D01*
X2206Y1597D01*
X2206Y1591D01*
X2204Y1591D01*
X2204Y1585D01*
X2202Y1585D01*
X2202Y1583D01*
X2200Y1583D01*
X2200Y1579D01*
X2198Y1579D01*
X2198Y1577D01*
X2196Y1577D01*
X2196Y1573D01*
X2194Y1573D01*
X2194Y1571D01*
X2190Y1571D01*
X2190Y1569D01*
X2188Y1569D01*
X2188Y1547D01*
X2190Y1547D01*
X2190Y1545D01*
X2192Y1545D01*
X2192Y1543D01*
X2194Y1543D01*
X2194Y1541D01*
X2196Y1541D01*
X2196Y1539D01*
X2198Y1539D01*
X2198Y1537D01*
X2200Y1537D01*
X2200Y1533D01*
X2202Y1533D01*
X2202Y1529D01*
X2204Y1529D01*
X2204Y1525D01*
X2206Y1525D01*
X2206Y1517D01*
X2208Y1517D01*
X2208Y1497D01*
X2206Y1497D01*
X2206Y1491D01*
X2204Y1491D01*
X2204Y1485D01*
X2202Y1485D01*
X2202Y1483D01*
X2200Y1483D01*
X2200Y1479D01*
X2198Y1479D01*
X2198Y1477D01*
X2196Y1477D01*
X2196Y1473D01*
X2194Y1473D01*
X2194Y1471D01*
X2190Y1471D01*
X2190Y1469D01*
X2188Y1469D01*
X2188Y1447D01*
X2190Y1447D01*
X2190Y1445D01*
X2192Y1445D01*
X2192Y1443D01*
X2194Y1443D01*
X2194Y1441D01*
X2196Y1441D01*
X2196Y1439D01*
X2198Y1439D01*
X2198Y1437D01*
X2200Y1437D01*
X2200Y1433D01*
X2202Y1433D01*
X2202Y1429D01*
X2204Y1429D01*
X2204Y1425D01*
X2206Y1425D01*
X2206Y1417D01*
X2208Y1417D01*
X2208Y1397D01*
X2206Y1397D01*
X2206Y1391D01*
X2204Y1391D01*
X2204Y1385D01*
X2202Y1385D01*
X2202Y1383D01*
X2200Y1383D01*
X2200Y1379D01*
X2198Y1379D01*
X2198Y1377D01*
X2196Y1377D01*
X2196Y1373D01*
X2194Y1373D01*
X2194Y1371D01*
X2190Y1371D01*
X2190Y1369D01*
X2188Y1369D01*
X2188Y1367D01*
X2186Y1367D01*
X2186Y1365D01*
X2182Y1365D01*
X2182Y1363D01*
X2178Y1363D01*
X2178Y1361D01*
X2172Y1361D01*
X2172Y1359D01*
X2162Y1359D01*
X2162Y1357D01*
X2518Y1357D01*
X2518Y1755D01*
X2188Y1755D01*
G37*
D02*
G36*
X2108Y1367D02*
X2108Y1365D01*
X2104Y1365D01*
X2104Y1363D01*
X2100Y1363D01*
X2100Y1361D01*
X2096Y1361D01*
X2096Y1359D01*
X2092Y1359D01*
X2092Y1357D01*
X2154Y1357D01*
X2154Y1359D01*
X2144Y1359D01*
X2144Y1361D01*
X2138Y1361D01*
X2138Y1363D01*
X2136Y1363D01*
X2136Y1365D01*
X2132Y1365D01*
X2132Y1367D01*
X2108Y1367D01*
G37*
D02*
G36*
X2092Y1357D02*
X2092Y1355D01*
X2518Y1355D01*
X2518Y1357D01*
X2092Y1357D01*
G37*
D02*
G36*
X2092Y1357D02*
X2092Y1355D01*
X2518Y1355D01*
X2518Y1357D01*
X2092Y1357D01*
G37*
D02*
G36*
X2092Y1355D02*
X2092Y1257D01*
X2388Y1257D01*
X2388Y1255D01*
X2396Y1255D01*
X2396Y1253D01*
X2400Y1253D01*
X2400Y1251D01*
X2404Y1251D01*
X2404Y1249D01*
X2406Y1249D01*
X2406Y1247D01*
X2408Y1247D01*
X2408Y1245D01*
X2412Y1245D01*
X2412Y1243D01*
X2414Y1243D01*
X2414Y1241D01*
X2416Y1241D01*
X2416Y1237D01*
X2418Y1237D01*
X2418Y1235D01*
X2420Y1235D01*
X2420Y1231D01*
X2422Y1231D01*
X2422Y1227D01*
X2424Y1227D01*
X2424Y1223D01*
X2426Y1223D01*
X2426Y1213D01*
X2428Y1213D01*
X2428Y1201D01*
X2426Y1201D01*
X2426Y1193D01*
X2424Y1193D01*
X2424Y1187D01*
X2422Y1187D01*
X2422Y1183D01*
X2420Y1183D01*
X2420Y1181D01*
X2418Y1181D01*
X2418Y1177D01*
X2416Y1177D01*
X2416Y1175D01*
X2414Y1175D01*
X2414Y1173D01*
X2412Y1173D01*
X2412Y1171D01*
X2410Y1171D01*
X2410Y1169D01*
X2408Y1169D01*
X2408Y1167D01*
X2406Y1167D01*
X2406Y1147D01*
X2408Y1147D01*
X2408Y1145D01*
X2412Y1145D01*
X2412Y1143D01*
X2414Y1143D01*
X2414Y1141D01*
X2416Y1141D01*
X2416Y1137D01*
X2418Y1137D01*
X2418Y1135D01*
X2420Y1135D01*
X2420Y1131D01*
X2422Y1131D01*
X2422Y1127D01*
X2424Y1127D01*
X2424Y1123D01*
X2426Y1123D01*
X2426Y1113D01*
X2428Y1113D01*
X2428Y1101D01*
X2426Y1101D01*
X2426Y1093D01*
X2424Y1093D01*
X2424Y1087D01*
X2422Y1087D01*
X2422Y1083D01*
X2420Y1083D01*
X2420Y1081D01*
X2418Y1081D01*
X2418Y1077D01*
X2416Y1077D01*
X2416Y1075D01*
X2414Y1075D01*
X2414Y1073D01*
X2412Y1073D01*
X2412Y1071D01*
X2410Y1071D01*
X2410Y1069D01*
X2408Y1069D01*
X2408Y1067D01*
X2404Y1067D01*
X2404Y1065D01*
X2400Y1065D01*
X2400Y1063D01*
X2398Y1063D01*
X2398Y1061D01*
X2390Y1061D01*
X2390Y1059D01*
X2378Y1059D01*
X2378Y1057D01*
X2518Y1057D01*
X2518Y1355D01*
X2092Y1355D01*
G37*
D02*
G36*
X2092Y1257D02*
X2092Y1221D01*
X2112Y1221D01*
X2112Y1227D01*
X2114Y1227D01*
X2114Y1231D01*
X2116Y1231D01*
X2116Y1235D01*
X2118Y1235D01*
X2118Y1237D01*
X2120Y1237D01*
X2120Y1239D01*
X2122Y1239D01*
X2122Y1243D01*
X2126Y1243D01*
X2126Y1245D01*
X2128Y1245D01*
X2128Y1247D01*
X2130Y1247D01*
X2130Y1249D01*
X2134Y1249D01*
X2134Y1251D01*
X2138Y1251D01*
X2138Y1253D01*
X2142Y1253D01*
X2142Y1255D01*
X2148Y1255D01*
X2148Y1257D01*
X2092Y1257D01*
G37*
D02*
G36*
X2168Y1257D02*
X2168Y1255D01*
X2176Y1255D01*
X2176Y1253D01*
X2180Y1253D01*
X2180Y1251D01*
X2184Y1251D01*
X2184Y1249D01*
X2188Y1249D01*
X2188Y1247D01*
X2190Y1247D01*
X2190Y1245D01*
X2192Y1245D01*
X2192Y1243D01*
X2194Y1243D01*
X2194Y1241D01*
X2196Y1241D01*
X2196Y1239D01*
X2198Y1239D01*
X2198Y1237D01*
X2200Y1237D01*
X2200Y1233D01*
X2202Y1233D01*
X2202Y1229D01*
X2204Y1229D01*
X2204Y1225D01*
X2206Y1225D01*
X2206Y1217D01*
X2208Y1217D01*
X2208Y1197D01*
X2206Y1197D01*
X2206Y1191D01*
X2204Y1191D01*
X2204Y1185D01*
X2202Y1185D01*
X2202Y1183D01*
X2200Y1183D01*
X2200Y1179D01*
X2198Y1179D01*
X2198Y1177D01*
X2196Y1177D01*
X2196Y1173D01*
X2194Y1173D01*
X2194Y1171D01*
X2190Y1171D01*
X2190Y1169D01*
X2188Y1169D01*
X2188Y1147D01*
X2190Y1147D01*
X2190Y1145D01*
X2192Y1145D01*
X2192Y1143D01*
X2194Y1143D01*
X2194Y1141D01*
X2196Y1141D01*
X2196Y1139D01*
X2198Y1139D01*
X2198Y1137D01*
X2200Y1137D01*
X2200Y1133D01*
X2202Y1133D01*
X2202Y1129D01*
X2204Y1129D01*
X2204Y1125D01*
X2206Y1125D01*
X2206Y1117D01*
X2208Y1117D01*
X2208Y1097D01*
X2206Y1097D01*
X2206Y1091D01*
X2204Y1091D01*
X2204Y1085D01*
X2202Y1085D01*
X2202Y1083D01*
X2200Y1083D01*
X2200Y1079D01*
X2198Y1079D01*
X2198Y1077D01*
X2196Y1077D01*
X2196Y1073D01*
X2194Y1073D01*
X2194Y1071D01*
X2190Y1071D01*
X2190Y1069D01*
X2188Y1069D01*
X2188Y1057D01*
X2376Y1057D01*
X2376Y1059D01*
X2364Y1059D01*
X2364Y1061D01*
X2358Y1061D01*
X2358Y1063D01*
X2354Y1063D01*
X2354Y1065D01*
X2350Y1065D01*
X2350Y1067D01*
X2348Y1067D01*
X2348Y1069D01*
X2346Y1069D01*
X2346Y1071D01*
X2344Y1071D01*
X2344Y1073D01*
X2342Y1073D01*
X2342Y1075D01*
X2340Y1075D01*
X2340Y1077D01*
X2338Y1077D01*
X2338Y1079D01*
X2336Y1079D01*
X2336Y1083D01*
X2334Y1083D01*
X2334Y1087D01*
X2332Y1087D01*
X2332Y1091D01*
X2330Y1091D01*
X2330Y1099D01*
X2328Y1099D01*
X2328Y1117D01*
X2330Y1117D01*
X2330Y1123D01*
X2332Y1123D01*
X2332Y1129D01*
X2334Y1129D01*
X2334Y1133D01*
X2336Y1133D01*
X2336Y1135D01*
X2338Y1135D01*
X2338Y1139D01*
X2340Y1139D01*
X2340Y1141D01*
X2342Y1141D01*
X2342Y1143D01*
X2344Y1143D01*
X2344Y1145D01*
X2346Y1145D01*
X2346Y1147D01*
X2350Y1147D01*
X2350Y1167D01*
X2348Y1167D01*
X2348Y1169D01*
X2346Y1169D01*
X2346Y1171D01*
X2344Y1171D01*
X2344Y1173D01*
X2342Y1173D01*
X2342Y1175D01*
X2340Y1175D01*
X2340Y1177D01*
X2338Y1177D01*
X2338Y1179D01*
X2336Y1179D01*
X2336Y1183D01*
X2334Y1183D01*
X2334Y1187D01*
X2332Y1187D01*
X2332Y1191D01*
X2330Y1191D01*
X2330Y1199D01*
X2328Y1199D01*
X2328Y1217D01*
X2330Y1217D01*
X2330Y1223D01*
X2332Y1223D01*
X2332Y1229D01*
X2334Y1229D01*
X2334Y1233D01*
X2336Y1233D01*
X2336Y1235D01*
X2338Y1235D01*
X2338Y1239D01*
X2340Y1239D01*
X2340Y1241D01*
X2342Y1241D01*
X2342Y1243D01*
X2344Y1243D01*
X2344Y1245D01*
X2346Y1245D01*
X2346Y1247D01*
X2350Y1247D01*
X2350Y1249D01*
X2352Y1249D01*
X2352Y1251D01*
X2356Y1251D01*
X2356Y1253D01*
X2360Y1253D01*
X2360Y1255D01*
X2368Y1255D01*
X2368Y1257D01*
X2168Y1257D01*
G37*
D02*
G36*
X2188Y1057D02*
X2188Y1055D01*
X2518Y1055D01*
X2518Y1057D01*
X2188Y1057D01*
G37*
D02*
G36*
X2188Y1057D02*
X2188Y1055D01*
X2518Y1055D01*
X2518Y1057D01*
X2188Y1057D01*
G37*
D02*
G36*
X2188Y1055D02*
X2188Y1047D01*
X2190Y1047D01*
X2190Y1045D01*
X2192Y1045D01*
X2192Y1043D01*
X2194Y1043D01*
X2194Y1041D01*
X2196Y1041D01*
X2196Y1039D01*
X2198Y1039D01*
X2198Y1037D01*
X2200Y1037D01*
X2200Y1033D01*
X2202Y1033D01*
X2202Y1029D01*
X2204Y1029D01*
X2204Y1025D01*
X2206Y1025D01*
X2206Y1017D01*
X2208Y1017D01*
X2208Y997D01*
X2206Y997D01*
X2206Y991D01*
X2204Y991D01*
X2204Y985D01*
X2202Y985D01*
X2202Y983D01*
X2200Y983D01*
X2200Y979D01*
X2198Y979D01*
X2198Y977D01*
X2196Y977D01*
X2196Y973D01*
X2194Y973D01*
X2194Y971D01*
X2190Y971D01*
X2190Y969D01*
X2188Y969D01*
X2188Y947D01*
X2190Y947D01*
X2190Y945D01*
X2192Y945D01*
X2192Y943D01*
X2194Y943D01*
X2194Y941D01*
X2196Y941D01*
X2196Y939D01*
X2198Y939D01*
X2198Y937D01*
X2386Y937D01*
X2386Y935D01*
X2392Y935D01*
X2392Y933D01*
X2394Y933D01*
X2394Y931D01*
X2398Y931D01*
X2398Y929D01*
X2400Y929D01*
X2400Y925D01*
X2402Y925D01*
X2402Y923D01*
X2404Y923D01*
X2404Y919D01*
X2406Y919D01*
X2406Y911D01*
X2408Y911D01*
X2408Y903D01*
X2406Y903D01*
X2406Y895D01*
X2404Y895D01*
X2404Y893D01*
X2402Y893D01*
X2402Y889D01*
X2400Y889D01*
X2400Y887D01*
X2398Y887D01*
X2398Y885D01*
X2396Y885D01*
X2396Y883D01*
X2392Y883D01*
X2392Y881D01*
X2388Y881D01*
X2388Y879D01*
X2518Y879D01*
X2518Y1055D01*
X2188Y1055D01*
G37*
D02*
G36*
X2200Y937D02*
X2200Y933D01*
X2202Y933D01*
X2202Y929D01*
X2204Y929D01*
X2204Y925D01*
X2206Y925D01*
X2206Y917D01*
X2208Y917D01*
X2208Y897D01*
X2206Y897D01*
X2206Y891D01*
X2204Y891D01*
X2204Y885D01*
X2202Y885D01*
X2202Y883D01*
X2200Y883D01*
X2200Y879D01*
X2368Y879D01*
X2368Y881D01*
X2364Y881D01*
X2364Y883D01*
X2360Y883D01*
X2360Y885D01*
X2358Y885D01*
X2358Y887D01*
X2356Y887D01*
X2356Y889D01*
X2354Y889D01*
X2354Y891D01*
X2352Y891D01*
X2352Y895D01*
X2350Y895D01*
X2350Y901D01*
X2348Y901D01*
X2348Y915D01*
X2350Y915D01*
X2350Y921D01*
X2352Y921D01*
X2352Y923D01*
X2354Y923D01*
X2354Y927D01*
X2356Y927D01*
X2356Y929D01*
X2358Y929D01*
X2358Y931D01*
X2362Y931D01*
X2362Y933D01*
X2364Y933D01*
X2364Y935D01*
X2370Y935D01*
X2370Y937D01*
X2200Y937D01*
G37*
D02*
G36*
X2198Y879D02*
X2198Y877D01*
X2518Y877D01*
X2518Y879D01*
X2198Y879D01*
G37*
D02*
G36*
X2198Y879D02*
X2198Y877D01*
X2518Y877D01*
X2518Y879D01*
X2198Y879D01*
G37*
D02*
G36*
X2196Y877D02*
X2196Y873D01*
X2194Y873D01*
X2194Y871D01*
X2190Y871D01*
X2190Y869D01*
X2188Y869D01*
X2188Y847D01*
X2190Y847D01*
X2190Y845D01*
X2192Y845D01*
X2192Y843D01*
X2194Y843D01*
X2194Y841D01*
X2196Y841D01*
X2196Y839D01*
X2198Y839D01*
X2198Y837D01*
X2200Y837D01*
X2200Y833D01*
X2202Y833D01*
X2202Y829D01*
X2204Y829D01*
X2204Y825D01*
X2206Y825D01*
X2206Y823D01*
X2348Y823D01*
X2348Y821D01*
X2354Y821D01*
X2354Y819D01*
X2358Y819D01*
X2358Y815D01*
X2360Y815D01*
X2360Y813D01*
X2362Y813D01*
X2362Y811D01*
X2364Y811D01*
X2364Y807D01*
X2366Y807D01*
X2366Y805D01*
X2368Y805D01*
X2368Y803D01*
X2370Y803D01*
X2370Y799D01*
X2372Y799D01*
X2372Y797D01*
X2374Y797D01*
X2374Y795D01*
X2376Y795D01*
X2376Y791D01*
X2378Y791D01*
X2378Y789D01*
X2380Y789D01*
X2380Y787D01*
X2382Y787D01*
X2382Y783D01*
X2384Y783D01*
X2384Y781D01*
X2386Y781D01*
X2386Y779D01*
X2388Y779D01*
X2388Y775D01*
X2390Y775D01*
X2390Y771D01*
X2392Y771D01*
X2392Y213D01*
X2390Y213D01*
X2390Y201D01*
X2432Y201D01*
X2432Y199D01*
X2440Y199D01*
X2440Y197D01*
X2446Y197D01*
X2446Y195D01*
X2450Y195D01*
X2450Y193D01*
X2454Y193D01*
X2454Y191D01*
X2456Y191D01*
X2456Y189D01*
X2460Y189D01*
X2460Y187D01*
X2462Y187D01*
X2462Y185D01*
X2464Y185D01*
X2464Y183D01*
X2466Y183D01*
X2466Y181D01*
X2468Y181D01*
X2468Y179D01*
X2470Y179D01*
X2470Y177D01*
X2472Y177D01*
X2472Y175D01*
X2474Y175D01*
X2474Y171D01*
X2476Y171D01*
X2476Y167D01*
X2478Y167D01*
X2478Y163D01*
X2480Y163D01*
X2480Y159D01*
X2482Y159D01*
X2482Y151D01*
X2484Y151D01*
X2484Y123D01*
X2482Y123D01*
X2482Y117D01*
X2480Y117D01*
X2480Y111D01*
X2478Y111D01*
X2478Y107D01*
X2476Y107D01*
X2476Y105D01*
X2474Y105D01*
X2474Y101D01*
X2472Y101D01*
X2472Y99D01*
X2470Y99D01*
X2470Y97D01*
X2468Y97D01*
X2468Y93D01*
X2466Y93D01*
X2466Y91D01*
X2462Y91D01*
X2462Y89D01*
X2460Y89D01*
X2460Y87D01*
X2458Y87D01*
X2458Y85D01*
X2454Y85D01*
X2454Y83D01*
X2452Y83D01*
X2452Y81D01*
X2446Y81D01*
X2446Y79D01*
X2442Y79D01*
X2442Y77D01*
X2434Y77D01*
X2434Y75D01*
X2486Y75D01*
X2486Y77D01*
X2488Y77D01*
X2488Y79D01*
X2490Y79D01*
X2490Y81D01*
X2492Y81D01*
X2492Y85D01*
X2494Y85D01*
X2494Y87D01*
X2496Y87D01*
X2496Y89D01*
X2498Y89D01*
X2498Y93D01*
X2500Y93D01*
X2500Y95D01*
X2502Y95D01*
X2502Y99D01*
X2504Y99D01*
X2504Y103D01*
X2506Y103D01*
X2506Y107D01*
X2508Y107D01*
X2508Y111D01*
X2510Y111D01*
X2510Y115D01*
X2512Y115D01*
X2512Y121D01*
X2514Y121D01*
X2514Y127D01*
X2516Y127D01*
X2516Y137D01*
X2518Y137D01*
X2518Y877D01*
X2196Y877D01*
G37*
D02*
G36*
X2206Y823D02*
X2206Y821D01*
X2340Y821D01*
X2340Y823D01*
X2206Y823D01*
G37*
D02*
G36*
X2390Y201D02*
X2390Y199D01*
X2412Y199D01*
X2412Y201D01*
X2390Y201D01*
G37*
D02*
G36*
X2342Y157D02*
X2342Y155D01*
X2340Y155D01*
X2340Y153D01*
X2338Y153D01*
X2338Y149D01*
X2336Y149D01*
X2336Y147D01*
X2334Y147D01*
X2334Y145D01*
X2332Y145D01*
X2332Y143D01*
X2330Y143D01*
X2330Y141D01*
X2328Y141D01*
X2328Y139D01*
X2326Y139D01*
X2326Y137D01*
X2324Y137D01*
X2324Y135D01*
X2322Y135D01*
X2322Y131D01*
X2320Y131D01*
X2320Y129D01*
X2318Y129D01*
X2318Y127D01*
X2316Y127D01*
X2316Y125D01*
X2314Y125D01*
X2314Y123D01*
X2312Y123D01*
X2312Y121D01*
X2310Y121D01*
X2310Y119D01*
X2308Y119D01*
X2308Y117D01*
X2306Y117D01*
X2306Y115D01*
X2304Y115D01*
X2304Y113D01*
X1772Y113D01*
X1772Y93D01*
X1774Y93D01*
X1774Y91D01*
X1778Y91D01*
X1778Y89D01*
X1780Y89D01*
X1780Y85D01*
X1782Y85D01*
X1782Y83D01*
X1784Y83D01*
X1784Y79D01*
X1786Y79D01*
X1786Y75D01*
X2408Y75D01*
X2408Y77D01*
X2402Y77D01*
X2402Y79D01*
X2396Y79D01*
X2396Y81D01*
X2392Y81D01*
X2392Y83D01*
X2388Y83D01*
X2388Y85D01*
X2386Y85D01*
X2386Y87D01*
X2382Y87D01*
X2382Y89D01*
X2380Y89D01*
X2380Y91D01*
X2378Y91D01*
X2378Y93D01*
X2376Y93D01*
X2376Y95D01*
X2374Y95D01*
X2374Y97D01*
X2372Y97D01*
X2372Y101D01*
X2370Y101D01*
X2370Y103D01*
X2368Y103D01*
X2368Y107D01*
X2366Y107D01*
X2366Y111D01*
X2364Y111D01*
X2364Y115D01*
X2362Y115D01*
X2362Y121D01*
X2360Y121D01*
X2360Y131D01*
X2358Y131D01*
X2358Y145D01*
X2360Y145D01*
X2360Y155D01*
X2362Y155D01*
X2362Y157D01*
X2342Y157D01*
G37*
D02*
G36*
X1786Y75D02*
X1786Y73D01*
X2484Y73D01*
X2484Y75D01*
X1786Y75D01*
G37*
D02*
G36*
X1786Y75D02*
X1786Y73D01*
X2484Y73D01*
X2484Y75D01*
X1786Y75D01*
G37*
D02*
G36*
X1786Y73D02*
X1786Y71D01*
X1788Y71D01*
X1788Y63D01*
X1786Y63D01*
X1786Y41D01*
X2420Y41D01*
X2420Y43D01*
X2430Y43D01*
X2430Y45D01*
X2438Y45D01*
X2438Y47D01*
X2442Y47D01*
X2442Y49D01*
X2448Y49D01*
X2448Y51D01*
X2452Y51D01*
X2452Y53D01*
X2456Y53D01*
X2456Y55D01*
X2460Y55D01*
X2460Y57D01*
X2464Y57D01*
X2464Y59D01*
X2466Y59D01*
X2466Y61D01*
X2470Y61D01*
X2470Y63D01*
X2472Y63D01*
X2472Y65D01*
X2474Y65D01*
X2474Y67D01*
X2478Y67D01*
X2478Y69D01*
X2480Y69D01*
X2480Y71D01*
X2482Y71D01*
X2482Y73D01*
X1786Y73D01*
G37*
D02*
G36*
X2364Y941D02*
X2389Y941D01*
X2389Y917D01*
X2364Y917D01*
X2364Y941D01*
G37*
D02*
G36*
X2364Y903D02*
X2389Y903D01*
X2389Y879D01*
X2364Y879D01*
X2364Y903D01*
G37*
D02*
G36*
X2344Y921D02*
X2368Y921D01*
X2368Y896D01*
X2344Y896D01*
X2344Y921D01*
G37*
D02*
G36*
X2382Y921D02*
X2408Y921D01*
X2408Y896D01*
X2382Y896D01*
X2382Y921D01*
G37*
D02*
G36*
X365Y1491D02*
X390Y1491D01*
X390Y1466D01*
X365Y1466D01*
X365Y1491D01*
G37*
D02*
G36*
X365Y1452D02*
X390Y1452D01*
X390Y1429D01*
X365Y1429D01*
X365Y1452D01*
G37*
D02*
G36*
X344Y1471D02*
X369Y1471D01*
X369Y1446D01*
X344Y1446D01*
X344Y1471D01*
G37*
D02*
G36*
X383Y1471D02*
X408Y1471D01*
X408Y1446D01*
X383Y1446D01*
X383Y1471D01*
G37*
D02*
G36*
X424Y1912D02*
X450Y1912D01*
X450Y1889D01*
X424Y1889D01*
X424Y1912D01*
G37*
D02*
G36*
X404Y1931D02*
X429Y1931D01*
X429Y1906D01*
X404Y1906D01*
X404Y1931D01*
G37*
D02*
G36*
X443Y1931D02*
X468Y1931D01*
X468Y1906D01*
X443Y1906D01*
X443Y1931D01*
G37*
D02*
G36*
X694Y1912D02*
X720Y1912D01*
X720Y1889D01*
X694Y1889D01*
X694Y1912D01*
G37*
D02*
G36*
X674Y1931D02*
X699Y1931D01*
X699Y1906D01*
X674Y1906D01*
X674Y1931D01*
G37*
D02*
G36*
X713Y1931D02*
X738Y1931D01*
X738Y1906D01*
X713Y1906D01*
X713Y1931D01*
G37*
D02*
G36*
X854Y161D02*
X880Y161D01*
X880Y137D01*
X854Y137D01*
X854Y161D01*
G37*
D02*
G36*
X854Y123D02*
X880Y123D01*
X880Y99D01*
X854Y99D01*
X854Y123D01*
G37*
D02*
G36*
X834Y141D02*
X859Y141D01*
X859Y116D01*
X834Y116D01*
X834Y141D01*
G37*
D02*
G36*
X873Y141D02*
X898Y141D01*
X898Y116D01*
X873Y116D01*
X873Y141D01*
G37*
D02*
G36*
X1744Y63D02*
X1769Y63D01*
X1769Y41D01*
X1744Y41D01*
X1744Y63D01*
G37*
D02*
G36*
X1724Y81D02*
X1749Y81D01*
X1749Y56D01*
X1724Y56D01*
X1724Y81D01*
G37*
D02*
G36*
X1763Y81D02*
X1788Y81D01*
X1788Y56D01*
X1763Y56D01*
X1763Y81D01*
G37*
D02*
G36*
X459Y261D02*
X535Y261D01*
X535Y227D01*
X459Y227D01*
X459Y261D01*
G37*
D02*
G36*
X2354Y1261D02*
X2399Y1261D01*
X2399Y1228D01*
X2354Y1228D01*
X2354Y1261D01*
G37*
D02*
G04 End of Copper0*
M02*