G04 MADE WITH FRITZING*
G04 WWW.FRITZING.ORG*
G04 DOUBLE SIDED*
G04 HOLES PLATED*
G04 CONTOUR ON CENTER OF CONTOUR VECTOR*
%ASAXBY*%
%FSLAX23Y23*%
%MOIN*%
%OFA0B0*%
%SFA1.0B1.0*%
%ADD10C,0.008*%
%LNCONTOUR*%
G90*
G70*
G54D10*
X107Y2205D02*
X108Y2205D01*
X109Y2205D01*
X110Y2205D01*
X111Y2205D01*
X112Y2205D01*
X113Y2205D01*
X114Y2205D01*
X115Y2205D01*
X116Y2205D01*
X117Y2205D01*
X118Y2205D01*
X119Y2205D01*
X120Y2205D01*
X121Y2205D01*
X122Y2205D01*
X123Y2205D01*
X124Y2205D01*
X125Y2205D01*
X126Y2205D01*
X127Y2205D01*
X128Y2205D01*
X129Y2205D01*
X130Y2205D01*
X131Y2205D01*
X132Y2205D01*
X133Y2205D01*
X134Y2205D01*
X135Y2205D01*
X136Y2205D01*
X137Y2205D01*
X138Y2205D01*
X139Y2205D01*
X140Y2205D01*
X141Y2205D01*
X142Y2205D01*
X143Y2205D01*
X144Y2205D01*
X145Y2205D01*
X146Y2205D01*
X147Y2205D01*
X148Y2205D01*
X149Y2205D01*
X150Y2205D01*
X151Y2205D01*
X152Y2205D01*
X153Y2205D01*
X154Y2205D01*
X155Y2205D01*
X156Y2205D01*
X157Y2205D01*
X158Y2205D01*
X159Y2205D01*
X160Y2205D01*
X161Y2205D01*
X162Y2205D01*
X163Y2205D01*
X164Y2205D01*
X165Y2205D01*
X166Y2205D01*
X167Y2205D01*
X168Y2205D01*
X169Y2205D01*
X170Y2205D01*
X171Y2205D01*
X172Y2205D01*
X173Y2205D01*
X174Y2205D01*
X175Y2205D01*
X176Y2205D01*
X177Y2205D01*
X178Y2205D01*
X179Y2205D01*
X180Y2205D01*
X181Y2205D01*
X182Y2205D01*
X183Y2205D01*
X184Y2205D01*
X185Y2205D01*
X186Y2205D01*
X187Y2205D01*
X188Y2205D01*
X189Y2205D01*
X190Y2205D01*
X191Y2205D01*
X192Y2205D01*
X193Y2205D01*
X194Y2205D01*
X195Y2205D01*
X196Y2205D01*
X197Y2205D01*
X198Y2205D01*
X199Y2205D01*
X200Y2205D01*
X201Y2205D01*
X202Y2205D01*
X203Y2205D01*
X204Y2205D01*
X205Y2205D01*
X206Y2205D01*
X207Y2205D01*
X208Y2205D01*
X209Y2205D01*
X210Y2205D01*
X211Y2205D01*
X212Y2205D01*
X213Y2205D01*
X214Y2205D01*
X215Y2205D01*
X216Y2205D01*
X217Y2205D01*
X218Y2205D01*
X219Y2205D01*
X220Y2205D01*
X221Y2205D01*
X222Y2205D01*
X223Y2205D01*
X224Y2205D01*
X225Y2205D01*
X226Y2205D01*
X227Y2205D01*
X228Y2205D01*
X229Y2205D01*
X230Y2205D01*
X231Y2205D01*
X232Y2205D01*
X233Y2205D01*
X234Y2205D01*
X235Y2205D01*
X236Y2205D01*
X237Y2205D01*
X238Y2205D01*
X239Y2205D01*
X240Y2205D01*
X241Y2205D01*
X242Y2205D01*
X243Y2205D01*
X244Y2205D01*
X245Y2205D01*
X246Y2205D01*
X247Y2205D01*
X248Y2205D01*
X249Y2205D01*
X250Y2205D01*
X251Y2205D01*
X252Y2205D01*
X253Y2205D01*
X254Y2205D01*
X255Y2205D01*
X256Y2205D01*
X257Y2205D01*
X258Y2205D01*
X259Y2205D01*
X260Y2205D01*
X261Y2205D01*
X262Y2205D01*
X263Y2205D01*
X264Y2205D01*
X265Y2205D01*
X266Y2205D01*
X267Y2205D01*
X268Y2205D01*
X269Y2205D01*
X270Y2205D01*
X271Y2205D01*
X272Y2205D01*
X273Y2205D01*
X274Y2205D01*
X275Y2205D01*
X276Y2205D01*
X277Y2205D01*
X278Y2205D01*
X279Y2205D01*
X280Y2205D01*
X281Y2205D01*
X282Y2205D01*
X283Y2205D01*
X284Y2205D01*
X285Y2205D01*
X286Y2205D01*
X287Y2205D01*
X288Y2205D01*
X289Y2205D01*
X290Y2205D01*
X291Y2205D01*
X292Y2205D01*
X293Y2205D01*
X294Y2205D01*
X295Y2205D01*
X296Y2205D01*
X297Y2205D01*
X298Y2205D01*
X299Y2205D01*
X300Y2205D01*
X301Y2205D01*
X302Y2205D01*
X303Y2205D01*
X304Y2205D01*
X305Y2205D01*
X306Y2205D01*
X307Y2205D01*
X308Y2205D01*
X309Y2205D01*
X310Y2205D01*
X311Y2205D01*
X312Y2205D01*
X313Y2205D01*
X314Y2205D01*
X315Y2205D01*
X316Y2205D01*
X317Y2205D01*
X318Y2205D01*
X319Y2205D01*
X320Y2205D01*
X321Y2205D01*
X322Y2205D01*
X323Y2205D01*
X324Y2205D01*
X325Y2205D01*
X326Y2205D01*
X327Y2205D01*
X328Y2205D01*
X329Y2205D01*
X330Y2205D01*
X331Y2205D01*
X332Y2205D01*
X333Y2205D01*
X334Y2205D01*
X335Y2205D01*
X336Y2205D01*
X337Y2205D01*
X338Y2205D01*
X339Y2205D01*
X340Y2205D01*
X341Y2205D01*
X342Y2205D01*
X343Y2205D01*
X344Y2205D01*
X345Y2205D01*
X346Y2205D01*
X347Y2205D01*
X348Y2205D01*
X349Y2205D01*
X350Y2205D01*
X351Y2205D01*
X352Y2205D01*
X353Y2205D01*
X354Y2205D01*
X355Y2205D01*
X356Y2205D01*
X357Y2205D01*
X358Y2205D01*
X359Y2205D01*
X360Y2205D01*
X361Y2205D01*
X362Y2205D01*
X363Y2205D01*
X364Y2205D01*
X365Y2205D01*
X366Y2205D01*
X367Y2205D01*
X368Y2205D01*
X369Y2205D01*
X370Y2205D01*
X371Y2205D01*
X372Y2205D01*
X373Y2205D01*
X374Y2205D01*
X375Y2205D01*
X376Y2205D01*
X377Y2205D01*
X378Y2205D01*
X379Y2205D01*
X380Y2205D01*
X381Y2205D01*
X382Y2205D01*
X383Y2205D01*
X384Y2205D01*
X385Y2205D01*
X386Y2205D01*
X387Y2205D01*
X388Y2205D01*
X389Y2205D01*
X390Y2205D01*
X391Y2205D01*
X392Y2205D01*
X393Y2205D01*
X394Y2205D01*
X395Y2205D01*
X396Y2205D01*
X397Y2205D01*
X398Y2205D01*
X399Y2205D01*
X400Y2205D01*
X401Y2205D01*
X402Y2205D01*
X403Y2205D01*
X404Y2205D01*
X405Y2205D01*
X406Y2205D01*
X407Y2205D01*
X408Y2205D01*
X409Y2205D01*
X410Y2205D01*
X411Y2205D01*
X412Y2205D01*
X413Y2205D01*
X414Y2205D01*
X415Y2205D01*
X416Y2205D01*
X417Y2205D01*
X418Y2205D01*
X419Y2205D01*
X420Y2205D01*
X421Y2205D01*
X422Y2205D01*
X423Y2205D01*
X424Y2205D01*
X425Y2205D01*
X426Y2205D01*
X427Y2205D01*
X428Y2205D01*
X429Y2205D01*
X430Y2205D01*
X431Y2205D01*
X432Y2205D01*
X433Y2205D01*
X434Y2205D01*
X435Y2205D01*
X436Y2205D01*
X437Y2205D01*
X438Y2205D01*
X439Y2205D01*
X440Y2205D01*
X441Y2205D01*
X442Y2205D01*
X443Y2205D01*
X444Y2205D01*
X445Y2205D01*
X446Y2205D01*
X447Y2205D01*
X448Y2205D01*
X449Y2205D01*
X450Y2205D01*
X451Y2205D01*
X452Y2205D01*
X453Y2205D01*
X454Y2205D01*
X455Y2205D01*
X456Y2205D01*
X457Y2205D01*
X458Y2205D01*
X459Y2205D01*
X460Y2205D01*
X461Y2205D01*
X462Y2205D01*
X463Y2205D01*
X464Y2205D01*
X465Y2205D01*
X466Y2205D01*
X467Y2205D01*
X468Y2205D01*
X469Y2205D01*
X470Y2205D01*
X471Y2205D01*
X472Y2205D01*
X473Y2205D01*
X474Y2205D01*
X475Y2205D01*
X476Y2205D01*
X477Y2205D01*
X478Y2205D01*
X479Y2205D01*
X480Y2205D01*
X481Y2205D01*
X482Y2205D01*
X483Y2205D01*
X484Y2205D01*
X485Y2205D01*
X486Y2205D01*
X487Y2205D01*
X488Y2205D01*
X489Y2205D01*
X490Y2205D01*
X491Y2205D01*
X492Y2205D01*
X493Y2205D01*
X494Y2205D01*
X495Y2205D01*
X496Y2205D01*
X497Y2205D01*
X498Y2205D01*
X499Y2205D01*
X500Y2205D01*
X501Y2205D01*
X502Y2205D01*
X503Y2205D01*
X504Y2205D01*
X505Y2205D01*
X506Y2205D01*
X507Y2205D01*
X508Y2205D01*
X509Y2205D01*
X510Y2205D01*
X511Y2205D01*
X512Y2205D01*
X513Y2205D01*
X514Y2205D01*
X515Y2205D01*
X516Y2205D01*
X517Y2205D01*
X518Y2205D01*
X519Y2205D01*
X520Y2205D01*
X521Y2205D01*
X522Y2205D01*
X523Y2205D01*
X524Y2205D01*
X525Y2205D01*
X526Y2205D01*
X527Y2205D01*
X528Y2205D01*
X529Y2205D01*
X530Y2205D01*
X531Y2205D01*
X532Y2205D01*
X533Y2205D01*
X534Y2205D01*
X535Y2205D01*
X536Y2205D01*
X537Y2205D01*
X538Y2205D01*
X539Y2205D01*
X540Y2205D01*
X541Y2205D01*
X542Y2205D01*
X543Y2205D01*
X544Y2205D01*
X545Y2205D01*
X546Y2205D01*
X547Y2205D01*
X548Y2205D01*
X549Y2205D01*
X550Y2205D01*
X551Y2205D01*
X552Y2205D01*
X553Y2205D01*
X554Y2205D01*
X555Y2205D01*
X556Y2205D01*
X557Y2205D01*
X558Y2205D01*
X559Y2205D01*
X560Y2205D01*
X561Y2205D01*
X562Y2205D01*
X563Y2205D01*
X564Y2205D01*
X565Y2205D01*
X566Y2205D01*
X567Y2205D01*
X568Y2205D01*
X569Y2205D01*
X570Y2205D01*
X571Y2205D01*
X572Y2205D01*
X573Y2205D01*
X574Y2205D01*
X575Y2205D01*
X576Y2205D01*
X577Y2205D01*
X578Y2205D01*
X579Y2205D01*
X580Y2205D01*
X581Y2205D01*
X582Y2205D01*
X583Y2205D01*
X584Y2205D01*
X585Y2205D01*
X586Y2205D01*
X587Y2205D01*
X588Y2205D01*
X589Y2205D01*
X590Y2205D01*
X591Y2205D01*
X592Y2205D01*
X593Y2205D01*
X594Y2205D01*
X595Y2205D01*
X596Y2205D01*
X597Y2205D01*
X598Y2205D01*
X599Y2205D01*
X600Y2205D01*
X601Y2205D01*
X602Y2205D01*
X603Y2205D01*
X604Y2205D01*
X605Y2205D01*
X606Y2205D01*
X607Y2205D01*
X608Y2205D01*
X609Y2205D01*
X610Y2205D01*
X611Y2205D01*
X612Y2205D01*
X613Y2205D01*
X614Y2205D01*
X615Y2205D01*
X616Y2205D01*
X617Y2205D01*
X618Y2205D01*
X619Y2205D01*
X620Y2205D01*
X621Y2205D01*
X622Y2205D01*
X623Y2205D01*
X624Y2205D01*
X625Y2205D01*
X626Y2205D01*
X627Y2205D01*
X628Y2205D01*
X629Y2205D01*
X630Y2205D01*
X631Y2205D01*
X632Y2205D01*
X633Y2205D01*
X634Y2205D01*
X635Y2205D01*
X636Y2205D01*
X637Y2205D01*
X638Y2205D01*
X639Y2205D01*
X640Y2205D01*
X641Y2205D01*
X642Y2205D01*
X643Y2205D01*
X644Y2205D01*
X645Y2205D01*
X646Y2205D01*
X647Y2205D01*
X648Y2205D01*
X649Y2205D01*
X650Y2205D01*
X651Y2205D01*
X652Y2205D01*
X653Y2205D01*
X654Y2205D01*
X655Y2205D01*
X656Y2205D01*
X657Y2205D01*
X658Y2205D01*
X659Y2205D01*
X660Y2205D01*
X661Y2205D01*
X662Y2205D01*
X663Y2205D01*
X664Y2205D01*
X665Y2205D01*
X666Y2205D01*
X667Y2205D01*
X668Y2205D01*
X669Y2205D01*
X670Y2205D01*
X671Y2205D01*
X672Y2205D01*
X673Y2205D01*
X674Y2205D01*
X675Y2205D01*
X676Y2205D01*
X677Y2205D01*
X678Y2205D01*
X679Y2205D01*
X680Y2205D01*
X681Y2205D01*
X682Y2205D01*
X683Y2205D01*
X684Y2205D01*
X685Y2205D01*
X686Y2205D01*
X687Y2205D01*
X688Y2205D01*
X689Y2205D01*
X690Y2205D01*
X691Y2205D01*
X692Y2205D01*
X693Y2205D01*
X694Y2205D01*
X695Y2205D01*
X696Y2205D01*
X697Y2205D01*
X698Y2205D01*
X699Y2205D01*
X700Y2205D01*
X701Y2205D01*
X702Y2205D01*
X703Y2205D01*
X704Y2205D01*
X705Y2205D01*
X706Y2205D01*
X707Y2205D01*
X708Y2205D01*
X709Y2205D01*
X710Y2205D01*
X711Y2205D01*
X712Y2205D01*
X713Y2205D01*
X714Y2205D01*
X715Y2205D01*
X716Y2205D01*
X717Y2205D01*
X718Y2205D01*
X719Y2205D01*
X720Y2205D01*
X721Y2205D01*
X722Y2205D01*
X723Y2205D01*
X724Y2205D01*
X725Y2205D01*
X726Y2205D01*
X727Y2205D01*
X728Y2205D01*
X729Y2205D01*
X730Y2205D01*
X731Y2205D01*
X732Y2205D01*
X733Y2205D01*
X734Y2205D01*
X735Y2205D01*
X736Y2205D01*
X737Y2205D01*
X738Y2205D01*
X739Y2205D01*
X740Y2205D01*
X741Y2205D01*
X742Y2205D01*
X743Y2205D01*
X744Y2205D01*
X745Y2205D01*
X746Y2205D01*
X747Y2205D01*
X748Y2205D01*
X749Y2205D01*
X750Y2205D01*
X751Y2205D01*
X752Y2205D01*
X753Y2205D01*
X754Y2205D01*
X755Y2205D01*
X756Y2205D01*
X757Y2205D01*
X758Y2205D01*
X759Y2205D01*
X760Y2205D01*
X761Y2205D01*
X762Y2205D01*
X763Y2205D01*
X764Y2205D01*
X765Y2205D01*
X766Y2205D01*
X767Y2205D01*
X768Y2205D01*
X769Y2205D01*
X770Y2205D01*
X771Y2205D01*
X772Y2205D01*
X773Y2205D01*
X774Y2205D01*
X775Y2205D01*
X776Y2205D01*
X777Y2205D01*
X778Y2205D01*
X779Y2205D01*
X780Y2205D01*
X781Y2205D01*
X782Y2205D01*
X783Y2205D01*
X784Y2205D01*
X785Y2205D01*
X786Y2205D01*
X787Y2205D01*
X788Y2205D01*
X789Y2205D01*
X790Y2205D01*
X791Y2205D01*
X792Y2205D01*
X793Y2205D01*
X794Y2205D01*
X795Y2205D01*
X796Y2205D01*
X797Y2205D01*
X798Y2205D01*
X799Y2205D01*
X800Y2205D01*
X801Y2205D01*
X802Y2205D01*
X803Y2205D01*
X804Y2205D01*
X805Y2205D01*
X806Y2205D01*
X807Y2205D01*
X808Y2205D01*
X809Y2205D01*
X810Y2205D01*
X811Y2205D01*
X812Y2205D01*
X813Y2205D01*
X814Y2205D01*
X815Y2205D01*
X816Y2205D01*
X817Y2205D01*
X818Y2205D01*
X819Y2205D01*
X820Y2205D01*
X821Y2205D01*
X822Y2205D01*
X823Y2205D01*
X824Y2205D01*
X825Y2205D01*
X826Y2205D01*
X827Y2205D01*
X828Y2205D01*
X829Y2205D01*
X830Y2205D01*
X831Y2205D01*
X832Y2205D01*
X833Y2205D01*
X834Y2205D01*
X835Y2205D01*
X836Y2205D01*
X837Y2205D01*
X838Y2205D01*
X839Y2205D01*
X840Y2205D01*
X841Y2205D01*
X842Y2205D01*
X843Y2205D01*
X844Y2205D01*
X845Y2205D01*
X846Y2205D01*
X847Y2205D01*
X848Y2205D01*
X849Y2205D01*
X850Y2205D01*
X851Y2205D01*
X852Y2205D01*
X853Y2205D01*
X854Y2205D01*
X855Y2205D01*
X856Y2205D01*
X857Y2205D01*
X858Y2205D01*
X859Y2205D01*
X860Y2205D01*
X861Y2205D01*
X862Y2205D01*
X863Y2205D01*
X864Y2205D01*
X865Y2205D01*
X866Y2205D01*
X867Y2205D01*
X868Y2205D01*
X869Y2205D01*
X870Y2205D01*
X871Y2205D01*
X872Y2205D01*
X873Y2205D01*
X874Y2205D01*
X875Y2205D01*
X876Y2205D01*
X877Y2205D01*
X878Y2205D01*
X879Y2205D01*
X880Y2205D01*
X881Y2205D01*
X882Y2205D01*
X883Y2205D01*
X884Y2205D01*
X885Y2205D01*
X886Y2205D01*
X887Y2205D01*
X888Y2205D01*
X889Y2205D01*
X890Y2205D01*
X891Y2205D01*
X892Y2205D01*
X893Y2205D01*
X894Y2205D01*
X895Y2205D01*
X896Y2205D01*
X897Y2205D01*
X898Y2205D01*
X899Y2205D01*
X900Y2205D01*
X901Y2205D01*
X902Y2205D01*
X903Y2205D01*
X904Y2205D01*
X905Y2205D01*
X906Y2205D01*
X907Y2205D01*
X908Y2205D01*
X909Y2205D01*
X910Y2205D01*
X911Y2205D01*
X912Y2205D01*
X913Y2205D01*
X914Y2205D01*
X915Y2205D01*
X916Y2205D01*
X917Y2205D01*
X918Y2205D01*
X919Y2205D01*
X920Y2205D01*
X921Y2205D01*
X922Y2205D01*
X923Y2205D01*
X924Y2205D01*
X925Y2205D01*
X926Y2205D01*
X927Y2205D01*
X928Y2205D01*
X929Y2205D01*
X930Y2205D01*
X931Y2205D01*
X932Y2205D01*
X933Y2205D01*
X934Y2205D01*
X935Y2205D01*
X936Y2205D01*
X937Y2205D01*
X938Y2205D01*
X939Y2205D01*
X940Y2205D01*
X941Y2205D01*
X942Y2205D01*
X943Y2205D01*
X944Y2205D01*
X945Y2205D01*
X946Y2205D01*
X947Y2205D01*
X948Y2205D01*
X949Y2205D01*
X950Y2205D01*
X951Y2205D01*
X952Y2205D01*
X953Y2205D01*
X954Y2205D01*
X955Y2205D01*
X956Y2205D01*
X957Y2205D01*
X958Y2205D01*
X959Y2205D01*
X960Y2205D01*
X961Y2205D01*
X962Y2205D01*
X963Y2205D01*
X964Y2205D01*
X965Y2205D01*
X966Y2205D01*
X967Y2205D01*
X968Y2205D01*
X969Y2205D01*
X970Y2205D01*
X971Y2205D01*
X972Y2205D01*
X973Y2205D01*
X974Y2205D01*
X975Y2205D01*
X976Y2205D01*
X977Y2205D01*
X978Y2205D01*
X979Y2205D01*
X980Y2205D01*
X981Y2205D01*
X982Y2205D01*
X983Y2205D01*
X984Y2205D01*
X985Y2205D01*
X986Y2205D01*
X987Y2205D01*
X988Y2205D01*
X989Y2205D01*
X990Y2205D01*
X991Y2205D01*
X992Y2205D01*
X993Y2205D01*
X994Y2205D01*
X995Y2205D01*
X996Y2205D01*
X997Y2205D01*
X998Y2205D01*
X999Y2205D01*
X1000Y2205D01*
X1001Y2205D01*
X1002Y2205D01*
X1003Y2205D01*
X1004Y2205D01*
X1005Y2205D01*
X1006Y2205D01*
X1007Y2205D01*
X1008Y2205D01*
X1009Y2205D01*
X1010Y2205D01*
X1011Y2205D01*
X1012Y2205D01*
X1013Y2205D01*
X1014Y2205D01*
X1015Y2205D01*
X1016Y2205D01*
X1017Y2205D01*
X1018Y2205D01*
X1019Y2205D01*
X1020Y2205D01*
X1021Y2205D01*
X1022Y2205D01*
X1023Y2205D01*
X1024Y2205D01*
X1025Y2205D01*
X1026Y2205D01*
X1027Y2205D01*
X1028Y2205D01*
X1029Y2205D01*
X1030Y2205D01*
X1031Y2205D01*
X1032Y2205D01*
X1033Y2205D01*
X1034Y2205D01*
X1035Y2205D01*
X1036Y2205D01*
X1037Y2205D01*
X1038Y2205D01*
X1039Y2205D01*
X1040Y2205D01*
X1041Y2205D01*
X1042Y2205D01*
X1043Y2205D01*
X1044Y2205D01*
X1045Y2205D01*
X1046Y2205D01*
X1047Y2205D01*
X1048Y2205D01*
X1049Y2205D01*
X1050Y2205D01*
X1051Y2205D01*
X1052Y2205D01*
X1053Y2205D01*
X1054Y2205D01*
X1055Y2205D01*
X1056Y2205D01*
X1057Y2205D01*
X1058Y2205D01*
X1059Y2205D01*
X1060Y2205D01*
X1061Y2205D01*
X1062Y2205D01*
X1063Y2205D01*
X1064Y2205D01*
X1065Y2205D01*
X1066Y2205D01*
X1067Y2205D01*
X1068Y2205D01*
X1069Y2205D01*
X1070Y2205D01*
X1071Y2205D01*
X1072Y2205D01*
X1073Y2205D01*
X1074Y2205D01*
X1075Y2205D01*
X1076Y2205D01*
X1077Y2205D01*
X1078Y2205D01*
X1079Y2205D01*
X1080Y2205D01*
X1081Y2205D01*
X1082Y2205D01*
X1083Y2205D01*
X1084Y2205D01*
X1085Y2205D01*
X1086Y2205D01*
X1087Y2205D01*
X1088Y2205D01*
X1089Y2205D01*
X1090Y2205D01*
X1091Y2205D01*
X1092Y2205D01*
X1093Y2205D01*
X1094Y2205D01*
X1095Y2205D01*
X1096Y2205D01*
X1097Y2205D01*
X1098Y2205D01*
X1099Y2205D01*
X1100Y2205D01*
X1101Y2205D01*
X1102Y2205D01*
X1103Y2205D01*
X1104Y2205D01*
X1105Y2205D01*
X1106Y2205D01*
X1107Y2205D01*
X1108Y2205D01*
X1109Y2205D01*
X1110Y2205D01*
X1111Y2205D01*
X1112Y2205D01*
X1113Y2205D01*
X1114Y2205D01*
X1115Y2205D01*
X1116Y2205D01*
X1117Y2205D01*
X1118Y2205D01*
X1119Y2205D01*
X1120Y2205D01*
X1121Y2205D01*
X1122Y2205D01*
X1123Y2205D01*
X1124Y2205D01*
X1125Y2205D01*
X1126Y2205D01*
X1127Y2205D01*
X1128Y2205D01*
X1129Y2205D01*
X1130Y2205D01*
X1131Y2205D01*
X1132Y2205D01*
X1133Y2205D01*
X1134Y2205D01*
X1135Y2205D01*
X1136Y2205D01*
X1137Y2205D01*
X1138Y2205D01*
X1139Y2205D01*
X1140Y2205D01*
X1141Y2205D01*
X1142Y2205D01*
X1143Y2205D01*
X1144Y2205D01*
X1145Y2205D01*
X1146Y2205D01*
X1147Y2205D01*
X1148Y2205D01*
X1149Y2205D01*
X1150Y2205D01*
X1151Y2205D01*
X1152Y2205D01*
X1153Y2205D01*
X1154Y2205D01*
X1155Y2205D01*
X1156Y2205D01*
X1157Y2205D01*
X1158Y2205D01*
X1159Y2205D01*
X1160Y2205D01*
X1161Y2205D01*
X1162Y2205D01*
X1163Y2205D01*
X1164Y2205D01*
X1165Y2205D01*
X1166Y2205D01*
X1167Y2205D01*
X1168Y2205D01*
X1169Y2205D01*
X1170Y2205D01*
X1171Y2205D01*
X1172Y2205D01*
X1173Y2205D01*
X1174Y2205D01*
X1175Y2205D01*
X1176Y2205D01*
X1177Y2205D01*
X1178Y2205D01*
X1179Y2205D01*
X1180Y2205D01*
X1181Y2205D01*
X1182Y2205D01*
X1183Y2205D01*
X1184Y2205D01*
X1185Y2205D01*
X1186Y2205D01*
X1187Y2205D01*
X1188Y2205D01*
X1189Y2205D01*
X1190Y2205D01*
X1191Y2205D01*
X1192Y2205D01*
X1193Y2205D01*
X1194Y2205D01*
X1195Y2205D01*
X1196Y2205D01*
X1197Y2205D01*
X1198Y2205D01*
X1199Y2205D01*
X1200Y2205D01*
X1201Y2205D01*
X1202Y2205D01*
X1203Y2205D01*
X1204Y2205D01*
X1205Y2205D01*
X1206Y2205D01*
X1207Y2205D01*
X1208Y2205D01*
X1209Y2205D01*
X1210Y2205D01*
X1211Y2205D01*
X1212Y2205D01*
X1213Y2205D01*
X1214Y2205D01*
X1215Y2205D01*
X1216Y2205D01*
X1217Y2205D01*
X1218Y2205D01*
X1219Y2205D01*
X1220Y2205D01*
X1221Y2205D01*
X1222Y2205D01*
X1223Y2205D01*
X1224Y2205D01*
X1225Y2205D01*
X1226Y2205D01*
X1227Y2205D01*
X1228Y2205D01*
X1229Y2205D01*
X1230Y2205D01*
X1231Y2205D01*
X1232Y2205D01*
X1233Y2205D01*
X1234Y2205D01*
X1235Y2205D01*
X1236Y2205D01*
X1237Y2205D01*
X1238Y2205D01*
X1239Y2205D01*
X1240Y2205D01*
X1241Y2205D01*
X1242Y2205D01*
X1243Y2205D01*
X1244Y2205D01*
X1245Y2205D01*
X1246Y2205D01*
X1247Y2205D01*
X1248Y2205D01*
X1249Y2205D01*
X1250Y2205D01*
X1251Y2205D01*
X1252Y2205D01*
X1253Y2205D01*
X1254Y2205D01*
X1255Y2205D01*
X1256Y2205D01*
X1257Y2205D01*
X1258Y2205D01*
X1259Y2205D01*
X1260Y2205D01*
X1261Y2205D01*
X1262Y2205D01*
X1263Y2205D01*
X1264Y2205D01*
X1265Y2205D01*
X1266Y2205D01*
X1267Y2205D01*
X1268Y2205D01*
X1269Y2205D01*
X1270Y2205D01*
X1271Y2205D01*
X1272Y2205D01*
X1273Y2205D01*
X1274Y2205D01*
X1275Y2205D01*
X1276Y2205D01*
X1277Y2205D01*
X1278Y2205D01*
X1279Y2205D01*
X1280Y2205D01*
X1281Y2205D01*
X1282Y2205D01*
X1283Y2205D01*
X1284Y2205D01*
X1285Y2205D01*
X1286Y2205D01*
X1287Y2205D01*
X1288Y2205D01*
X1289Y2205D01*
X1290Y2205D01*
X1291Y2205D01*
X1292Y2205D01*
X1293Y2205D01*
X1294Y2205D01*
X1295Y2205D01*
X1296Y2205D01*
X1297Y2205D01*
X1298Y2205D01*
X1299Y2205D01*
X1300Y2205D01*
X1301Y2205D01*
X1302Y2205D01*
X1303Y2205D01*
X1304Y2205D01*
X1305Y2205D01*
X1306Y2205D01*
X1307Y2205D01*
X1308Y2205D01*
X1309Y2205D01*
X1310Y2205D01*
X1311Y2205D01*
X1312Y2205D01*
X1313Y2205D01*
X1314Y2205D01*
X1315Y2205D01*
X1316Y2205D01*
X1317Y2205D01*
X1318Y2205D01*
X1319Y2205D01*
X1320Y2205D01*
X1321Y2205D01*
X1322Y2205D01*
X1323Y2205D01*
X1324Y2205D01*
X1325Y2205D01*
X1326Y2205D01*
X1327Y2205D01*
X1328Y2205D01*
X1329Y2205D01*
X1330Y2205D01*
X1331Y2205D01*
X1332Y2205D01*
X1333Y2205D01*
X1334Y2205D01*
X1335Y2205D01*
X1336Y2205D01*
X1337Y2205D01*
X1338Y2205D01*
X1339Y2205D01*
X1340Y2205D01*
X1341Y2205D01*
X1342Y2205D01*
X1343Y2205D01*
X1344Y2205D01*
X1345Y2205D01*
X1346Y2205D01*
X1347Y2205D01*
X1348Y2205D01*
X1349Y2205D01*
X1350Y2205D01*
X1351Y2205D01*
X1352Y2205D01*
X1353Y2205D01*
X1354Y2205D01*
X1355Y2205D01*
X1356Y2205D01*
X1357Y2205D01*
X1358Y2205D01*
X1359Y2205D01*
X1360Y2205D01*
X1361Y2205D01*
X1362Y2205D01*
X1363Y2205D01*
X1364Y2205D01*
X1365Y2205D01*
X1366Y2205D01*
X1367Y2205D01*
X1368Y2205D01*
X1369Y2205D01*
X1370Y2205D01*
X1371Y2205D01*
X1372Y2205D01*
X1373Y2205D01*
X1374Y2205D01*
X1375Y2205D01*
X1376Y2205D01*
X1377Y2205D01*
X1378Y2205D01*
X1379Y2205D01*
X1380Y2205D01*
X1381Y2205D01*
X1382Y2205D01*
X1383Y2205D01*
X1384Y2205D01*
X1385Y2205D01*
X1386Y2205D01*
X1387Y2205D01*
X1388Y2205D01*
X1389Y2205D01*
X1390Y2205D01*
X1391Y2205D01*
X1392Y2205D01*
X1393Y2205D01*
X1394Y2205D01*
X1395Y2205D01*
X1396Y2205D01*
X1397Y2205D01*
X1398Y2205D01*
X1399Y2205D01*
X1400Y2205D01*
X1401Y2205D01*
X1402Y2205D01*
X1403Y2205D01*
X1404Y2205D01*
X1405Y2205D01*
X1406Y2205D01*
X1407Y2205D01*
X1408Y2205D01*
X1409Y2205D01*
X1410Y2205D01*
X1411Y2205D01*
X1412Y2205D01*
X1413Y2205D01*
X1414Y2205D01*
X1415Y2205D01*
X1416Y2205D01*
X1417Y2205D01*
X1418Y2205D01*
X1419Y2205D01*
X1420Y2205D01*
X1421Y2205D01*
X1422Y2205D01*
X1423Y2205D01*
X1424Y2205D01*
X1425Y2205D01*
X1426Y2205D01*
X1427Y2205D01*
X1428Y2205D01*
X1429Y2205D01*
X1430Y2205D01*
X1431Y2205D01*
X1432Y2205D01*
X1433Y2205D01*
X1434Y2205D01*
X1435Y2205D01*
X1436Y2205D01*
X1437Y2205D01*
X1438Y2205D01*
X1439Y2205D01*
X1440Y2205D01*
X1441Y2205D01*
X1442Y2205D01*
X1443Y2205D01*
X1444Y2205D01*
X1445Y2205D01*
X1446Y2205D01*
X1447Y2205D01*
X1448Y2205D01*
X1449Y2205D01*
X1450Y2205D01*
X1451Y2205D01*
X1452Y2205D01*
X1453Y2205D01*
X1454Y2205D01*
X1455Y2205D01*
X1456Y2205D01*
X1457Y2205D01*
X1458Y2205D01*
X1459Y2205D01*
X1460Y2205D01*
X1461Y2205D01*
X1462Y2205D01*
X1463Y2205D01*
X1464Y2205D01*
X1465Y2205D01*
X1466Y2205D01*
X1467Y2205D01*
X1468Y2205D01*
X1469Y2205D01*
X1470Y2205D01*
X1471Y2205D01*
X1472Y2205D01*
X1473Y2205D01*
X1474Y2205D01*
X1475Y2205D01*
X1476Y2205D01*
X1477Y2205D01*
X1478Y2205D01*
X1479Y2205D01*
X1480Y2205D01*
X1481Y2205D01*
X1482Y2205D01*
X1483Y2205D01*
X1484Y2205D01*
X1485Y2205D01*
X1486Y2205D01*
X1487Y2205D01*
X1488Y2205D01*
X1489Y2205D01*
X1490Y2205D01*
X1491Y2205D01*
X1492Y2205D01*
X1493Y2205D01*
X1494Y2205D01*
X1495Y2205D01*
X1496Y2205D01*
X1497Y2205D01*
X1498Y2205D01*
X1499Y2205D01*
X1500Y2205D01*
X1501Y2205D01*
X1502Y2205D01*
X1503Y2205D01*
X1504Y2205D01*
X1505Y2205D01*
X1506Y2205D01*
X1507Y2205D01*
X1508Y2205D01*
X1509Y2205D01*
X1510Y2205D01*
X1511Y2205D01*
X1512Y2205D01*
X1513Y2205D01*
X1514Y2205D01*
X1515Y2205D01*
X1516Y2205D01*
X1517Y2205D01*
X1518Y2205D01*
X1519Y2205D01*
X1520Y2205D01*
X1521Y2205D01*
X1522Y2205D01*
X1523Y2205D01*
X1524Y2205D01*
X1525Y2205D01*
X1526Y2205D01*
X1527Y2205D01*
X1528Y2205D01*
X1529Y2205D01*
X1530Y2205D01*
X1531Y2205D01*
X1532Y2205D01*
X1533Y2205D01*
X1534Y2205D01*
X1535Y2205D01*
X1536Y2205D01*
X1537Y2205D01*
X1538Y2205D01*
X1539Y2205D01*
X1540Y2205D01*
X1541Y2205D01*
X1542Y2205D01*
X1543Y2205D01*
X1544Y2205D01*
X1545Y2205D01*
X1546Y2205D01*
X1547Y2205D01*
X1548Y2205D01*
X1549Y2205D01*
X1550Y2205D01*
X1551Y2205D01*
X1552Y2205D01*
X1553Y2205D01*
X1554Y2205D01*
X1555Y2205D01*
X1556Y2205D01*
X1557Y2205D01*
X1558Y2205D01*
X1559Y2205D01*
X1560Y2205D01*
X1561Y2205D01*
X1562Y2205D01*
X1563Y2205D01*
X1564Y2205D01*
X1565Y2205D01*
X1566Y2205D01*
X1567Y2205D01*
X1568Y2205D01*
X1569Y2205D01*
X1570Y2205D01*
X1571Y2205D01*
X1572Y2205D01*
X1573Y2205D01*
X1574Y2205D01*
X1575Y2205D01*
X1576Y2205D01*
X1577Y2205D01*
X1578Y2205D01*
X1579Y2205D01*
X1580Y2205D01*
X1581Y2205D01*
X1582Y2205D01*
X1583Y2205D01*
X1584Y2205D01*
X1585Y2205D01*
X1586Y2205D01*
X1587Y2205D01*
X1588Y2205D01*
X1589Y2205D01*
X1590Y2205D01*
X1591Y2205D01*
X1592Y2205D01*
X1593Y2205D01*
X1594Y2205D01*
X1595Y2205D01*
X1596Y2205D01*
X1597Y2205D01*
X1598Y2205D01*
X1599Y2205D01*
X1600Y2205D01*
X1601Y2205D01*
X1602Y2205D01*
X1603Y2205D01*
X1604Y2205D01*
X1605Y2205D01*
X1606Y2205D01*
X1607Y2205D01*
X1608Y2205D01*
X1609Y2205D01*
X1610Y2205D01*
X1611Y2205D01*
X1612Y2205D01*
X1613Y2205D01*
X1614Y2205D01*
X1615Y2205D01*
X1616Y2205D01*
X1617Y2205D01*
X1618Y2205D01*
X1619Y2205D01*
X1620Y2205D01*
X1621Y2205D01*
X1622Y2205D01*
X1623Y2205D01*
X1624Y2205D01*
X1625Y2205D01*
X1626Y2205D01*
X1627Y2205D01*
X1628Y2205D01*
X1629Y2205D01*
X1630Y2205D01*
X1631Y2205D01*
X1632Y2205D01*
X1633Y2205D01*
X1634Y2205D01*
X1635Y2205D01*
X1636Y2205D01*
X1637Y2205D01*
X1638Y2205D01*
X1639Y2205D01*
X1640Y2205D01*
X1641Y2205D01*
X1642Y2205D01*
X1643Y2205D01*
X1644Y2205D01*
X1645Y2205D01*
X1646Y2205D01*
X1647Y2205D01*
X1648Y2205D01*
X1649Y2205D01*
X1650Y2205D01*
X1651Y2205D01*
X1652Y2205D01*
X1653Y2205D01*
X1654Y2205D01*
X1655Y2205D01*
X1656Y2205D01*
X1657Y2205D01*
X1658Y2205D01*
X1659Y2205D01*
X1660Y2205D01*
X1661Y2205D01*
X1662Y2205D01*
X1663Y2205D01*
X1664Y2205D01*
X1665Y2205D01*
X1666Y2205D01*
X1667Y2205D01*
X1668Y2205D01*
X1669Y2205D01*
X1670Y2205D01*
X1671Y2205D01*
X1672Y2205D01*
X1673Y2205D01*
X1674Y2205D01*
X1675Y2205D01*
X1676Y2205D01*
X1677Y2205D01*
X1678Y2205D01*
X1679Y2205D01*
X1680Y2205D01*
X1681Y2205D01*
X1682Y2205D01*
X1683Y2205D01*
X1684Y2205D01*
X1685Y2205D01*
X1686Y2205D01*
X1687Y2205D01*
X1688Y2205D01*
X1689Y2205D01*
X1690Y2205D01*
X1691Y2205D01*
X1692Y2205D01*
X1693Y2205D01*
X1694Y2205D01*
X1695Y2205D01*
X1696Y2205D01*
X1697Y2205D01*
X1698Y2205D01*
X1699Y2205D01*
X1700Y2205D01*
X1701Y2205D01*
X1702Y2205D01*
X1703Y2205D01*
X1704Y2205D01*
X1705Y2205D01*
X1706Y2205D01*
X1707Y2205D01*
X1708Y2205D01*
X1709Y2205D01*
X1710Y2205D01*
X1711Y2205D01*
X1712Y2205D01*
X1713Y2205D01*
X1714Y2205D01*
X1715Y2205D01*
X1716Y2205D01*
X1717Y2205D01*
X1718Y2205D01*
X1719Y2205D01*
X1720Y2205D01*
X1721Y2205D01*
X1722Y2205D01*
X1723Y2205D01*
X1724Y2205D01*
X1725Y2205D01*
X1726Y2205D01*
X1727Y2205D01*
X1728Y2205D01*
X1729Y2205D01*
X1730Y2205D01*
X1731Y2205D01*
X1732Y2205D01*
X1733Y2205D01*
X1734Y2205D01*
X1735Y2205D01*
X1736Y2205D01*
X1737Y2205D01*
X1738Y2205D01*
X1739Y2205D01*
X1740Y2205D01*
X1741Y2205D01*
X1742Y2205D01*
X1743Y2205D01*
X1744Y2205D01*
X1745Y2205D01*
X1746Y2205D01*
X1747Y2205D01*
X1748Y2205D01*
X1749Y2205D01*
X1750Y2205D01*
X1751Y2205D01*
X1752Y2205D01*
X1753Y2205D01*
X1754Y2205D01*
X1755Y2205D01*
X1756Y2205D01*
X1757Y2205D01*
X1758Y2205D01*
X1759Y2205D01*
X1760Y2205D01*
X1761Y2205D01*
X1762Y2205D01*
X1763Y2205D01*
X1764Y2205D01*
X1765Y2205D01*
X1766Y2205D01*
X1767Y2205D01*
X1768Y2205D01*
X1769Y2205D01*
X1770Y2205D01*
X1771Y2205D01*
X1772Y2205D01*
X1773Y2205D01*
X1774Y2205D01*
X1775Y2205D01*
X1776Y2205D01*
X1777Y2205D01*
X1778Y2205D01*
X1779Y2205D01*
X1780Y2205D01*
X1781Y2205D01*
X1782Y2205D01*
X1783Y2205D01*
X1784Y2205D01*
X1785Y2205D01*
X1786Y2205D01*
X1787Y2205D01*
X1788Y2205D01*
X1789Y2205D01*
X1790Y2205D01*
X1791Y2205D01*
X1792Y2205D01*
X1793Y2205D01*
X1794Y2205D01*
X1795Y2205D01*
X1796Y2205D01*
X1797Y2205D01*
X1798Y2205D01*
X1799Y2205D01*
X1800Y2205D01*
X1801Y2205D01*
X1802Y2205D01*
X1803Y2205D01*
X1804Y2205D01*
X1805Y2205D01*
X1806Y2205D01*
X1807Y2205D01*
X1808Y2205D01*
X1809Y2205D01*
X1810Y2205D01*
X1811Y2205D01*
X1812Y2205D01*
X1813Y2205D01*
X1814Y2205D01*
X1815Y2205D01*
X1816Y2205D01*
X1817Y2205D01*
X1818Y2205D01*
X1819Y2205D01*
X1820Y2205D01*
X1821Y2205D01*
X1822Y2205D01*
X1823Y2205D01*
X1824Y2205D01*
X1825Y2205D01*
X1826Y2205D01*
X1827Y2205D01*
X1828Y2205D01*
X1829Y2205D01*
X1830Y2205D01*
X1831Y2205D01*
X1832Y2205D01*
X1833Y2205D01*
X1834Y2205D01*
X1835Y2205D01*
X1836Y2205D01*
X1837Y2205D01*
X1838Y2205D01*
X1839Y2205D01*
X1840Y2205D01*
X1841Y2205D01*
X1842Y2205D01*
X1843Y2205D01*
X1844Y2205D01*
X1845Y2205D01*
X1846Y2205D01*
X1847Y2205D01*
X1848Y2205D01*
X1849Y2205D01*
X1850Y2205D01*
X1851Y2205D01*
X1852Y2205D01*
X1853Y2205D01*
X1854Y2205D01*
X1855Y2205D01*
X1856Y2205D01*
X1857Y2205D01*
X1858Y2205D01*
X1859Y2205D01*
X1860Y2205D01*
X1861Y2205D01*
X1862Y2205D01*
X1863Y2205D01*
X1864Y2205D01*
X1865Y2205D01*
X1866Y2205D01*
X1867Y2205D01*
X1868Y2205D01*
X1869Y2205D01*
X1870Y2205D01*
X1871Y2205D01*
X1872Y2205D01*
X1873Y2205D01*
X1874Y2205D01*
X1875Y2205D01*
X1876Y2205D01*
X1877Y2205D01*
X1878Y2205D01*
X1879Y2205D01*
X1880Y2205D01*
X1881Y2205D01*
X1882Y2205D01*
X1883Y2205D01*
X1884Y2205D01*
X1885Y2205D01*
X1886Y2205D01*
X1887Y2205D01*
X1888Y2205D01*
X1889Y2205D01*
X1890Y2205D01*
X1891Y2205D01*
X1892Y2205D01*
X1893Y2205D01*
X1894Y2205D01*
X1895Y2205D01*
X1896Y2205D01*
X1897Y2205D01*
X1898Y2205D01*
X1899Y2205D01*
X1900Y2205D01*
X1901Y2205D01*
X1902Y2205D01*
X1903Y2205D01*
X1904Y2205D01*
X1905Y2205D01*
X1906Y2205D01*
X1907Y2205D01*
X1908Y2205D01*
X1909Y2205D01*
X1910Y2205D01*
X1911Y2205D01*
X1912Y2205D01*
X1913Y2205D01*
X1914Y2205D01*
X1915Y2205D01*
X1916Y2205D01*
X1917Y2205D01*
X1918Y2205D01*
X1919Y2205D01*
X1920Y2205D01*
X1921Y2205D01*
X1922Y2205D01*
X1923Y2205D01*
X1924Y2205D01*
X1925Y2205D01*
X1926Y2205D01*
X1927Y2205D01*
X1928Y2205D01*
X1929Y2205D01*
X1930Y2205D01*
X1931Y2205D01*
X1932Y2205D01*
X1933Y2205D01*
X1934Y2205D01*
X1935Y2205D01*
X1936Y2205D01*
X1937Y2205D01*
X1938Y2205D01*
X1939Y2205D01*
X1940Y2205D01*
X1941Y2205D01*
X1942Y2205D01*
X1943Y2205D01*
X1944Y2205D01*
X1945Y2205D01*
X1946Y2205D01*
X1947Y2205D01*
X1948Y2205D01*
X1949Y2205D01*
X1950Y2205D01*
X1951Y2205D01*
X1952Y2205D01*
X1953Y2205D01*
X1954Y2205D01*
X1955Y2205D01*
X1956Y2205D01*
X1957Y2205D01*
X1958Y2205D01*
X1959Y2205D01*
X1960Y2205D01*
X1961Y2205D01*
X1962Y2205D01*
X1963Y2205D01*
X1964Y2205D01*
X1965Y2205D01*
X1966Y2205D01*
X1967Y2205D01*
X1968Y2205D01*
X1969Y2205D01*
X1970Y2205D01*
X1971Y2205D01*
X1972Y2205D01*
X1973Y2205D01*
X1974Y2205D01*
X1975Y2205D01*
X1976Y2205D01*
X1977Y2205D01*
X1978Y2205D01*
X1979Y2205D01*
X1980Y2205D01*
X1981Y2205D01*
X1982Y2205D01*
X1983Y2205D01*
X1984Y2205D01*
X1985Y2205D01*
X1986Y2205D01*
X1987Y2205D01*
X1988Y2205D01*
X1989Y2205D01*
X1990Y2205D01*
X1991Y2205D01*
X1992Y2205D01*
X1993Y2205D01*
X1994Y2205D01*
X1995Y2205D01*
X1996Y2205D01*
X1997Y2205D01*
X1998Y2205D01*
X1999Y2205D01*
X2000Y2205D01*
X2001Y2205D01*
X2002Y2205D01*
X2003Y2205D01*
X2004Y2205D01*
X2005Y2205D01*
X2006Y2205D01*
X2007Y2205D01*
X2008Y2205D01*
X2009Y2205D01*
X2010Y2205D01*
X2011Y2205D01*
X2012Y2205D01*
X2013Y2205D01*
X2014Y2205D01*
X2015Y2205D01*
X2016Y2205D01*
X2017Y2205D01*
X2018Y2205D01*
X2019Y2205D01*
X2020Y2205D01*
X2021Y2205D01*
X2022Y2205D01*
X2023Y2205D01*
X2024Y2205D01*
X2025Y2205D01*
X2026Y2205D01*
X2027Y2205D01*
X2028Y2205D01*
X2029Y2205D01*
X2030Y2205D01*
X2031Y2205D01*
X2032Y2205D01*
X2033Y2205D01*
X2034Y2205D01*
X2035Y2205D01*
X2036Y2205D01*
X2037Y2205D01*
X2038Y2205D01*
X2039Y2205D01*
X2040Y2205D01*
X2041Y2205D01*
X2042Y2205D01*
X2043Y2205D01*
X2044Y2205D01*
X2045Y2205D01*
X2046Y2205D01*
X2047Y2205D01*
X2048Y2205D01*
X2049Y2205D01*
X2050Y2205D01*
X2051Y2205D01*
X2052Y2205D01*
X2053Y2205D01*
X2054Y2205D01*
X2055Y2205D01*
X2056Y2205D01*
X2057Y2205D01*
X2058Y2205D01*
X2059Y2205D01*
X2060Y2205D01*
X2061Y2205D01*
X2062Y2205D01*
X2063Y2205D01*
X2064Y2205D01*
X2065Y2205D01*
X2066Y2205D01*
X2067Y2205D01*
X2068Y2205D01*
X2069Y2205D01*
X2070Y2205D01*
X2071Y2205D01*
X2072Y2205D01*
X2073Y2205D01*
X2074Y2205D01*
X2075Y2205D01*
X2076Y2205D01*
X2077Y2205D01*
X2078Y2205D01*
X2079Y2205D01*
X2080Y2205D01*
X2081Y2205D01*
X2082Y2205D01*
X2083Y2205D01*
X2084Y2205D01*
X2085Y2205D01*
X2086Y2205D01*
X2087Y2205D01*
X2088Y2205D01*
X2089Y2205D01*
X2090Y2205D01*
X2091Y2205D01*
X2092Y2205D01*
X2093Y2205D01*
X2094Y2205D01*
X2095Y2205D01*
X2096Y2205D01*
X2097Y2205D01*
X2098Y2205D01*
X2099Y2205D01*
X2100Y2205D01*
X2101Y2205D01*
X2102Y2205D01*
X2103Y2205D01*
X2104Y2205D01*
X2105Y2205D01*
X2106Y2205D01*
X2107Y2205D01*
X2108Y2205D01*
X2109Y2205D01*
X2110Y2205D01*
X2111Y2205D01*
X2112Y2205D01*
X2113Y2205D01*
X2114Y2205D01*
X2115Y2205D01*
X2116Y2205D01*
X2117Y2205D01*
X2118Y2205D01*
X2119Y2205D01*
X2120Y2205D01*
X2121Y2205D01*
X2122Y2205D01*
X2123Y2205D01*
X2124Y2205D01*
X2125Y2205D01*
X2126Y2205D01*
X2127Y2205D01*
X2128Y2205D01*
X2129Y2205D01*
X2130Y2205D01*
X2131Y2205D01*
X2132Y2205D01*
X2133Y2205D01*
X2134Y2205D01*
X2135Y2205D01*
X2136Y2205D01*
X2137Y2205D01*
X2138Y2205D01*
X2139Y2205D01*
X2140Y2205D01*
X2141Y2205D01*
X2142Y2205D01*
X2143Y2205D01*
X2144Y2205D01*
X2145Y2205D01*
X2146Y2205D01*
X2147Y2205D01*
X2148Y2205D01*
X2149Y2205D01*
X2150Y2205D01*
X2151Y2205D01*
X2152Y2205D01*
X2153Y2205D01*
X2154Y2205D01*
X2155Y2205D01*
X2156Y2205D01*
X2157Y2205D01*
X2158Y2205D01*
X2159Y2205D01*
X2160Y2205D01*
X2161Y2205D01*
X2162Y2205D01*
X2163Y2205D01*
X2164Y2205D01*
X2165Y2205D01*
X2166Y2205D01*
X2167Y2205D01*
X2168Y2205D01*
X2169Y2205D01*
X2170Y2205D01*
X2171Y2205D01*
X2172Y2205D01*
X2173Y2205D01*
X2174Y2205D01*
X2175Y2205D01*
X2176Y2205D01*
X2177Y2205D01*
X2178Y2205D01*
X2179Y2205D01*
X2180Y2205D01*
X2181Y2205D01*
X2182Y2205D01*
X2183Y2205D01*
X2184Y2205D01*
X2185Y2205D01*
X2186Y2205D01*
X2187Y2205D01*
X2188Y2205D01*
X2189Y2205D01*
X2190Y2205D01*
X2191Y2205D01*
X2192Y2205D01*
X2193Y2205D01*
X2194Y2205D01*
X2195Y2205D01*
X2196Y2205D01*
X2197Y2205D01*
X2198Y2205D01*
X2199Y2205D01*
X2200Y2205D01*
X2201Y2205D01*
X2202Y2205D01*
X2203Y2205D01*
X2204Y2205D01*
X2205Y2205D01*
X2206Y2205D01*
X2207Y2205D01*
X2208Y2205D01*
X2209Y2205D01*
X2210Y2205D01*
X2211Y2205D01*
X2212Y2205D01*
X2213Y2205D01*
X2214Y2205D01*
X2215Y2205D01*
X2216Y2205D01*
X2217Y2205D01*
X2218Y2205D01*
X2219Y2205D01*
X2220Y2205D01*
X2221Y2205D01*
X2222Y2205D01*
X2223Y2205D01*
X2224Y2205D01*
X2225Y2205D01*
X2226Y2205D01*
X2227Y2205D01*
X2228Y2205D01*
X2229Y2205D01*
X2230Y2205D01*
X2231Y2205D01*
X2232Y2205D01*
X2233Y2205D01*
X2234Y2205D01*
X2235Y2205D01*
X2236Y2205D01*
X2237Y2205D01*
X2238Y2205D01*
X2239Y2205D01*
X2240Y2205D01*
X2241Y2205D01*
X2242Y2205D01*
X2243Y2205D01*
X2244Y2205D01*
X2245Y2205D01*
X2246Y2205D01*
X2247Y2205D01*
X2248Y2205D01*
X2249Y2205D01*
X2250Y2205D01*
X2251Y2205D01*
X2252Y2205D01*
X2253Y2205D01*
X2254Y2205D01*
X2255Y2205D01*
X2256Y2205D01*
X2257Y2205D01*
X2258Y2205D01*
X2259Y2205D01*
X2260Y2205D01*
X2261Y2205D01*
X2262Y2205D01*
X2263Y2205D01*
X2264Y2205D01*
X2265Y2205D01*
X2266Y2205D01*
X2267Y2205D01*
X2268Y2205D01*
X2269Y2205D01*
X2270Y2205D01*
X2271Y2205D01*
X2272Y2205D01*
X2273Y2205D01*
X2274Y2205D01*
X2275Y2205D01*
X2276Y2205D01*
X2277Y2205D01*
X2278Y2205D01*
X2279Y2205D01*
X2280Y2205D01*
X2281Y2205D01*
X2282Y2205D01*
X2283Y2205D01*
X2284Y2205D01*
X2285Y2205D01*
X2286Y2205D01*
X2287Y2205D01*
X2288Y2205D01*
X2289Y2205D01*
X2290Y2205D01*
X2291Y2205D01*
X2292Y2205D01*
X2293Y2205D01*
X2294Y2205D01*
X2295Y2205D01*
X2296Y2205D01*
X2297Y2205D01*
X2298Y2205D01*
X2299Y2205D01*
X2300Y2205D01*
X2301Y2205D01*
X2302Y2205D01*
X2303Y2205D01*
X2304Y2205D01*
X2305Y2205D01*
X2306Y2205D01*
X2307Y2205D01*
X2308Y2205D01*
X2309Y2205D01*
X2310Y2205D01*
X2311Y2205D01*
X2312Y2205D01*
X2313Y2205D01*
X2314Y2205D01*
X2315Y2205D01*
X2316Y2205D01*
X2317Y2205D01*
X2318Y2205D01*
X2319Y2205D01*
X2320Y2205D01*
X2321Y2205D01*
X2322Y2205D01*
X2323Y2205D01*
X2324Y2205D01*
X2325Y2205D01*
X2326Y2205D01*
X2327Y2205D01*
X2328Y2205D01*
X2329Y2205D01*
X2330Y2205D01*
X2331Y2205D01*
X2332Y2205D01*
X2333Y2205D01*
X2334Y2205D01*
X2335Y2205D01*
X2336Y2205D01*
X2337Y2205D01*
X2338Y2205D01*
X2339Y2205D01*
X2340Y2205D01*
X2341Y2205D01*
X2342Y2205D01*
X2343Y2205D01*
X2344Y2205D01*
X2345Y2205D01*
X2346Y2205D01*
X2347Y2205D01*
X2348Y2205D01*
X2349Y2205D01*
X2350Y2205D01*
X2351Y2205D01*
X2352Y2205D01*
X2353Y2205D01*
X2354Y2205D01*
X2355Y2205D01*
X2356Y2205D01*
X2357Y2205D01*
X2358Y2205D01*
X2359Y2205D01*
X2360Y2205D01*
X2361Y2205D01*
X2362Y2205D01*
X2363Y2205D01*
X2364Y2205D01*
X2365Y2205D01*
X2366Y2205D01*
X2367Y2205D01*
X2368Y2205D01*
X2369Y2205D01*
X2370Y2205D01*
X2371Y2205D01*
X2372Y2205D01*
X2373Y2205D01*
X2374Y2205D01*
X2375Y2205D01*
X2376Y2205D01*
X2377Y2205D01*
X2378Y2205D01*
X2379Y2205D01*
X2380Y2205D01*
X2381Y2205D01*
X2382Y2205D01*
X2383Y2205D01*
X2384Y2205D01*
X2385Y2205D01*
X2386Y2205D01*
X2387Y2205D01*
X2388Y2205D01*
X2389Y2205D01*
X2390Y2205D01*
X2391Y2205D01*
X2392Y2205D01*
X2393Y2205D01*
X2394Y2205D01*
X2395Y2205D01*
X2396Y2205D01*
X2397Y2205D01*
X2398Y2205D01*
X2399Y2205D01*
X2400Y2205D01*
X2401Y2205D01*
X2402Y2205D01*
X2403Y2205D01*
X2404Y2205D01*
X2405Y2205D01*
X2406Y2205D01*
X2407Y2205D01*
X2408Y2205D01*
X2409Y2205D01*
X2410Y2205D01*
X2411Y2205D01*
X2412Y2205D01*
X2413Y2205D01*
X2414Y2205D01*
X2415Y2205D01*
X2416Y2205D01*
X2417Y2205D01*
X2418Y2205D01*
X2419Y2205D01*
X2420Y2205D01*
X2421Y2205D01*
X2422Y2205D01*
X2423Y2205D01*
X2424Y2205D01*
X2425Y2205D01*
X2426Y2205D01*
X2427Y2205D01*
X2428Y2205D01*
X2429Y2205D01*
X2430Y2205D01*
X2431Y2205D01*
X2432Y2205D01*
X2433Y2205D01*
X2434Y2205D01*
X2435Y2205D01*
X2436Y2205D01*
X2437Y2205D01*
X2438Y2205D01*
X2439Y2205D01*
X2440Y2205D01*
X2441Y2205D01*
X2442Y2205D01*
X2443Y2205D01*
X2444Y2205D01*
X2445Y2205D01*
X2446Y2205D01*
X2447Y2205D01*
X2448Y2205D01*
X2449Y2205D01*
X2450Y2205D01*
X2451Y2205D01*
X2452Y2204D01*
X2453Y2204D01*
X2454Y2204D01*
X2455Y2204D01*
X2456Y2204D01*
X2457Y2204D01*
X2458Y2204D01*
X2459Y2204D01*
X2460Y2203D01*
X2461Y2203D01*
X2462Y2203D01*
X2463Y2203D01*
X2464Y2203D01*
X2465Y2202D01*
X2466Y2202D01*
X2467Y2202D01*
X2468Y2202D01*
X2469Y2202D01*
X2470Y2201D01*
X2471Y2201D01*
X2472Y2201D01*
X2473Y2200D01*
X2474Y2200D01*
X2475Y2200D01*
X2476Y2200D01*
X2477Y2199D01*
X2478Y2199D01*
X2479Y2199D01*
X2480Y2198D01*
X2481Y2198D01*
X2482Y2198D01*
X2483Y2197D01*
X2484Y2197D01*
X2485Y2196D01*
X2486Y2196D01*
X2487Y2196D01*
X2488Y2195D01*
X2489Y2195D01*
X2490Y2194D01*
X2491Y2194D01*
X2492Y2193D01*
X2493Y2193D01*
X2494Y2192D01*
X2495Y2192D01*
X2496Y2191D01*
X2497Y2191D01*
X2498Y2190D01*
X2499Y2190D01*
X2500Y2189D01*
X2501Y2188D01*
X2502Y2188D01*
X2503Y2187D01*
X2504Y2187D01*
X2505Y2186D01*
X2506Y2185D01*
X2507Y2185D01*
X2508Y2184D01*
X2509Y2183D01*
X2510Y2182D01*
X2511Y2182D01*
X2512Y2181D01*
X2513Y2180D01*
X2514Y2179D01*
X2515Y2179D01*
X2516Y2178D01*
X2517Y2177D01*
X2518Y2176D01*
X2519Y2175D01*
X2520Y2174D01*
X2521Y2173D01*
X2522Y2172D01*
X2523Y2171D01*
X2524Y2171D01*
X2524Y2170D01*
X2525Y2169D01*
X2526Y2168D01*
X2527Y2167D01*
X2528Y2166D01*
X2529Y2165D01*
X2530Y2164D01*
X2531Y2163D01*
X2532Y2162D01*
X2532Y2161D01*
X2533Y2160D01*
X2534Y2159D01*
X2535Y2158D01*
X2535Y2157D01*
X2536Y2156D01*
X2537Y2155D01*
X2538Y2154D01*
X2538Y2153D01*
X2539Y2152D01*
X2540Y2151D01*
X2540Y2150D01*
X2541Y2149D01*
X2541Y2148D01*
X2542Y2147D01*
X2543Y2146D01*
X2543Y2145D01*
X2544Y2144D01*
X2544Y2143D01*
X2545Y2142D01*
X2545Y2141D01*
X2546Y2140D01*
X2546Y2139D01*
X2547Y2138D01*
X2547Y2137D01*
X2548Y2136D01*
X2548Y2135D01*
X2549Y2134D01*
X2549Y2132D01*
X2550Y2131D01*
X2550Y2130D01*
X2551Y2129D01*
X2551Y2127D01*
X2552Y2126D01*
X2552Y2124D01*
X2553Y2123D01*
X2553Y2120D01*
X2554Y2119D01*
X2554Y2117D01*
X2555Y2116D01*
X2555Y2112D01*
X2556Y2111D01*
X2556Y2107D01*
X2557Y2106D01*
X2557Y2099D01*
X2558Y2098D01*
X2558Y109D01*
X2557Y108D01*
X2557Y101D01*
X2556Y100D01*
X2556Y96D01*
X2555Y95D01*
X2555Y91D01*
X2554Y90D01*
X2554Y88D01*
X2553Y87D01*
X2553Y84D01*
X2552Y83D01*
X2552Y81D01*
X2551Y80D01*
X2551Y78D01*
X2550Y77D01*
X2550Y76D01*
X2549Y75D01*
X2549Y73D01*
X2548Y72D01*
X2548Y71D01*
X2547Y70D01*
X2547Y69D01*
X2546Y68D01*
X2546Y67D01*
X2545Y66D01*
X2545Y65D01*
X2544Y64D01*
X2544Y63D01*
X2543Y62D01*
X2543Y61D01*
X2542Y60D01*
X2541Y59D01*
X2541Y58D01*
X2540Y57D01*
X2540Y56D01*
X2539Y55D01*
X2538Y54D01*
X2538Y53D01*
X2537Y52D01*
X2536Y51D01*
X2535Y50D01*
X2535Y49D01*
X2534Y48D01*
X2533Y47D01*
X2532Y46D01*
X2532Y45D01*
X2531Y44D01*
X2530Y43D01*
X2529Y42D01*
X2528Y41D01*
X2527Y40D01*
X2526Y39D01*
X2525Y38D01*
X2524Y37D01*
X2524Y36D01*
X2523Y36D01*
X2522Y35D01*
X2521Y34D01*
X2520Y33D01*
X2519Y32D01*
X2518Y31D01*
X2517Y30D01*
X2516Y29D01*
X2515Y28D01*
X2514Y28D01*
X2513Y27D01*
X2512Y26D01*
X2511Y25D01*
X2510Y25D01*
X2509Y24D01*
X2508Y23D01*
X2507Y22D01*
X2506Y22D01*
X2505Y21D01*
X2504Y20D01*
X2503Y20D01*
X2502Y19D01*
X2501Y19D01*
X2500Y18D01*
X2499Y17D01*
X2498Y17D01*
X2497Y16D01*
X2496Y16D01*
X2495Y15D01*
X2494Y15D01*
X2493Y14D01*
X2492Y14D01*
X2491Y13D01*
X2490Y13D01*
X2489Y12D01*
X2488Y12D01*
X2487Y11D01*
X2486Y11D01*
X2485Y11D01*
X2484Y10D01*
X2483Y10D01*
X2482Y9D01*
X2481Y9D01*
X2480Y9D01*
X2479Y8D01*
X2478Y8D01*
X2477Y8D01*
X2476Y7D01*
X2475Y7D01*
X2474Y7D01*
X2473Y7D01*
X2472Y6D01*
X2471Y6D01*
X2470Y6D01*
X2469Y5D01*
X2468Y5D01*
X2467Y5D01*
X2466Y5D01*
X2465Y5D01*
X2464Y4D01*
X2463Y4D01*
X2462Y4D01*
X2461Y4D01*
X2460Y4D01*
X2459Y3D01*
X2458Y3D01*
X2457Y3D01*
X2456Y3D01*
X2455Y3D01*
X2454Y3D01*
X2453Y3D01*
X2452Y3D01*
X2451Y2D01*
X2450Y2D01*
X2449Y2D01*
X2448Y2D01*
X2447Y2D01*
X2446Y2D01*
X2445Y2D01*
X2444Y2D01*
X2443Y2D01*
X2442Y2D01*
X2441Y2D01*
X2440Y2D01*
X2439Y2D01*
X2438Y2D01*
X2437Y2D01*
X2436Y2D01*
X2435Y2D01*
X2434Y2D01*
X2433Y2D01*
X2432Y2D01*
X2431Y2D01*
X2430Y2D01*
X2429Y2D01*
X2428Y2D01*
X2427Y2D01*
X2426Y2D01*
X2425Y2D01*
X2424Y2D01*
X2423Y2D01*
X2422Y2D01*
X2421Y2D01*
X2420Y2D01*
X2419Y2D01*
X2418Y2D01*
X2417Y2D01*
X2416Y2D01*
X2415Y2D01*
X2414Y2D01*
X2413Y2D01*
X2412Y2D01*
X2411Y2D01*
X2410Y2D01*
X2409Y2D01*
X2408Y2D01*
X2407Y2D01*
X2406Y2D01*
X2405Y2D01*
X2404Y2D01*
X2403Y2D01*
X2402Y2D01*
X2401Y2D01*
X2400Y2D01*
X2399Y2D01*
X2398Y2D01*
X2397Y2D01*
X2396Y2D01*
X2395Y2D01*
X2394Y2D01*
X2393Y2D01*
X2392Y2D01*
X2391Y2D01*
X2390Y2D01*
X2389Y2D01*
X2388Y2D01*
X2387Y2D01*
X2386Y2D01*
X2385Y2D01*
X2384Y2D01*
X2383Y2D01*
X2382Y2D01*
X2381Y2D01*
X2380Y2D01*
X2379Y2D01*
X2378Y2D01*
X2377Y2D01*
X2376Y2D01*
X2375Y2D01*
X2374Y2D01*
X2373Y2D01*
X2372Y2D01*
X2371Y2D01*
X2370Y2D01*
X2369Y2D01*
X2368Y2D01*
X2367Y2D01*
X2366Y2D01*
X2365Y2D01*
X2364Y2D01*
X2363Y2D01*
X2362Y2D01*
X2361Y2D01*
X2360Y2D01*
X2359Y2D01*
X2358Y2D01*
X2357Y2D01*
X2356Y2D01*
X2355Y2D01*
X2354Y2D01*
X2353Y2D01*
X2352Y2D01*
X2351Y2D01*
X2350Y2D01*
X2349Y2D01*
X2348Y2D01*
X2347Y2D01*
X2346Y2D01*
X2345Y2D01*
X2344Y2D01*
X2343Y2D01*
X2342Y2D01*
X2341Y2D01*
X2340Y2D01*
X2339Y2D01*
X2338Y2D01*
X2337Y2D01*
X2336Y2D01*
X2335Y2D01*
X2334Y2D01*
X2333Y2D01*
X2332Y2D01*
X2331Y2D01*
X2330Y2D01*
X2329Y2D01*
X2328Y2D01*
X2327Y2D01*
X2326Y2D01*
X2325Y2D01*
X2324Y2D01*
X2323Y2D01*
X2322Y2D01*
X2321Y2D01*
X2320Y2D01*
X2319Y2D01*
X2318Y2D01*
X2317Y2D01*
X2316Y2D01*
X2315Y2D01*
X2314Y2D01*
X2313Y2D01*
X2312Y2D01*
X2311Y2D01*
X2310Y2D01*
X2309Y2D01*
X2308Y2D01*
X2307Y2D01*
X2306Y2D01*
X2305Y2D01*
X2304Y2D01*
X2303Y2D01*
X2302Y2D01*
X2301Y2D01*
X2300Y2D01*
X2299Y2D01*
X2298Y2D01*
X2297Y2D01*
X2296Y2D01*
X2295Y2D01*
X2294Y2D01*
X2293Y2D01*
X2292Y2D01*
X2291Y2D01*
X2290Y2D01*
X2289Y2D01*
X2288Y2D01*
X2287Y2D01*
X2286Y2D01*
X2285Y2D01*
X2284Y2D01*
X2283Y2D01*
X2282Y2D01*
X2281Y2D01*
X2280Y2D01*
X2279Y2D01*
X2278Y2D01*
X2277Y2D01*
X2276Y2D01*
X2275Y2D01*
X2274Y2D01*
X2273Y2D01*
X2272Y2D01*
X2271Y2D01*
X2270Y2D01*
X2269Y2D01*
X2268Y2D01*
X2267Y2D01*
X2266Y2D01*
X2265Y2D01*
X2264Y2D01*
X2263Y2D01*
X2262Y2D01*
X2261Y2D01*
X2260Y2D01*
X2259Y2D01*
X2258Y2D01*
X2257Y2D01*
X2256Y2D01*
X2255Y2D01*
X2254Y2D01*
X2253Y2D01*
X2252Y2D01*
X2251Y2D01*
X2250Y2D01*
X2249Y2D01*
X2248Y2D01*
X2247Y2D01*
X2246Y2D01*
X2245Y2D01*
X2244Y2D01*
X2243Y2D01*
X2242Y2D01*
X2241Y2D01*
X2240Y2D01*
X2239Y2D01*
X2238Y2D01*
X2237Y2D01*
X2236Y2D01*
X2235Y2D01*
X2234Y2D01*
X2233Y2D01*
X2232Y2D01*
X2231Y2D01*
X2230Y2D01*
X2229Y2D01*
X2228Y2D01*
X2227Y2D01*
X2226Y2D01*
X2225Y2D01*
X2224Y2D01*
X2223Y2D01*
X2222Y2D01*
X2221Y2D01*
X2220Y2D01*
X2219Y2D01*
X2218Y2D01*
X2217Y2D01*
X2216Y2D01*
X2215Y2D01*
X2214Y2D01*
X2213Y2D01*
X2212Y2D01*
X2211Y2D01*
X2210Y2D01*
X2209Y2D01*
X2208Y2D01*
X2207Y2D01*
X2206Y2D01*
X2205Y2D01*
X2204Y2D01*
X2203Y2D01*
X2202Y2D01*
X2201Y2D01*
X2200Y2D01*
X2199Y2D01*
X2198Y2D01*
X2197Y2D01*
X2196Y2D01*
X2195Y2D01*
X2194Y2D01*
X2193Y2D01*
X2192Y2D01*
X2191Y2D01*
X2190Y2D01*
X2189Y2D01*
X2188Y2D01*
X2187Y2D01*
X2186Y2D01*
X2185Y2D01*
X2184Y2D01*
X2183Y2D01*
X2182Y2D01*
X2181Y2D01*
X2180Y2D01*
X2179Y2D01*
X2178Y2D01*
X2177Y2D01*
X2176Y2D01*
X2175Y2D01*
X2174Y2D01*
X2173Y2D01*
X2172Y2D01*
X2171Y2D01*
X2170Y2D01*
X2169Y2D01*
X2168Y2D01*
X2167Y2D01*
X2166Y2D01*
X2165Y2D01*
X2164Y2D01*
X2163Y2D01*
X2162Y2D01*
X2161Y2D01*
X2160Y2D01*
X2159Y2D01*
X2158Y2D01*
X2157Y2D01*
X2156Y2D01*
X2155Y2D01*
X2154Y2D01*
X2153Y2D01*
X2152Y2D01*
X2151Y2D01*
X2150Y2D01*
X2149Y2D01*
X2148Y2D01*
X2147Y2D01*
X2146Y2D01*
X2145Y2D01*
X2144Y2D01*
X2143Y2D01*
X2142Y2D01*
X2141Y2D01*
X2140Y2D01*
X2139Y2D01*
X2138Y2D01*
X2137Y2D01*
X2136Y2D01*
X2135Y2D01*
X2134Y2D01*
X2133Y2D01*
X2132Y2D01*
X2131Y2D01*
X2130Y2D01*
X2129Y2D01*
X2128Y2D01*
X2127Y2D01*
X2126Y2D01*
X2125Y2D01*
X2124Y2D01*
X2123Y2D01*
X2122Y2D01*
X2121Y2D01*
X2120Y2D01*
X2119Y2D01*
X2118Y2D01*
X2117Y2D01*
X2116Y2D01*
X2115Y2D01*
X2114Y2D01*
X2113Y2D01*
X2112Y2D01*
X2111Y2D01*
X2110Y2D01*
X2109Y2D01*
X2108Y2D01*
X2107Y2D01*
X2106Y2D01*
X2105Y2D01*
X2104Y2D01*
X2103Y2D01*
X2102Y2D01*
X2101Y2D01*
X2100Y2D01*
X2099Y2D01*
X2098Y2D01*
X2097Y2D01*
X2096Y2D01*
X2095Y2D01*
X2094Y2D01*
X2093Y2D01*
X2092Y2D01*
X2091Y2D01*
X2090Y2D01*
X2089Y2D01*
X2088Y2D01*
X2087Y2D01*
X2086Y2D01*
X2085Y2D01*
X2084Y2D01*
X2083Y2D01*
X2082Y2D01*
X2081Y2D01*
X2080Y2D01*
X2079Y2D01*
X2078Y2D01*
X2077Y2D01*
X2076Y2D01*
X2075Y2D01*
X2074Y2D01*
X2073Y2D01*
X2072Y2D01*
X2071Y2D01*
X2070Y2D01*
X2069Y2D01*
X2068Y2D01*
X2067Y2D01*
X2066Y2D01*
X2065Y2D01*
X2064Y2D01*
X2063Y2D01*
X2062Y2D01*
X2061Y2D01*
X2060Y2D01*
X2059Y2D01*
X2058Y2D01*
X2057Y2D01*
X2056Y2D01*
X2055Y2D01*
X2054Y2D01*
X2053Y2D01*
X2052Y2D01*
X2051Y2D01*
X2050Y2D01*
X2049Y2D01*
X2048Y2D01*
X2047Y2D01*
X2046Y2D01*
X2045Y2D01*
X2044Y2D01*
X2043Y2D01*
X2042Y2D01*
X2041Y2D01*
X2040Y2D01*
X2039Y2D01*
X2038Y2D01*
X2037Y2D01*
X2036Y2D01*
X2035Y2D01*
X2034Y2D01*
X2033Y2D01*
X2032Y2D01*
X2031Y2D01*
X2030Y2D01*
X2029Y2D01*
X2028Y2D01*
X2027Y2D01*
X2026Y2D01*
X2025Y2D01*
X2024Y2D01*
X2023Y2D01*
X2022Y2D01*
X2021Y2D01*
X2020Y2D01*
X2019Y2D01*
X2018Y2D01*
X2017Y2D01*
X2016Y2D01*
X2015Y2D01*
X2014Y2D01*
X2013Y2D01*
X2012Y2D01*
X2011Y2D01*
X2010Y2D01*
X2009Y2D01*
X2008Y2D01*
X2007Y2D01*
X2006Y2D01*
X2005Y2D01*
X2004Y2D01*
X2003Y2D01*
X2002Y2D01*
X2001Y2D01*
X2000Y2D01*
X1999Y2D01*
X1998Y2D01*
X1997Y2D01*
X1996Y2D01*
X1995Y2D01*
X1994Y2D01*
X1993Y2D01*
X1992Y2D01*
X1991Y2D01*
X1990Y2D01*
X1989Y2D01*
X1988Y2D01*
X1987Y2D01*
X1986Y2D01*
X1985Y2D01*
X1984Y2D01*
X1983Y2D01*
X1982Y2D01*
X1981Y2D01*
X1980Y2D01*
X1979Y2D01*
X1978Y2D01*
X1977Y2D01*
X1976Y2D01*
X1975Y2D01*
X1974Y2D01*
X1973Y2D01*
X1972Y2D01*
X1971Y2D01*
X1970Y2D01*
X1969Y2D01*
X1968Y2D01*
X1967Y2D01*
X1966Y2D01*
X1965Y2D01*
X1964Y2D01*
X1963Y2D01*
X1962Y2D01*
X1961Y2D01*
X1960Y2D01*
X1959Y2D01*
X1958Y2D01*
X1957Y2D01*
X1956Y2D01*
X1955Y2D01*
X1954Y2D01*
X1953Y2D01*
X1952Y2D01*
X1951Y2D01*
X1950Y2D01*
X1949Y2D01*
X1948Y2D01*
X1947Y2D01*
X1946Y2D01*
X1945Y2D01*
X1944Y2D01*
X1943Y2D01*
X1942Y2D01*
X1941Y2D01*
X1940Y2D01*
X1939Y2D01*
X1938Y2D01*
X1937Y2D01*
X1936Y2D01*
X1935Y2D01*
X1934Y2D01*
X1933Y2D01*
X1932Y2D01*
X1931Y2D01*
X1930Y2D01*
X1929Y2D01*
X1928Y2D01*
X1927Y2D01*
X1926Y2D01*
X1925Y2D01*
X1924Y2D01*
X1923Y2D01*
X1922Y2D01*
X1921Y2D01*
X1920Y2D01*
X1919Y2D01*
X1918Y2D01*
X1917Y2D01*
X1916Y2D01*
X1915Y2D01*
X1914Y2D01*
X1913Y2D01*
X1912Y2D01*
X1911Y2D01*
X1910Y2D01*
X1909Y2D01*
X1908Y2D01*
X1907Y2D01*
X1906Y2D01*
X1905Y2D01*
X1904Y2D01*
X1903Y2D01*
X1902Y2D01*
X1901Y2D01*
X1900Y2D01*
X1899Y2D01*
X1898Y2D01*
X1897Y2D01*
X1896Y2D01*
X1895Y2D01*
X1894Y2D01*
X1893Y2D01*
X1892Y2D01*
X1891Y2D01*
X1890Y2D01*
X1889Y2D01*
X1888Y2D01*
X1887Y2D01*
X1886Y2D01*
X1885Y2D01*
X1884Y2D01*
X1883Y2D01*
X1882Y2D01*
X1881Y2D01*
X1880Y2D01*
X1879Y2D01*
X1878Y2D01*
X1877Y2D01*
X1876Y2D01*
X1875Y2D01*
X1874Y2D01*
X1873Y2D01*
X1872Y2D01*
X1871Y2D01*
X1870Y2D01*
X1869Y2D01*
X1868Y2D01*
X1867Y2D01*
X1866Y2D01*
X1865Y2D01*
X1864Y2D01*
X1863Y2D01*
X1862Y2D01*
X1861Y2D01*
X1860Y2D01*
X1859Y2D01*
X1858Y2D01*
X1857Y2D01*
X1856Y2D01*
X1855Y2D01*
X1854Y2D01*
X1853Y2D01*
X1852Y2D01*
X1851Y2D01*
X1850Y2D01*
X1849Y2D01*
X1848Y2D01*
X1847Y2D01*
X1846Y2D01*
X1845Y2D01*
X1844Y2D01*
X1843Y2D01*
X1842Y2D01*
X1841Y2D01*
X1840Y2D01*
X1839Y2D01*
X1838Y2D01*
X1837Y2D01*
X1836Y2D01*
X1835Y2D01*
X1834Y2D01*
X1833Y2D01*
X1832Y2D01*
X1831Y2D01*
X1830Y2D01*
X1829Y2D01*
X1828Y2D01*
X1827Y2D01*
X1826Y2D01*
X1825Y2D01*
X1824Y2D01*
X1823Y2D01*
X1822Y2D01*
X1821Y2D01*
X1820Y2D01*
X1819Y2D01*
X1818Y2D01*
X1817Y2D01*
X1816Y2D01*
X1815Y2D01*
X1814Y2D01*
X1813Y2D01*
X1812Y2D01*
X1811Y2D01*
X1810Y2D01*
X1809Y2D01*
X1808Y2D01*
X1807Y2D01*
X1806Y2D01*
X1805Y2D01*
X1804Y2D01*
X1803Y2D01*
X1802Y2D01*
X1801Y2D01*
X1800Y2D01*
X1799Y2D01*
X1798Y2D01*
X1797Y2D01*
X1796Y2D01*
X1795Y2D01*
X1794Y2D01*
X1793Y2D01*
X1792Y2D01*
X1791Y2D01*
X1790Y2D01*
X1789Y2D01*
X1788Y2D01*
X1787Y2D01*
X1786Y2D01*
X1785Y2D01*
X1784Y2D01*
X1783Y2D01*
X1782Y2D01*
X1781Y2D01*
X1780Y2D01*
X1779Y2D01*
X1778Y2D01*
X1777Y2D01*
X1776Y2D01*
X1775Y2D01*
X1774Y2D01*
X1773Y2D01*
X1772Y2D01*
X1771Y2D01*
X1770Y2D01*
X1769Y2D01*
X1768Y2D01*
X1767Y2D01*
X1766Y2D01*
X1765Y2D01*
X1764Y2D01*
X1763Y2D01*
X1762Y2D01*
X1761Y2D01*
X1760Y2D01*
X1759Y2D01*
X1758Y2D01*
X1757Y2D01*
X1756Y2D01*
X1755Y2D01*
X1754Y2D01*
X1753Y2D01*
X1752Y2D01*
X1751Y2D01*
X1750Y2D01*
X1749Y2D01*
X1748Y2D01*
X1747Y2D01*
X1746Y2D01*
X1745Y2D01*
X1744Y2D01*
X1743Y2D01*
X1742Y2D01*
X1741Y2D01*
X1740Y2D01*
X1739Y2D01*
X1738Y2D01*
X1737Y2D01*
X1736Y2D01*
X1735Y2D01*
X1734Y2D01*
X1733Y2D01*
X1732Y2D01*
X1731Y2D01*
X1730Y2D01*
X1729Y2D01*
X1728Y2D01*
X1727Y2D01*
X1726Y2D01*
X1725Y2D01*
X1724Y2D01*
X1723Y2D01*
X1722Y2D01*
X1721Y2D01*
X1720Y2D01*
X1719Y2D01*
X1718Y2D01*
X1717Y2D01*
X1716Y2D01*
X1715Y2D01*
X1714Y2D01*
X1713Y2D01*
X1712Y2D01*
X1711Y2D01*
X1710Y2D01*
X1709Y2D01*
X1708Y2D01*
X1707Y2D01*
X1706Y2D01*
X1705Y2D01*
X1704Y2D01*
X1703Y2D01*
X1702Y2D01*
X1701Y2D01*
X1700Y2D01*
X1699Y2D01*
X1698Y2D01*
X1697Y2D01*
X1696Y2D01*
X1695Y2D01*
X1694Y2D01*
X1693Y2D01*
X1692Y2D01*
X1691Y2D01*
X1690Y2D01*
X1689Y2D01*
X1688Y2D01*
X1687Y2D01*
X1686Y2D01*
X1685Y2D01*
X1684Y2D01*
X1683Y2D01*
X1682Y2D01*
X1681Y2D01*
X1680Y2D01*
X1679Y2D01*
X1678Y2D01*
X1677Y2D01*
X1676Y2D01*
X1675Y2D01*
X1674Y2D01*
X1673Y2D01*
X1672Y2D01*
X1671Y2D01*
X1670Y2D01*
X1669Y2D01*
X1668Y2D01*
X1667Y2D01*
X1666Y2D01*
X1665Y2D01*
X1664Y2D01*
X1663Y2D01*
X1662Y2D01*
X1661Y2D01*
X1660Y2D01*
X1659Y2D01*
X1658Y2D01*
X1657Y2D01*
X1656Y2D01*
X1655Y2D01*
X1654Y2D01*
X1653Y2D01*
X1652Y2D01*
X1651Y2D01*
X1650Y2D01*
X1649Y2D01*
X1648Y2D01*
X1647Y2D01*
X1646Y2D01*
X1645Y2D01*
X1644Y2D01*
X1643Y2D01*
X1642Y2D01*
X1641Y2D01*
X1640Y2D01*
X1639Y2D01*
X1638Y2D01*
X1637Y2D01*
X1636Y2D01*
X1635Y2D01*
X1634Y2D01*
X1633Y2D01*
X1632Y2D01*
X1631Y2D01*
X1630Y2D01*
X1629Y2D01*
X1628Y2D01*
X1627Y2D01*
X1626Y2D01*
X1625Y2D01*
X1624Y2D01*
X1623Y2D01*
X1622Y2D01*
X1621Y2D01*
X1620Y2D01*
X1619Y2D01*
X1618Y2D01*
X1617Y2D01*
X1616Y2D01*
X1615Y2D01*
X1614Y2D01*
X1613Y2D01*
X1612Y2D01*
X1611Y2D01*
X1610Y2D01*
X1609Y2D01*
X1608Y2D01*
X1607Y2D01*
X1606Y2D01*
X1605Y2D01*
X1604Y2D01*
X1603Y2D01*
X1602Y2D01*
X1601Y2D01*
X1600Y2D01*
X1599Y2D01*
X1598Y2D01*
X1597Y2D01*
X1596Y2D01*
X1595Y2D01*
X1594Y2D01*
X1593Y2D01*
X1592Y2D01*
X1591Y2D01*
X1590Y2D01*
X1589Y2D01*
X1588Y2D01*
X1587Y2D01*
X1586Y2D01*
X1585Y2D01*
X1584Y2D01*
X1583Y2D01*
X1582Y2D01*
X1581Y2D01*
X1580Y2D01*
X1579Y2D01*
X1578Y2D01*
X1577Y2D01*
X1576Y2D01*
X1575Y2D01*
X1574Y2D01*
X1573Y2D01*
X1572Y2D01*
X1571Y2D01*
X1570Y2D01*
X1569Y2D01*
X1568Y2D01*
X1567Y2D01*
X1566Y2D01*
X1565Y2D01*
X1564Y2D01*
X1563Y2D01*
X1562Y2D01*
X1561Y2D01*
X1560Y2D01*
X1559Y2D01*
X1558Y2D01*
X1557Y2D01*
X1556Y2D01*
X1555Y2D01*
X1554Y2D01*
X1553Y2D01*
X1552Y2D01*
X1551Y2D01*
X1550Y2D01*
X1549Y2D01*
X1548Y2D01*
X1547Y2D01*
X1546Y2D01*
X1545Y2D01*
X1544Y2D01*
X1543Y2D01*
X1542Y2D01*
X1541Y2D01*
X1540Y2D01*
X1539Y2D01*
X1538Y2D01*
X1537Y2D01*
X1536Y2D01*
X1535Y2D01*
X1534Y2D01*
X1533Y2D01*
X1532Y2D01*
X1531Y2D01*
X1530Y2D01*
X1529Y2D01*
X1528Y2D01*
X1527Y2D01*
X1526Y2D01*
X1525Y2D01*
X1524Y2D01*
X1523Y2D01*
X1522Y2D01*
X1521Y2D01*
X1520Y2D01*
X1519Y2D01*
X1518Y2D01*
X1517Y2D01*
X1516Y2D01*
X1515Y2D01*
X1514Y2D01*
X1513Y2D01*
X1512Y2D01*
X1511Y2D01*
X1510Y2D01*
X1509Y2D01*
X1508Y2D01*
X1507Y2D01*
X1506Y2D01*
X1505Y2D01*
X1504Y2D01*
X1503Y2D01*
X1502Y2D01*
X1501Y2D01*
X1500Y2D01*
X1499Y2D01*
X1498Y2D01*
X1497Y2D01*
X1496Y2D01*
X1495Y2D01*
X1494Y2D01*
X1493Y2D01*
X1492Y2D01*
X1491Y2D01*
X1490Y2D01*
X1489Y2D01*
X1488Y2D01*
X1487Y2D01*
X1486Y2D01*
X1485Y2D01*
X1484Y2D01*
X1483Y2D01*
X1482Y2D01*
X1481Y2D01*
X1480Y2D01*
X1479Y2D01*
X1478Y2D01*
X1477Y2D01*
X1476Y2D01*
X1475Y2D01*
X1474Y2D01*
X1473Y2D01*
X1472Y2D01*
X1471Y2D01*
X1470Y2D01*
X1469Y2D01*
X1468Y2D01*
X1467Y2D01*
X1466Y2D01*
X1465Y2D01*
X1464Y2D01*
X1463Y2D01*
X1462Y2D01*
X1461Y2D01*
X1460Y2D01*
X1459Y2D01*
X1458Y2D01*
X1457Y2D01*
X1456Y2D01*
X1455Y2D01*
X1454Y2D01*
X1453Y2D01*
X1452Y2D01*
X1451Y2D01*
X1450Y2D01*
X1449Y2D01*
X1448Y2D01*
X1447Y2D01*
X1446Y2D01*
X1445Y2D01*
X1444Y2D01*
X1443Y2D01*
X1442Y2D01*
X1441Y2D01*
X1440Y2D01*
X1439Y2D01*
X1438Y2D01*
X1437Y2D01*
X1436Y2D01*
X1435Y2D01*
X1434Y2D01*
X1433Y2D01*
X1432Y2D01*
X1431Y2D01*
X1430Y2D01*
X1429Y2D01*
X1428Y2D01*
X1427Y2D01*
X1426Y2D01*
X1425Y2D01*
X1424Y2D01*
X1423Y2D01*
X1422Y2D01*
X1421Y2D01*
X1420Y2D01*
X1419Y2D01*
X1418Y2D01*
X1417Y2D01*
X1416Y2D01*
X1415Y2D01*
X1414Y2D01*
X1413Y2D01*
X1412Y2D01*
X1411Y2D01*
X1410Y2D01*
X1409Y2D01*
X1408Y2D01*
X1407Y2D01*
X1406Y2D01*
X1405Y2D01*
X1404Y2D01*
X1403Y2D01*
X1402Y2D01*
X1401Y2D01*
X1400Y2D01*
X1399Y2D01*
X1398Y2D01*
X1397Y2D01*
X1396Y2D01*
X1395Y2D01*
X1394Y2D01*
X1393Y2D01*
X1392Y2D01*
X1391Y2D01*
X1390Y2D01*
X1389Y2D01*
X1388Y2D01*
X1387Y2D01*
X1386Y2D01*
X1385Y2D01*
X1384Y2D01*
X1383Y2D01*
X1382Y2D01*
X1381Y2D01*
X1380Y2D01*
X1379Y2D01*
X1378Y2D01*
X1377Y2D01*
X1376Y2D01*
X1375Y2D01*
X1374Y2D01*
X1373Y2D01*
X1372Y2D01*
X1371Y2D01*
X1370Y2D01*
X1369Y2D01*
X1368Y2D01*
X1367Y2D01*
X1366Y2D01*
X1365Y2D01*
X1364Y2D01*
X1363Y2D01*
X1362Y2D01*
X1361Y2D01*
X1360Y2D01*
X1359Y2D01*
X1358Y2D01*
X1357Y2D01*
X1356Y2D01*
X1355Y2D01*
X1354Y2D01*
X1353Y2D01*
X1352Y2D01*
X1351Y2D01*
X1350Y2D01*
X1349Y2D01*
X1348Y2D01*
X1347Y2D01*
X1346Y2D01*
X1345Y2D01*
X1344Y2D01*
X1343Y2D01*
X1342Y2D01*
X1341Y2D01*
X1340Y2D01*
X1339Y2D01*
X1338Y2D01*
X1337Y2D01*
X1336Y2D01*
X1335Y2D01*
X1334Y2D01*
X1333Y2D01*
X1332Y2D01*
X1331Y2D01*
X1330Y2D01*
X1329Y2D01*
X1328Y2D01*
X1327Y2D01*
X1326Y2D01*
X1325Y2D01*
X1324Y2D01*
X1323Y2D01*
X1322Y2D01*
X1321Y2D01*
X1320Y2D01*
X1319Y2D01*
X1318Y2D01*
X1317Y2D01*
X1316Y2D01*
X1315Y2D01*
X1314Y2D01*
X1313Y2D01*
X1312Y2D01*
X1311Y2D01*
X1310Y2D01*
X1309Y2D01*
X1308Y2D01*
X1307Y2D01*
X1306Y2D01*
X1305Y2D01*
X1304Y2D01*
X1303Y2D01*
X1302Y2D01*
X1301Y2D01*
X1300Y2D01*
X1299Y2D01*
X1298Y2D01*
X1297Y2D01*
X1296Y2D01*
X1295Y2D01*
X1294Y2D01*
X1293Y2D01*
X1292Y2D01*
X1291Y2D01*
X1290Y2D01*
X1289Y2D01*
X1288Y2D01*
X1287Y2D01*
X1286Y2D01*
X1285Y2D01*
X1284Y2D01*
X1283Y2D01*
X1282Y2D01*
X1281Y2D01*
X1280Y2D01*
X1279Y2D01*
X1278Y2D01*
X1277Y2D01*
X1276Y2D01*
X1275Y2D01*
X1274Y2D01*
X1273Y2D01*
X1272Y2D01*
X1271Y2D01*
X1270Y2D01*
X1269Y2D01*
X1268Y2D01*
X1267Y2D01*
X1266Y2D01*
X1265Y2D01*
X1264Y2D01*
X1263Y2D01*
X1262Y2D01*
X1261Y2D01*
X1260Y2D01*
X1259Y2D01*
X1258Y2D01*
X1257Y2D01*
X1256Y2D01*
X1255Y2D01*
X1254Y2D01*
X1253Y2D01*
X1252Y2D01*
X1251Y2D01*
X1250Y2D01*
X1249Y2D01*
X1248Y2D01*
X1247Y2D01*
X1246Y2D01*
X1245Y2D01*
X1244Y2D01*
X1243Y2D01*
X1242Y2D01*
X1241Y2D01*
X1240Y2D01*
X1239Y2D01*
X1238Y2D01*
X1237Y2D01*
X1236Y2D01*
X1235Y2D01*
X1234Y2D01*
X1233Y2D01*
X1232Y2D01*
X1231Y2D01*
X1230Y2D01*
X1229Y2D01*
X1228Y2D01*
X1227Y2D01*
X1226Y2D01*
X1225Y2D01*
X1224Y2D01*
X1223Y2D01*
X1222Y2D01*
X1221Y2D01*
X1220Y2D01*
X1219Y2D01*
X1218Y2D01*
X1217Y2D01*
X1216Y2D01*
X1215Y2D01*
X1214Y2D01*
X1213Y2D01*
X1212Y2D01*
X1211Y2D01*
X1210Y2D01*
X1209Y2D01*
X1208Y2D01*
X1207Y2D01*
X1206Y2D01*
X1205Y2D01*
X1204Y2D01*
X1203Y2D01*
X1202Y2D01*
X1201Y2D01*
X1200Y2D01*
X1199Y2D01*
X1198Y2D01*
X1197Y2D01*
X1196Y2D01*
X1195Y2D01*
X1194Y2D01*
X1193Y2D01*
X1192Y2D01*
X1191Y2D01*
X1190Y2D01*
X1189Y2D01*
X1188Y2D01*
X1187Y2D01*
X1186Y2D01*
X1185Y2D01*
X1184Y2D01*
X1183Y2D01*
X1182Y2D01*
X1181Y2D01*
X1180Y2D01*
X1179Y2D01*
X1178Y2D01*
X1177Y2D01*
X1176Y2D01*
X1175Y2D01*
X1174Y2D01*
X1173Y2D01*
X1172Y2D01*
X1171Y2D01*
X1170Y2D01*
X1169Y2D01*
X1168Y2D01*
X1167Y2D01*
X1166Y2D01*
X1165Y2D01*
X1164Y2D01*
X1163Y2D01*
X1162Y2D01*
X1161Y2D01*
X1160Y2D01*
X1159Y2D01*
X1158Y2D01*
X1157Y2D01*
X1156Y2D01*
X1155Y2D01*
X1154Y2D01*
X1153Y2D01*
X1152Y2D01*
X1151Y2D01*
X1150Y2D01*
X1149Y2D01*
X1148Y2D01*
X1147Y2D01*
X1146Y2D01*
X1145Y2D01*
X1144Y2D01*
X1143Y2D01*
X1142Y2D01*
X1141Y2D01*
X1140Y2D01*
X1139Y2D01*
X1138Y2D01*
X1137Y2D01*
X1136Y2D01*
X1135Y2D01*
X1134Y2D01*
X1133Y2D01*
X1132Y2D01*
X1131Y2D01*
X1130Y2D01*
X1129Y2D01*
X1128Y2D01*
X1127Y2D01*
X1126Y2D01*
X1125Y2D01*
X1124Y2D01*
X1123Y2D01*
X1122Y2D01*
X1121Y2D01*
X1120Y2D01*
X1119Y2D01*
X1118Y2D01*
X1117Y2D01*
X1116Y2D01*
X1115Y2D01*
X1114Y2D01*
X1113Y2D01*
X1112Y2D01*
X1111Y2D01*
X1110Y2D01*
X1109Y2D01*
X1108Y2D01*
X1107Y2D01*
X1106Y2D01*
X1105Y2D01*
X1104Y2D01*
X1103Y2D01*
X1102Y2D01*
X1101Y2D01*
X1100Y2D01*
X1099Y2D01*
X1098Y2D01*
X1097Y2D01*
X1096Y2D01*
X1095Y2D01*
X1094Y2D01*
X1093Y2D01*
X1092Y2D01*
X1091Y2D01*
X1090Y2D01*
X1089Y2D01*
X1088Y2D01*
X1087Y2D01*
X1086Y2D01*
X1085Y2D01*
X1084Y2D01*
X1083Y2D01*
X1082Y2D01*
X1081Y2D01*
X1080Y2D01*
X1079Y2D01*
X1078Y2D01*
X1077Y2D01*
X1076Y2D01*
X1075Y2D01*
X1074Y2D01*
X1073Y2D01*
X1072Y2D01*
X1071Y2D01*
X1070Y2D01*
X1069Y2D01*
X1068Y2D01*
X1067Y2D01*
X1066Y2D01*
X1065Y2D01*
X1064Y2D01*
X1063Y2D01*
X1062Y2D01*
X1061Y2D01*
X1060Y2D01*
X1059Y2D01*
X1058Y2D01*
X1057Y2D01*
X1056Y2D01*
X1055Y2D01*
X1054Y2D01*
X1053Y2D01*
X1052Y2D01*
X1051Y2D01*
X1050Y2D01*
X1049Y2D01*
X1048Y2D01*
X1047Y2D01*
X1046Y2D01*
X1045Y2D01*
X1044Y2D01*
X1043Y2D01*
X1042Y2D01*
X1041Y2D01*
X1040Y2D01*
X1039Y2D01*
X1038Y2D01*
X1037Y2D01*
X1036Y2D01*
X1035Y2D01*
X1034Y2D01*
X1033Y2D01*
X1032Y2D01*
X1031Y2D01*
X1030Y2D01*
X1029Y2D01*
X1028Y2D01*
X1027Y2D01*
X1026Y2D01*
X1025Y2D01*
X1024Y2D01*
X1023Y2D01*
X1022Y2D01*
X1021Y2D01*
X1020Y2D01*
X1019Y2D01*
X1018Y2D01*
X1017Y2D01*
X1016Y2D01*
X1015Y2D01*
X1014Y2D01*
X1013Y2D01*
X1012Y2D01*
X1011Y2D01*
X1010Y2D01*
X1009Y2D01*
X1008Y2D01*
X1007Y2D01*
X1006Y2D01*
X1005Y2D01*
X1004Y2D01*
X1003Y2D01*
X1002Y2D01*
X1001Y2D01*
X1000Y2D01*
X999Y2D01*
X998Y2D01*
X997Y2D01*
X996Y2D01*
X995Y2D01*
X994Y2D01*
X993Y2D01*
X992Y2D01*
X991Y2D01*
X990Y2D01*
X989Y2D01*
X988Y2D01*
X987Y2D01*
X986Y2D01*
X985Y2D01*
X984Y2D01*
X983Y2D01*
X982Y2D01*
X981Y2D01*
X980Y2D01*
X979Y2D01*
X978Y2D01*
X977Y2D01*
X976Y2D01*
X975Y2D01*
X974Y2D01*
X973Y2D01*
X972Y2D01*
X971Y2D01*
X970Y2D01*
X969Y2D01*
X968Y2D01*
X967Y2D01*
X966Y2D01*
X965Y2D01*
X964Y2D01*
X963Y2D01*
X962Y2D01*
X961Y2D01*
X960Y2D01*
X959Y2D01*
X958Y2D01*
X957Y2D01*
X956Y2D01*
X955Y2D01*
X954Y2D01*
X953Y2D01*
X952Y2D01*
X951Y2D01*
X950Y2D01*
X949Y2D01*
X948Y2D01*
X947Y2D01*
X946Y2D01*
X945Y2D01*
X944Y2D01*
X943Y2D01*
X942Y2D01*
X941Y2D01*
X940Y2D01*
X939Y2D01*
X938Y2D01*
X937Y2D01*
X936Y2D01*
X935Y2D01*
X934Y2D01*
X933Y2D01*
X932Y2D01*
X931Y2D01*
X930Y2D01*
X929Y2D01*
X928Y2D01*
X927Y2D01*
X926Y2D01*
X925Y2D01*
X924Y2D01*
X923Y2D01*
X922Y2D01*
X921Y2D01*
X920Y2D01*
X919Y2D01*
X918Y2D01*
X917Y2D01*
X916Y2D01*
X915Y2D01*
X914Y2D01*
X913Y2D01*
X912Y2D01*
X911Y2D01*
X910Y2D01*
X909Y2D01*
X908Y2D01*
X907Y2D01*
X906Y2D01*
X905Y2D01*
X904Y2D01*
X903Y2D01*
X902Y2D01*
X901Y2D01*
X900Y2D01*
X899Y2D01*
X898Y2D01*
X897Y2D01*
X896Y2D01*
X895Y2D01*
X894Y2D01*
X893Y2D01*
X892Y2D01*
X891Y2D01*
X890Y2D01*
X889Y2D01*
X888Y2D01*
X887Y2D01*
X886Y2D01*
X885Y2D01*
X884Y2D01*
X883Y2D01*
X882Y2D01*
X881Y2D01*
X880Y2D01*
X879Y2D01*
X878Y2D01*
X877Y2D01*
X876Y2D01*
X875Y2D01*
X874Y2D01*
X873Y2D01*
X872Y2D01*
X871Y2D01*
X870Y2D01*
X869Y2D01*
X868Y2D01*
X867Y2D01*
X866Y2D01*
X865Y2D01*
X864Y2D01*
X863Y2D01*
X862Y2D01*
X861Y2D01*
X860Y2D01*
X859Y2D01*
X858Y2D01*
X857Y2D01*
X856Y2D01*
X855Y2D01*
X854Y2D01*
X853Y2D01*
X852Y2D01*
X851Y2D01*
X850Y2D01*
X849Y2D01*
X848Y2D01*
X847Y2D01*
X846Y2D01*
X845Y2D01*
X844Y2D01*
X843Y2D01*
X842Y2D01*
X841Y2D01*
X840Y2D01*
X839Y2D01*
X838Y2D01*
X837Y2D01*
X836Y2D01*
X835Y2D01*
X834Y2D01*
X833Y2D01*
X832Y2D01*
X831Y2D01*
X830Y2D01*
X829Y2D01*
X828Y2D01*
X827Y2D01*
X826Y2D01*
X825Y2D01*
X824Y2D01*
X823Y2D01*
X822Y2D01*
X821Y2D01*
X820Y2D01*
X819Y2D01*
X818Y2D01*
X817Y2D01*
X816Y2D01*
X815Y2D01*
X814Y2D01*
X813Y2D01*
X812Y2D01*
X811Y2D01*
X810Y2D01*
X809Y2D01*
X808Y2D01*
X807Y2D01*
X806Y2D01*
X805Y2D01*
X804Y2D01*
X803Y2D01*
X802Y2D01*
X801Y2D01*
X800Y2D01*
X799Y2D01*
X798Y2D01*
X797Y2D01*
X796Y2D01*
X795Y2D01*
X794Y2D01*
X793Y2D01*
X792Y2D01*
X791Y2D01*
X790Y2D01*
X789Y2D01*
X788Y2D01*
X787Y2D01*
X786Y2D01*
X785Y2D01*
X784Y2D01*
X783Y2D01*
X782Y2D01*
X781Y2D01*
X780Y2D01*
X779Y2D01*
X778Y2D01*
X777Y2D01*
X776Y2D01*
X775Y2D01*
X774Y2D01*
X773Y2D01*
X772Y2D01*
X771Y2D01*
X770Y2D01*
X769Y2D01*
X768Y2D01*
X767Y2D01*
X766Y2D01*
X765Y2D01*
X764Y2D01*
X763Y2D01*
X762Y2D01*
X761Y2D01*
X760Y2D01*
X759Y2D01*
X758Y2D01*
X757Y2D01*
X756Y2D01*
X755Y2D01*
X754Y2D01*
X753Y2D01*
X752Y2D01*
X751Y2D01*
X750Y2D01*
X749Y2D01*
X748Y2D01*
X747Y2D01*
X746Y2D01*
X745Y2D01*
X744Y2D01*
X743Y2D01*
X742Y2D01*
X741Y2D01*
X740Y2D01*
X739Y2D01*
X738Y2D01*
X737Y2D01*
X736Y2D01*
X735Y2D01*
X734Y2D01*
X733Y2D01*
X732Y2D01*
X731Y2D01*
X730Y2D01*
X729Y2D01*
X728Y2D01*
X727Y2D01*
X726Y2D01*
X725Y2D01*
X724Y2D01*
X723Y2D01*
X722Y2D01*
X721Y2D01*
X720Y2D01*
X719Y2D01*
X718Y2D01*
X717Y2D01*
X716Y2D01*
X715Y2D01*
X714Y2D01*
X713Y2D01*
X712Y2D01*
X711Y2D01*
X710Y2D01*
X709Y2D01*
X708Y2D01*
X707Y2D01*
X706Y2D01*
X705Y2D01*
X704Y2D01*
X703Y2D01*
X702Y2D01*
X701Y2D01*
X700Y2D01*
X699Y2D01*
X698Y2D01*
X697Y2D01*
X696Y2D01*
X695Y2D01*
X694Y2D01*
X693Y2D01*
X692Y2D01*
X691Y2D01*
X690Y2D01*
X689Y2D01*
X688Y2D01*
X687Y2D01*
X686Y2D01*
X685Y2D01*
X684Y2D01*
X683Y2D01*
X682Y2D01*
X681Y2D01*
X680Y2D01*
X679Y2D01*
X678Y2D01*
X677Y2D01*
X676Y2D01*
X675Y2D01*
X674Y2D01*
X673Y2D01*
X672Y2D01*
X671Y2D01*
X670Y2D01*
X669Y2D01*
X668Y2D01*
X667Y2D01*
X666Y2D01*
X665Y2D01*
X664Y2D01*
X663Y2D01*
X662Y2D01*
X661Y2D01*
X660Y2D01*
X659Y2D01*
X658Y2D01*
X657Y2D01*
X656Y2D01*
X655Y2D01*
X654Y2D01*
X653Y2D01*
X652Y2D01*
X651Y2D01*
X650Y2D01*
X649Y2D01*
X648Y2D01*
X647Y2D01*
X646Y2D01*
X645Y2D01*
X644Y2D01*
X643Y2D01*
X642Y2D01*
X641Y2D01*
X640Y2D01*
X639Y2D01*
X638Y2D01*
X637Y2D01*
X636Y2D01*
X635Y2D01*
X634Y2D01*
X633Y2D01*
X632Y2D01*
X631Y2D01*
X630Y2D01*
X629Y2D01*
X628Y2D01*
X627Y2D01*
X626Y2D01*
X625Y2D01*
X624Y2D01*
X623Y2D01*
X622Y2D01*
X621Y2D01*
X620Y2D01*
X619Y2D01*
X618Y2D01*
X617Y2D01*
X616Y2D01*
X615Y2D01*
X614Y2D01*
X613Y2D01*
X612Y2D01*
X611Y2D01*
X610Y2D01*
X609Y2D01*
X608Y2D01*
X607Y2D01*
X606Y2D01*
X605Y2D01*
X604Y2D01*
X603Y2D01*
X602Y2D01*
X601Y2D01*
X600Y2D01*
X599Y2D01*
X598Y2D01*
X597Y2D01*
X596Y2D01*
X595Y2D01*
X594Y2D01*
X593Y2D01*
X592Y2D01*
X591Y2D01*
X590Y2D01*
X589Y2D01*
X588Y2D01*
X587Y2D01*
X586Y2D01*
X585Y2D01*
X584Y2D01*
X583Y2D01*
X582Y2D01*
X581Y2D01*
X580Y2D01*
X579Y2D01*
X578Y2D01*
X577Y2D01*
X576Y2D01*
X575Y2D01*
X574Y2D01*
X573Y2D01*
X572Y2D01*
X571Y2D01*
X570Y2D01*
X569Y2D01*
X568Y2D01*
X567Y2D01*
X566Y2D01*
X565Y2D01*
X564Y2D01*
X563Y2D01*
X562Y2D01*
X561Y2D01*
X560Y2D01*
X559Y2D01*
X558Y2D01*
X557Y2D01*
X556Y2D01*
X555Y2D01*
X554Y2D01*
X553Y2D01*
X552Y2D01*
X551Y2D01*
X550Y2D01*
X549Y2D01*
X548Y2D01*
X547Y2D01*
X546Y2D01*
X545Y2D01*
X544Y2D01*
X543Y2D01*
X542Y2D01*
X541Y2D01*
X540Y2D01*
X539Y2D01*
X538Y2D01*
X537Y2D01*
X536Y2D01*
X535Y2D01*
X534Y2D01*
X533Y2D01*
X532Y2D01*
X531Y2D01*
X530Y2D01*
X529Y2D01*
X528Y2D01*
X527Y2D01*
X526Y2D01*
X525Y2D01*
X524Y2D01*
X523Y2D01*
X522Y2D01*
X521Y2D01*
X520Y2D01*
X519Y2D01*
X518Y2D01*
X517Y2D01*
X516Y2D01*
X515Y2D01*
X514Y2D01*
X513Y2D01*
X512Y2D01*
X511Y2D01*
X510Y2D01*
X509Y2D01*
X508Y2D01*
X507Y2D01*
X506Y2D01*
X505Y2D01*
X504Y2D01*
X503Y2D01*
X502Y2D01*
X501Y2D01*
X500Y2D01*
X499Y2D01*
X498Y2D01*
X497Y2D01*
X496Y2D01*
X495Y2D01*
X494Y2D01*
X493Y2D01*
X492Y2D01*
X491Y2D01*
X490Y2D01*
X489Y2D01*
X488Y2D01*
X487Y2D01*
X486Y2D01*
X485Y2D01*
X484Y2D01*
X483Y2D01*
X482Y2D01*
X481Y2D01*
X480Y2D01*
X479Y2D01*
X478Y2D01*
X477Y2D01*
X476Y2D01*
X475Y2D01*
X474Y2D01*
X473Y2D01*
X472Y2D01*
X471Y2D01*
X470Y2D01*
X469Y2D01*
X468Y2D01*
X467Y2D01*
X466Y2D01*
X465Y2D01*
X464Y2D01*
X463Y2D01*
X462Y2D01*
X461Y2D01*
X460Y2D01*
X459Y2D01*
X458Y2D01*
X457Y2D01*
X456Y2D01*
X455Y2D01*
X454Y2D01*
X453Y2D01*
X452Y2D01*
X451Y2D01*
X450Y2D01*
X449Y2D01*
X448Y2D01*
X447Y2D01*
X446Y2D01*
X445Y2D01*
X444Y2D01*
X443Y2D01*
X442Y2D01*
X441Y2D01*
X440Y2D01*
X439Y2D01*
X438Y2D01*
X437Y2D01*
X436Y2D01*
X435Y2D01*
X434Y2D01*
X433Y2D01*
X432Y2D01*
X431Y2D01*
X430Y2D01*
X429Y2D01*
X428Y2D01*
X427Y2D01*
X426Y2D01*
X425Y2D01*
X424Y2D01*
X423Y2D01*
X422Y2D01*
X421Y2D01*
X420Y2D01*
X419Y2D01*
X418Y2D01*
X417Y2D01*
X416Y2D01*
X415Y2D01*
X414Y2D01*
X413Y2D01*
X412Y2D01*
X411Y2D01*
X410Y2D01*
X409Y2D01*
X408Y2D01*
X407Y2D01*
X406Y2D01*
X405Y2D01*
X404Y2D01*
X403Y2D01*
X402Y2D01*
X401Y2D01*
X400Y2D01*
X399Y2D01*
X398Y2D01*
X397Y2D01*
X396Y2D01*
X395Y2D01*
X394Y2D01*
X393Y2D01*
X392Y2D01*
X391Y2D01*
X390Y2D01*
X389Y2D01*
X388Y2D01*
X387Y2D01*
X386Y2D01*
X385Y2D01*
X384Y2D01*
X383Y2D01*
X382Y2D01*
X381Y2D01*
X380Y2D01*
X379Y2D01*
X378Y2D01*
X377Y2D01*
X376Y2D01*
X375Y2D01*
X374Y2D01*
X373Y2D01*
X372Y2D01*
X371Y2D01*
X370Y2D01*
X369Y2D01*
X368Y2D01*
X367Y2D01*
X366Y2D01*
X365Y2D01*
X364Y2D01*
X363Y2D01*
X362Y2D01*
X361Y2D01*
X360Y2D01*
X359Y2D01*
X358Y2D01*
X357Y2D01*
X356Y2D01*
X355Y2D01*
X354Y2D01*
X353Y2D01*
X352Y2D01*
X351Y2D01*
X350Y2D01*
X349Y2D01*
X348Y2D01*
X347Y2D01*
X346Y2D01*
X345Y2D01*
X344Y2D01*
X343Y2D01*
X342Y2D01*
X341Y2D01*
X340Y2D01*
X339Y2D01*
X338Y2D01*
X337Y2D01*
X336Y2D01*
X335Y2D01*
X334Y2D01*
X333Y2D01*
X332Y2D01*
X331Y2D01*
X330Y2D01*
X329Y2D01*
X328Y2D01*
X327Y2D01*
X326Y2D01*
X325Y2D01*
X324Y2D01*
X323Y2D01*
X322Y2D01*
X321Y2D01*
X320Y2D01*
X319Y2D01*
X318Y2D01*
X317Y2D01*
X316Y2D01*
X315Y2D01*
X314Y2D01*
X313Y2D01*
X312Y2D01*
X311Y2D01*
X310Y2D01*
X309Y2D01*
X308Y2D01*
X307Y2D01*
X306Y2D01*
X305Y2D01*
X304Y2D01*
X303Y2D01*
X302Y2D01*
X301Y2D01*
X300Y2D01*
X299Y2D01*
X298Y2D01*
X297Y2D01*
X296Y2D01*
X295Y2D01*
X294Y2D01*
X293Y2D01*
X292Y2D01*
X291Y2D01*
X290Y2D01*
X289Y2D01*
X288Y2D01*
X287Y2D01*
X286Y2D01*
X285Y2D01*
X284Y2D01*
X283Y2D01*
X282Y2D01*
X281Y2D01*
X280Y2D01*
X279Y2D01*
X278Y2D01*
X277Y2D01*
X276Y2D01*
X275Y2D01*
X274Y2D01*
X273Y2D01*
X272Y2D01*
X271Y2D01*
X270Y2D01*
X269Y2D01*
X268Y2D01*
X267Y2D01*
X266Y2D01*
X265Y2D01*
X264Y2D01*
X263Y2D01*
X262Y2D01*
X261Y2D01*
X260Y2D01*
X259Y2D01*
X258Y2D01*
X257Y2D01*
X256Y2D01*
X255Y2D01*
X254Y2D01*
X253Y2D01*
X252Y2D01*
X251Y2D01*
X250Y2D01*
X249Y2D01*
X248Y2D01*
X247Y2D01*
X246Y2D01*
X245Y2D01*
X244Y2D01*
X243Y2D01*
X242Y2D01*
X241Y2D01*
X240Y2D01*
X239Y2D01*
X238Y2D01*
X237Y2D01*
X236Y2D01*
X235Y2D01*
X234Y2D01*
X233Y2D01*
X232Y2D01*
X231Y2D01*
X230Y2D01*
X229Y2D01*
X228Y2D01*
X227Y2D01*
X226Y2D01*
X225Y2D01*
X224Y2D01*
X223Y2D01*
X222Y2D01*
X221Y2D01*
X220Y2D01*
X219Y2D01*
X218Y2D01*
X217Y2D01*
X216Y2D01*
X215Y2D01*
X214Y2D01*
X213Y2D01*
X212Y2D01*
X211Y2D01*
X210Y2D01*
X209Y2D01*
X208Y2D01*
X207Y2D01*
X206Y2D01*
X205Y2D01*
X204Y2D01*
X203Y2D01*
X202Y2D01*
X201Y2D01*
X200Y2D01*
X199Y2D01*
X198Y2D01*
X197Y2D01*
X196Y2D01*
X195Y2D01*
X194Y2D01*
X193Y2D01*
X192Y2D01*
X191Y2D01*
X190Y2D01*
X189Y2D01*
X188Y2D01*
X187Y2D01*
X186Y2D01*
X185Y2D01*
X184Y2D01*
X183Y2D01*
X182Y2D01*
X181Y2D01*
X180Y2D01*
X179Y2D01*
X178Y2D01*
X177Y2D01*
X176Y2D01*
X175Y2D01*
X174Y2D01*
X173Y2D01*
X172Y2D01*
X171Y2D01*
X170Y2D01*
X169Y2D01*
X168Y2D01*
X167Y2D01*
X166Y2D01*
X165Y2D01*
X164Y2D01*
X163Y2D01*
X162Y2D01*
X161Y2D01*
X160Y2D01*
X159Y2D01*
X158Y2D01*
X157Y2D01*
X156Y2D01*
X155Y2D01*
X154Y2D01*
X153Y2D01*
X152Y2D01*
X151Y2D01*
X150Y2D01*
X149Y2D01*
X148Y2D01*
X147Y2D01*
X146Y2D01*
X145Y2D01*
X144Y2D01*
X143Y2D01*
X142Y2D01*
X141Y2D01*
X140Y2D01*
X139Y2D01*
X138Y2D01*
X137Y2D01*
X136Y2D01*
X135Y2D01*
X134Y2D01*
X133Y2D01*
X132Y2D01*
X131Y2D01*
X130Y2D01*
X129Y2D01*
X128Y2D01*
X127Y2D01*
X126Y2D01*
X125Y2D01*
X124Y2D01*
X123Y2D01*
X122Y2D01*
X121Y2D01*
X120Y2D01*
X119Y2D01*
X118Y2D01*
X117Y2D01*
X116Y2D01*
X115Y2D01*
X114Y2D01*
X113Y2D01*
X112Y2D01*
X111Y2D01*
X110Y2D01*
X109Y2D01*
X108Y2D01*
X107Y2D01*
X106Y3D01*
X105Y3D01*
X104Y3D01*
X103Y3D01*
X102Y3D01*
X101Y3D01*
X100Y3D01*
X99Y3D01*
X98Y4D01*
X97Y4D01*
X96Y4D01*
X95Y4D01*
X94Y4D01*
X93Y5D01*
X92Y5D01*
X91Y5D01*
X90Y5D01*
X89Y5D01*
X88Y6D01*
X87Y6D01*
X86Y6D01*
X85Y7D01*
X84Y7D01*
X83Y7D01*
X82Y7D01*
X81Y8D01*
X80Y8D01*
X79Y8D01*
X78Y9D01*
X77Y9D01*
X76Y9D01*
X75Y10D01*
X74Y10D01*
X73Y11D01*
X72Y11D01*
X71Y11D01*
X70Y12D01*
X69Y12D01*
X68Y13D01*
X67Y13D01*
X66Y14D01*
X65Y14D01*
X64Y15D01*
X63Y15D01*
X62Y16D01*
X61Y16D01*
X60Y17D01*
X59Y17D01*
X58Y18D01*
X57Y19D01*
X56Y19D01*
X55Y20D01*
X54Y20D01*
X53Y21D01*
X52Y22D01*
X51Y22D01*
X50Y23D01*
X49Y24D01*
X48Y25D01*
X47Y25D01*
X46Y26D01*
X45Y27D01*
X44Y28D01*
X43Y28D01*
X42Y29D01*
X41Y30D01*
X40Y31D01*
X39Y32D01*
X38Y33D01*
X37Y34D01*
X36Y35D01*
X35Y36D01*
X34Y36D01*
X34Y37D01*
X33Y38D01*
X32Y39D01*
X31Y40D01*
X30Y41D01*
X29Y42D01*
X28Y43D01*
X27Y44D01*
X26Y45D01*
X26Y46D01*
X25Y47D01*
X24Y48D01*
X23Y49D01*
X23Y50D01*
X22Y51D01*
X21Y52D01*
X20Y53D01*
X20Y54D01*
X19Y55D01*
X18Y56D01*
X18Y57D01*
X17Y58D01*
X17Y59D01*
X16Y60D01*
X15Y61D01*
X15Y62D01*
X14Y63D01*
X14Y64D01*
X13Y65D01*
X13Y66D01*
X12Y67D01*
X12Y68D01*
X11Y69D01*
X11Y70D01*
X10Y71D01*
X10Y72D01*
X9Y73D01*
X9Y75D01*
X8Y76D01*
X8Y77D01*
X7Y78D01*
X7Y80D01*
X6Y81D01*
X6Y83D01*
X5Y84D01*
X5Y87D01*
X4Y88D01*
X4Y90D01*
X3Y91D01*
X3Y95D01*
X2Y96D01*
X2Y100D01*
X1Y101D01*
X1Y108D01*
X0Y109D01*
X0Y2098D01*
X1Y2099D01*
X1Y2106D01*
X2Y2107D01*
X2Y2111D01*
X3Y2112D01*
X3Y2116D01*
X4Y2117D01*
X4Y2119D01*
X5Y2120D01*
X5Y2123D01*
X6Y2124D01*
X6Y2126D01*
X7Y2127D01*
X7Y2129D01*
X8Y2130D01*
X8Y2131D01*
X9Y2132D01*
X9Y2134D01*
X10Y2135D01*
X10Y2136D01*
X11Y2137D01*
X11Y2138D01*
X12Y2139D01*
X12Y2140D01*
X13Y2141D01*
X13Y2142D01*
X14Y2143D01*
X14Y2144D01*
X15Y2145D01*
X15Y2146D01*
X16Y2147D01*
X17Y2148D01*
X17Y2149D01*
X18Y2150D01*
X18Y2151D01*
X19Y2152D01*
X20Y2153D01*
X20Y2154D01*
X21Y2155D01*
X22Y2156D01*
X23Y2157D01*
X23Y2158D01*
X24Y2159D01*
X25Y2160D01*
X26Y2161D01*
X26Y2162D01*
X27Y2163D01*
X28Y2164D01*
X29Y2165D01*
X30Y2166D01*
X31Y2167D01*
X32Y2168D01*
X33Y2169D01*
X33Y2170D01*
X34Y2171D01*
X35Y2172D01*
X36Y2172D01*
X37Y2173D01*
X38Y2174D01*
X39Y2175D01*
X40Y2176D01*
X41Y2177D01*
X42Y2178D01*
X43Y2179D01*
X44Y2179D01*
X45Y2180D01*
X46Y2181D01*
X47Y2182D01*
X48Y2182D01*
X49Y2183D01*
X50Y2184D01*
X51Y2185D01*
X52Y2185D01*
X53Y2186D01*
X54Y2187D01*
X55Y2187D01*
X56Y2188D01*
X57Y2188D01*
X58Y2189D01*
X59Y2190D01*
X60Y2190D01*
X61Y2191D01*
X62Y2191D01*
X63Y2192D01*
X64Y2192D01*
X65Y2193D01*
X66Y2193D01*
X67Y2194D01*
X68Y2194D01*
X69Y2195D01*
X70Y2195D01*
X71Y2196D01*
X72Y2196D01*
X73Y2196D01*
X74Y2197D01*
X75Y2197D01*
X76Y2198D01*
X77Y2198D01*
X78Y2198D01*
X79Y2199D01*
X80Y2199D01*
X81Y2199D01*
X82Y2200D01*
X83Y2200D01*
X84Y2200D01*
X85Y2200D01*
X86Y2201D01*
X87Y2201D01*
X88Y2201D01*
X89Y2202D01*
X90Y2202D01*
X91Y2202D01*
X92Y2202D01*
X93Y2202D01*
X94Y2203D01*
X95Y2203D01*
X96Y2203D01*
X97Y2203D01*
X98Y2203D01*
X99Y2204D01*
X100Y2204D01*
X101Y2204D01*
X102Y2204D01*
X103Y2204D01*
X104Y2204D01*
X105Y2204D01*
X106Y2204D01*
X107Y2205D01*
D02*
X1542Y1831D02*
X1543Y1831D01*
X1544Y1831D01*
X1545Y1831D01*
X1546Y1831D01*
X1547Y1831D01*
X1548Y1831D01*
X1549Y1831D01*
X1550Y1831D01*
X1551Y1831D01*
X1552Y1831D01*
X1553Y1831D01*
X1554Y1831D01*
X1555Y1831D01*
X1556Y1831D01*
X1557Y1831D01*
X1558Y1831D01*
X1559Y1831D01*
X1560Y1831D01*
X1561Y1831D01*
X1562Y1831D01*
X1563Y1831D01*
X1564Y1831D01*
X1565Y1831D01*
X1566Y1831D01*
X1567Y1831D01*
X1568Y1831D01*
X1569Y1831D01*
X1570Y1831D01*
X1571Y1831D01*
X1572Y1831D01*
X1573Y1831D01*
X1574Y1831D01*
X1575Y1831D01*
X1576Y1831D01*
X1577Y1831D01*
X1578Y1831D01*
X1579Y1831D01*
X1580Y1831D01*
X1581Y1831D01*
X1582Y1831D01*
X1583Y1831D01*
X1584Y1830D01*
X1585Y1830D01*
X1586Y1830D01*
X1587Y1830D01*
X1588Y1830D01*
X1589Y1830D01*
X1590Y1830D01*
X1591Y1830D01*
X1592Y1830D01*
X1593Y1830D01*
X1594Y1830D01*
X1595Y1830D01*
X1596Y1830D01*
X1597Y1829D01*
X1598Y1829D01*
X1599Y1829D01*
X1600Y1829D01*
X1601Y1829D01*
X1602Y1829D01*
X1603Y1829D01*
X1604Y1829D01*
X1605Y1829D01*
X1606Y1828D01*
X1607Y1828D01*
X1608Y1828D01*
X1609Y1828D01*
X1610Y1828D01*
X1611Y1828D01*
X1612Y1828D01*
X1613Y1828D01*
X1614Y1827D01*
X1615Y1827D01*
X1616Y1827D01*
X1617Y1827D01*
X1618Y1827D01*
X1619Y1827D01*
X1620Y1827D01*
X1621Y1826D01*
X1622Y1826D01*
X1623Y1826D01*
X1624Y1826D01*
X1625Y1826D01*
X1626Y1826D01*
X1627Y1825D01*
X1628Y1825D01*
X1629Y1825D01*
X1630Y1825D01*
X1631Y1825D01*
X1632Y1824D01*
X1633Y1824D01*
X1634Y1824D01*
X1635Y1824D01*
X1636Y1824D01*
X1637Y1823D01*
X1638Y1823D01*
X1639Y1823D01*
X1640Y1823D01*
X1641Y1822D01*
X1642Y1822D01*
X1643Y1822D01*
X1644Y1822D01*
X1645Y1822D01*
X1646Y1821D01*
X1647Y1821D01*
X1648Y1821D01*
X1649Y1821D01*
X1650Y1820D01*
X1651Y1820D01*
X1652Y1820D01*
X1653Y1820D01*
X1654Y1819D01*
X1655Y1819D01*
X1656Y1819D01*
X1657Y1819D01*
X1658Y1818D01*
X1659Y1818D01*
X1660Y1818D01*
X1661Y1817D01*
X1662Y1817D01*
X1663Y1817D01*
X1664Y1817D01*
X1665Y1816D01*
X1666Y1816D01*
X1667Y1816D01*
X1668Y1815D01*
X1669Y1815D01*
X1670Y1815D01*
X1671Y1815D01*
X1672Y1814D01*
X1673Y1814D01*
X1674Y1814D01*
X1675Y1813D01*
X1676Y1813D01*
X1677Y1813D01*
X1678Y1812D01*
X1679Y1812D01*
X1680Y1811D01*
X1681Y1811D01*
X1682Y1811D01*
X1683Y1810D01*
X1684Y1810D01*
X1685Y1810D01*
X1686Y1809D01*
X1687Y1809D01*
X1688Y1809D01*
X1689Y1808D01*
X1690Y1808D01*
X1691Y1808D01*
X1692Y1807D01*
X1693Y1807D01*
X1694Y1806D01*
X1695Y1806D01*
X1696Y1806D01*
X1697Y1805D01*
X1698Y1805D01*
X1699Y1804D01*
X1700Y1804D01*
X1701Y1804D01*
X1702Y1803D01*
X1703Y1803D01*
X1704Y1802D01*
X1705Y1802D01*
X1706Y1801D01*
X1707Y1801D01*
X1708Y1801D01*
X1709Y1800D01*
X1710Y1800D01*
X1711Y1799D01*
X1712Y1799D01*
X1713Y1798D01*
X1714Y1798D01*
X1715Y1797D01*
X1716Y1797D01*
X1717Y1797D01*
X1718Y1796D01*
X1719Y1796D01*
X1720Y1795D01*
X1721Y1795D01*
X1722Y1794D01*
X1723Y1794D01*
X1724Y1793D01*
X1725Y1793D01*
X1726Y1792D01*
X1727Y1792D01*
X1728Y1791D01*
X1729Y1791D01*
X1730Y1790D01*
X1731Y1790D01*
X1732Y1789D01*
X1733Y1788D01*
X1734Y1788D01*
X1735Y1787D01*
X1736Y1787D01*
X1737Y1786D01*
X1738Y1786D01*
X1739Y1785D01*
X1740Y1785D01*
X1741Y1784D01*
X1742Y1783D01*
X1743Y1783D01*
X1744Y1782D01*
X1745Y1782D01*
X1746Y1781D01*
X1747Y1781D01*
X1748Y1780D01*
X1749Y1779D01*
X1750Y1779D01*
X1751Y1778D01*
X1752Y1778D01*
X1753Y1777D01*
X1754Y1776D01*
X1755Y1776D01*
X1756Y1775D01*
X1757Y1774D01*
X1758Y1774D01*
X1759Y1773D01*
X1760Y1772D01*
X1761Y1772D01*
X1762Y1771D01*
X1763Y1771D01*
X1764Y1770D01*
X1765Y1769D01*
X1766Y1769D01*
X1767Y1768D01*
X1768Y1767D01*
X1769Y1766D01*
X1770Y1766D01*
X1771Y1765D01*
X1772Y1764D01*
X1773Y1764D01*
X1774Y1763D01*
X1775Y1762D01*
X1776Y1761D01*
X1777Y1761D01*
X1778Y1760D01*
X1779Y1759D01*
X1780Y1759D01*
X1781Y1758D01*
X1782Y1757D01*
X1783Y1756D01*
X1784Y1755D01*
X1785Y1755D01*
X1786Y1754D01*
X1787Y1753D01*
X1788Y1752D01*
X1789Y1751D01*
X1790Y1751D01*
X1791Y1750D01*
X1792Y1749D01*
X1793Y1748D01*
X1794Y1747D01*
X1795Y1747D01*
X1796Y1746D01*
X1797Y1745D01*
X1798Y1744D01*
X1799Y1743D01*
X1800Y1742D01*
X1801Y1741D01*
X1802Y1740D01*
X1803Y1740D01*
X1804Y1739D01*
X1805Y1738D01*
X1806Y1737D01*
X1807Y1736D01*
X1808Y1735D01*
X1809Y1734D01*
X1810Y1733D01*
X1811Y1732D01*
X1812Y1731D01*
X1813Y1730D01*
X1814Y1729D01*
X1815Y1728D01*
X1816Y1727D01*
X1817Y1727D01*
X1818Y1726D01*
X1819Y1725D01*
X1820Y1724D01*
X1820Y1723D01*
X1821Y1722D01*
X1822Y1721D01*
X1823Y1720D01*
X1824Y1719D01*
X1825Y1718D01*
X1826Y1717D01*
X1827Y1716D01*
X1828Y1715D01*
X1829Y1714D01*
X1830Y1713D01*
X1831Y1712D01*
X1832Y1711D01*
X1833Y1710D01*
X1834Y1709D01*
X1834Y1708D01*
X1835Y1707D01*
X1836Y1706D01*
X1837Y1705D01*
X1838Y1704D01*
X1839Y1703D01*
X1840Y1702D01*
X1840Y1701D01*
X1841Y1700D01*
X1842Y1699D01*
X1843Y1698D01*
X1844Y1697D01*
X1844Y1696D01*
X1845Y1695D01*
X1846Y1694D01*
X1847Y1693D01*
X1848Y1692D01*
X1848Y1691D01*
X1849Y1690D01*
X1850Y1689D01*
X1851Y1688D01*
X1852Y1687D01*
X1852Y1686D01*
X1853Y1685D01*
X1854Y1684D01*
X1854Y1683D01*
X1855Y1682D01*
X1856Y1681D01*
X1857Y1680D01*
X1857Y1679D01*
X1858Y1678D01*
X1859Y1677D01*
X1859Y1676D01*
X1860Y1675D01*
X1861Y1674D01*
X1862Y1673D01*
X1862Y1672D01*
X1863Y1671D01*
X1864Y1670D01*
X1864Y1669D01*
X1865Y1668D01*
X1865Y1667D01*
X1866Y1666D01*
X1867Y1665D01*
X1867Y1664D01*
X1868Y1663D01*
X1869Y1662D01*
X1869Y1661D01*
X1870Y1660D01*
X1871Y1659D01*
X1871Y1658D01*
X1872Y1657D01*
X1872Y1656D01*
X1873Y1655D01*
X1874Y1654D01*
X1874Y1653D01*
X1875Y1652D01*
X1875Y1651D01*
X1876Y1650D01*
X1876Y1649D01*
X1877Y1648D01*
X1878Y1647D01*
X1878Y1646D01*
X1879Y1645D01*
X1879Y1644D01*
X1880Y1643D01*
X1880Y1642D01*
X1881Y1641D01*
X1882Y1640D01*
X1882Y1639D01*
X1883Y1638D01*
X1883Y1637D01*
X1884Y1636D01*
X1884Y1635D01*
X1885Y1634D01*
X1885Y1633D01*
X1886Y1632D01*
X1886Y1631D01*
X1887Y1630D01*
X1887Y1629D01*
X1888Y1628D01*
X1888Y1627D01*
X1889Y1626D01*
X1889Y1625D01*
X1890Y1624D01*
X1890Y1622D01*
X1891Y1621D01*
X1891Y1620D01*
X1892Y1619D01*
X1892Y1618D01*
X1893Y1617D01*
X1893Y1616D01*
X1894Y1615D01*
X1894Y1614D01*
X1895Y1613D01*
X1895Y1611D01*
X1896Y1610D01*
X1896Y1609D01*
X1897Y1608D01*
X1897Y1606D01*
X1898Y1605D01*
X1898Y1604D01*
X1899Y1603D01*
X1899Y1601D01*
X1900Y1600D01*
X1900Y1599D01*
X1901Y1598D01*
X1901Y1596D01*
X1902Y1595D01*
X1902Y1594D01*
X1903Y1593D01*
X1903Y1591D01*
X1904Y1590D01*
X1904Y1588D01*
X1905Y1587D01*
X1905Y1585D01*
X1906Y1584D01*
X1906Y1582D01*
X1907Y1581D01*
X1907Y1579D01*
X1908Y1578D01*
X1908Y1575D01*
X1909Y1574D01*
X1909Y1572D01*
X1910Y1571D01*
X1910Y1568D01*
X1911Y1567D01*
X1911Y1565D01*
X1912Y1564D01*
X1912Y1561D01*
X1913Y1560D01*
X1913Y1557D01*
X1914Y1556D01*
X1914Y1553D01*
X1915Y1552D01*
X1915Y1549D01*
X1916Y1548D01*
X1916Y1544D01*
X1917Y1543D01*
X1917Y1539D01*
X1918Y1538D01*
X1918Y1534D01*
X1919Y1533D01*
X1919Y1528D01*
X1920Y1527D01*
X1920Y1521D01*
X1921Y1520D01*
X1921Y1514D01*
X1922Y1513D01*
X1922Y1505D01*
X1923Y1504D01*
X1923Y1491D01*
X1924Y1490D01*
X1924Y1449D01*
X1923Y1448D01*
X1923Y1435D01*
X1922Y1434D01*
X1922Y1426D01*
X1921Y1425D01*
X1921Y1419D01*
X1920Y1418D01*
X1920Y1412D01*
X1919Y1411D01*
X1919Y1406D01*
X1918Y1405D01*
X1918Y1401D01*
X1917Y1400D01*
X1917Y1396D01*
X1916Y1395D01*
X1916Y1391D01*
X1915Y1390D01*
X1915Y1387D01*
X1914Y1386D01*
X1914Y1383D01*
X1913Y1382D01*
X1913Y1379D01*
X1912Y1378D01*
X1912Y1375D01*
X1911Y1374D01*
X1911Y1372D01*
X1910Y1371D01*
X1910Y1368D01*
X1909Y1367D01*
X1909Y1365D01*
X1908Y1364D01*
X1908Y1361D01*
X1907Y1360D01*
X1907Y1358D01*
X1906Y1357D01*
X1906Y1355D01*
X1905Y1354D01*
X1905Y1352D01*
X1904Y1351D01*
X1904Y1349D01*
X1903Y1348D01*
X1903Y1346D01*
X1902Y1345D01*
X1902Y1344D01*
X1901Y1343D01*
X1901Y1341D01*
X1900Y1340D01*
X1900Y1339D01*
X1899Y1338D01*
X1899Y1336D01*
X1898Y1335D01*
X1898Y1334D01*
X1897Y1333D01*
X1897Y1331D01*
X1896Y1330D01*
X1896Y1329D01*
X1895Y1328D01*
X1895Y1326D01*
X1894Y1325D01*
X1894Y1324D01*
X1893Y1323D01*
X1893Y1322D01*
X1892Y1321D01*
X1892Y1320D01*
X1891Y1319D01*
X1891Y1318D01*
X1890Y1317D01*
X1890Y1315D01*
X1889Y1314D01*
X1889Y1313D01*
X1888Y1312D01*
X1888Y1311D01*
X1887Y1310D01*
X1887Y1309D01*
X1886Y1308D01*
X1886Y1307D01*
X1885Y1306D01*
X1885Y1305D01*
X1884Y1304D01*
X1884Y1303D01*
X1883Y1302D01*
X1883Y1301D01*
X1882Y1300D01*
X1882Y1299D01*
X1881Y1298D01*
X1880Y1297D01*
X1880Y1296D01*
X1879Y1295D01*
X1879Y1294D01*
X1878Y1293D01*
X1878Y1292D01*
X1877Y1291D01*
X1876Y1290D01*
X1876Y1289D01*
X1875Y1288D01*
X1875Y1287D01*
X1874Y1286D01*
X1874Y1285D01*
X1873Y1284D01*
X1872Y1283D01*
X1872Y1282D01*
X1871Y1281D01*
X1871Y1280D01*
X1870Y1279D01*
X1869Y1278D01*
X1869Y1277D01*
X1868Y1276D01*
X1867Y1275D01*
X1867Y1274D01*
X1866Y1273D01*
X1865Y1272D01*
X1865Y1271D01*
X1864Y1270D01*
X1864Y1269D01*
X1863Y1268D01*
X1862Y1267D01*
X1862Y1266D01*
X1861Y1265D01*
X1860Y1264D01*
X1859Y1263D01*
X1859Y1262D01*
X1858Y1261D01*
X1857Y1260D01*
X1857Y1259D01*
X1856Y1258D01*
X1855Y1257D01*
X1854Y1256D01*
X1854Y1255D01*
X1853Y1254D01*
X1852Y1253D01*
X1852Y1252D01*
X1851Y1251D01*
X1850Y1250D01*
X1849Y1249D01*
X1848Y1248D01*
X1848Y1247D01*
X1847Y1246D01*
X1846Y1245D01*
X1845Y1244D01*
X1844Y1243D01*
X1844Y1242D01*
X1843Y1241D01*
X1842Y1240D01*
X1841Y1239D01*
X1840Y1238D01*
X1840Y1237D01*
X1839Y1236D01*
X1838Y1235D01*
X1837Y1234D01*
X1836Y1233D01*
X1835Y1232D01*
X1834Y1231D01*
X1833Y1230D01*
X1833Y1229D01*
X1832Y1228D01*
X1831Y1227D01*
X1830Y1226D01*
X1829Y1225D01*
X1828Y1224D01*
X1827Y1223D01*
X1826Y1222D01*
X1825Y1221D01*
X1824Y1220D01*
X1823Y1219D01*
X1822Y1218D01*
X1821Y1217D01*
X1820Y1216D01*
X1820Y1215D01*
X1819Y1214D01*
X1818Y1213D01*
X1817Y1212D01*
X1816Y1212D01*
X1815Y1211D01*
X1814Y1210D01*
X1813Y1209D01*
X1812Y1208D01*
X1811Y1207D01*
X1810Y1206D01*
X1809Y1205D01*
X1808Y1204D01*
X1807Y1203D01*
X1806Y1202D01*
X1805Y1201D01*
X1804Y1200D01*
X1803Y1199D01*
X1802Y1199D01*
X1801Y1198D01*
X1800Y1197D01*
X1799Y1196D01*
X1798Y1195D01*
X1797Y1194D01*
X1796Y1193D01*
X1795Y1192D01*
X1794Y1192D01*
X1793Y1191D01*
X1792Y1190D01*
X1791Y1189D01*
X1790Y1188D01*
X1789Y1188D01*
X1788Y1187D01*
X1787Y1186D01*
X1786Y1185D01*
X1785Y1184D01*
X1784Y1184D01*
X1783Y1183D01*
X1782Y1182D01*
X1781Y1181D01*
X1780Y1181D01*
X1779Y1180D01*
X1778Y1179D01*
X1777Y1178D01*
X1776Y1178D01*
X1775Y1177D01*
X1774Y1176D01*
X1773Y1176D01*
X1772Y1175D01*
X1771Y1174D01*
X1770Y1173D01*
X1769Y1173D01*
X1768Y1172D01*
X1767Y1171D01*
X1766Y1171D01*
X1765Y1170D01*
X1764Y1169D01*
X1763Y1169D01*
X1762Y1168D01*
X1761Y1167D01*
X1760Y1167D01*
X1759Y1166D01*
X1758Y1165D01*
X1757Y1165D01*
X1756Y1164D01*
X1755Y1163D01*
X1754Y1163D01*
X1753Y1162D01*
X1752Y1161D01*
X1751Y1161D01*
X1750Y1160D01*
X1749Y1160D01*
X1748Y1159D01*
X1747Y1158D01*
X1746Y1158D01*
X1745Y1157D01*
X1744Y1157D01*
X1743Y1156D01*
X1742Y1156D01*
X1741Y1155D01*
X1740Y1154D01*
X1739Y1154D01*
X1738Y1153D01*
X1737Y1153D01*
X1736Y1152D01*
X1735Y1152D01*
X1734Y1151D01*
X1733Y1151D01*
X1732Y1150D01*
X1731Y1150D01*
X1730Y1149D01*
X1729Y1149D01*
X1728Y1148D01*
X1727Y1147D01*
X1726Y1147D01*
X1725Y1146D01*
X1724Y1146D01*
X1723Y1145D01*
X1722Y1145D01*
X1721Y1144D01*
X1720Y1144D01*
X1719Y1143D01*
X1718Y1143D01*
X1717Y1143D01*
X1716Y1142D01*
X1715Y1142D01*
X1714Y1141D01*
X1713Y1141D01*
X1712Y1140D01*
X1711Y1140D01*
X1710Y1139D01*
X1709Y1139D01*
X1708Y1138D01*
X1707Y1138D01*
X1706Y1138D01*
X1705Y1137D01*
X1704Y1137D01*
X1703Y1136D01*
X1702Y1136D01*
X1701Y1135D01*
X1700Y1135D01*
X1699Y1135D01*
X1698Y1134D01*
X1697Y1134D01*
X1696Y1133D01*
X1695Y1133D01*
X1694Y1133D01*
X1693Y1132D01*
X1692Y1132D01*
X1691Y1131D01*
X1690Y1131D01*
X1689Y1131D01*
X1688Y1130D01*
X1687Y1130D01*
X1686Y1130D01*
X1685Y1129D01*
X1684Y1129D01*
X1683Y1129D01*
X1682Y1128D01*
X1681Y1128D01*
X1680Y1128D01*
X1679Y1127D01*
X1678Y1127D01*
X1677Y1127D01*
X1676Y1126D01*
X1675Y1126D01*
X1674Y1126D01*
X1673Y1125D01*
X1672Y1125D01*
X1671Y1125D01*
X1670Y1124D01*
X1669Y1124D01*
X1668Y1124D01*
X1667Y1123D01*
X1666Y1123D01*
X1665Y1123D01*
X1664Y1122D01*
X1663Y1122D01*
X1662Y1122D01*
X1661Y1122D01*
X1660Y1121D01*
X1659Y1121D01*
X1658Y1121D01*
X1657Y1120D01*
X1656Y1120D01*
X1655Y1120D01*
X1654Y1120D01*
X1653Y1119D01*
X1652Y1119D01*
X1651Y1119D01*
X1650Y1119D01*
X1649Y1118D01*
X1648Y1118D01*
X1647Y1118D01*
X1646Y1118D01*
X1645Y1117D01*
X1644Y1117D01*
X1643Y1117D01*
X1642Y1117D01*
X1641Y1117D01*
X1640Y1116D01*
X1639Y1116D01*
X1638Y1116D01*
X1637Y1116D01*
X1636Y1115D01*
X1635Y1115D01*
X1634Y1115D01*
X1633Y1115D01*
X1632Y1115D01*
X1631Y1114D01*
X1630Y1114D01*
X1629Y1114D01*
X1628Y1114D01*
X1627Y1114D01*
X1626Y1113D01*
X1625Y1113D01*
X1624Y1113D01*
X1623Y1113D01*
X1622Y1113D01*
X1621Y1113D01*
X1620Y1113D01*
X1619Y1112D01*
X1618Y1112D01*
X1617Y1112D01*
X1616Y1112D01*
X1615Y1112D01*
X1614Y1112D01*
X1613Y1111D01*
X1612Y1111D01*
X1611Y1111D01*
X1610Y1111D01*
X1609Y1111D01*
X1608Y1111D01*
X1607Y1111D01*
X1606Y1111D01*
X1605Y1110D01*
X1604Y1110D01*
X1603Y1110D01*
X1602Y1110D01*
X1601Y1110D01*
X1600Y1110D01*
X1599Y1110D01*
X1598Y1110D01*
X1597Y1110D01*
X1596Y1109D01*
X1595Y1109D01*
X1594Y1109D01*
X1593Y1109D01*
X1592Y1109D01*
X1591Y1109D01*
X1590Y1109D01*
X1589Y1109D01*
X1588Y1109D01*
X1587Y1109D01*
X1586Y1109D01*
X1585Y1109D01*
X1584Y1109D01*
X1583Y1109D01*
X1582Y1108D01*
X1581Y1108D01*
X1580Y1108D01*
X1579Y1108D01*
X1578Y1108D01*
X1577Y1108D01*
X1576Y1108D01*
X1575Y1108D01*
X1574Y1108D01*
X1573Y1108D01*
X1572Y1108D01*
X1571Y1108D01*
X1570Y1108D01*
X1569Y1108D01*
X1568Y1108D01*
X1567Y1108D01*
X1566Y1108D01*
X1565Y1108D01*
X1564Y1108D01*
X1563Y1108D01*
X1562Y1108D01*
X1561Y1108D01*
X1560Y1108D01*
X1559Y1108D01*
X1558Y1108D01*
X1557Y1108D01*
X1556Y1108D01*
X1555Y1108D01*
X1554Y1108D01*
X1553Y1108D01*
X1552Y1108D01*
X1551Y1108D01*
X1550Y1108D01*
X1549Y1108D01*
X1548Y1108D01*
X1547Y1108D01*
X1546Y1108D01*
X1545Y1108D01*
X1544Y1108D01*
X1543Y1108D01*
X1542Y1109D01*
X1541Y1109D01*
X1540Y1109D01*
X1539Y1109D01*
X1538Y1109D01*
X1537Y1109D01*
X1536Y1109D01*
X1535Y1109D01*
X1534Y1109D01*
X1533Y1109D01*
X1532Y1109D01*
X1531Y1109D01*
X1530Y1109D01*
X1529Y1109D01*
X1528Y1110D01*
X1527Y1110D01*
X1526Y1110D01*
X1525Y1110D01*
X1524Y1110D01*
X1523Y1110D01*
X1522Y1110D01*
X1521Y1110D01*
X1520Y1110D01*
X1519Y1111D01*
X1518Y1111D01*
X1517Y1111D01*
X1516Y1111D01*
X1515Y1111D01*
X1514Y1111D01*
X1513Y1111D01*
X1512Y1111D01*
X1511Y1112D01*
X1510Y1112D01*
X1509Y1112D01*
X1508Y1112D01*
X1507Y1112D01*
X1506Y1112D01*
X1505Y1112D01*
X1504Y1113D01*
X1503Y1113D01*
X1502Y1113D01*
X1501Y1113D01*
X1500Y1113D01*
X1499Y1113D01*
X1498Y1114D01*
X1497Y1114D01*
X1496Y1114D01*
X1495Y1114D01*
X1494Y1114D01*
X1493Y1115D01*
X1492Y1115D01*
X1491Y1115D01*
X1490Y1115D01*
X1489Y1115D01*
X1488Y1116D01*
X1487Y1116D01*
X1486Y1116D01*
X1485Y1116D01*
X1484Y1117D01*
X1483Y1117D01*
X1482Y1117D01*
X1481Y1117D01*
X1480Y1117D01*
X1479Y1118D01*
X1478Y1118D01*
X1477Y1118D01*
X1476Y1118D01*
X1475Y1119D01*
X1474Y1119D01*
X1473Y1119D01*
X1472Y1119D01*
X1471Y1120D01*
X1470Y1120D01*
X1469Y1120D01*
X1468Y1120D01*
X1467Y1121D01*
X1466Y1121D01*
X1465Y1121D01*
X1464Y1122D01*
X1463Y1122D01*
X1462Y1122D01*
X1461Y1122D01*
X1460Y1123D01*
X1459Y1123D01*
X1458Y1123D01*
X1457Y1124D01*
X1456Y1124D01*
X1455Y1124D01*
X1454Y1124D01*
X1453Y1125D01*
X1452Y1125D01*
X1451Y1125D01*
X1450Y1126D01*
X1449Y1126D01*
X1448Y1126D01*
X1447Y1127D01*
X1446Y1127D01*
X1445Y1128D01*
X1444Y1128D01*
X1443Y1128D01*
X1442Y1129D01*
X1441Y1129D01*
X1440Y1129D01*
X1439Y1130D01*
X1438Y1130D01*
X1437Y1130D01*
X1436Y1131D01*
X1435Y1131D01*
X1434Y1131D01*
X1433Y1132D01*
X1432Y1132D01*
X1431Y1133D01*
X1430Y1133D01*
X1429Y1133D01*
X1428Y1134D01*
X1427Y1134D01*
X1426Y1135D01*
X1425Y1135D01*
X1424Y1135D01*
X1423Y1136D01*
X1422Y1136D01*
X1421Y1137D01*
X1420Y1137D01*
X1419Y1138D01*
X1418Y1138D01*
X1417Y1138D01*
X1416Y1139D01*
X1415Y1139D01*
X1414Y1140D01*
X1413Y1140D01*
X1412Y1141D01*
X1411Y1141D01*
X1410Y1142D01*
X1409Y1142D01*
X1408Y1142D01*
X1407Y1143D01*
X1406Y1143D01*
X1405Y1144D01*
X1404Y1144D01*
X1403Y1145D01*
X1402Y1145D01*
X1401Y1146D01*
X1400Y1146D01*
X1399Y1147D01*
X1398Y1147D01*
X1397Y1148D01*
X1396Y1148D01*
X1395Y1149D01*
X1394Y1149D01*
X1393Y1150D01*
X1392Y1151D01*
X1391Y1151D01*
X1390Y1152D01*
X1389Y1152D01*
X1388Y1153D01*
X1387Y1153D01*
X1386Y1154D01*
X1385Y1154D01*
X1384Y1155D01*
X1383Y1156D01*
X1382Y1156D01*
X1381Y1157D01*
X1380Y1157D01*
X1379Y1158D01*
X1378Y1158D01*
X1377Y1159D01*
X1376Y1160D01*
X1375Y1160D01*
X1374Y1161D01*
X1373Y1161D01*
X1372Y1162D01*
X1371Y1163D01*
X1370Y1163D01*
X1369Y1164D01*
X1368Y1165D01*
X1367Y1165D01*
X1366Y1166D01*
X1365Y1167D01*
X1364Y1167D01*
X1363Y1168D01*
X1362Y1168D01*
X1361Y1169D01*
X1360Y1170D01*
X1359Y1170D01*
X1358Y1171D01*
X1357Y1172D01*
X1356Y1173D01*
X1355Y1173D01*
X1354Y1174D01*
X1353Y1175D01*
X1352Y1175D01*
X1351Y1176D01*
X1350Y1177D01*
X1349Y1178D01*
X1348Y1178D01*
X1347Y1179D01*
X1346Y1180D01*
X1345Y1180D01*
X1344Y1181D01*
X1343Y1182D01*
X1342Y1183D01*
X1341Y1184D01*
X1340Y1184D01*
X1339Y1185D01*
X1338Y1186D01*
X1337Y1187D01*
X1336Y1188D01*
X1335Y1188D01*
X1334Y1189D01*
X1333Y1190D01*
X1332Y1191D01*
X1331Y1192D01*
X1330Y1192D01*
X1329Y1193D01*
X1328Y1194D01*
X1327Y1195D01*
X1326Y1196D01*
X1325Y1197D01*
X1324Y1198D01*
X1323Y1198D01*
X1322Y1199D01*
X1321Y1200D01*
X1320Y1201D01*
X1319Y1202D01*
X1318Y1203D01*
X1317Y1204D01*
X1316Y1205D01*
X1315Y1206D01*
X1314Y1207D01*
X1313Y1208D01*
X1312Y1209D01*
X1311Y1210D01*
X1310Y1210D01*
X1309Y1211D01*
X1308Y1212D01*
X1307Y1213D01*
X1306Y1214D01*
X1305Y1215D01*
X1304Y1216D01*
X1303Y1217D01*
X1303Y1218D01*
X1302Y1219D01*
X1301Y1220D01*
X1300Y1221D01*
X1299Y1222D01*
X1298Y1223D01*
X1297Y1224D01*
X1296Y1225D01*
X1295Y1226D01*
X1294Y1227D01*
X1293Y1228D01*
X1292Y1229D01*
X1291Y1230D01*
X1291Y1231D01*
X1290Y1232D01*
X1289Y1233D01*
X1288Y1234D01*
X1287Y1235D01*
X1286Y1236D01*
X1285Y1237D01*
X1285Y1238D01*
X1284Y1239D01*
X1283Y1240D01*
X1282Y1241D01*
X1281Y1242D01*
X1280Y1243D01*
X1280Y1244D01*
X1279Y1245D01*
X1278Y1246D01*
X1277Y1247D01*
X1277Y1248D01*
X1276Y1249D01*
X1275Y1250D01*
X1274Y1251D01*
X1273Y1252D01*
X1273Y1253D01*
X1272Y1254D01*
X1271Y1255D01*
X1270Y1256D01*
X1270Y1257D01*
X1269Y1258D01*
X1268Y1259D01*
X1268Y1260D01*
X1267Y1261D01*
X1266Y1262D01*
X1266Y1263D01*
X1265Y1264D01*
X1264Y1265D01*
X1263Y1266D01*
X1263Y1267D01*
X1262Y1268D01*
X1261Y1269D01*
X1261Y1270D01*
X1260Y1271D01*
X1259Y1272D01*
X1259Y1273D01*
X1258Y1274D01*
X1258Y1275D01*
X1257Y1276D01*
X1256Y1277D01*
X1256Y1278D01*
X1255Y1279D01*
X1254Y1280D01*
X1254Y1281D01*
X1253Y1282D01*
X1252Y1283D01*
X1252Y1284D01*
X1251Y1285D01*
X1251Y1286D01*
X1250Y1287D01*
X1250Y1288D01*
X1249Y1289D01*
X1248Y1290D01*
X1248Y1291D01*
X1247Y1292D01*
X1247Y1293D01*
X1246Y1294D01*
X1246Y1295D01*
X1245Y1296D01*
X1244Y1297D01*
X1244Y1298D01*
X1243Y1299D01*
X1243Y1300D01*
X1242Y1301D01*
X1242Y1302D01*
X1241Y1303D01*
X1241Y1304D01*
X1240Y1305D01*
X1240Y1306D01*
X1239Y1307D01*
X1239Y1308D01*
X1238Y1309D01*
X1238Y1310D01*
X1237Y1311D01*
X1237Y1312D01*
X1236Y1313D01*
X1236Y1314D01*
X1235Y1315D01*
X1235Y1316D01*
X1234Y1317D01*
X1234Y1319D01*
X1233Y1320D01*
X1233Y1321D01*
X1232Y1322D01*
X1232Y1323D01*
X1231Y1324D01*
X1231Y1325D01*
X1230Y1326D01*
X1230Y1327D01*
X1229Y1328D01*
X1229Y1330D01*
X1228Y1331D01*
X1228Y1332D01*
X1227Y1333D01*
X1227Y1335D01*
X1226Y1336D01*
X1226Y1337D01*
X1225Y1338D01*
X1225Y1340D01*
X1224Y1341D01*
X1224Y1343D01*
X1223Y1344D01*
X1223Y1345D01*
X1222Y1346D01*
X1222Y1348D01*
X1221Y1349D01*
X1221Y1351D01*
X1220Y1352D01*
X1220Y1354D01*
X1219Y1355D01*
X1219Y1357D01*
X1218Y1358D01*
X1218Y1360D01*
X1217Y1361D01*
X1217Y1363D01*
X1216Y1364D01*
X1216Y1367D01*
X1215Y1368D01*
X1215Y1370D01*
X1214Y1371D01*
X1214Y1374D01*
X1213Y1375D01*
X1213Y1377D01*
X1212Y1378D01*
X1212Y1381D01*
X1211Y1382D01*
X1211Y1386D01*
X1210Y1387D01*
X1210Y1390D01*
X1209Y1391D01*
X1209Y1394D01*
X1208Y1395D01*
X1208Y1399D01*
X1207Y1400D01*
X1207Y1404D01*
X1206Y1405D01*
X1206Y1410D01*
X1205Y1411D01*
X1205Y1417D01*
X1204Y1418D01*
X1204Y1424D01*
X1203Y1425D01*
X1203Y1433D01*
X1202Y1434D01*
X1202Y1446D01*
X1201Y1447D01*
X1201Y1492D01*
X1202Y1493D01*
X1202Y1505D01*
X1203Y1506D01*
X1203Y1514D01*
X1204Y1515D01*
X1204Y1521D01*
X1205Y1522D01*
X1205Y1528D01*
X1206Y1529D01*
X1206Y1534D01*
X1207Y1535D01*
X1207Y1539D01*
X1208Y1540D01*
X1208Y1544D01*
X1209Y1545D01*
X1209Y1548D01*
X1210Y1549D01*
X1210Y1552D01*
X1211Y1553D01*
X1211Y1557D01*
X1212Y1558D01*
X1212Y1561D01*
X1213Y1562D01*
X1213Y1564D01*
X1214Y1565D01*
X1214Y1568D01*
X1215Y1569D01*
X1215Y1571D01*
X1216Y1572D01*
X1216Y1575D01*
X1217Y1576D01*
X1217Y1578D01*
X1218Y1579D01*
X1218Y1581D01*
X1219Y1582D01*
X1219Y1584D01*
X1220Y1585D01*
X1220Y1587D01*
X1221Y1588D01*
X1221Y1590D01*
X1222Y1591D01*
X1222Y1593D01*
X1223Y1594D01*
X1223Y1595D01*
X1224Y1596D01*
X1224Y1598D01*
X1225Y1599D01*
X1225Y1601D01*
X1226Y1602D01*
X1226Y1603D01*
X1227Y1604D01*
X1227Y1606D01*
X1228Y1607D01*
X1228Y1608D01*
X1229Y1609D01*
X1229Y1611D01*
X1230Y1612D01*
X1230Y1613D01*
X1231Y1614D01*
X1231Y1615D01*
X1232Y1616D01*
X1232Y1617D01*
X1233Y1618D01*
X1233Y1619D01*
X1234Y1620D01*
X1234Y1622D01*
X1235Y1623D01*
X1235Y1624D01*
X1236Y1625D01*
X1236Y1626D01*
X1237Y1627D01*
X1237Y1628D01*
X1238Y1629D01*
X1238Y1630D01*
X1239Y1631D01*
X1239Y1632D01*
X1240Y1633D01*
X1240Y1634D01*
X1241Y1635D01*
X1241Y1636D01*
X1242Y1637D01*
X1242Y1638D01*
X1243Y1639D01*
X1243Y1640D01*
X1244Y1641D01*
X1244Y1642D01*
X1245Y1643D01*
X1246Y1644D01*
X1246Y1645D01*
X1247Y1646D01*
X1247Y1647D01*
X1248Y1648D01*
X1248Y1649D01*
X1249Y1650D01*
X1250Y1651D01*
X1250Y1652D01*
X1251Y1653D01*
X1251Y1654D01*
X1252Y1655D01*
X1252Y1656D01*
X1253Y1657D01*
X1254Y1658D01*
X1254Y1659D01*
X1255Y1660D01*
X1256Y1661D01*
X1256Y1662D01*
X1257Y1663D01*
X1258Y1664D01*
X1258Y1665D01*
X1259Y1666D01*
X1259Y1667D01*
X1260Y1668D01*
X1261Y1669D01*
X1261Y1670D01*
X1262Y1671D01*
X1263Y1672D01*
X1263Y1673D01*
X1264Y1674D01*
X1265Y1675D01*
X1265Y1676D01*
X1266Y1677D01*
X1267Y1678D01*
X1268Y1679D01*
X1268Y1680D01*
X1269Y1681D01*
X1270Y1682D01*
X1270Y1683D01*
X1271Y1684D01*
X1272Y1685D01*
X1273Y1686D01*
X1273Y1687D01*
X1274Y1688D01*
X1275Y1689D01*
X1276Y1690D01*
X1277Y1691D01*
X1277Y1692D01*
X1278Y1693D01*
X1279Y1694D01*
X1280Y1695D01*
X1280Y1696D01*
X1281Y1697D01*
X1282Y1698D01*
X1283Y1699D01*
X1284Y1700D01*
X1284Y1701D01*
X1285Y1702D01*
X1286Y1703D01*
X1287Y1704D01*
X1288Y1705D01*
X1289Y1706D01*
X1290Y1707D01*
X1291Y1708D01*
X1291Y1709D01*
X1292Y1710D01*
X1293Y1711D01*
X1294Y1712D01*
X1295Y1713D01*
X1296Y1714D01*
X1297Y1715D01*
X1298Y1716D01*
X1299Y1717D01*
X1300Y1718D01*
X1301Y1719D01*
X1302Y1720D01*
X1303Y1721D01*
X1303Y1722D01*
X1304Y1723D01*
X1305Y1724D01*
X1306Y1725D01*
X1307Y1726D01*
X1308Y1727D01*
X1309Y1728D01*
X1310Y1729D01*
X1311Y1729D01*
X1312Y1730D01*
X1313Y1731D01*
X1314Y1732D01*
X1315Y1733D01*
X1316Y1734D01*
X1317Y1735D01*
X1318Y1736D01*
X1319Y1737D01*
X1320Y1738D01*
X1321Y1739D01*
X1322Y1740D01*
X1323Y1741D01*
X1324Y1741D01*
X1325Y1742D01*
X1326Y1743D01*
X1327Y1744D01*
X1328Y1745D01*
X1329Y1746D01*
X1330Y1747D01*
X1331Y1748D01*
X1332Y1748D01*
X1333Y1749D01*
X1334Y1750D01*
X1335Y1751D01*
X1336Y1752D01*
X1337Y1752D01*
X1338Y1753D01*
X1339Y1754D01*
X1340Y1755D01*
X1341Y1755D01*
X1342Y1756D01*
X1343Y1757D01*
X1344Y1758D01*
X1345Y1759D01*
X1346Y1759D01*
X1347Y1760D01*
X1348Y1761D01*
X1349Y1761D01*
X1350Y1762D01*
X1351Y1763D01*
X1352Y1764D01*
X1353Y1764D01*
X1354Y1765D01*
X1355Y1766D01*
X1356Y1766D01*
X1357Y1767D01*
X1358Y1768D01*
X1359Y1769D01*
X1360Y1769D01*
X1361Y1770D01*
X1362Y1771D01*
X1363Y1771D01*
X1364Y1772D01*
X1365Y1773D01*
X1366Y1773D01*
X1367Y1774D01*
X1368Y1774D01*
X1369Y1775D01*
X1370Y1776D01*
X1371Y1776D01*
X1372Y1777D01*
X1373Y1778D01*
X1374Y1778D01*
X1375Y1779D01*
X1376Y1779D01*
X1377Y1780D01*
X1378Y1781D01*
X1379Y1781D01*
X1380Y1782D01*
X1381Y1782D01*
X1382Y1783D01*
X1383Y1783D01*
X1384Y1784D01*
X1385Y1785D01*
X1386Y1785D01*
X1387Y1786D01*
X1388Y1786D01*
X1389Y1787D01*
X1390Y1788D01*
X1391Y1788D01*
X1392Y1789D01*
X1393Y1789D01*
X1394Y1790D01*
X1395Y1790D01*
X1396Y1791D01*
X1397Y1791D01*
X1398Y1792D01*
X1399Y1792D01*
X1400Y1793D01*
X1401Y1793D01*
X1402Y1794D01*
X1403Y1794D01*
X1404Y1795D01*
X1405Y1795D01*
X1406Y1796D01*
X1407Y1796D01*
X1408Y1797D01*
X1409Y1797D01*
X1410Y1797D01*
X1411Y1798D01*
X1412Y1798D01*
X1413Y1799D01*
X1414Y1799D01*
X1415Y1800D01*
X1416Y1800D01*
X1417Y1801D01*
X1418Y1801D01*
X1419Y1802D01*
X1420Y1802D01*
X1421Y1802D01*
X1422Y1803D01*
X1423Y1803D01*
X1424Y1804D01*
X1425Y1804D01*
X1426Y1804D01*
X1427Y1805D01*
X1428Y1805D01*
X1429Y1806D01*
X1430Y1806D01*
X1431Y1806D01*
X1432Y1807D01*
X1433Y1807D01*
X1434Y1808D01*
X1435Y1808D01*
X1436Y1808D01*
X1437Y1809D01*
X1438Y1809D01*
X1439Y1809D01*
X1440Y1810D01*
X1441Y1810D01*
X1442Y1811D01*
X1443Y1811D01*
X1444Y1811D01*
X1445Y1812D01*
X1446Y1812D01*
X1447Y1812D01*
X1448Y1813D01*
X1449Y1813D01*
X1450Y1813D01*
X1451Y1814D01*
X1452Y1814D01*
X1453Y1814D01*
X1454Y1815D01*
X1455Y1815D01*
X1456Y1815D01*
X1457Y1815D01*
X1458Y1816D01*
X1459Y1816D01*
X1460Y1816D01*
X1461Y1817D01*
X1462Y1817D01*
X1463Y1817D01*
X1464Y1817D01*
X1465Y1818D01*
X1466Y1818D01*
X1467Y1818D01*
X1468Y1819D01*
X1469Y1819D01*
X1470Y1819D01*
X1471Y1819D01*
X1472Y1820D01*
X1473Y1820D01*
X1474Y1820D01*
X1475Y1820D01*
X1476Y1821D01*
X1477Y1821D01*
X1478Y1821D01*
X1479Y1821D01*
X1480Y1822D01*
X1481Y1822D01*
X1482Y1822D01*
X1483Y1822D01*
X1484Y1822D01*
X1485Y1823D01*
X1486Y1823D01*
X1487Y1823D01*
X1488Y1823D01*
X1489Y1824D01*
X1490Y1824D01*
X1491Y1824D01*
X1492Y1824D01*
X1493Y1824D01*
X1494Y1825D01*
X1495Y1825D01*
X1496Y1825D01*
X1497Y1825D01*
X1498Y1825D01*
X1499Y1826D01*
X1500Y1826D01*
X1501Y1826D01*
X1502Y1826D01*
X1503Y1826D01*
X1504Y1826D01*
X1505Y1827D01*
X1506Y1827D01*
X1507Y1827D01*
X1508Y1827D01*
X1509Y1827D01*
X1510Y1827D01*
X1511Y1827D01*
X1512Y1828D01*
X1513Y1828D01*
X1514Y1828D01*
X1515Y1828D01*
X1516Y1828D01*
X1517Y1828D01*
X1518Y1828D01*
X1519Y1829D01*
X1520Y1829D01*
X1521Y1829D01*
X1522Y1829D01*
X1523Y1829D01*
X1524Y1829D01*
X1525Y1829D01*
X1526Y1829D01*
X1527Y1829D01*
X1528Y1829D01*
X1529Y1830D01*
X1530Y1830D01*
X1531Y1830D01*
X1532Y1830D01*
X1533Y1830D01*
X1534Y1830D01*
X1535Y1830D01*
X1536Y1830D01*
X1537Y1830D01*
X1538Y1830D01*
X1539Y1830D01*
X1540Y1830D01*
X1541Y1830D01*
X1542Y1831D01*
D02*
G04 End of contour*
M02*