; NON-PLATED HOLES START AT T1
; THROUGH (PLATED) HOLES START AT T100
M48
INCH
T1C0.098425
T2C0.106299
T3C0.035433
T4C0.086614
T100C0.043307
T101C0.039370
T102C0.100000
T103C0.015748
%
T1
X012511Y017834
X018808Y017833
T2
X001384Y020669
X024227Y020662
X001375Y001371
X024216Y001374
T3
X019941Y001689
X021673Y001689
T4
X012449Y011598
X018746Y011596
T100
X020277Y021168
X015277Y020168
X010277Y021168
X018277Y020168
X021277Y020168
X006277Y020168
X005277Y020168
X004277Y021168
X008277Y020168
X003277Y020168
X013277Y020168
X015277Y021168
X019277Y020168
X020277Y020168
X003277Y021168
X013277Y021168
X014277Y021168
X012277Y021168
X008277Y021168
X011277Y020168
X012277Y020168
X006277Y021168
X016277Y020168
X014277Y020168
X009277Y021168
X019277Y021168
X018277Y021168
X009277Y020168
X005277Y021168
X010277Y020168
X022277Y020168
X007277Y020168
X017277Y020168
X007277Y021168
X021277Y021168
X016277Y021168
X017277Y021168
X022277Y021168
X004277Y020168
X011277Y021168
T101
X002586Y013071
X002586Y016071
X002586Y003471
X021585Y011071
X002586Y007471
X021585Y009071
X002586Y012071
X021585Y016071
X021585Y008071
X021585Y012071
X002586Y004471
X002586Y017071
X002586Y014071
X002586Y006471
X021585Y015071
X002586Y008471
X023777Y019073
X021585Y017071
X021585Y007071
X021585Y019071
X002586Y002471
X021585Y014071
X002586Y019071
X021585Y005071
X021585Y010071
X002586Y010471
X021585Y006071
X002586Y015071
X023777Y011073
X002586Y009471
X002586Y005471
X023777Y018073
X002586Y018071
X021585Y018071
X023777Y012073
X002586Y001471
T102
X006875Y004271
X004975Y005471
X004975Y003071
T103
X008677Y001273
X017577Y000673
X020687Y006209
X013477Y008073
X008277Y010673
X018175Y006135
X010175Y013771
X003777Y014573
X009677Y009802
X008177Y011832
X017175Y009120
X010677Y013573
X009177Y009802
X007487Y014609
X008075Y005371
X016275Y002171
X007077Y019173
X016274Y005269
X010175Y014371
X007687Y009109
X010277Y011873
X003875Y003471
X020577Y008173
X013477Y008673
X018487Y008409
X013374Y007068
X009775Y013402
X004377Y019173
X016075Y003271
X014287Y003109
X010287Y005409
X008075Y006371
X022477Y003973
X018077Y003173
X008977Y012373
X007875Y014150
X018487Y007909
X009175Y012871
X008075Y007071
X021477Y004073
X008075Y014971
X023377Y003973
X020275Y004271
X008454Y015271
X013875Y006671
X005777Y010573
X020244Y007171
X009677Y012873
X014287Y003709
X010175Y014871
X017187Y006709
X016787Y008409
X015475Y005771
X018077Y002573
X007074Y011868
X009687Y004509
X015836Y001489
X007674Y009868
X015275Y006671
X023777Y009073
X020477Y003773
X007775Y015693
X007687Y008109
X008434Y009887
X018475Y004171
X011087Y009709
X012575Y001271
X010277Y010473
X008987Y004509
X020375Y007671
X010274Y006068
X004477Y009873
T00
M30
